<?xml version="1.0" encoding="UTF-8" standalone="no"?>
<!DOCTYPE svg PUBLIC "-//W3C//DTD SVG 1.1//EN"
 "http://www.w3.org/Graphics/SVG/1.1/DTD/svg11.dtd">
<!-- Generated by graphviz version 7.1.0 (20230121.1956)
 -->
<!-- Pages: 1 -->
<svg width="1328pt" height="654pt"
 viewBox="0.00 0.00 1328.19 654.44" xmlns="http://www.w3.org/2000/svg" xmlns:xlink="http://www.w3.org/1999/xlink">
<g id="graph0" class="graph" transform="scale(1 1) rotate(0) translate(4 650.44)">
<polygon fill="white" stroke="none" points="-4,4 -4,-650.44 1324.19,-650.44 1324.19,4 -4,4"/>
<!-- node0x600003d74b10 -->
<g id="node1" class="node">
<title>node0x600003d74b10</title>
<ellipse fill="none" stroke="black" cx="415.44" cy="-628.44" rx="69.59" ry="18"/>
<text text-anchor="middle" x="415.44" y="-624.74" font-family="Times,serif" font-size="14.00">GLOBAL_LIST</text>
</g>
<!-- node0x600003d74450 -->
<g id="node2" class="node">
<title>node0x600003d74450</title>
<ellipse fill="none" stroke="black" cx="344.44" cy="-556.44" rx="69.59" ry="18"/>
<text text-anchor="middle" x="344.44" y="-552.74" font-family="Times,serif" font-size="14.00">GLOBAL_LIST</text>
</g>
<!-- node0x600003d74b10&#45;&#45;node0x600003d74450 -->
<g id="edge1" class="edge">
<title>node0x600003d74b10&#45;&#45;node0x600003d74450</title>
<path fill="none" stroke="black" d="M398.61,-610.85C387.29,-599.69 372.44,-585.04 361.14,-573.91"/>
</g>
<!-- node0x600003d74ab0 -->
<g id="node11" class="node">
<title>node0x600003d74ab0</title>
<ellipse fill="none" stroke="black" cx="525.44" cy="-556.44" rx="55.49" ry="18"/>
<text text-anchor="middle" x="525.44" y="-552.74" font-family="Times,serif" font-size="14.00">FUNCTION</text>
</g>
<!-- node0x600003d74b10&#45;&#45;node0x600003d74ab0 -->
<g id="edge10" class="edge">
<title>node0x600003d74b10&#45;&#45;node0x600003d74ab0</title>
<path fill="none" stroke="black" d="M440.67,-611.38C458.82,-599.84 483.14,-584.36 501.08,-572.94"/>
</g>
<!-- node0x600003d743f0 -->
<g id="node3" class="node">
<title>node0x600003d743f0</title>
<ellipse fill="none" stroke="black" cx="205.44" cy="-475.57" rx="107.48" ry="18"/>
<text text-anchor="middle" x="205.44" y="-471.87" font-family="Times,serif" font-size="14.00">ARRAY_DECLARATION</text>
</g>
<!-- node0x600003d74450&#45;&#45;node0x600003d743f0 -->
<g id="edge2" class="edge">
<title>node0x600003d74450&#45;&#45;node0x600003d743f0</title>
<path fill="none" stroke="black" d="M316.64,-539.67C292.88,-526.18 258.78,-506.84 234.62,-493.13"/>
</g>
<!-- node0x600003d743c0 -->
<g id="node4" class="node">
<title>node0x600003d743c0</title>
<ellipse fill="none" stroke="black" cx="205.44" cy="-385.83" rx="89.08" ry="18"/>
<text text-anchor="middle" x="205.44" y="-382.13" font-family="Times,serif" font-size="14.00">ARRAY_INDEXING</text>
</g>
<!-- node0x600003d743f0&#45;&#45;node0x600003d743c0 -->
<g id="edge3" class="edge">
<title>node0x600003d743f0&#45;&#45;node0x600003d743c0</title>
<path fill="none" stroke="black" d="M205.44,-457.24C205.44,-441.85 205.44,-419.5 205.44,-404.13"/>
</g>
<!-- node0x600003d74210 -->
<g id="node5" class="node">
<title>node0x600003d74210</title>
<ellipse fill="none" stroke="black" cx="114.44" cy="-296.09" rx="94.51" ry="26.74"/>
<text text-anchor="middle" x="114.44" y="-299.89" font-family="Times,serif" font-size="14.00">IDENTIFIER_DATA</text>
<text text-anchor="middle" x="114.44" y="-284.89" font-family="Times,serif" font-size="14.00">array</text>
</g>
<!-- node0x600003d743c0&#45;&#45;node0x600003d74210 -->
<g id="edge4" class="edge">
<title>node0x600003d743c0&#45;&#45;node0x600003d74210</title>
<path fill="none" stroke="black" d="M187.89,-367.91C174.46,-354.97 155.73,-336.9 140.55,-322.26"/>
</g>
<!-- node0x600003d74390 -->
<g id="node6" class="node">
<title>node0x600003d74390</title>
<ellipse fill="none" stroke="black" cx="296.44" cy="-296.09" rx="69.09" ry="26.74"/>
<text text-anchor="middle" x="296.44" y="-299.89" font-family="Times,serif" font-size="14.00">EXPRESSION</text>
<text text-anchor="middle" x="296.44" y="-284.89" font-family="Times,serif" font-size="14.00">+</text>
</g>
<!-- node0x600003d743c0&#45;&#45;node0x600003d74390 -->
<g id="edge5" class="edge">
<title>node0x600003d743c0&#45;&#45;node0x600003d74390</title>
<path fill="none" stroke="black" d="M222.98,-367.91C236.72,-354.67 256.01,-336.07 271.38,-321.25"/>
</g>
<!-- node0x600003d74300 -->
<g id="node7" class="node">
<title>node0x600003d74300</title>
<ellipse fill="none" stroke="black" cx="184.44" cy="-206.35" rx="69.09" ry="26.74"/>
<text text-anchor="middle" x="184.44" y="-210.15" font-family="Times,serif" font-size="14.00">EXPRESSION</text>
<text text-anchor="middle" x="184.44" y="-195.15" font-family="Times,serif" font-size="14.00">*</text>
</g>
<!-- node0x600003d74390&#45;&#45;node0x600003d74300 -->
<g id="edge6" class="edge">
<title>node0x600003d74390&#45;&#45;node0x600003d74300</title>
<path fill="none" stroke="black" d="M266.42,-271.58C250.23,-258.89 230.3,-243.28 214.15,-230.62"/>
</g>
<!-- node0x600003d74330 -->
<g id="node10" class="node">
<title>node0x600003d74330</title>
<ellipse fill="none" stroke="black" cx="355.44" cy="-206.35" rx="83.38" ry="26.74"/>
<text text-anchor="middle" x="355.44" y="-210.15" font-family="Times,serif" font-size="14.00">NUMBER_DATA</text>
<text text-anchor="middle" x="355.44" y="-195.15" font-family="Times,serif" font-size="14.00">2</text>
</g>
<!-- node0x600003d74390&#45;&#45;node0x600003d74330 -->
<g id="edge9" class="edge">
<title>node0x600003d74390&#45;&#45;node0x600003d74330</title>
<path fill="none" stroke="black" d="M313.5,-269.71C321.26,-258.17 330.43,-244.54 338.21,-232.98"/>
</g>
<!-- node0x600003d74240 -->
<g id="node8" class="node">
<title>node0x600003d74240</title>
<ellipse fill="none" stroke="black" cx="83.44" cy="-116.61" rx="83.38" ry="26.74"/>
<text text-anchor="middle" x="83.44" y="-120.41" font-family="Times,serif" font-size="14.00">NUMBER_DATA</text>
<text text-anchor="middle" x="83.44" y="-105.41" font-family="Times,serif" font-size="14.00">10</text>
</g>
<!-- node0x600003d74300&#45;&#45;node0x600003d74240 -->
<g id="edge7" class="edge">
<title>node0x600003d74300&#45;&#45;node0x600003d74240</title>
<path fill="none" stroke="black" d="M156.84,-181.37C142.82,-169.2 125.82,-154.43 111.71,-142.17"/>
</g>
<!-- node0x600003d742a0 -->
<g id="node9" class="node">
<title>node0x600003d742a0</title>
<ellipse fill="none" stroke="black" cx="268.44" cy="-116.61" rx="83.38" ry="26.74"/>
<text text-anchor="middle" x="268.44" y="-120.41" font-family="Times,serif" font-size="14.00">NUMBER_DATA</text>
<text text-anchor="middle" x="268.44" y="-105.41" font-family="Times,serif" font-size="14.00">10</text>
</g>
<!-- node0x600003d74300&#45;&#45;node0x600003d742a0 -->
<g id="edge8" class="edge">
<title>node0x600003d74300&#45;&#45;node0x600003d742a0</title>
<path fill="none" stroke="black" d="M207.84,-180.91C219.29,-168.94 233.06,-154.56 244.58,-142.53"/>
</g>
<!-- node0x600003d74480 -->
<g id="node12" class="node">
<title>node0x600003d74480</title>
<ellipse fill="none" stroke="black" cx="425.44" cy="-475.57" rx="94.51" ry="26.74"/>
<text text-anchor="middle" x="425.44" y="-479.37" font-family="Times,serif" font-size="14.00">IDENTIFIER_DATA</text>
<text text-anchor="middle" x="425.44" y="-464.37" font-family="Times,serif" font-size="14.00">main</text>
</g>
<!-- node0x600003d74ab0&#45;&#45;node0x600003d74480 -->
<g id="edge11" class="edge">
<title>node0x600003d74ab0&#45;&#45;node0x600003d74480</title>
<path fill="none" stroke="black" d="M505.2,-539.48C491.28,-528.5 472.51,-513.69 456.68,-501.21"/>
</g>
<!-- node0x600003d74570 -->
<g id="node13" class="node">
<title>node0x600003d74570</title>
<ellipse fill="none" stroke="black" cx="625.44" cy="-475.57" rx="87.18" ry="18"/>
<text text-anchor="middle" x="625.44" y="-471.87" font-family="Times,serif" font-size="14.00">PARAMETER_LIST</text>
</g>
<!-- node0x600003d74ab0&#45;&#45;node0x600003d74570 -->
<g id="edge12" class="edge">
<title>node0x600003d74ab0&#45;&#45;node0x600003d74570</title>
<path fill="none" stroke="black" d="M545.68,-539.48C562.68,-526.07 586.91,-506.96 604.2,-493.32"/>
</g>
<!-- node0x600003d74a50 -->
<g id="node16" class="node">
<title>node0x600003d74a50</title>
<ellipse fill="none" stroke="black" cx="796.44" cy="-475.57" rx="40.09" ry="18"/>
<text text-anchor="middle" x="796.44" y="-471.87" font-family="Times,serif" font-size="14.00">BLOCK</text>
</g>
<!-- node0x600003d74ab0&#45;&#45;node0x600003d74a50 -->
<g id="edge15" class="edge">
<title>node0x600003d74ab0&#45;&#45;node0x600003d74a50</title>
<path fill="none" stroke="black" d="M568.5,-544.7C608.38,-534.53 669.21,-518.49 721.44,-502.44 736.18,-497.91 752.38,-492.39 765.94,-487.62"/>
</g>
<!-- node0x600003d744b0 -->
<g id="node14" class="node">
<title>node0x600003d744b0</title>
<ellipse fill="none" stroke="black" cx="417.44" cy="-385.83" rx="94.51" ry="26.74"/>
<text text-anchor="middle" x="417.44" y="-389.63" font-family="Times,serif" font-size="14.00">IDENTIFIER_DATA</text>
<text text-anchor="middle" x="417.44" y="-374.63" font-family="Times,serif" font-size="14.00">x</text>
</g>
<!-- node0x600003d74570&#45;&#45;node0x600003d744b0 -->
<g id="edge13" class="edge">
<title>node0x600003d74570&#45;&#45;node0x600003d744b0</title>
<path fill="none" stroke="black" d="M588.25,-458.88C555.07,-444.89 506.14,-424.25 469.15,-408.64"/>
</g>
<!-- node0x600003d74510 -->
<g id="node15" class="node">
<title>node0x600003d74510</title>
<ellipse fill="none" stroke="black" cx="625.44" cy="-385.83" rx="94.51" ry="26.74"/>
<text text-anchor="middle" x="625.44" y="-389.63" font-family="Times,serif" font-size="14.00">IDENTIFIER_DATA</text>
<text text-anchor="middle" x="625.44" y="-374.63" font-family="Times,serif" font-size="14.00">y</text>
</g>
<!-- node0x600003d74570&#45;&#45;node0x600003d74510 -->
<g id="edge14" class="edge">
<title>node0x600003d74570&#45;&#45;node0x600003d74510</title>
<path fill="none" stroke="black" d="M625.44,-457.24C625.44,-444.55 625.44,-427.12 625.44,-412.78"/>
</g>
<!-- node0x600003d74a20 -->
<g id="node17" class="node">
<title>node0x600003d74a20</title>
<ellipse fill="none" stroke="black" cx="823.44" cy="-385.83" rx="85.29" ry="18"/>
<text text-anchor="middle" x="823.44" y="-382.13" font-family="Times,serif" font-size="14.00">STATEMENT_LIST</text>
</g>
<!-- node0x600003d74a50&#45;&#45;node0x600003d74a20 -->
<g id="edge16" class="edge">
<title>node0x600003d74a50&#45;&#45;node0x600003d74a20</title>
<path fill="none" stroke="black" d="M801.77,-457.24C806.51,-441.85 813.39,-419.5 818.12,-404.13"/>
</g>
<!-- node0x600003d746c0 -->
<g id="node18" class="node">
<title>node0x600003d746c0</title>
<ellipse fill="none" stroke="black" cx="772.44" cy="-296.09" rx="124.28" ry="18"/>
<text text-anchor="middle" x="772.44" y="-292.39" font-family="Times,serif" font-size="14.00">ASSIGNMENT_STATEMENT</text>
</g>
<!-- node0x600003d74a20&#45;&#45;node0x600003d746c0 -->
<g id="edge17" class="edge">
<title>node0x600003d74a20&#45;&#45;node0x600003d746c0</title>
<path fill="none" stroke="black" d="M813.36,-367.5C804.42,-352.11 791.43,-329.76 782.49,-314.39"/>
</g>
<!-- node0x600003d749c0 -->
<g id="node23" class="node">
<title>node0x600003d749c0</title>
<ellipse fill="none" stroke="black" cx="1006.44" cy="-296.09" rx="92.08" ry="18"/>
<text text-anchor="middle" x="1006.44" y="-292.39" font-family="Times,serif" font-size="14.00">PRINT_STATEMENT</text>
</g>
<!-- node0x600003d74a20&#45;&#45;node0x600003d749c0 -->
<g id="edge22" class="edge">
<title>node0x600003d74a20&#45;&#45;node0x600003d749c0</title>
<path fill="none" stroke="black" d="M856.58,-368.94C889.44,-353.19 939.52,-329.17 972.62,-313.31"/>
</g>
<!-- node0x600003d74630 -->
<g id="node19" class="node">
<title>node0x600003d74630</title>
<ellipse fill="none" stroke="black" cx="592.44" cy="-206.35" rx="89.08" ry="18"/>
<text text-anchor="middle" x="592.44" y="-202.65" font-family="Times,serif" font-size="14.00">ARRAY_INDEXING</text>
</g>
<!-- node0x600003d746c0&#45;&#45;node0x600003d74630 -->
<g id="edge18" class="edge">
<title>node0x600003d746c0&#45;&#45;node0x600003d74630</title>
<path fill="none" stroke="black" d="M738.16,-278.38C705.72,-262.57 657.36,-239 625.38,-223.41"/>
</g>
<!-- node0x600003d74660 -->
<g id="node22" class="node">
<title>node0x600003d74660</title>
<ellipse fill="none" stroke="black" cx="782.44" cy="-206.35" rx="83.38" ry="26.74"/>
<text text-anchor="middle" x="782.44" y="-210.15" font-family="Times,serif" font-size="14.00">NUMBER_DATA</text>
<text text-anchor="middle" x="782.44" y="-195.15" font-family="Times,serif" font-size="14.00">20</text>
</g>
<!-- node0x600003d746c0&#45;&#45;node0x600003d74660 -->
<g id="edge21" class="edge">
<title>node0x600003d746c0&#45;&#45;node0x600003d74660</title>
<path fill="none" stroke="black" d="M774.41,-277.76C775.86,-265.07 777.85,-247.64 779.48,-233.3"/>
</g>
<!-- node0x600003d745a0 -->
<g id="node20" class="node">
<title>node0x600003d745a0</title>
<ellipse fill="none" stroke="black" cx="546.44" cy="-116.61" rx="94.51" ry="26.74"/>
<text text-anchor="middle" x="546.44" y="-120.41" font-family="Times,serif" font-size="14.00">IDENTIFIER_DATA</text>
<text text-anchor="middle" x="546.44" y="-105.41" font-family="Times,serif" font-size="14.00">array</text>
</g>
<!-- node0x600003d74630&#45;&#45;node0x600003d745a0 -->
<g id="edge19" class="edge">
<title>node0x600003d74630&#45;&#45;node0x600003d745a0</title>
<path fill="none" stroke="black" d="M583.35,-188.02C576.7,-175.33 567.56,-157.9 560.04,-143.56"/>
</g>
<!-- node0x600003d745d0 -->
<g id="node21" class="node">
<title>node0x600003d745d0</title>
<ellipse fill="none" stroke="black" cx="742.44" cy="-116.61" rx="83.38" ry="26.74"/>
<text text-anchor="middle" x="742.44" y="-120.41" font-family="Times,serif" font-size="14.00">NUMBER_DATA</text>
<text text-anchor="middle" x="742.44" y="-105.41" font-family="Times,serif" font-size="14.00">2</text>
</g>
<!-- node0x600003d74630&#45;&#45;node0x600003d745d0 -->
<g id="edge20" class="edge">
<title>node0x600003d74630&#45;&#45;node0x600003d745d0</title>
<path fill="none" stroke="black" d="M620.65,-188.85C643.99,-175.2 677.39,-155.66 703.31,-140.5"/>
</g>
<!-- node0x600003d74750 -->
<g id="node24" class="node">
<title>node0x600003d74750</title>
<ellipse fill="none" stroke="black" cx="997.44" cy="-206.35" rx="94.51" ry="26.74"/>
<text text-anchor="middle" x="997.44" y="-210.15" font-family="Times,serif" font-size="14.00">IDENTIFIER_DATA</text>
<text text-anchor="middle" x="997.44" y="-195.15" font-family="Times,serif" font-size="14.00">array</text>
</g>
<!-- node0x600003d749c0&#45;&#45;node0x600003d74750 -->
<g id="edge23" class="edge">
<title>node0x600003d749c0&#45;&#45;node0x600003d74750</title>
<path fill="none" stroke="black" d="M1004.66,-277.76C1003.36,-265.07 1001.57,-247.64 1000.1,-233.3"/>
</g>
<!-- node0x600003d748d0 -->
<g id="node25" class="node">
<title>node0x600003d748d0</title>
<ellipse fill="none" stroke="black" cx="1179.44" cy="-206.35" rx="69.09" ry="26.74"/>
<text text-anchor="middle" x="1179.44" y="-210.15" font-family="Times,serif" font-size="14.00">EXPRESSION</text>
<text text-anchor="middle" x="1179.44" y="-195.15" font-family="Times,serif" font-size="14.00">+</text>
</g>
<!-- node0x600003d749c0&#45;&#45;node0x600003d748d0 -->
<g id="edge24" class="edge">
<title>node0x600003d749c0&#45;&#45;node0x600003d748d0</title>
<path fill="none" stroke="black" d="M1038.57,-278.79C1066.72,-264.52 1107.77,-243.7 1138.3,-228.21"/>
</g>
<!-- node0x600003d74810 -->
<g id="node26" class="node">
<title>node0x600003d74810</title>
<ellipse fill="none" stroke="black" cx="1023.44" cy="-116.61" rx="89.08" ry="18"/>
<text text-anchor="middle" x="1023.44" y="-112.91" font-family="Times,serif" font-size="14.00">ARRAY_INDEXING</text>
</g>
<!-- node0x600003d748d0&#45;&#45;node0x600003d74810 -->
<g id="edge25" class="edge">
<title>node0x600003d748d0&#45;&#45;node0x600003d74810</title>
<path fill="none" stroke="black" d="M1141.28,-183.89C1113.86,-168.46 1077.45,-147.99 1052.4,-133.9"/>
</g>
<!-- node0x600003d74870 -->
<g id="node29" class="node">
<title>node0x600003d74870</title>
<ellipse fill="none" stroke="black" cx="1225.44" cy="-116.61" rx="94.51" ry="26.74"/>
<text text-anchor="middle" x="1225.44" y="-120.41" font-family="Times,serif" font-size="14.00">IDENTIFIER_DATA</text>
<text text-anchor="middle" x="1225.44" y="-105.41" font-family="Times,serif" font-size="14.00">y</text>
</g>
<!-- node0x600003d748d0&#45;&#45;node0x600003d74870 -->
<g id="edge28" class="edge">
<title>node0x600003d748d0&#45;&#45;node0x600003d74870</title>
<path fill="none" stroke="black" d="M1192.74,-179.97C1198.74,-168.53 1205.81,-155.04 1211.84,-143.54"/>
</g>
<!-- node0x600003d74780 -->
<g id="node27" class="node">
<title>node0x600003d74780</title>
<ellipse fill="none" stroke="black" cx="919.44" cy="-26.87" rx="94.51" ry="26.74"/>
<text text-anchor="middle" x="919.44" y="-30.67" font-family="Times,serif" font-size="14.00">IDENTIFIER_DATA</text>
<text text-anchor="middle" x="919.44" y="-15.67" font-family="Times,serif" font-size="14.00">array</text>
</g>
<!-- node0x600003d74810&#45;&#45;node0x600003d74780 -->
<g id="edge26" class="edge">
<title>node0x600003d74810&#45;&#45;node0x600003d74780</title>
<path fill="none" stroke="black" d="M1003.39,-98.69C987.92,-85.65 966.3,-67.41 948.88,-52.7"/>
</g>
<!-- node0x600003d747b0 -->
<g id="node28" class="node">
<title>node0x600003d747b0</title>
<ellipse fill="none" stroke="black" cx="1127.44" cy="-26.87" rx="94.51" ry="26.74"/>
<text text-anchor="middle" x="1127.44" y="-30.67" font-family="Times,serif" font-size="14.00">IDENTIFIER_DATA</text>
<text text-anchor="middle" x="1127.44" y="-15.67" font-family="Times,serif" font-size="14.00">x</text>
</g>
<!-- node0x600003d74810&#45;&#45;node0x600003d747b0 -->
<g id="edge27" class="edge">
<title>node0x600003d74810&#45;&#45;node0x600003d747b0</title>
<path fill="none" stroke="black" d="M1043.49,-98.69C1058.96,-85.65 1080.58,-67.41 1098,-52.7"/>
</g>
</g>
</svg>
