<?xml version="1.0" encoding="UTF-8" standalone="no"?>
<!DOCTYPE svg PUBLIC "-//W3C//DTD SVG 1.1//EN"
 "http://www.w3.org/Graphics/SVG/1.1/DTD/svg11.dtd">
<!-- Generated by graphviz version 7.1.0 (20230121.1956)
 -->
<!-- Pages: 1 -->
<svg width="1288pt" height="834pt"
 viewBox="0.00 0.00 1287.50 833.92" xmlns="http://www.w3.org/2000/svg" xmlns:xlink="http://www.w3.org/1999/xlink">
<g id="graph0" class="graph" transform="scale(1 1) rotate(0) translate(4 829.92)">
<polygon fill="white" stroke="none" points="-4,4 -4,-829.92 1283.5,-829.92 1283.5,4 -4,4"/>
<!-- node0x60000144cb10 -->
<g id="node1" class="node">
<title>node0x60000144cb10</title>
<ellipse fill="none" stroke="black" cx="336.75" cy="-807.92" rx="69.59" ry="18"/>
<text text-anchor="middle" x="336.75" y="-804.22" font-family="Times,serif" font-size="14.00">GLOBAL_LIST</text>
</g>
<!-- node0x60000144c450 -->
<g id="node2" class="node">
<title>node0x60000144c450</title>
<ellipse fill="none" stroke="black" cx="265.75" cy="-735.92" rx="69.59" ry="18"/>
<text text-anchor="middle" x="265.75" y="-732.22" font-family="Times,serif" font-size="14.00">GLOBAL_LIST</text>
</g>
<!-- node0x60000144cb10&#45;&#45;node0x60000144c450 -->
<g id="edge1" class="edge">
<title>node0x60000144cb10&#45;&#45;node0x60000144c450</title>
<path fill="none" stroke="black" d="M319.93,-790.33C308.61,-779.17 293.75,-764.52 282.46,-753.39"/>
</g>
<!-- node0x60000144cab0 -->
<g id="node11" class="node">
<title>node0x60000144cab0</title>
<ellipse fill="none" stroke="black" cx="446.75" cy="-735.92" rx="55.49" ry="18"/>
<text text-anchor="middle" x="446.75" y="-732.22" font-family="Times,serif" font-size="14.00">FUNCTION</text>
</g>
<!-- node0x60000144cb10&#45;&#45;node0x60000144cab0 -->
<g id="edge10" class="edge">
<title>node0x60000144cb10&#45;&#45;node0x60000144cab0</title>
<path fill="none" stroke="black" d="M361.99,-790.86C380.13,-779.32 404.45,-763.84 422.39,-752.42"/>
</g>
<!-- node0x60000144c3f0 -->
<g id="node3" class="node">
<title>node0x60000144c3f0</title>
<ellipse fill="none" stroke="black" cx="131.75" cy="-655.05" rx="107.48" ry="18"/>
<text text-anchor="middle" x="131.75" y="-651.35" font-family="Times,serif" font-size="14.00">ARRAY_DECLARATION</text>
</g>
<!-- node0x60000144c450&#45;&#45;node0x60000144c3f0 -->
<g id="edge2" class="edge">
<title>node0x60000144c450&#45;&#45;node0x60000144c3f0</title>
<path fill="none" stroke="black" d="M238.64,-718.96C215.85,-705.55 183.38,-686.44 160.22,-672.8"/>
</g>
<!-- node0x60000144c3c0 -->
<g id="node4" class="node">
<title>node0x60000144c3c0</title>
<ellipse fill="none" stroke="black" cx="131.75" cy="-565.31" rx="89.08" ry="18"/>
<text text-anchor="middle" x="131.75" y="-561.61" font-family="Times,serif" font-size="14.00">ARRAY_INDEXING</text>
</g>
<!-- node0x60000144c3f0&#45;&#45;node0x60000144c3c0 -->
<g id="edge3" class="edge">
<title>node0x60000144c3f0&#45;&#45;node0x60000144c3c0</title>
<path fill="none" stroke="black" d="M131.75,-636.72C131.75,-621.33 131.75,-598.98 131.75,-583.61"/>
</g>
<!-- node0x60000144c210 -->
<g id="node5" class="node">
<title>node0x60000144c210</title>
<ellipse fill="none" stroke="black" cx="94.75" cy="-475.57" rx="94.51" ry="26.74"/>
<text text-anchor="middle" x="94.75" y="-479.37" font-family="Times,serif" font-size="14.00">IDENTIFIER_DATA</text>
<text text-anchor="middle" x="94.75" y="-464.37" font-family="Times,serif" font-size="14.00">array</text>
</g>
<!-- node0x60000144c3c0&#45;&#45;node0x60000144c210 -->
<g id="edge4" class="edge">
<title>node0x60000144c3c0&#45;&#45;node0x60000144c210</title>
<path fill="none" stroke="black" d="M124.44,-546.98C119.09,-534.29 111.74,-516.86 105.7,-502.52"/>
</g>
<!-- node0x60000144c390 -->
<g id="node6" class="node">
<title>node0x60000144c390</title>
<ellipse fill="none" stroke="black" cx="276.75" cy="-475.57" rx="69.09" ry="26.74"/>
<text text-anchor="middle" x="276.75" y="-479.37" font-family="Times,serif" font-size="14.00">EXPRESSION</text>
<text text-anchor="middle" x="276.75" y="-464.37" font-family="Times,serif" font-size="14.00">+</text>
</g>
<!-- node0x60000144c3c0&#45;&#45;node0x60000144c390 -->
<g id="edge5" class="edge">
<title>node0x60000144c3c0&#45;&#45;node0x60000144c390</title>
<path fill="none" stroke="black" d="M159.03,-547.81C182,-533.91 215.05,-513.91 240.29,-498.63"/>
</g>
<!-- node0x60000144c300 -->
<g id="node7" class="node">
<title>node0x60000144c300</title>
<ellipse fill="none" stroke="black" cx="258.75" cy="-385.83" rx="69.09" ry="26.74"/>
<text text-anchor="middle" x="258.75" y="-389.63" font-family="Times,serif" font-size="14.00">EXPRESSION</text>
<text text-anchor="middle" x="258.75" y="-374.63" font-family="Times,serif" font-size="14.00">*</text>
</g>
<!-- node0x60000144c390&#45;&#45;node0x60000144c300 -->
<g id="edge6" class="edge">
<title>node0x60000144c390&#45;&#45;node0x60000144c300</title>
<path fill="none" stroke="black" d="M271.45,-448.72C269.13,-437.4 266.41,-424.14 264.08,-412.8"/>
</g>
<!-- node0x60000144c330 -->
<g id="node10" class="node">
<title>node0x60000144c330</title>
<ellipse fill="none" stroke="black" cx="429.75" cy="-385.83" rx="83.38" ry="26.74"/>
<text text-anchor="middle" x="429.75" y="-389.63" font-family="Times,serif" font-size="14.00">NUMBER_DATA</text>
<text text-anchor="middle" x="429.75" y="-374.63" font-family="Times,serif" font-size="14.00">2</text>
</g>
<!-- node0x60000144c390&#45;&#45;node0x60000144c330 -->
<g id="edge9" class="edge">
<title>node0x60000144c390&#45;&#45;node0x60000144c330</title>
<path fill="none" stroke="black" d="M314.57,-452.88C337.49,-439.74 366.7,-422.99 389.96,-409.65"/>
</g>
<!-- node0x60000144c240 -->
<g id="node8" class="node">
<title>node0x60000144c240</title>
<ellipse fill="none" stroke="black" cx="225.75" cy="-296.09" rx="83.38" ry="26.74"/>
<text text-anchor="middle" x="225.75" y="-299.89" font-family="Times,serif" font-size="14.00">NUMBER_DATA</text>
<text text-anchor="middle" x="225.75" y="-284.89" font-family="Times,serif" font-size="14.00">10</text>
</g>
<!-- node0x60000144c300&#45;&#45;node0x60000144c240 -->
<g id="edge7" class="edge">
<title>node0x60000144c300&#45;&#45;node0x60000144c240</title>
<path fill="none" stroke="black" d="M249.03,-358.98C244.77,-347.66 239.78,-334.4 235.52,-323.06"/>
</g>
<!-- node0x60000144c2a0 -->
<g id="node9" class="node">
<title>node0x60000144c2a0</title>
<ellipse fill="none" stroke="black" cx="410.75" cy="-296.09" rx="83.38" ry="26.74"/>
<text text-anchor="middle" x="410.75" y="-299.89" font-family="Times,serif" font-size="14.00">NUMBER_DATA</text>
<text text-anchor="middle" x="410.75" y="-284.89" font-family="Times,serif" font-size="14.00">10</text>
</g>
<!-- node0x60000144c300&#45;&#45;node0x60000144c2a0 -->
<g id="edge8" class="edge">
<title>node0x60000144c300&#45;&#45;node0x60000144c2a0</title>
<path fill="none" stroke="black" d="M296.33,-363.14C319.01,-350.05 347.89,-333.38 370.96,-320.06"/>
</g>
<!-- node0x60000144c480 -->
<g id="node12" class="node">
<title>node0x60000144c480</title>
<ellipse fill="none" stroke="black" cx="351.75" cy="-655.05" rx="94.51" ry="26.74"/>
<text text-anchor="middle" x="351.75" y="-658.85" font-family="Times,serif" font-size="14.00">IDENTIFIER_DATA</text>
<text text-anchor="middle" x="351.75" y="-643.85" font-family="Times,serif" font-size="14.00">main</text>
</g>
<!-- node0x60000144cab0&#45;&#45;node0x60000144c480 -->
<g id="edge11" class="edge">
<title>node0x60000144cab0&#45;&#45;node0x60000144c480</title>
<path fill="none" stroke="black" d="M427.53,-718.96C414.3,-707.98 396.47,-693.18 381.43,-680.69"/>
</g>
<!-- node0x60000144c540 -->
<g id="node13" class="node">
<title>node0x60000144c540</title>
<ellipse fill="none" stroke="black" cx="541.75" cy="-655.05" rx="77.19" ry="18"/>
<text text-anchor="middle" x="541.75" y="-651.35" font-family="Times,serif" font-size="14.00">VARIABLE_LIST</text>
</g>
<!-- node0x60000144cab0&#45;&#45;node0x60000144c540 -->
<g id="edge12" class="edge">
<title>node0x60000144cab0&#45;&#45;node0x60000144c540</title>
<path fill="none" stroke="black" d="M465.98,-718.96C482.13,-705.55 505.15,-686.44 521.57,-672.8"/>
</g>
<!-- node0x60000144ca80 -->
<g id="node15" class="node">
<title>node0x60000144ca80</title>
<ellipse fill="none" stroke="black" cx="699.75" cy="-655.05" rx="62.29" ry="18"/>
<text text-anchor="middle" x="699.75" y="-651.35" font-family="Times,serif" font-size="14.00">STATEMENT</text>
</g>
<!-- node0x60000144cab0&#45;&#45;node0x60000144ca80 -->
<g id="edge14" class="edge">
<title>node0x60000144cab0&#45;&#45;node0x60000144ca80</title>
<path fill="none" stroke="black" d="M487.94,-723.62C524.77,-713.34 580.12,-697.44 627.75,-681.92 639.12,-678.22 651.39,-673.92 662.53,-669.91"/>
</g>
<!-- node0x60000144c510 -->
<g id="node14" class="node">
<title>node0x60000144c510</title>
<ellipse fill="none" stroke="black" cx="541.75" cy="-565.31" rx="94.51" ry="26.74"/>
<text text-anchor="middle" x="541.75" y="-569.11" font-family="Times,serif" font-size="14.00">IDENTIFIER_DATA</text>
<text text-anchor="middle" x="541.75" y="-554.11" font-family="Times,serif" font-size="14.00">y</text>
</g>
<!-- node0x60000144c540&#45;&#45;node0x60000144c510 -->
<g id="edge13" class="edge">
<title>node0x60000144c540&#45;&#45;node0x60000144c510</title>
<path fill="none" stroke="black" d="M541.75,-636.72C541.75,-624.03 541.75,-606.6 541.75,-592.26"/>
</g>
<!-- node0x60000144ca50 -->
<g id="node16" class="node">
<title>node0x60000144ca50</title>
<ellipse fill="none" stroke="black" cx="699.75" cy="-565.31" rx="40.09" ry="18"/>
<text text-anchor="middle" x="699.75" y="-561.61" font-family="Times,serif" font-size="14.00">BLOCK</text>
</g>
<!-- node0x60000144ca80&#45;&#45;node0x60000144ca50 -->
<g id="edge15" class="edge">
<title>node0x60000144ca80&#45;&#45;node0x60000144ca50</title>
<path fill="none" stroke="black" d="M699.75,-636.72C699.75,-621.33 699.75,-598.98 699.75,-583.61"/>
</g>
<!-- node0x60000144ca20 -->
<g id="node17" class="node">
<title>node0x60000144ca20</title>
<ellipse fill="none" stroke="black" cx="699.75" cy="-475.57" rx="85.29" ry="18"/>
<text text-anchor="middle" x="699.75" y="-471.87" font-family="Times,serif" font-size="14.00">STATEMENT_LIST</text>
</g>
<!-- node0x60000144ca50&#45;&#45;node0x60000144ca20 -->
<g id="edge16" class="edge">
<title>node0x60000144ca50&#45;&#45;node0x60000144ca20</title>
<path fill="none" stroke="black" d="M699.75,-546.98C699.75,-531.59 699.75,-509.24 699.75,-493.87"/>
</g>
<!-- node0x60000144c720 -->
<g id="node18" class="node">
<title>node0x60000144c720</title>
<ellipse fill="none" stroke="black" cx="658.75" cy="-385.83" rx="85.29" ry="18"/>
<text text-anchor="middle" x="658.75" y="-382.13" font-family="Times,serif" font-size="14.00">STATEMENT_LIST</text>
</g>
<!-- node0x60000144ca20&#45;&#45;node0x60000144c720 -->
<g id="edge17" class="edge">
<title>node0x60000144ca20&#45;&#45;node0x60000144c720</title>
<path fill="none" stroke="black" d="M691.65,-457.24C684.46,-441.85 674.02,-419.5 666.84,-404.13"/>
</g>
<!-- node0x60000144c9f0 -->
<g id="node25" class="node">
<title>node0x60000144c9f0</title>
<ellipse fill="none" stroke="black" cx="859.75" cy="-385.83" rx="62.29" ry="18"/>
<text text-anchor="middle" x="859.75" y="-382.13" font-family="Times,serif" font-size="14.00">STATEMENT</text>
</g>
<!-- node0x60000144ca20&#45;&#45;node0x60000144c9f0 -->
<g id="edge24" class="edge">
<title>node0x60000144ca20&#45;&#45;node0x60000144c9f0</title>
<path fill="none" stroke="black" d="M729.47,-458.27C758.66,-442.27 802.87,-418.02 831.53,-402.3"/>
</g>
<!-- node0x60000144c6f0 -->
<g id="node19" class="node">
<title>node0x60000144c6f0</title>
<ellipse fill="none" stroke="black" cx="649.75" cy="-296.09" rx="62.29" ry="18"/>
<text text-anchor="middle" x="649.75" y="-292.39" font-family="Times,serif" font-size="14.00">STATEMENT</text>
</g>
<!-- node0x60000144c720&#45;&#45;node0x60000144c6f0 -->
<g id="edge18" class="edge">
<title>node0x60000144c720&#45;&#45;node0x60000144c6f0</title>
<path fill="none" stroke="black" d="M656.97,-367.5C655.4,-352.11 653.1,-329.76 651.53,-314.39"/>
</g>
<!-- node0x60000144c6c0 -->
<g id="node20" class="node">
<title>node0x60000144c6c0</title>
<ellipse fill="none" stroke="black" cx="631.75" cy="-206.35" rx="124.28" ry="18"/>
<text text-anchor="middle" x="631.75" y="-202.65" font-family="Times,serif" font-size="14.00">ASSIGNMENT_STATEMENT</text>
</g>
<!-- node0x60000144c6f0&#45;&#45;node0x60000144c6c0 -->
<g id="edge19" class="edge">
<title>node0x60000144c6f0&#45;&#45;node0x60000144c6c0</title>
<path fill="none" stroke="black" d="M646.2,-277.76C643.04,-262.37 638.45,-240.02 635.3,-224.65"/>
</g>
<!-- node0x60000144c630 -->
<g id="node21" class="node">
<title>node0x60000144c630</title>
<ellipse fill="none" stroke="black" cx="550.75" cy="-116.61" rx="89.08" ry="18"/>
<text text-anchor="middle" x="550.75" y="-112.91" font-family="Times,serif" font-size="14.00">ARRAY_INDEXING</text>
</g>
<!-- node0x60000144c6c0&#45;&#45;node0x60000144c630 -->
<g id="edge20" class="edge">
<title>node0x60000144c6c0&#45;&#45;node0x60000144c630</title>
<path fill="none" stroke="black" d="M615.75,-188.02C601.46,-172.53 580.64,-149.99 566.45,-134.61"/>
</g>
<!-- node0x60000144c660 -->
<g id="node24" class="node">
<title>node0x60000144c660</title>
<ellipse fill="none" stroke="black" cx="740.75" cy="-116.61" rx="83.38" ry="26.74"/>
<text text-anchor="middle" x="740.75" y="-120.41" font-family="Times,serif" font-size="14.00">NUMBER_DATA</text>
<text text-anchor="middle" x="740.75" y="-105.41" font-family="Times,serif" font-size="14.00">20</text>
</g>
<!-- node0x60000144c6c0&#45;&#45;node0x60000144c660 -->
<g id="edge23" class="edge">
<title>node0x60000144c6c0&#45;&#45;node0x60000144c660</title>
<path fill="none" stroke="black" d="M653.03,-188.22C669.38,-175.06 692.2,-156.7 710.46,-142"/>
</g>
<!-- node0x60000144c5a0 -->
<g id="node22" class="node">
<title>node0x60000144c5a0</title>
<ellipse fill="none" stroke="black" cx="426.75" cy="-26.87" rx="94.51" ry="26.74"/>
<text text-anchor="middle" x="426.75" y="-30.67" font-family="Times,serif" font-size="14.00">IDENTIFIER_DATA</text>
<text text-anchor="middle" x="426.75" y="-15.67" font-family="Times,serif" font-size="14.00">array</text>
</g>
<!-- node0x60000144c630&#45;&#45;node0x60000144c5a0 -->
<g id="edge21" class="edge">
<title>node0x60000144c630&#45;&#45;node0x60000144c5a0</title>
<path fill="none" stroke="black" d="M527.14,-98.9C508.45,-85.67 482.08,-67.02 461.06,-52.15"/>
</g>
<!-- node0x60000144c5d0 -->
<g id="node23" class="node">
<title>node0x60000144c5d0</title>
<ellipse fill="none" stroke="black" cx="622.75" cy="-26.87" rx="83.38" ry="26.74"/>
<text text-anchor="middle" x="622.75" y="-30.67" font-family="Times,serif" font-size="14.00">NUMBER_DATA</text>
<text text-anchor="middle" x="622.75" y="-15.67" font-family="Times,serif" font-size="14.00">2</text>
</g>
<!-- node0x60000144c630&#45;&#45;node0x60000144c5d0 -->
<g id="edge22" class="edge">
<title>node0x60000144c630&#45;&#45;node0x60000144c5d0</title>
<path fill="none" stroke="black" d="M564.63,-98.69C575.26,-85.75 590.08,-67.68 602.1,-53.04"/>
</g>
<!-- node0x60000144c900 -->
<g id="node26" class="node">
<title>node0x60000144c900</title>
<ellipse fill="none" stroke="black" cx="868.75" cy="-296.09" rx="89.08" ry="18"/>
<text text-anchor="middle" x="868.75" y="-292.39" font-family="Times,serif" font-size="14.00">ARRAY_INDEXING</text>
</g>
<!-- node0x60000144c9f0&#45;&#45;node0x60000144c900 -->
<g id="edge25" class="edge">
<title>node0x60000144c9f0&#45;&#45;node0x60000144c900</title>
<path fill="none" stroke="black" d="M861.53,-367.5C863.11,-352.11 865.4,-329.76 866.98,-314.39"/>
</g>
<!-- node0x60000144c750 -->
<g id="node27" class="node">
<title>node0x60000144c750</title>
<ellipse fill="none" stroke="black" cx="868.75" cy="-206.35" rx="94.51" ry="26.74"/>
<text text-anchor="middle" x="868.75" y="-210.15" font-family="Times,serif" font-size="14.00">IDENTIFIER_DATA</text>
<text text-anchor="middle" x="868.75" y="-195.15" font-family="Times,serif" font-size="14.00">array</text>
</g>
<!-- node0x60000144c900&#45;&#45;node0x60000144c750 -->
<g id="edge26" class="edge">
<title>node0x60000144c900&#45;&#45;node0x60000144c750</title>
<path fill="none" stroke="black" d="M868.75,-277.76C868.75,-265.07 868.75,-247.64 868.75,-233.3"/>
</g>
<!-- node0x60000144c8d0 -->
<g id="node28" class="node">
<title>node0x60000144c8d0</title>
<ellipse fill="none" stroke="black" cx="1050.75" cy="-206.35" rx="69.09" ry="26.74"/>
<text text-anchor="middle" x="1050.75" y="-210.15" font-family="Times,serif" font-size="14.00">EXPRESSION</text>
<text text-anchor="middle" x="1050.75" y="-195.15" font-family="Times,serif" font-size="14.00">+</text>
</g>
<!-- node0x60000144c900&#45;&#45;node0x60000144c8d0 -->
<g id="edge27" class="edge">
<title>node0x60000144c900&#45;&#45;node0x60000144c8d0</title>
<path fill="none" stroke="black" d="M902.13,-279C932,-264.6 975.92,-243.42 1008.28,-227.83"/>
</g>
<!-- node0x60000144c810 -->
<g id="node29" class="node">
<title>node0x60000144c810</title>
<ellipse fill="none" stroke="black" cx="982.75" cy="-116.61" rx="89.08" ry="18"/>
<text text-anchor="middle" x="982.75" y="-112.91" font-family="Times,serif" font-size="14.00">ARRAY_INDEXING</text>
</g>
<!-- node0x60000144c8d0&#45;&#45;node0x60000144c810 -->
<g id="edge28" class="edge">
<title>node0x60000144c8d0&#45;&#45;node0x60000144c810</title>
<path fill="none" stroke="black" d="M1031.45,-180.44C1020.14,-165.85 1006.15,-147.79 996.07,-134.79"/>
</g>
<!-- node0x60000144c870 -->
<g id="node32" class="node">
<title>node0x60000144c870</title>
<ellipse fill="none" stroke="black" cx="1184.75" cy="-116.61" rx="94.51" ry="26.74"/>
<text text-anchor="middle" x="1184.75" y="-120.41" font-family="Times,serif" font-size="14.00">IDENTIFIER_DATA</text>
<text text-anchor="middle" x="1184.75" y="-105.41" font-family="Times,serif" font-size="14.00">y</text>
</g>
<!-- node0x60000144c8d0&#45;&#45;node0x60000144c870 -->
<g id="edge31" class="edge">
<title>node0x60000144c8d0&#45;&#45;node0x60000144c870</title>
<path fill="none" stroke="black" d="M1085.26,-182.76C1104.49,-170.16 1128.44,-154.49 1148.01,-141.67"/>
</g>
<!-- node0x60000144c780 -->
<g id="node30" class="node">
<title>node0x60000144c780</title>
<ellipse fill="none" stroke="black" cx="910.75" cy="-26.87" rx="94.51" ry="26.74"/>
<text text-anchor="middle" x="910.75" y="-30.67" font-family="Times,serif" font-size="14.00">IDENTIFIER_DATA</text>
<text text-anchor="middle" x="910.75" y="-15.67" font-family="Times,serif" font-size="14.00">array</text>
</g>
<!-- node0x60000144c810&#45;&#45;node0x60000144c780 -->
<g id="edge29" class="edge">
<title>node0x60000144c810&#45;&#45;node0x60000144c780</title>
<path fill="none" stroke="black" d="M968.87,-98.69C958.33,-85.85 943.65,-67.96 931.69,-53.38"/>
</g>
<!-- node0x60000144c7b0 -->
<g id="node31" class="node">
<title>node0x60000144c7b0</title>
<ellipse fill="none" stroke="black" cx="1118.75" cy="-26.87" rx="94.51" ry="26.74"/>
<text text-anchor="middle" x="1118.75" y="-30.67" font-family="Times,serif" font-size="14.00">IDENTIFIER_DATA</text>
<text text-anchor="middle" x="1118.75" y="-15.67" font-family="Times,serif" font-size="14.00">x</text>
</g>
<!-- node0x60000144c810&#45;&#45;node0x60000144c7b0 -->
<g id="edge30" class="edge">
<title>node0x60000144c810&#45;&#45;node0x60000144c7b0</title>
<path fill="none" stroke="black" d="M1008.65,-98.9C1029.31,-85.58 1058.5,-66.74 1081.64,-51.81"/>
</g>
</g>
</svg>
