<?xml version="1.0" encoding="UTF-8" standalone="no"?>
<!DOCTYPE svg PUBLIC "-//W3C//DTD SVG 1.1//EN"
 "http://www.w3.org/Graphics/SVG/1.1/DTD/svg11.dtd">
<!-- Generated by graphviz version 7.1.0 (20230121.1956)
 -->
<!-- Pages: 1 -->
<svg width="1381pt" height="637pt"
 viewBox="0.00 0.00 1380.50 636.70" xmlns="http://www.w3.org/2000/svg" xmlns:xlink="http://www.w3.org/1999/xlink">
<g id="graph0" class="graph" transform="scale(1 1) rotate(0) translate(4 632.7)">
<polygon fill="white" stroke="none" points="-4,4 -4,-632.7 1376.5,-632.7 1376.5,4 -4,4"/>
<!-- node0x600001398b10 -->
<g id="node1" class="node">
<title>node0x600001398b10</title>
<ellipse fill="none" stroke="black" cx="492.75" cy="-610.7" rx="69.59" ry="18"/>
<text text-anchor="middle" x="492.75" y="-607" font-family="Times,serif" font-size="14.00">GLOBAL_LIST</text>
</g>
<!-- node0x600001398450 -->
<g id="node2" class="node">
<title>node0x600001398450</title>
<ellipse fill="none" stroke="black" cx="421.75" cy="-538.7" rx="69.59" ry="18"/>
<text text-anchor="middle" x="421.75" y="-535" font-family="Times,serif" font-size="14.00">GLOBAL_LIST</text>
</g>
<!-- node0x600001398b10&#45;&#45;node0x600001398450 -->
<g id="edge1" class="edge">
<title>node0x600001398b10&#45;&#45;node0x600001398450</title>
<path fill="none" stroke="black" d="M475.93,-593.11C464.61,-581.95 449.75,-567.3 438.46,-556.17"/>
</g>
<!-- node0x600001398ab0 -->
<g id="node6" class="node">
<title>node0x600001398ab0</title>
<ellipse fill="none" stroke="black" cx="602.75" cy="-538.7" rx="55.49" ry="18"/>
<text text-anchor="middle" x="602.75" y="-535" font-family="Times,serif" font-size="14.00">FUNCTION</text>
</g>
<!-- node0x600001398b10&#45;&#45;node0x600001398ab0 -->
<g id="edge5" class="edge">
<title>node0x600001398b10&#45;&#45;node0x600001398ab0</title>
<path fill="none" stroke="black" d="M517.99,-593.64C536.13,-582.1 560.45,-566.62 578.39,-555.2"/>
</g>
<!-- node0x6000013983f0 -->
<g id="node3" class="node">
<title>node0x6000013983f0</title>
<ellipse fill="none" stroke="black" cx="282.75" cy="-457.83" rx="107.48" ry="18"/>
<text text-anchor="middle" x="282.75" y="-454.13" font-family="Times,serif" font-size="14.00">ARRAY_DECLARATION</text>
</g>
<!-- node0x600001398450&#45;&#45;node0x6000013983f0 -->
<g id="edge2" class="edge">
<title>node0x600001398450&#45;&#45;node0x6000013983f0</title>
<path fill="none" stroke="black" d="M393.96,-521.93C370.19,-508.44 336.1,-489.1 311.94,-475.39"/>
</g>
<!-- node0x600001398210 -->
<g id="node4" class="node">
<title>node0x600001398210</title>
<ellipse fill="none" stroke="black" cx="94.75" cy="-368.09" rx="94.51" ry="26.74"/>
<text text-anchor="middle" x="94.75" y="-371.89" font-family="Times,serif" font-size="14.00">IDENTIFIER_DATA</text>
<text text-anchor="middle" x="94.75" y="-356.89" font-family="Times,serif" font-size="14.00">array</text>
</g>
<!-- node0x6000013983f0&#45;&#45;node0x600001398210 -->
<g id="edge3" class="edge">
<title>node0x6000013983f0&#45;&#45;node0x600001398210</title>
<path fill="none" stroke="black" d="M247.83,-440.53C218.21,-426.71 175.41,-406.73 142.6,-391.42"/>
</g>
<!-- node0x600001398390 -->
<g id="node5" class="node">
<title>node0x600001398390</title>
<ellipse fill="none" stroke="black" cx="290.75" cy="-368.09" rx="83.38" ry="26.74"/>
<text text-anchor="middle" x="290.75" y="-371.89" font-family="Times,serif" font-size="14.00">NUMBER_DATA</text>
<text text-anchor="middle" x="290.75" y="-356.89" font-family="Times,serif" font-size="14.00">102</text>
</g>
<!-- node0x6000013983f0&#45;&#45;node0x600001398390 -->
<g id="edge4" class="edge">
<title>node0x6000013983f0&#45;&#45;node0x600001398390</title>
<path fill="none" stroke="black" d="M284.33,-439.5C285.49,-426.81 287.08,-409.38 288.39,-395.04"/>
</g>
<!-- node0x600001398480 -->
<g id="node7" class="node">
<title>node0x600001398480</title>
<ellipse fill="none" stroke="black" cx="502.75" cy="-457.83" rx="94.51" ry="26.74"/>
<text text-anchor="middle" x="502.75" y="-461.63" font-family="Times,serif" font-size="14.00">IDENTIFIER_DATA</text>
<text text-anchor="middle" x="502.75" y="-446.63" font-family="Times,serif" font-size="14.00">main</text>
</g>
<!-- node0x600001398ab0&#45;&#45;node0x600001398480 -->
<g id="edge6" class="edge">
<title>node0x600001398ab0&#45;&#45;node0x600001398480</title>
<path fill="none" stroke="black" d="M582.52,-521.74C568.59,-510.76 549.82,-495.95 533.99,-483.47"/>
</g>
<!-- node0x600001398570 -->
<g id="node8" class="node">
<title>node0x600001398570</title>
<ellipse fill="none" stroke="black" cx="702.75" cy="-457.83" rx="87.18" ry="18"/>
<text text-anchor="middle" x="702.75" y="-454.13" font-family="Times,serif" font-size="14.00">PARAMETER_LIST</text>
</g>
<!-- node0x600001398ab0&#45;&#45;node0x600001398570 -->
<g id="edge7" class="edge">
<title>node0x600001398ab0&#45;&#45;node0x600001398570</title>
<path fill="none" stroke="black" d="M622.99,-521.74C640,-508.33 664.23,-489.22 681.51,-475.58"/>
</g>
<!-- node0x600001398a50 -->
<g id="node11" class="node">
<title>node0x600001398a50</title>
<ellipse fill="none" stroke="black" cx="873.75" cy="-457.83" rx="40.09" ry="18"/>
<text text-anchor="middle" x="873.75" y="-454.13" font-family="Times,serif" font-size="14.00">BLOCK</text>
</g>
<!-- node0x600001398ab0&#45;&#45;node0x600001398a50 -->
<g id="edge10" class="edge">
<title>node0x600001398ab0&#45;&#45;node0x600001398a50</title>
<path fill="none" stroke="black" d="M645.82,-526.96C685.69,-516.79 746.53,-500.75 798.75,-484.7 813.5,-480.17 829.7,-474.65 843.25,-469.88"/>
</g>
<!-- node0x6000013984b0 -->
<g id="node9" class="node">
<title>node0x6000013984b0</title>
<ellipse fill="none" stroke="black" cx="494.75" cy="-368.09" rx="94.51" ry="26.74"/>
<text text-anchor="middle" x="494.75" y="-371.89" font-family="Times,serif" font-size="14.00">IDENTIFIER_DATA</text>
<text text-anchor="middle" x="494.75" y="-356.89" font-family="Times,serif" font-size="14.00">x</text>
</g>
<!-- node0x600001398570&#45;&#45;node0x6000013984b0 -->
<g id="edge8" class="edge">
<title>node0x600001398570&#45;&#45;node0x6000013984b0</title>
<path fill="none" stroke="black" d="M665.57,-441.14C632.38,-427.15 583.45,-406.51 546.46,-390.9"/>
</g>
<!-- node0x600001398510 -->
<g id="node10" class="node">
<title>node0x600001398510</title>
<ellipse fill="none" stroke="black" cx="702.75" cy="-368.09" rx="94.51" ry="26.74"/>
<text text-anchor="middle" x="702.75" y="-371.89" font-family="Times,serif" font-size="14.00">IDENTIFIER_DATA</text>
<text text-anchor="middle" x="702.75" y="-356.89" font-family="Times,serif" font-size="14.00">y</text>
</g>
<!-- node0x600001398570&#45;&#45;node0x600001398510 -->
<g id="edge9" class="edge">
<title>node0x600001398570&#45;&#45;node0x600001398510</title>
<path fill="none" stroke="black" d="M702.75,-439.5C702.75,-426.81 702.75,-409.38 702.75,-395.04"/>
</g>
<!-- node0x600001398a20 -->
<g id="node12" class="node">
<title>node0x600001398a20</title>
<ellipse fill="none" stroke="black" cx="900.75" cy="-368.09" rx="85.29" ry="18"/>
<text text-anchor="middle" x="900.75" y="-364.39" font-family="Times,serif" font-size="14.00">STATEMENT_LIST</text>
</g>
<!-- node0x600001398a50&#45;&#45;node0x600001398a20 -->
<g id="edge11" class="edge">
<title>node0x600001398a50&#45;&#45;node0x600001398a20</title>
<path fill="none" stroke="black" d="M879.09,-439.5C883.82,-424.11 890.7,-401.76 895.43,-386.39"/>
</g>
<!-- node0x6000013986c0 -->
<g id="node13" class="node">
<title>node0x6000013986c0</title>
<ellipse fill="none" stroke="black" cx="783.75" cy="-287.22" rx="124.28" ry="18"/>
<text text-anchor="middle" x="783.75" y="-283.52" font-family="Times,serif" font-size="14.00">ASSIGNMENT_STATEMENT</text>
</g>
<!-- node0x600001398a20&#45;&#45;node0x6000013986c0 -->
<g id="edge12" class="edge">
<title>node0x600001398a20&#45;&#45;node0x6000013986c0</title>
<path fill="none" stroke="black" d="M876.23,-350.56C856.52,-337.28 828.96,-318.69 809.06,-305.28"/>
</g>
<!-- node0x6000013989c0 -->
<g id="node18" class="node">
<title>node0x6000013989c0</title>
<ellipse fill="none" stroke="black" cx="1017.75" cy="-287.22" rx="92.08" ry="18"/>
<text text-anchor="middle" x="1017.75" y="-283.52" font-family="Times,serif" font-size="14.00">PRINT_STATEMENT</text>
</g>
<!-- node0x600001398a20&#45;&#45;node0x6000013989c0 -->
<g id="edge17" class="edge">
<title>node0x600001398a20&#45;&#45;node0x6000013989c0</title>
<path fill="none" stroke="black" d="M925.28,-350.56C945.11,-337.19 972.92,-318.44 992.85,-305"/>
</g>
<!-- node0x600001398630 -->
<g id="node14" class="node">
<title>node0x600001398630</title>
<ellipse fill="none" stroke="black" cx="603.75" cy="-206.35" rx="89.08" ry="18"/>
<text text-anchor="middle" x="603.75" y="-202.65" font-family="Times,serif" font-size="14.00">ARRAY_INDEXING</text>
</g>
<!-- node0x6000013986c0&#45;&#45;node0x600001398630 -->
<g id="edge13" class="edge">
<title>node0x6000013986c0&#45;&#45;node0x600001398630</title>
<path fill="none" stroke="black" d="M746.02,-269.69C714.78,-256 670.69,-236.68 639.9,-223.19"/>
</g>
<!-- node0x600001398660 -->
<g id="node17" class="node">
<title>node0x600001398660</title>
<ellipse fill="none" stroke="black" cx="793.75" cy="-206.35" rx="83.38" ry="26.74"/>
<text text-anchor="middle" x="793.75" y="-210.15" font-family="Times,serif" font-size="14.00">NUMBER_DATA</text>
<text text-anchor="middle" x="793.75" y="-195.15" font-family="Times,serif" font-size="14.00">20</text>
</g>
<!-- node0x6000013986c0&#45;&#45;node0x600001398660 -->
<g id="edge16" class="edge">
<title>node0x6000013986c0&#45;&#45;node0x600001398660</title>
<path fill="none" stroke="black" d="M785.92,-269.11C787.24,-258.69 788.96,-245.17 790.45,-233.43"/>
</g>
<!-- node0x6000013985a0 -->
<g id="node15" class="node">
<title>node0x6000013985a0</title>
<ellipse fill="none" stroke="black" cx="593.75" cy="-116.61" rx="94.51" ry="26.74"/>
<text text-anchor="middle" x="593.75" y="-120.41" font-family="Times,serif" font-size="14.00">IDENTIFIER_DATA</text>
<text text-anchor="middle" x="593.75" y="-105.41" font-family="Times,serif" font-size="14.00">array</text>
</g>
<!-- node0x600001398630&#45;&#45;node0x6000013985a0 -->
<g id="edge14" class="edge">
<title>node0x600001398630&#45;&#45;node0x6000013985a0</title>
<path fill="none" stroke="black" d="M601.78,-188.02C600.33,-175.33 598.34,-157.9 596.71,-143.56"/>
</g>
<!-- node0x6000013985d0 -->
<g id="node16" class="node">
<title>node0x6000013985d0</title>
<ellipse fill="none" stroke="black" cx="789.75" cy="-116.61" rx="83.38" ry="26.74"/>
<text text-anchor="middle" x="789.75" y="-120.41" font-family="Times,serif" font-size="14.00">NUMBER_DATA</text>
<text text-anchor="middle" x="789.75" y="-105.41" font-family="Times,serif" font-size="14.00">2</text>
</g>
<!-- node0x600001398630&#45;&#45;node0x6000013985d0 -->
<g id="edge15" class="edge">
<title>node0x600001398630&#45;&#45;node0x6000013985d0</title>
<path fill="none" stroke="black" d="M637.87,-189.26C667.65,-175.21 711.13,-154.7 743.94,-139.22"/>
</g>
<!-- node0x600001398750 -->
<g id="node19" class="node">
<title>node0x600001398750</title>
<ellipse fill="none" stroke="black" cx="1008.75" cy="-206.35" rx="94.51" ry="26.74"/>
<text text-anchor="middle" x="1008.75" y="-210.15" font-family="Times,serif" font-size="14.00">IDENTIFIER_DATA</text>
<text text-anchor="middle" x="1008.75" y="-195.15" font-family="Times,serif" font-size="14.00">array</text>
</g>
<!-- node0x6000013989c0&#45;&#45;node0x600001398750 -->
<g id="edge18" class="edge">
<title>node0x6000013989c0&#45;&#45;node0x600001398750</title>
<path fill="none" stroke="black" d="M1015.8,-269.11C1014.61,-258.69 1013.07,-245.17 1011.73,-233.43"/>
</g>
<!-- node0x6000013988d0 -->
<g id="node20" class="node">
<title>node0x6000013988d0</title>
<ellipse fill="none" stroke="black" cx="1190.75" cy="-206.35" rx="69.09" ry="26.74"/>
<text text-anchor="middle" x="1190.75" y="-210.15" font-family="Times,serif" font-size="14.00">EXPRESSION</text>
<text text-anchor="middle" x="1190.75" y="-195.15" font-family="Times,serif" font-size="14.00">+</text>
</g>
<!-- node0x6000013989c0&#45;&#45;node0x6000013988d0 -->
<g id="edge19" class="edge">
<title>node0x6000013989c0&#45;&#45;node0x6000013988d0</title>
<path fill="none" stroke="black" d="M1052.76,-270.26C1079.91,-257.88 1117.71,-240.65 1146.88,-227.35"/>
</g>
<!-- node0x600001398810 -->
<g id="node21" class="node">
<title>node0x600001398810</title>
<ellipse fill="none" stroke="black" cx="1075.75" cy="-116.61" rx="89.08" ry="18"/>
<text text-anchor="middle" x="1075.75" y="-112.91" font-family="Times,serif" font-size="14.00">ARRAY_INDEXING</text>
</g>
<!-- node0x6000013988d0&#45;&#45;node0x600001398810 -->
<g id="edge20" class="edge">
<title>node0x6000013988d0&#45;&#45;node0x600001398810</title>
<path fill="none" stroke="black" d="M1160.24,-182.07C1140.54,-167.04 1115.38,-147.84 1097.66,-134.32"/>
</g>
<!-- node0x600001398870 -->
<g id="node24" class="node">
<title>node0x600001398870</title>
<ellipse fill="none" stroke="black" cx="1277.75" cy="-116.61" rx="94.51" ry="26.74"/>
<text text-anchor="middle" x="1277.75" y="-120.41" font-family="Times,serif" font-size="14.00">IDENTIFIER_DATA</text>
<text text-anchor="middle" x="1277.75" y="-105.41" font-family="Times,serif" font-size="14.00">y</text>
</g>
<!-- node0x6000013988d0&#45;&#45;node0x600001398870 -->
<g id="edge23" class="edge">
<title>node0x6000013988d0&#45;&#45;node0x600001398870</title>
<path fill="none" stroke="black" d="M1214.99,-180.91C1226.75,-169.04 1240.87,-154.8 1252.74,-142.84"/>
</g>
<!-- node0x600001398780 -->
<g id="node22" class="node">
<title>node0x600001398780</title>
<ellipse fill="none" stroke="black" cx="971.75" cy="-26.87" rx="94.51" ry="26.74"/>
<text text-anchor="middle" x="971.75" y="-30.67" font-family="Times,serif" font-size="14.00">IDENTIFIER_DATA</text>
<text text-anchor="middle" x="971.75" y="-15.67" font-family="Times,serif" font-size="14.00">array</text>
</g>
<!-- node0x600001398810&#45;&#45;node0x600001398780 -->
<g id="edge21" class="edge">
<title>node0x600001398810&#45;&#45;node0x600001398780</title>
<path fill="none" stroke="black" d="M1055.7,-98.69C1040.24,-85.65 1018.62,-67.41 1001.19,-52.7"/>
</g>
<!-- node0x6000013987b0 -->
<g id="node23" class="node">
<title>node0x6000013987b0</title>
<ellipse fill="none" stroke="black" cx="1179.75" cy="-26.87" rx="94.51" ry="26.74"/>
<text text-anchor="middle" x="1179.75" y="-30.67" font-family="Times,serif" font-size="14.00">IDENTIFIER_DATA</text>
<text text-anchor="middle" x="1179.75" y="-15.67" font-family="Times,serif" font-size="14.00">x</text>
</g>
<!-- node0x600001398810&#45;&#45;node0x6000013987b0 -->
<g id="edge22" class="edge">
<title>node0x600001398810&#45;&#45;node0x6000013987b0</title>
<path fill="none" stroke="black" d="M1095.8,-98.69C1111.27,-85.65 1132.89,-67.41 1150.32,-52.7"/>
</g>
</g>
</svg>
