<?xml version="1.0" encoding="UTF-8" standalone="no"?>
<!DOCTYPE svg PUBLIC "-//W3C//DTD SVG 1.1//EN"
 "http://www.w3.org/Graphics/SVG/1.1/DTD/svg11.dtd">
<!-- Generated by graphviz version 7.1.0 (20230121.1956)
 -->
<!-- Pages: 1 -->
<svg width="1410pt" height="1265pt"
 viewBox="0.00 0.00 1410.19 1264.88" xmlns="http://www.w3.org/2000/svg" xmlns:xlink="http://www.w3.org/1999/xlink">
<g id="graph0" class="graph" transform="scale(1 1) rotate(0) translate(4 1260.88)">
<polygon fill="white" stroke="none" points="-4,4 -4,-1260.88 1406.19,-1260.88 1406.19,4 -4,4"/>
<!-- node0x600003ae4900 -->
<g id="node1" class="node">
<title>node0x600003ae4900</title>
<ellipse fill="none" stroke="black" cx="619.44" cy="-1238.88" rx="69.59" ry="18"/>
<text text-anchor="middle" x="619.44" y="-1235.18" font-family="Times,serif" font-size="14.00">GLOBAL_LIST</text>
</g>
<!-- node0x600003ae4240 -->
<g id="node2" class="node">
<title>node0x600003ae4240</title>
<ellipse fill="none" stroke="black" cx="548.44" cy="-1166.88" rx="69.59" ry="18"/>
<text text-anchor="middle" x="548.44" y="-1163.18" font-family="Times,serif" font-size="14.00">GLOBAL_LIST</text>
</g>
<!-- node0x600003ae4900&#45;&#45;node0x600003ae4240 -->
<g id="edge1" class="edge">
<title>node0x600003ae4900&#45;&#45;node0x600003ae4240</title>
<path fill="none" stroke="black" d="M602.61,-1221.29C591.29,-1210.13 576.44,-1195.48 565.14,-1184.35"/>
</g>
<!-- node0x600003ae48a0 -->
<g id="node14" class="node">
<title>node0x600003ae48a0</title>
<ellipse fill="none" stroke="black" cx="729.44" cy="-1166.88" rx="55.49" ry="18"/>
<text text-anchor="middle" x="729.44" y="-1163.18" font-family="Times,serif" font-size="14.00">FUNCTION</text>
</g>
<!-- node0x600003ae4900&#45;&#45;node0x600003ae48a0 -->
<g id="edge13" class="edge">
<title>node0x600003ae4900&#45;&#45;node0x600003ae48a0</title>
<path fill="none" stroke="black" d="M644.67,-1221.82C662.82,-1210.28 687.14,-1194.8 705.08,-1183.38"/>
</g>
<!-- node0x600003ae41e0 -->
<g id="node3" class="node">
<title>node0x600003ae41e0</title>
<ellipse fill="none" stroke="black" cx="409.44" cy="-1086.01" rx="107.48" ry="18"/>
<text text-anchor="middle" x="409.44" y="-1082.31" font-family="Times,serif" font-size="14.00">ARRAY_DECLARATION</text>
</g>
<!-- node0x600003ae4240&#45;&#45;node0x600003ae41e0 -->
<g id="edge2" class="edge">
<title>node0x600003ae4240&#45;&#45;node0x600003ae41e0</title>
<path fill="none" stroke="black" d="M520.64,-1150.11C496.88,-1136.62 462.78,-1117.28 438.62,-1103.57"/>
</g>
<!-- node0x600003ae41b0 -->
<g id="node4" class="node">
<title>node0x600003ae41b0</title>
<ellipse fill="none" stroke="black" cx="409.44" cy="-1005.14" rx="89.08" ry="18"/>
<text text-anchor="middle" x="409.44" y="-1001.44" font-family="Times,serif" font-size="14.00">ARRAY_INDEXING</text>
</g>
<!-- node0x600003ae41e0&#45;&#45;node0x600003ae41b0 -->
<g id="edge3" class="edge">
<title>node0x600003ae41e0&#45;&#45;node0x600003ae41b0</title>
<path fill="none" stroke="black" d="M409.44,-1067.9C409.44,-1054.76 409.44,-1036.69 409.44,-1023.49"/>
</g>
<!-- node0x600003ae4000 -->
<g id="node5" class="node">
<title>node0x600003ae4000</title>
<ellipse fill="none" stroke="black" cx="235.44" cy="-924.27" rx="94.51" ry="26.74"/>
<text text-anchor="middle" x="235.44" y="-928.07" font-family="Times,serif" font-size="14.00">IDENTIFIER_DATA</text>
<text text-anchor="middle" x="235.44" y="-913.07" font-family="Times,serif" font-size="14.00">array</text>
</g>
<!-- node0x600003ae41b0&#45;&#45;node0x600003ae4000 -->
<g id="edge4" class="edge">
<title>node0x600003ae41b0&#45;&#45;node0x600003ae4000</title>
<path fill="none" stroke="black" d="M374.23,-988.18C348.41,-976.48 313.02,-960.44 284.44,-947.48"/>
</g>
<!-- node0x600003ae4180 -->
<g id="node6" class="node">
<title>node0x600003ae4180</title>
<ellipse fill="none" stroke="black" cx="417.44" cy="-924.27" rx="69.09" ry="26.74"/>
<text text-anchor="middle" x="417.44" y="-928.07" font-family="Times,serif" font-size="14.00">EXPRESSION</text>
<text text-anchor="middle" x="417.44" y="-913.07" font-family="Times,serif" font-size="14.00">+</text>
</g>
<!-- node0x600003ae41b0&#45;&#45;node0x600003ae4180 -->
<g id="edge5" class="edge">
<title>node0x600003ae41b0&#45;&#45;node0x600003ae4180</title>
<path fill="none" stroke="black" d="M411.17,-987.03C412.23,-976.61 413.6,-963.09 414.79,-951.35"/>
</g>
<!-- node0x600003ae40f0 -->
<g id="node7" class="node">
<title>node0x600003ae40f0</title>
<ellipse fill="none" stroke="black" cx="261.44" cy="-834.53" rx="69.09" ry="26.74"/>
<text text-anchor="middle" x="261.44" y="-838.33" font-family="Times,serif" font-size="14.00">EXPRESSION</text>
<text text-anchor="middle" x="261.44" y="-823.33" font-family="Times,serif" font-size="14.00">*</text>
</g>
<!-- node0x600003ae4180&#45;&#45;node0x600003ae40f0 -->
<g id="edge6" class="edge">
<title>node0x600003ae4180&#45;&#45;node0x600003ae40f0</title>
<path fill="none" stroke="black" d="M379.28,-901.81C355.1,-888.21 323.95,-870.69 299.75,-857.08"/>
</g>
<!-- node0x600003ae4150 -->
<g id="node12" class="node">
<title>node0x600003ae4150</title>
<ellipse fill="none" stroke="black" cx="425.44" cy="-834.53" rx="69.09" ry="26.74"/>
<text text-anchor="middle" x="425.44" y="-838.33" font-family="Times,serif" font-size="14.00">EXPRESSION</text>
<text text-anchor="middle" x="425.44" y="-823.33" font-family="Times,serif" font-size="14.00">NULL</text>
</g>
<!-- node0x600003ae4180&#45;&#45;node0x600003ae4150 -->
<g id="edge11" class="edge">
<title>node0x600003ae4180&#45;&#45;node0x600003ae4150</title>
<path fill="none" stroke="black" d="M419.8,-897.42C420.83,-886.1 422.04,-872.84 423.07,-861.5"/>
</g>
<!-- node0x600003ae4060 -->
<g id="node8" class="node">
<title>node0x600003ae4060</title>
<ellipse fill="none" stroke="black" cx="97.44" cy="-744.79" rx="69.09" ry="26.74"/>
<text text-anchor="middle" x="97.44" y="-748.59" font-family="Times,serif" font-size="14.00">EXPRESSION</text>
<text text-anchor="middle" x="97.44" y="-733.59" font-family="Times,serif" font-size="14.00">NULL</text>
</g>
<!-- node0x600003ae40f0&#45;&#45;node0x600003ae4060 -->
<g id="edge7" class="edge">
<title>node0x600003ae40f0&#45;&#45;node0x600003ae4060</title>
<path fill="none" stroke="black" d="M221.74,-812.29C196.05,-798.55 162.73,-780.72 137.06,-766.99"/>
</g>
<!-- node0x600003ae40c0 -->
<g id="node10" class="node">
<title>node0x600003ae40c0</title>
<ellipse fill="none" stroke="black" cx="261.44" cy="-744.79" rx="69.09" ry="26.74"/>
<text text-anchor="middle" x="261.44" y="-748.59" font-family="Times,serif" font-size="14.00">EXPRESSION</text>
<text text-anchor="middle" x="261.44" y="-733.59" font-family="Times,serif" font-size="14.00">NULL</text>
</g>
<!-- node0x600003ae40f0&#45;&#45;node0x600003ae40c0 -->
<g id="edge9" class="edge">
<title>node0x600003ae40f0&#45;&#45;node0x600003ae40c0</title>
<path fill="none" stroke="black" d="M261.44,-807.68C261.44,-796.36 261.44,-783.1 261.44,-771.76"/>
</g>
<!-- node0x600003ae4030 -->
<g id="node9" class="node">
<title>node0x600003ae4030</title>
<ellipse fill="none" stroke="black" cx="83.44" cy="-655.05" rx="83.38" ry="26.74"/>
<text text-anchor="middle" x="83.44" y="-658.85" font-family="Times,serif" font-size="14.00">NUMBER_DATA</text>
<text text-anchor="middle" x="83.44" y="-643.85" font-family="Times,serif" font-size="14.00">10</text>
</g>
<!-- node0x600003ae4060&#45;&#45;node0x600003ae4030 -->
<g id="edge8" class="edge">
<title>node0x600003ae4060&#45;&#45;node0x600003ae4030</title>
<path fill="none" stroke="black" d="M93.31,-717.94C91.51,-706.62 89.39,-693.36 87.58,-682.02"/>
</g>
<!-- node0x600003ae4090 -->
<g id="node11" class="node">
<title>node0x600003ae4090</title>
<ellipse fill="none" stroke="black" cx="268.44" cy="-655.05" rx="83.38" ry="26.74"/>
<text text-anchor="middle" x="268.44" y="-658.85" font-family="Times,serif" font-size="14.00">NUMBER_DATA</text>
<text text-anchor="middle" x="268.44" y="-643.85" font-family="Times,serif" font-size="14.00">10</text>
</g>
<!-- node0x600003ae40c0&#45;&#45;node0x600003ae4090 -->
<g id="edge10" class="edge">
<title>node0x600003ae40c0&#45;&#45;node0x600003ae4090</title>
<path fill="none" stroke="black" d="M263.5,-717.94C264.4,-706.62 265.46,-693.36 266.37,-682.02"/>
</g>
<!-- node0x600003ae4120 -->
<g id="node13" class="node">
<title>node0x600003ae4120</title>
<ellipse fill="none" stroke="black" cx="432.44" cy="-744.79" rx="83.38" ry="26.74"/>
<text text-anchor="middle" x="432.44" y="-748.59" font-family="Times,serif" font-size="14.00">NUMBER_DATA</text>
<text text-anchor="middle" x="432.44" y="-733.59" font-family="Times,serif" font-size="14.00">2</text>
</g>
<!-- node0x600003ae4150&#45;&#45;node0x600003ae4120 -->
<g id="edge12" class="edge">
<title>node0x600003ae4150&#45;&#45;node0x600003ae4120</title>
<path fill="none" stroke="black" d="M427.5,-807.68C428.4,-796.36 429.46,-783.1 430.37,-771.76"/>
</g>
<!-- node0x600003ae4270 -->
<g id="node15" class="node">
<title>node0x600003ae4270</title>
<ellipse fill="none" stroke="black" cx="629.44" cy="-1086.01" rx="94.51" ry="26.74"/>
<text text-anchor="middle" x="629.44" y="-1089.81" font-family="Times,serif" font-size="14.00">IDENTIFIER_DATA</text>
<text text-anchor="middle" x="629.44" y="-1074.81" font-family="Times,serif" font-size="14.00">main</text>
</g>
<!-- node0x600003ae48a0&#45;&#45;node0x600003ae4270 -->
<g id="edge14" class="edge">
<title>node0x600003ae48a0&#45;&#45;node0x600003ae4270</title>
<path fill="none" stroke="black" d="M709.2,-1149.92C695.28,-1138.94 676.51,-1124.14 660.68,-1111.65"/>
</g>
<!-- node0x600003ae4360 -->
<g id="node16" class="node">
<title>node0x600003ae4360</title>
<ellipse fill="none" stroke="black" cx="829.44" cy="-1086.01" rx="87.18" ry="18"/>
<text text-anchor="middle" x="829.44" y="-1082.31" font-family="Times,serif" font-size="14.00">PARAMETER_LIST</text>
</g>
<!-- node0x600003ae48a0&#45;&#45;node0x600003ae4360 -->
<g id="edge15" class="edge">
<title>node0x600003ae48a0&#45;&#45;node0x600003ae4360</title>
<path fill="none" stroke="black" d="M749.68,-1149.92C766.68,-1136.51 790.91,-1117.4 808.2,-1103.76"/>
</g>
<!-- node0x600003ae4870 -->
<g id="node21" class="node">
<title>node0x600003ae4870</title>
<ellipse fill="none" stroke="black" cx="1011.44" cy="-1086.01" rx="62.29" ry="18"/>
<text text-anchor="middle" x="1011.44" y="-1082.31" font-family="Times,serif" font-size="14.00">STATEMENT</text>
</g>
<!-- node0x600003ae48a0&#45;&#45;node0x600003ae4870 -->
<g id="edge20" class="edge">
<title>node0x600003ae48a0&#45;&#45;node0x600003ae4870</title>
<path fill="none" stroke="black" d="M771.59,-1154.85C811.35,-1144.36 872.56,-1127.98 925.44,-1112.88 939.98,-1108.73 955.85,-1104.01 969.95,-1099.75"/>
</g>
<!-- node0x600003ae4330 -->
<g id="node17" class="node">
<title>node0x600003ae4330</title>
<ellipse fill="none" stroke="black" cx="821.44" cy="-1005.14" rx="77.19" ry="18"/>
<text text-anchor="middle" x="821.44" y="-1001.44" font-family="Times,serif" font-size="14.00">VARIABLE_LIST</text>
</g>
<!-- node0x600003ae4360&#45;&#45;node0x600003ae4330 -->
<g id="edge16" class="edge">
<title>node0x600003ae4360&#45;&#45;node0x600003ae4330</title>
<path fill="none" stroke="black" d="M827.7,-1067.9C826.37,-1054.76 824.54,-1036.69 823.2,-1023.49"/>
</g>
<!-- node0x600003ae42d0 -->
<g id="node18" class="node">
<title>node0x600003ae42d0</title>
<ellipse fill="none" stroke="black" cx="631.44" cy="-924.27" rx="77.19" ry="18"/>
<text text-anchor="middle" x="631.44" y="-920.57" font-family="Times,serif" font-size="14.00">VARIABLE_LIST</text>
</g>
<!-- node0x600003ae4330&#45;&#45;node0x600003ae42d0 -->
<g id="edge17" class="edge">
<title>node0x600003ae4330&#45;&#45;node0x600003ae42d0</title>
<path fill="none" stroke="black" d="M784.8,-988.93C751.16,-974.97 701.57,-954.38 667.96,-940.43"/>
</g>
<!-- node0x600003ae4300 -->
<g id="node20" class="node">
<title>node0x600003ae4300</title>
<ellipse fill="none" stroke="black" cx="821.44" cy="-924.27" rx="94.51" ry="26.74"/>
<text text-anchor="middle" x="821.44" y="-928.07" font-family="Times,serif" font-size="14.00">IDENTIFIER_DATA</text>
<text text-anchor="middle" x="821.44" y="-913.07" font-family="Times,serif" font-size="14.00">y</text>
</g>
<!-- node0x600003ae4330&#45;&#45;node0x600003ae4300 -->
<g id="edge19" class="edge">
<title>node0x600003ae4330&#45;&#45;node0x600003ae4300</title>
<path fill="none" stroke="black" d="M821.44,-987.03C821.44,-976.61 821.44,-963.09 821.44,-951.35"/>
</g>
<!-- node0x600003ae42a0 -->
<g id="node19" class="node">
<title>node0x600003ae42a0</title>
<ellipse fill="none" stroke="black" cx="631.44" cy="-834.53" rx="94.51" ry="26.74"/>
<text text-anchor="middle" x="631.44" y="-838.33" font-family="Times,serif" font-size="14.00">IDENTIFIER_DATA</text>
<text text-anchor="middle" x="631.44" y="-823.33" font-family="Times,serif" font-size="14.00">x</text>
</g>
<!-- node0x600003ae42d0&#45;&#45;node0x600003ae42a0 -->
<g id="edge18" class="edge">
<title>node0x600003ae42d0&#45;&#45;node0x600003ae42a0</title>
<path fill="none" stroke="black" d="M631.44,-905.94C631.44,-893.25 631.44,-875.82 631.44,-861.48"/>
</g>
<!-- node0x600003ae4840 -->
<g id="node22" class="node">
<title>node0x600003ae4840</title>
<ellipse fill="none" stroke="black" cx="1015.44" cy="-1005.14" rx="40.09" ry="18"/>
<text text-anchor="middle" x="1015.44" y="-1001.44" font-family="Times,serif" font-size="14.00">BLOCK</text>
</g>
<!-- node0x600003ae4870&#45;&#45;node0x600003ae4840 -->
<g id="edge21" class="edge">
<title>node0x600003ae4870&#45;&#45;node0x600003ae4840</title>
<path fill="none" stroke="black" d="M1012.31,-1067.9C1012.97,-1054.76 1013.89,-1036.69 1014.56,-1023.49"/>
</g>
<!-- node0x600003ae4810 -->
<g id="node23" class="node">
<title>node0x600003ae4810</title>
<ellipse fill="none" stroke="black" cx="1019.44" cy="-924.27" rx="85.29" ry="18"/>
<text text-anchor="middle" x="1019.44" y="-920.57" font-family="Times,serif" font-size="14.00">STATEMENT_LIST</text>
</g>
<!-- node0x600003ae4840&#45;&#45;node0x600003ae4810 -->
<g id="edge22" class="edge">
<title>node0x600003ae4840&#45;&#45;node0x600003ae4810</title>
<path fill="none" stroke="black" d="M1016.31,-987.03C1016.97,-973.89 1017.89,-955.82 1018.56,-942.62"/>
</g>
<!-- node0x600003ae4510 -->
<g id="node24" class="node">
<title>node0x600003ae4510</title>
<ellipse fill="none" stroke="black" cx="934.44" cy="-834.53" rx="85.29" ry="18"/>
<text text-anchor="middle" x="934.44" y="-830.83" font-family="Times,serif" font-size="14.00">STATEMENT_LIST</text>
</g>
<!-- node0x600003ae4810&#45;&#45;node0x600003ae4510 -->
<g id="edge23" class="edge">
<title>node0x600003ae4810&#45;&#45;node0x600003ae4510</title>
<path fill="none" stroke="black" d="M1003.05,-906.35C988,-890.82 965.81,-867.92 950.78,-852.4"/>
</g>
<!-- node0x600003ae47e0 -->
<g id="node33" class="node">
<title>node0x600003ae47e0</title>
<ellipse fill="none" stroke="black" cx="1103.44" cy="-834.53" rx="62.29" ry="18"/>
<text text-anchor="middle" x="1103.44" y="-830.83" font-family="Times,serif" font-size="14.00">STATEMENT</text>
</g>
<!-- node0x600003ae4810&#45;&#45;node0x600003ae47e0 -->
<g id="edge32" class="edge">
<title>node0x600003ae4810&#45;&#45;node0x600003ae47e0</title>
<path fill="none" stroke="black" d="M1035.63,-906.35C1050.51,-890.82 1072.43,-867.92 1087.29,-852.4"/>
</g>
<!-- node0x600003ae44e0 -->
<g id="node25" class="node">
<title>node0x600003ae44e0</title>
<ellipse fill="none" stroke="black" cx="925.44" cy="-744.79" rx="62.29" ry="18"/>
<text text-anchor="middle" x="925.44" y="-741.09" font-family="Times,serif" font-size="14.00">STATEMENT</text>
</g>
<!-- node0x600003ae4510&#45;&#45;node0x600003ae44e0 -->
<g id="edge24" class="edge">
<title>node0x600003ae4510&#45;&#45;node0x600003ae44e0</title>
<path fill="none" stroke="black" d="M932.66,-816.2C931.08,-800.81 928.79,-778.46 927.21,-763.09"/>
</g>
<!-- node0x600003ae44b0 -->
<g id="node26" class="node">
<title>node0x600003ae44b0</title>
<ellipse fill="none" stroke="black" cx="918.44" cy="-655.05" rx="124.28" ry="18"/>
<text text-anchor="middle" x="918.44" y="-651.35" font-family="Times,serif" font-size="14.00">ASSIGNMENT_STATEMENT</text>
</g>
<!-- node0x600003ae44e0&#45;&#45;node0x600003ae44b0 -->
<g id="edge25" class="edge">
<title>node0x600003ae44e0&#45;&#45;node0x600003ae44b0</title>
<path fill="none" stroke="black" d="M924.06,-726.46C922.83,-711.07 921.05,-688.72 919.82,-673.35"/>
</g>
<!-- node0x600003ae4420 -->
<g id="node27" class="node">
<title>node0x600003ae4420</title>
<ellipse fill="none" stroke="black" cx="748.44" cy="-565.31" rx="89.08" ry="18"/>
<text text-anchor="middle" x="748.44" y="-561.61" font-family="Times,serif" font-size="14.00">ARRAY_INDEXING</text>
</g>
<!-- node0x600003ae44b0&#45;&#45;node0x600003ae4420 -->
<g id="edge26" class="edge">
<title>node0x600003ae44b0&#45;&#45;node0x600003ae4420</title>
<path fill="none" stroke="black" d="M886.06,-637.34C855.52,-621.58 810.04,-598.11 779.83,-582.51"/>
</g>
<!-- node0x600003ae4480 -->
<g id="node31" class="node">
<title>node0x600003ae4480</title>
<ellipse fill="none" stroke="black" cx="924.44" cy="-565.31" rx="69.09" ry="26.74"/>
<text text-anchor="middle" x="924.44" y="-569.11" font-family="Times,serif" font-size="14.00">EXPRESSION</text>
<text text-anchor="middle" x="924.44" y="-554.11" font-family="Times,serif" font-size="14.00">NULL</text>
</g>
<!-- node0x600003ae44b0&#45;&#45;node0x600003ae4480 -->
<g id="edge30" class="edge">
<title>node0x600003ae44b0&#45;&#45;node0x600003ae4480</title>
<path fill="none" stroke="black" d="M919.62,-636.72C920.49,-624.03 921.68,-606.6 922.66,-592.26"/>
</g>
<!-- node0x600003ae4390 -->
<g id="node28" class="node">
<title>node0x600003ae4390</title>
<ellipse fill="none" stroke="black" cx="569.44" cy="-475.57" rx="94.51" ry="26.74"/>
<text text-anchor="middle" x="569.44" y="-479.37" font-family="Times,serif" font-size="14.00">IDENTIFIER_DATA</text>
<text text-anchor="middle" x="569.44" y="-464.37" font-family="Times,serif" font-size="14.00">array</text>
</g>
<!-- node0x600003ae4420&#45;&#45;node0x600003ae4390 -->
<g id="edge27" class="edge">
<title>node0x600003ae4420&#45;&#45;node0x600003ae4390</title>
<path fill="none" stroke="black" d="M715.61,-548.22C687.55,-534.46 646.87,-514.52 615.54,-499.17"/>
</g>
<!-- node0x600003ae43f0 -->
<g id="node29" class="node">
<title>node0x600003ae43f0</title>
<ellipse fill="none" stroke="black" cx="751.44" cy="-475.57" rx="69.09" ry="26.74"/>
<text text-anchor="middle" x="751.44" y="-479.37" font-family="Times,serif" font-size="14.00">EXPRESSION</text>
<text text-anchor="middle" x="751.44" y="-464.37" font-family="Times,serif" font-size="14.00">NULL</text>
</g>
<!-- node0x600003ae4420&#45;&#45;node0x600003ae43f0 -->
<g id="edge28" class="edge">
<title>node0x600003ae4420&#45;&#45;node0x600003ae43f0</title>
<path fill="none" stroke="black" d="M749.03,-546.98C749.47,-534.29 750.06,-516.86 750.55,-502.52"/>
</g>
<!-- node0x600003ae43c0 -->
<g id="node30" class="node">
<title>node0x600003ae43c0</title>
<ellipse fill="none" stroke="black" cx="751.44" cy="-385.83" rx="83.38" ry="26.74"/>
<text text-anchor="middle" x="751.44" y="-389.63" font-family="Times,serif" font-size="14.00">NUMBER_DATA</text>
<text text-anchor="middle" x="751.44" y="-374.63" font-family="Times,serif" font-size="14.00">2</text>
</g>
<!-- node0x600003ae43f0&#45;&#45;node0x600003ae43c0 -->
<g id="edge29" class="edge">
<title>node0x600003ae43f0&#45;&#45;node0x600003ae43c0</title>
<path fill="none" stroke="black" d="M751.44,-448.72C751.44,-437.4 751.44,-424.14 751.44,-412.8"/>
</g>
<!-- node0x600003ae4450 -->
<g id="node32" class="node">
<title>node0x600003ae4450</title>
<ellipse fill="none" stroke="black" cx="924.44" cy="-475.57" rx="83.38" ry="26.74"/>
<text text-anchor="middle" x="924.44" y="-479.37" font-family="Times,serif" font-size="14.00">NUMBER_DATA</text>
<text text-anchor="middle" x="924.44" y="-464.37" font-family="Times,serif" font-size="14.00">20</text>
</g>
<!-- node0x600003ae4480&#45;&#45;node0x600003ae4450 -->
<g id="edge31" class="edge">
<title>node0x600003ae4480&#45;&#45;node0x600003ae4450</title>
<path fill="none" stroke="black" d="M924.44,-538.46C924.44,-527.14 924.44,-513.88 924.44,-502.54"/>
</g>
<!-- node0x600003ae47b0 -->
<g id="node34" class="node">
<title>node0x600003ae47b0</title>
<ellipse fill="none" stroke="black" cx="1112.44" cy="-744.79" rx="92.08" ry="18"/>
<text text-anchor="middle" x="1112.44" y="-741.09" font-family="Times,serif" font-size="14.00">PRINT_STATEMENT</text>
</g>
<!-- node0x600003ae47e0&#45;&#45;node0x600003ae47b0 -->
<g id="edge33" class="edge">
<title>node0x600003ae47e0&#45;&#45;node0x600003ae47b0</title>
<path fill="none" stroke="black" d="M1105.22,-816.2C1106.79,-800.81 1109.09,-778.46 1110.66,-763.09"/>
</g>
<!-- node0x600003ae4780 -->
<g id="node35" class="node">
<title>node0x600003ae4780</title>
<ellipse fill="none" stroke="black" cx="1119.44" cy="-655.05" rx="59.29" ry="18"/>
<text text-anchor="middle" x="1119.44" y="-651.35" font-family="Times,serif" font-size="14.00">PRINT_LIST</text>
</g>
<!-- node0x600003ae47b0&#45;&#45;node0x600003ae4780 -->
<g id="edge34" class="edge">
<title>node0x600003ae47b0&#45;&#45;node0x600003ae4780</title>
<path fill="none" stroke="black" d="M1113.82,-726.46C1115.05,-711.07 1116.83,-688.72 1118.06,-673.35"/>
</g>
<!-- node0x600003ae4720 -->
<g id="node36" class="node">
<title>node0x600003ae4720</title>
<ellipse fill="none" stroke="black" cx="1119.44" cy="-565.31" rx="69.09" ry="26.74"/>
<text text-anchor="middle" x="1119.44" y="-569.11" font-family="Times,serif" font-size="14.00">EXPRESSION</text>
<text text-anchor="middle" x="1119.44" y="-554.11" font-family="Times,serif" font-size="14.00">NULL</text>
</g>
<!-- node0x600003ae4780&#45;&#45;node0x600003ae4720 -->
<g id="edge35" class="edge">
<title>node0x600003ae4780&#45;&#45;node0x600003ae4720</title>
<path fill="none" stroke="black" d="M1119.44,-636.72C1119.44,-624.03 1119.44,-606.6 1119.44,-592.26"/>
</g>
<!-- node0x600003ae46f0 -->
<g id="node37" class="node">
<title>node0x600003ae46f0</title>
<ellipse fill="none" stroke="black" cx="1119.44" cy="-475.57" rx="89.08" ry="18"/>
<text text-anchor="middle" x="1119.44" y="-471.87" font-family="Times,serif" font-size="14.00">ARRAY_INDEXING</text>
</g>
<!-- node0x600003ae4720&#45;&#45;node0x600003ae46f0 -->
<g id="edge36" class="edge">
<title>node0x600003ae4720&#45;&#45;node0x600003ae46f0</title>
<path fill="none" stroke="black" d="M1119.44,-538.46C1119.44,-524.1 1119.44,-506.63 1119.44,-493.92"/>
</g>
<!-- node0x600003ae4540 -->
<g id="node38" class="node">
<title>node0x600003ae4540</title>
<ellipse fill="none" stroke="black" cx="1029.44" cy="-385.83" rx="94.51" ry="26.74"/>
<text text-anchor="middle" x="1029.44" y="-389.63" font-family="Times,serif" font-size="14.00">IDENTIFIER_DATA</text>
<text text-anchor="middle" x="1029.44" y="-374.63" font-family="Times,serif" font-size="14.00">array</text>
</g>
<!-- node0x600003ae46f0&#45;&#45;node0x600003ae4540 -->
<g id="edge37" class="edge">
<title>node0x600003ae46f0&#45;&#45;node0x600003ae4540</title>
<path fill="none" stroke="black" d="M1102.09,-457.65C1088.8,-444.71 1070.28,-426.65 1055.26,-412"/>
</g>
<!-- node0x600003ae46c0 -->
<g id="node39" class="node">
<title>node0x600003ae46c0</title>
<ellipse fill="none" stroke="black" cx="1211.44" cy="-385.83" rx="69.09" ry="26.74"/>
<text text-anchor="middle" x="1211.44" y="-389.63" font-family="Times,serif" font-size="14.00">EXPRESSION</text>
<text text-anchor="middle" x="1211.44" y="-374.63" font-family="Times,serif" font-size="14.00">+</text>
</g>
<!-- node0x600003ae46f0&#45;&#45;node0x600003ae46c0 -->
<g id="edge38" class="edge">
<title>node0x600003ae46f0&#45;&#45;node0x600003ae46c0</title>
<path fill="none" stroke="black" d="M1137.18,-457.65C1151.07,-444.41 1170.57,-425.81 1186.1,-410.99"/>
</g>
<!-- node0x600003ae4630 -->
<g id="node40" class="node">
<title>node0x600003ae4630</title>
<ellipse fill="none" stroke="black" cx="1127.44" cy="-296.09" rx="69.09" ry="26.74"/>
<text text-anchor="middle" x="1127.44" y="-299.89" font-family="Times,serif" font-size="14.00">EXPRESSION</text>
<text text-anchor="middle" x="1127.44" y="-284.89" font-family="Times,serif" font-size="14.00">NULL</text>
</g>
<!-- node0x600003ae46c0&#45;&#45;node0x600003ae4630 -->
<g id="edge39" class="edge">
<title>node0x600003ae46c0&#45;&#45;node0x600003ae4630</title>
<path fill="none" stroke="black" d="M1188.04,-360.39C1176.49,-348.32 1162.58,-333.8 1151,-321.7"/>
</g>
<!-- node0x600003ae4690 -->
<g id="node45" class="node">
<title>node0x600003ae4690</title>
<ellipse fill="none" stroke="black" cx="1295.44" cy="-296.09" rx="69.09" ry="26.74"/>
<text text-anchor="middle" x="1295.44" y="-299.89" font-family="Times,serif" font-size="14.00">EXPRESSION</text>
<text text-anchor="middle" x="1295.44" y="-284.89" font-family="Times,serif" font-size="14.00">NULL</text>
</g>
<!-- node0x600003ae46c0&#45;&#45;node0x600003ae4690 -->
<g id="edge44" class="edge">
<title>node0x600003ae46c0&#45;&#45;node0x600003ae4690</title>
<path fill="none" stroke="black" d="M1234.84,-360.39C1246.39,-348.32 1260.3,-333.8 1271.87,-321.7"/>
</g>
<!-- node0x600003ae4600 -->
<g id="node41" class="node">
<title>node0x600003ae4600</title>
<ellipse fill="none" stroke="black" cx="1105.44" cy="-206.35" rx="89.08" ry="18"/>
<text text-anchor="middle" x="1105.44" y="-202.65" font-family="Times,serif" font-size="14.00">ARRAY_INDEXING</text>
</g>
<!-- node0x600003ae4630&#45;&#45;node0x600003ae4600 -->
<g id="edge40" class="edge">
<title>node0x600003ae4630&#45;&#45;node0x600003ae4600</title>
<path fill="none" stroke="black" d="M1120.96,-269.24C1117.36,-254.88 1112.98,-237.41 1109.79,-224.7"/>
</g>
<!-- node0x600003ae4570 -->
<g id="node42" class="node">
<title>node0x600003ae4570</title>
<ellipse fill="none" stroke="black" cx="1014.44" cy="-116.61" rx="94.51" ry="26.74"/>
<text text-anchor="middle" x="1014.44" y="-120.41" font-family="Times,serif" font-size="14.00">IDENTIFIER_DATA</text>
<text text-anchor="middle" x="1014.44" y="-105.41" font-family="Times,serif" font-size="14.00">array</text>
</g>
<!-- node0x600003ae4600&#45;&#45;node0x600003ae4570 -->
<g id="edge41" class="edge">
<title>node0x600003ae4600&#45;&#45;node0x600003ae4570</title>
<path fill="none" stroke="black" d="M1087.89,-188.43C1074.46,-175.49 1055.73,-157.42 1040.55,-142.78"/>
</g>
<!-- node0x600003ae45d0 -->
<g id="node43" class="node">
<title>node0x600003ae45d0</title>
<ellipse fill="none" stroke="black" cx="1196.44" cy="-116.61" rx="69.09" ry="26.74"/>
<text text-anchor="middle" x="1196.44" y="-120.41" font-family="Times,serif" font-size="14.00">EXPRESSION</text>
<text text-anchor="middle" x="1196.44" y="-105.41" font-family="Times,serif" font-size="14.00">NULL</text>
</g>
<!-- node0x600003ae4600&#45;&#45;node0x600003ae45d0 -->
<g id="edge42" class="edge">
<title>node0x600003ae4600&#45;&#45;node0x600003ae45d0</title>
<path fill="none" stroke="black" d="M1122.98,-188.43C1136.72,-175.19 1156.01,-156.59 1171.38,-141.77"/>
</g>
<!-- node0x600003ae45a0 -->
<g id="node44" class="node">
<title>node0x600003ae45a0</title>
<ellipse fill="none" stroke="black" cx="1196.44" cy="-26.87" rx="94.51" ry="26.74"/>
<text text-anchor="middle" x="1196.44" y="-30.67" font-family="Times,serif" font-size="14.00">IDENTIFIER_DATA</text>
<text text-anchor="middle" x="1196.44" y="-15.67" font-family="Times,serif" font-size="14.00">x</text>
</g>
<!-- node0x600003ae45d0&#45;&#45;node0x600003ae45a0 -->
<g id="edge43" class="edge">
<title>node0x600003ae45d0&#45;&#45;node0x600003ae45a0</title>
<path fill="none" stroke="black" d="M1196.44,-89.76C1196.44,-78.44 1196.44,-65.18 1196.44,-53.84"/>
</g>
<!-- node0x600003ae4660 -->
<g id="node46" class="node">
<title>node0x600003ae4660</title>
<ellipse fill="none" stroke="black" cx="1307.44" cy="-206.35" rx="94.51" ry="26.74"/>
<text text-anchor="middle" x="1307.44" y="-210.15" font-family="Times,serif" font-size="14.00">IDENTIFIER_DATA</text>
<text text-anchor="middle" x="1307.44" y="-195.15" font-family="Times,serif" font-size="14.00">y</text>
</g>
<!-- node0x600003ae4690&#45;&#45;node0x600003ae4660 -->
<g id="edge45" class="edge">
<title>node0x600003ae4690&#45;&#45;node0x600003ae4660</title>
<path fill="none" stroke="black" d="M1298.97,-269.24C1300.52,-257.92 1302.34,-244.66 1303.89,-233.32"/>
</g>
</g>
</svg>
