<?xml version="1.0" encoding="UTF-8" standalone="no"?>
<!DOCTYPE svg PUBLIC "-//W3C//DTD SVG 1.1//EN"
 "http://www.w3.org/Graphics/SVG/1.1/DTD/svg11.dtd">
<!-- Generated by graphviz version 7.1.0 (20230121.1956)
 -->
<!-- Pages: 1 -->
<svg width="1296pt" height="834pt"
 viewBox="0.00 0.00 1295.50 833.92" xmlns="http://www.w3.org/2000/svg" xmlns:xlink="http://www.w3.org/1999/xlink">
<g id="graph0" class="graph" transform="scale(1 1) rotate(0) translate(4 829.92)">
<polygon fill="white" stroke="none" points="-4,4 -4,-829.92 1291.5,-829.92 1291.5,4 -4,4"/>
<!-- node0x600000850b10 -->
<g id="node1" class="node">
<title>node0x600000850b10</title>
<ellipse fill="none" stroke="black" cx="336.75" cy="-807.92" rx="69.59" ry="18"/>
<text text-anchor="middle" x="336.75" y="-804.22" font-family="Times,serif" font-size="14.00">GLOBAL_LIST</text>
</g>
<!-- node0x600000850450 -->
<g id="node2" class="node">
<title>node0x600000850450</title>
<ellipse fill="none" stroke="black" cx="265.75" cy="-735.92" rx="69.59" ry="18"/>
<text text-anchor="middle" x="265.75" y="-732.22" font-family="Times,serif" font-size="14.00">GLOBAL_LIST</text>
</g>
<!-- node0x600000850b10&#45;&#45;node0x600000850450 -->
<g id="edge1" class="edge">
<title>node0x600000850b10&#45;&#45;node0x600000850450</title>
<path fill="none" stroke="black" d="M319.93,-790.33C308.61,-779.17 293.75,-764.52 282.46,-753.39"/>
</g>
<!-- node0x600000850ab0 -->
<g id="node11" class="node">
<title>node0x600000850ab0</title>
<ellipse fill="none" stroke="black" cx="446.75" cy="-735.92" rx="55.49" ry="18"/>
<text text-anchor="middle" x="446.75" y="-732.22" font-family="Times,serif" font-size="14.00">FUNCTION</text>
</g>
<!-- node0x600000850b10&#45;&#45;node0x600000850ab0 -->
<g id="edge10" class="edge">
<title>node0x600000850b10&#45;&#45;node0x600000850ab0</title>
<path fill="none" stroke="black" d="M361.99,-790.86C380.13,-779.32 404.45,-763.84 422.39,-752.42"/>
</g>
<!-- node0x6000008503f0 -->
<g id="node3" class="node">
<title>node0x6000008503f0</title>
<ellipse fill="none" stroke="black" cx="126.75" cy="-655.05" rx="107.48" ry="18"/>
<text text-anchor="middle" x="126.75" y="-651.35" font-family="Times,serif" font-size="14.00">ARRAY_DECLARATION</text>
</g>
<!-- node0x600000850450&#45;&#45;node0x6000008503f0 -->
<g id="edge2" class="edge">
<title>node0x600000850450&#45;&#45;node0x6000008503f0</title>
<path fill="none" stroke="black" d="M237.96,-719.15C214.19,-705.66 180.1,-686.32 155.94,-672.61"/>
</g>
<!-- node0x6000008503c0 -->
<g id="node4" class="node">
<title>node0x6000008503c0</title>
<ellipse fill="none" stroke="black" cx="126.75" cy="-565.31" rx="89.08" ry="18"/>
<text text-anchor="middle" x="126.75" y="-561.61" font-family="Times,serif" font-size="14.00">ARRAY_INDEXING</text>
</g>
<!-- node0x6000008503f0&#45;&#45;node0x6000008503c0 -->
<g id="edge3" class="edge">
<title>node0x6000008503f0&#45;&#45;node0x6000008503c0</title>
<path fill="none" stroke="black" d="M126.75,-636.72C126.75,-621.33 126.75,-598.98 126.75,-583.61"/>
</g>
<!-- node0x600000850210 -->
<g id="node5" class="node">
<title>node0x600000850210</title>
<ellipse fill="none" stroke="black" cx="94.75" cy="-475.57" rx="94.51" ry="26.74"/>
<text text-anchor="middle" x="94.75" y="-479.37" font-family="Times,serif" font-size="14.00">IDENTIFIER_DATA</text>
<text text-anchor="middle" x="94.75" y="-464.37" font-family="Times,serif" font-size="14.00">array</text>
</g>
<!-- node0x6000008503c0&#45;&#45;node0x600000850210 -->
<g id="edge4" class="edge">
<title>node0x6000008503c0&#45;&#45;node0x600000850210</title>
<path fill="none" stroke="black" d="M120.43,-546.98C115.8,-534.29 109.45,-516.86 104.22,-502.52"/>
</g>
<!-- node0x600000850390 -->
<g id="node6" class="node">
<title>node0x600000850390</title>
<ellipse fill="none" stroke="black" cx="276.75" cy="-475.57" rx="69.09" ry="26.74"/>
<text text-anchor="middle" x="276.75" y="-479.37" font-family="Times,serif" font-size="14.00">EXPRESSION</text>
<text text-anchor="middle" x="276.75" y="-464.37" font-family="Times,serif" font-size="14.00">+</text>
</g>
<!-- node0x6000008503c0&#45;&#45;node0x600000850390 -->
<g id="edge5" class="edge">
<title>node0x6000008503c0&#45;&#45;node0x600000850390</title>
<path fill="none" stroke="black" d="M154.97,-547.81C178.81,-533.86 213.17,-513.76 239.31,-498.47"/>
</g>
<!-- node0x600000850300 -->
<g id="node7" class="node">
<title>node0x600000850300</title>
<ellipse fill="none" stroke="black" cx="260.75" cy="-385.83" rx="69.09" ry="26.74"/>
<text text-anchor="middle" x="260.75" y="-389.63" font-family="Times,serif" font-size="14.00">EXPRESSION</text>
<text text-anchor="middle" x="260.75" y="-374.63" font-family="Times,serif" font-size="14.00">*</text>
</g>
<!-- node0x600000850390&#45;&#45;node0x600000850300 -->
<g id="edge6" class="edge">
<title>node0x600000850390&#45;&#45;node0x600000850300</title>
<path fill="none" stroke="black" d="M272.04,-448.72C269.97,-437.4 267.56,-424.14 265.49,-412.8"/>
</g>
<!-- node0x600000850330 -->
<g id="node10" class="node">
<title>node0x600000850330</title>
<ellipse fill="none" stroke="black" cx="431.75" cy="-385.83" rx="83.38" ry="26.74"/>
<text text-anchor="middle" x="431.75" y="-389.63" font-family="Times,serif" font-size="14.00">NUMBER_DATA</text>
<text text-anchor="middle" x="431.75" y="-374.63" font-family="Times,serif" font-size="14.00">2</text>
</g>
<!-- node0x600000850390&#45;&#45;node0x600000850330 -->
<g id="edge9" class="edge">
<title>node0x600000850390&#45;&#45;node0x600000850330</title>
<path fill="none" stroke="black" d="M315.07,-452.88C338.29,-439.74 367.87,-422.99 391.44,-409.65"/>
</g>
<!-- node0x600000850240 -->
<g id="node8" class="node">
<title>node0x600000850240</title>
<ellipse fill="none" stroke="black" cx="223.75" cy="-296.09" rx="83.38" ry="26.74"/>
<text text-anchor="middle" x="223.75" y="-299.89" font-family="Times,serif" font-size="14.00">NUMBER_DATA</text>
<text text-anchor="middle" x="223.75" y="-284.89" font-family="Times,serif" font-size="14.00">10</text>
</g>
<!-- node0x600000850300&#45;&#45;node0x600000850240 -->
<g id="edge7" class="edge">
<title>node0x600000850300&#45;&#45;node0x600000850240</title>
<path fill="none" stroke="black" d="M249.85,-358.98C245.08,-347.66 239.48,-334.4 234.7,-323.06"/>
</g>
<!-- node0x6000008502a0 -->
<g id="node9" class="node">
<title>node0x6000008502a0</title>
<ellipse fill="none" stroke="black" cx="408.75" cy="-296.09" rx="83.38" ry="26.74"/>
<text text-anchor="middle" x="408.75" y="-299.89" font-family="Times,serif" font-size="14.00">NUMBER_DATA</text>
<text text-anchor="middle" x="408.75" y="-284.89" font-family="Times,serif" font-size="14.00">10</text>
</g>
<!-- node0x600000850300&#45;&#45;node0x6000008502a0 -->
<g id="edge8" class="edge">
<title>node0x600000850300&#45;&#45;node0x6000008502a0</title>
<path fill="none" stroke="black" d="M297.72,-362.92C319.72,-349.87 347.61,-333.34 369.93,-320.1"/>
</g>
<!-- node0x600000850480 -->
<g id="node12" class="node">
<title>node0x600000850480</title>
<ellipse fill="none" stroke="black" cx="346.75" cy="-655.05" rx="94.51" ry="26.74"/>
<text text-anchor="middle" x="346.75" y="-658.85" font-family="Times,serif" font-size="14.00">IDENTIFIER_DATA</text>
<text text-anchor="middle" x="346.75" y="-643.85" font-family="Times,serif" font-size="14.00">main</text>
</g>
<!-- node0x600000850ab0&#45;&#45;node0x600000850480 -->
<g id="edge11" class="edge">
<title>node0x600000850ab0&#45;&#45;node0x600000850480</title>
<path fill="none" stroke="black" d="M426.52,-718.96C412.59,-707.98 393.82,-693.18 377.99,-680.69"/>
</g>
<!-- node0x600000850570 -->
<g id="node13" class="node">
<title>node0x600000850570</title>
<ellipse fill="none" stroke="black" cx="546.75" cy="-655.05" rx="87.18" ry="18"/>
<text text-anchor="middle" x="546.75" y="-651.35" font-family="Times,serif" font-size="14.00">PARAMETER_LIST</text>
</g>
<!-- node0x600000850ab0&#45;&#45;node0x600000850570 -->
<g id="edge12" class="edge">
<title>node0x600000850ab0&#45;&#45;node0x600000850570</title>
<path fill="none" stroke="black" d="M466.99,-718.96C484,-705.55 508.23,-686.44 525.51,-672.8"/>
</g>
<!-- node0x600000850a80 -->
<g id="node15" class="node">
<title>node0x600000850a80</title>
<ellipse fill="none" stroke="black" cx="713.75" cy="-655.05" rx="62.29" ry="18"/>
<text text-anchor="middle" x="713.75" y="-651.35" font-family="Times,serif" font-size="14.00">STATEMENT</text>
</g>
<!-- node0x600000850ab0&#45;&#45;node0x600000850a80 -->
<g id="edge14" class="edge">
<title>node0x600000850ab0&#45;&#45;node0x600000850a80</title>
<path fill="none" stroke="black" d="M490.27,-724.29C530.19,-714.27 590.83,-698.37 642.75,-681.92 654.13,-678.32 666.39,-674 677.47,-669.95"/>
</g>
<!-- node0x600000850510 -->
<g id="node14" class="node">
<title>node0x600000850510</title>
<ellipse fill="none" stroke="black" cx="546.75" cy="-565.31" rx="94.51" ry="26.74"/>
<text text-anchor="middle" x="546.75" y="-569.11" font-family="Times,serif" font-size="14.00">IDENTIFIER_DATA</text>
<text text-anchor="middle" x="546.75" y="-554.11" font-family="Times,serif" font-size="14.00">y</text>
</g>
<!-- node0x600000850570&#45;&#45;node0x600000850510 -->
<g id="edge13" class="edge">
<title>node0x600000850570&#45;&#45;node0x600000850510</title>
<path fill="none" stroke="black" d="M546.75,-636.72C546.75,-624.03 546.75,-606.6 546.75,-592.26"/>
</g>
<!-- node0x600000850a50 -->
<g id="node16" class="node">
<title>node0x600000850a50</title>
<ellipse fill="none" stroke="black" cx="713.75" cy="-565.31" rx="40.09" ry="18"/>
<text text-anchor="middle" x="713.75" y="-561.61" font-family="Times,serif" font-size="14.00">BLOCK</text>
</g>
<!-- node0x600000850a80&#45;&#45;node0x600000850a50 -->
<g id="edge15" class="edge">
<title>node0x600000850a80&#45;&#45;node0x600000850a50</title>
<path fill="none" stroke="black" d="M713.75,-636.72C713.75,-621.33 713.75,-598.98 713.75,-583.61"/>
</g>
<!-- node0x600000850a20 -->
<g id="node17" class="node">
<title>node0x600000850a20</title>
<ellipse fill="none" stroke="black" cx="713.75" cy="-475.57" rx="85.29" ry="18"/>
<text text-anchor="middle" x="713.75" y="-471.87" font-family="Times,serif" font-size="14.00">STATEMENT_LIST</text>
</g>
<!-- node0x600000850a50&#45;&#45;node0x600000850a20 -->
<g id="edge16" class="edge">
<title>node0x600000850a50&#45;&#45;node0x600000850a20</title>
<path fill="none" stroke="black" d="M713.75,-546.98C713.75,-531.59 713.75,-509.24 713.75,-493.87"/>
</g>
<!-- node0x600000850720 -->
<g id="node18" class="node">
<title>node0x600000850720</title>
<ellipse fill="none" stroke="black" cx="666.75" cy="-385.83" rx="85.29" ry="18"/>
<text text-anchor="middle" x="666.75" y="-382.13" font-family="Times,serif" font-size="14.00">STATEMENT_LIST</text>
</g>
<!-- node0x600000850a20&#45;&#45;node0x600000850720 -->
<g id="edge17" class="edge">
<title>node0x600000850a20&#45;&#45;node0x600000850720</title>
<path fill="none" stroke="black" d="M704.47,-457.24C696.23,-441.85 684.25,-419.5 676.02,-404.13"/>
</g>
<!-- node0x6000008509f0 -->
<g id="node25" class="node">
<title>node0x6000008509f0</title>
<ellipse fill="none" stroke="black" cx="867.75" cy="-385.83" rx="62.29" ry="18"/>
<text text-anchor="middle" x="867.75" y="-382.13" font-family="Times,serif" font-size="14.00">STATEMENT</text>
</g>
<!-- node0x600000850a20&#45;&#45;node0x6000008509f0 -->
<g id="edge24" class="edge">
<title>node0x600000850a20&#45;&#45;node0x6000008509f0</title>
<path fill="none" stroke="black" d="M742.36,-458.27C770.37,-442.32 812.74,-418.17 840.34,-402.45"/>
</g>
<!-- node0x6000008506f0 -->
<g id="node19" class="node">
<title>node0x6000008506f0</title>
<ellipse fill="none" stroke="black" cx="657.75" cy="-296.09" rx="62.29" ry="18"/>
<text text-anchor="middle" x="657.75" y="-292.39" font-family="Times,serif" font-size="14.00">STATEMENT</text>
</g>
<!-- node0x600000850720&#45;&#45;node0x6000008506f0 -->
<g id="edge18" class="edge">
<title>node0x600000850720&#45;&#45;node0x6000008506f0</title>
<path fill="none" stroke="black" d="M664.97,-367.5C663.4,-352.11 661.1,-329.76 659.53,-314.39"/>
</g>
<!-- node0x6000008506c0 -->
<g id="node20" class="node">
<title>node0x6000008506c0</title>
<ellipse fill="none" stroke="black" cx="639.75" cy="-206.35" rx="124.28" ry="18"/>
<text text-anchor="middle" x="639.75" y="-202.65" font-family="Times,serif" font-size="14.00">ASSIGNMENT_STATEMENT</text>
</g>
<!-- node0x6000008506f0&#45;&#45;node0x6000008506c0 -->
<g id="edge19" class="edge">
<title>node0x6000008506f0&#45;&#45;node0x6000008506c0</title>
<path fill="none" stroke="black" d="M654.2,-277.76C651.04,-262.37 646.45,-240.02 643.3,-224.65"/>
</g>
<!-- node0x600000850630 -->
<g id="node21" class="node">
<title>node0x600000850630</title>
<ellipse fill="none" stroke="black" cx="558.75" cy="-116.61" rx="89.08" ry="18"/>
<text text-anchor="middle" x="558.75" y="-112.91" font-family="Times,serif" font-size="14.00">ARRAY_INDEXING</text>
</g>
<!-- node0x6000008506c0&#45;&#45;node0x600000850630 -->
<g id="edge20" class="edge">
<title>node0x6000008506c0&#45;&#45;node0x600000850630</title>
<path fill="none" stroke="black" d="M623.75,-188.02C609.46,-172.53 588.64,-149.99 574.45,-134.61"/>
</g>
<!-- node0x600000850660 -->
<g id="node24" class="node">
<title>node0x600000850660</title>
<ellipse fill="none" stroke="black" cx="748.75" cy="-116.61" rx="83.38" ry="26.74"/>
<text text-anchor="middle" x="748.75" y="-120.41" font-family="Times,serif" font-size="14.00">NUMBER_DATA</text>
<text text-anchor="middle" x="748.75" y="-105.41" font-family="Times,serif" font-size="14.00">20</text>
</g>
<!-- node0x6000008506c0&#45;&#45;node0x600000850660 -->
<g id="edge23" class="edge">
<title>node0x6000008506c0&#45;&#45;node0x600000850660</title>
<path fill="none" stroke="black" d="M661.03,-188.22C677.38,-175.06 700.2,-156.7 718.46,-142"/>
</g>
<!-- node0x6000008505a0 -->
<g id="node22" class="node">
<title>node0x6000008505a0</title>
<ellipse fill="none" stroke="black" cx="434.75" cy="-26.87" rx="94.51" ry="26.74"/>
<text text-anchor="middle" x="434.75" y="-30.67" font-family="Times,serif" font-size="14.00">IDENTIFIER_DATA</text>
<text text-anchor="middle" x="434.75" y="-15.67" font-family="Times,serif" font-size="14.00">array</text>
</g>
<!-- node0x600000850630&#45;&#45;node0x6000008505a0 -->
<g id="edge21" class="edge">
<title>node0x600000850630&#45;&#45;node0x6000008505a0</title>
<path fill="none" stroke="black" d="M535.14,-98.9C516.45,-85.67 490.08,-67.02 469.06,-52.15"/>
</g>
<!-- node0x6000008505d0 -->
<g id="node23" class="node">
<title>node0x6000008505d0</title>
<ellipse fill="none" stroke="black" cx="630.75" cy="-26.87" rx="83.38" ry="26.74"/>
<text text-anchor="middle" x="630.75" y="-30.67" font-family="Times,serif" font-size="14.00">NUMBER_DATA</text>
<text text-anchor="middle" x="630.75" y="-15.67" font-family="Times,serif" font-size="14.00">2</text>
</g>
<!-- node0x600000850630&#45;&#45;node0x6000008505d0 -->
<g id="edge22" class="edge">
<title>node0x600000850630&#45;&#45;node0x6000008505d0</title>
<path fill="none" stroke="black" d="M572.63,-98.69C583.26,-85.75 598.08,-67.68 610.1,-53.04"/>
</g>
<!-- node0x6000008509c0 -->
<g id="node26" class="node">
<title>node0x6000008509c0</title>
<ellipse fill="none" stroke="black" cx="876.75" cy="-296.09" rx="92.08" ry="18"/>
<text text-anchor="middle" x="876.75" y="-292.39" font-family="Times,serif" font-size="14.00">PRINT_STATEMENT</text>
</g>
<!-- node0x6000008509f0&#45;&#45;node0x6000008509c0 -->
<g id="edge25" class="edge">
<title>node0x6000008509f0&#45;&#45;node0x6000008509c0</title>
<path fill="none" stroke="black" d="M869.53,-367.5C871.11,-352.11 873.4,-329.76 874.98,-314.39"/>
</g>
<!-- node0x600000850750 -->
<g id="node27" class="node">
<title>node0x600000850750</title>
<ellipse fill="none" stroke="black" cx="876.75" cy="-206.35" rx="94.51" ry="26.74"/>
<text text-anchor="middle" x="876.75" y="-210.15" font-family="Times,serif" font-size="14.00">IDENTIFIER_DATA</text>
<text text-anchor="middle" x="876.75" y="-195.15" font-family="Times,serif" font-size="14.00">array</text>
</g>
<!-- node0x6000008509c0&#45;&#45;node0x600000850750 -->
<g id="edge26" class="edge">
<title>node0x6000008509c0&#45;&#45;node0x600000850750</title>
<path fill="none" stroke="black" d="M876.75,-277.76C876.75,-265.07 876.75,-247.64 876.75,-233.3"/>
</g>
<!-- node0x6000008508d0 -->
<g id="node28" class="node">
<title>node0x6000008508d0</title>
<ellipse fill="none" stroke="black" cx="1058.75" cy="-206.35" rx="69.09" ry="26.74"/>
<text text-anchor="middle" x="1058.75" y="-210.15" font-family="Times,serif" font-size="14.00">EXPRESSION</text>
<text text-anchor="middle" x="1058.75" y="-195.15" font-family="Times,serif" font-size="14.00">+</text>
</g>
<!-- node0x6000008509c0&#45;&#45;node0x6000008508d0 -->
<g id="edge27" class="edge">
<title>node0x6000008509c0&#45;&#45;node0x6000008508d0</title>
<path fill="none" stroke="black" d="M910.13,-279C940,-264.6 983.92,-243.42 1016.28,-227.83"/>
</g>
<!-- node0x600000850810 -->
<g id="node29" class="node">
<title>node0x600000850810</title>
<ellipse fill="none" stroke="black" cx="990.75" cy="-116.61" rx="89.08" ry="18"/>
<text text-anchor="middle" x="990.75" y="-112.91" font-family="Times,serif" font-size="14.00">ARRAY_INDEXING</text>
</g>
<!-- node0x6000008508d0&#45;&#45;node0x600000850810 -->
<g id="edge28" class="edge">
<title>node0x6000008508d0&#45;&#45;node0x600000850810</title>
<path fill="none" stroke="black" d="M1039.45,-180.44C1028.14,-165.85 1014.15,-147.79 1004.07,-134.79"/>
</g>
<!-- node0x600000850870 -->
<g id="node32" class="node">
<title>node0x600000850870</title>
<ellipse fill="none" stroke="black" cx="1192.75" cy="-116.61" rx="94.51" ry="26.74"/>
<text text-anchor="middle" x="1192.75" y="-120.41" font-family="Times,serif" font-size="14.00">IDENTIFIER_DATA</text>
<text text-anchor="middle" x="1192.75" y="-105.41" font-family="Times,serif" font-size="14.00">y</text>
</g>
<!-- node0x6000008508d0&#45;&#45;node0x600000850870 -->
<g id="edge31" class="edge">
<title>node0x6000008508d0&#45;&#45;node0x600000850870</title>
<path fill="none" stroke="black" d="M1093.26,-182.76C1112.49,-170.16 1136.44,-154.49 1156.01,-141.67"/>
</g>
<!-- node0x600000850780 -->
<g id="node30" class="node">
<title>node0x600000850780</title>
<ellipse fill="none" stroke="black" cx="918.75" cy="-26.87" rx="94.51" ry="26.74"/>
<text text-anchor="middle" x="918.75" y="-30.67" font-family="Times,serif" font-size="14.00">IDENTIFIER_DATA</text>
<text text-anchor="middle" x="918.75" y="-15.67" font-family="Times,serif" font-size="14.00">array</text>
</g>
<!-- node0x600000850810&#45;&#45;node0x600000850780 -->
<g id="edge29" class="edge">
<title>node0x600000850810&#45;&#45;node0x600000850780</title>
<path fill="none" stroke="black" d="M976.87,-98.69C966.33,-85.85 951.65,-67.96 939.69,-53.38"/>
</g>
<!-- node0x6000008507b0 -->
<g id="node31" class="node">
<title>node0x6000008507b0</title>
<ellipse fill="none" stroke="black" cx="1126.75" cy="-26.87" rx="94.51" ry="26.74"/>
<text text-anchor="middle" x="1126.75" y="-30.67" font-family="Times,serif" font-size="14.00">IDENTIFIER_DATA</text>
<text text-anchor="middle" x="1126.75" y="-15.67" font-family="Times,serif" font-size="14.00">x</text>
</g>
<!-- node0x600000850810&#45;&#45;node0x6000008507b0 -->
<g id="edge30" class="edge">
<title>node0x600000850810&#45;&#45;node0x6000008507b0</title>
<path fill="none" stroke="black" d="M1016.65,-98.9C1037.31,-85.58 1066.5,-66.74 1089.64,-51.81"/>
</g>
</g>
</svg>
