<?xml version="1.0" encoding="UTF-8" standalone="no"?>
<!DOCTYPE svg PUBLIC "-//W3C//DTD SVG 1.1//EN"
 "http://www.w3.org/Graphics/SVG/1.1/DTD/svg11.dtd">
<!-- Generated by graphviz version 7.1.0 (20230121.1956)
 -->
<!-- Pages: 1 -->
<svg width="1409pt" height="1499pt"
 viewBox="0.00 0.00 1409.19 1498.62" xmlns="http://www.w3.org/2000/svg" xmlns:xlink="http://www.w3.org/1999/xlink">
<g id="graph0" class="graph" transform="scale(1 1) rotate(0) translate(4 1494.62)">
<polygon fill="white" stroke="none" points="-4,4 -4,-1494.62 1405.19,-1494.62 1405.19,4 -4,4"/>
<!-- node0x6000031ecb40 -->
<g id="node1" class="node">
<title>node0x6000031ecb40</title>
<ellipse fill="none" stroke="black" cx="628.44" cy="-1472.62" rx="54.69" ry="18"/>
<text text-anchor="middle" x="628.44" y="-1468.92" font-family="Times,serif" font-size="14.00">PROGRAM</text>
</g>
<!-- node0x6000031ecb10 -->
<g id="node2" class="node">
<title>node0x6000031ecb10</title>
<ellipse fill="none" stroke="black" cx="628.44" cy="-1400.62" rx="69.59" ry="18"/>
<text text-anchor="middle" x="628.44" y="-1396.92" font-family="Times,serif" font-size="14.00">GLOBAL_LIST</text>
</g>
<!-- node0x6000031ecb40&#45;&#45;node0x6000031ecb10 -->
<g id="edge1" class="edge">
<title>node0x6000031ecb40&#45;&#45;node0x6000031ecb10</title>
<path fill="none" stroke="black" d="M628.44,-1454.32C628.44,-1443.47 628.44,-1429.54 628.44,-1418.73"/>
</g>
<!-- node0x6000031ec450 -->
<g id="node3" class="node">
<title>node0x6000031ec450</title>
<ellipse fill="none" stroke="black" cx="561.44" cy="-1328.62" rx="69.59" ry="18"/>
<text text-anchor="middle" x="561.44" y="-1324.92" font-family="Times,serif" font-size="14.00">GLOBAL_LIST</text>
</g>
<!-- node0x6000031ecb10&#45;&#45;node0x6000031ec450 -->
<g id="edge2" class="edge">
<title>node0x6000031ecb10&#45;&#45;node0x6000031ec450</title>
<path fill="none" stroke="black" d="M612.22,-1382.68C601.69,-1371.67 588.01,-1357.39 577.51,-1346.41"/>
</g>
<!-- node0x6000031ecae0 -->
<g id="node16" class="node">
<title>node0x6000031ecae0</title>
<ellipse fill="none" stroke="black" cx="716.44" cy="-1328.62" rx="46.29" ry="18"/>
<text text-anchor="middle" x="716.44" y="-1324.92" font-family="Times,serif" font-size="14.00">GLOBAL</text>
</g>
<!-- node0x6000031ecb10&#45;&#45;node0x6000031ecae0 -->
<g id="edge15" class="edge">
<title>node0x6000031ecb10&#45;&#45;node0x6000031ecae0</title>
<path fill="none" stroke="black" d="M649.29,-1383.03C663.63,-1371.63 682.54,-1356.59 696.64,-1345.37"/>
</g>
<!-- node0x6000031ec420 -->
<g id="node4" class="node">
<title>node0x6000031ec420</title>
<ellipse fill="none" stroke="black" cx="518.44" cy="-1256.62" rx="46.29" ry="18"/>
<text text-anchor="middle" x="518.44" y="-1252.92" font-family="Times,serif" font-size="14.00">GLOBAL</text>
</g>
<!-- node0x6000031ec450&#45;&#45;node0x6000031ec420 -->
<g id="edge3" class="edge">
<title>node0x6000031ec450&#45;&#45;node0x6000031ec420</title>
<path fill="none" stroke="black" d="M551.03,-1310.68C544.27,-1299.67 535.49,-1285.39 528.75,-1274.41"/>
</g>
<!-- node0x6000031ec3f0 -->
<g id="node5" class="node">
<title>node0x6000031ec3f0</title>
<ellipse fill="none" stroke="black" cx="407.44" cy="-1175.75" rx="107.48" ry="18"/>
<text text-anchor="middle" x="407.44" y="-1172.05" font-family="Times,serif" font-size="14.00">ARRAY_DECLARATION</text>
</g>
<!-- node0x6000031ec420&#45;&#45;node0x6000031ec3f0 -->
<g id="edge4" class="edge">
<title>node0x6000031ec420&#45;&#45;node0x6000031ec3f0</title>
<path fill="none" stroke="black" d="M496.77,-1240.23C477.97,-1226.87 450.79,-1207.56 431.36,-1193.75"/>
</g>
<!-- node0x6000031ec3c0 -->
<g id="node6" class="node">
<title>node0x6000031ec3c0</title>
<ellipse fill="none" stroke="black" cx="407.44" cy="-1094.88" rx="89.08" ry="18"/>
<text text-anchor="middle" x="407.44" y="-1091.18" font-family="Times,serif" font-size="14.00">ARRAY_INDEXING</text>
</g>
<!-- node0x6000031ec3f0&#45;&#45;node0x6000031ec3c0 -->
<g id="edge5" class="edge">
<title>node0x6000031ec3f0&#45;&#45;node0x6000031ec3c0</title>
<path fill="none" stroke="black" d="M407.44,-1157.64C407.44,-1144.5 407.44,-1126.43 407.44,-1113.23"/>
</g>
<!-- node0x6000031ec210 -->
<g id="node7" class="node">
<title>node0x6000031ec210</title>
<ellipse fill="none" stroke="black" cx="231.44" cy="-1014.01" rx="94.51" ry="26.74"/>
<text text-anchor="middle" x="231.44" y="-1017.81" font-family="Times,serif" font-size="14.00">IDENTIFIER_DATA</text>
<text text-anchor="middle" x="231.44" y="-1002.81" font-family="Times,serif" font-size="14.00">array</text>
</g>
<!-- node0x6000031ec3c0&#45;&#45;node0x6000031ec210 -->
<g id="edge6" class="edge">
<title>node0x6000031ec3c0&#45;&#45;node0x6000031ec210</title>
<path fill="none" stroke="black" d="M371.82,-1077.92C345.71,-1066.22 309.91,-1050.18 281.01,-1037.22"/>
</g>
<!-- node0x6000031ec390 -->
<g id="node8" class="node">
<title>node0x6000031ec390</title>
<ellipse fill="none" stroke="black" cx="413.44" cy="-1014.01" rx="69.09" ry="26.74"/>
<text text-anchor="middle" x="413.44" y="-1017.81" font-family="Times,serif" font-size="14.00">EXPRESSION</text>
<text text-anchor="middle" x="413.44" y="-1002.81" font-family="Times,serif" font-size="14.00">+</text>
</g>
<!-- node0x6000031ec3c0&#45;&#45;node0x6000031ec390 -->
<g id="edge7" class="edge">
<title>node0x6000031ec3c0&#45;&#45;node0x6000031ec390</title>
<path fill="none" stroke="black" d="M408.74,-1076.77C409.53,-1066.35 410.56,-1052.83 411.45,-1041.09"/>
</g>
<!-- node0x6000031ec300 -->
<g id="node9" class="node">
<title>node0x6000031ec300</title>
<ellipse fill="none" stroke="black" cx="261.44" cy="-924.27" rx="69.09" ry="26.74"/>
<text text-anchor="middle" x="261.44" y="-928.07" font-family="Times,serif" font-size="14.00">EXPRESSION</text>
<text text-anchor="middle" x="261.44" y="-913.07" font-family="Times,serif" font-size="14.00">*</text>
</g>
<!-- node0x6000031ec390&#45;&#45;node0x6000031ec300 -->
<g id="edge8" class="edge">
<title>node0x6000031ec390&#45;&#45;node0x6000031ec300</title>
<path fill="none" stroke="black" d="M375.87,-991.32C352.48,-977.82 322.51,-960.52 299.11,-947.01"/>
</g>
<!-- node0x6000031ec360 -->
<g id="node14" class="node">
<title>node0x6000031ec360</title>
<ellipse fill="none" stroke="black" cx="425.44" cy="-924.27" rx="69.09" ry="26.74"/>
<text text-anchor="middle" x="425.44" y="-928.07" font-family="Times,serif" font-size="14.00">EXPRESSION</text>
<text text-anchor="middle" x="425.44" y="-913.07" font-family="Times,serif" font-size="14.00">NULL</text>
</g>
<!-- node0x6000031ec390&#45;&#45;node0x6000031ec360 -->
<g id="edge13" class="edge">
<title>node0x6000031ec390&#45;&#45;node0x6000031ec360</title>
<path fill="none" stroke="black" d="M416.97,-987.16C418.52,-975.84 420.34,-962.58 421.89,-951.24"/>
</g>
<!-- node0x6000031ec270 -->
<g id="node10" class="node">
<title>node0x6000031ec270</title>
<ellipse fill="none" stroke="black" cx="97.44" cy="-834.53" rx="69.09" ry="26.74"/>
<text text-anchor="middle" x="97.44" y="-838.33" font-family="Times,serif" font-size="14.00">EXPRESSION</text>
<text text-anchor="middle" x="97.44" y="-823.33" font-family="Times,serif" font-size="14.00">NULL</text>
</g>
<!-- node0x6000031ec300&#45;&#45;node0x6000031ec270 -->
<g id="edge9" class="edge">
<title>node0x6000031ec300&#45;&#45;node0x6000031ec270</title>
<path fill="none" stroke="black" d="M221.74,-902.03C196.05,-888.29 162.73,-870.46 137.06,-856.73"/>
</g>
<!-- node0x6000031ec2d0 -->
<g id="node12" class="node">
<title>node0x6000031ec2d0</title>
<ellipse fill="none" stroke="black" cx="261.44" cy="-834.53" rx="69.09" ry="26.74"/>
<text text-anchor="middle" x="261.44" y="-838.33" font-family="Times,serif" font-size="14.00">EXPRESSION</text>
<text text-anchor="middle" x="261.44" y="-823.33" font-family="Times,serif" font-size="14.00">NULL</text>
</g>
<!-- node0x6000031ec300&#45;&#45;node0x6000031ec2d0 -->
<g id="edge11" class="edge">
<title>node0x6000031ec300&#45;&#45;node0x6000031ec2d0</title>
<path fill="none" stroke="black" d="M261.44,-897.42C261.44,-886.1 261.44,-872.84 261.44,-861.5"/>
</g>
<!-- node0x6000031ec240 -->
<g id="node11" class="node">
<title>node0x6000031ec240</title>
<ellipse fill="none" stroke="black" cx="83.44" cy="-744.79" rx="83.38" ry="26.74"/>
<text text-anchor="middle" x="83.44" y="-748.59" font-family="Times,serif" font-size="14.00">NUMBER_DATA</text>
<text text-anchor="middle" x="83.44" y="-733.59" font-family="Times,serif" font-size="14.00">10</text>
</g>
<!-- node0x6000031ec270&#45;&#45;node0x6000031ec240 -->
<g id="edge10" class="edge">
<title>node0x6000031ec270&#45;&#45;node0x6000031ec240</title>
<path fill="none" stroke="black" d="M93.31,-807.68C91.51,-796.36 89.39,-783.1 87.58,-771.76"/>
</g>
<!-- node0x6000031ec2a0 -->
<g id="node13" class="node">
<title>node0x6000031ec2a0</title>
<ellipse fill="none" stroke="black" cx="268.44" cy="-744.79" rx="83.38" ry="26.74"/>
<text text-anchor="middle" x="268.44" y="-748.59" font-family="Times,serif" font-size="14.00">NUMBER_DATA</text>
<text text-anchor="middle" x="268.44" y="-733.59" font-family="Times,serif" font-size="14.00">10</text>
</g>
<!-- node0x6000031ec2d0&#45;&#45;node0x6000031ec2a0 -->
<g id="edge12" class="edge">
<title>node0x6000031ec2d0&#45;&#45;node0x6000031ec2a0</title>
<path fill="none" stroke="black" d="M263.5,-807.68C264.4,-796.36 265.46,-783.1 266.37,-771.76"/>
</g>
<!-- node0x6000031ec330 -->
<g id="node15" class="node">
<title>node0x6000031ec330</title>
<ellipse fill="none" stroke="black" cx="432.44" cy="-834.53" rx="83.38" ry="26.74"/>
<text text-anchor="middle" x="432.44" y="-838.33" font-family="Times,serif" font-size="14.00">NUMBER_DATA</text>
<text text-anchor="middle" x="432.44" y="-823.33" font-family="Times,serif" font-size="14.00">2</text>
</g>
<!-- node0x6000031ec360&#45;&#45;node0x6000031ec330 -->
<g id="edge14" class="edge">
<title>node0x6000031ec360&#45;&#45;node0x6000031ec330</title>
<path fill="none" stroke="black" d="M427.5,-897.42C428.4,-886.1 429.46,-872.84 430.37,-861.5"/>
</g>
<!-- node0x6000031ecab0 -->
<g id="node17" class="node">
<title>node0x6000031ecab0</title>
<ellipse fill="none" stroke="black" cx="727.44" cy="-1256.62" rx="55.49" ry="18"/>
<text text-anchor="middle" x="727.44" y="-1252.92" font-family="Times,serif" font-size="14.00">FUNCTION</text>
</g>
<!-- node0x6000031ecae0&#45;&#45;node0x6000031ecab0 -->
<g id="edge16" class="edge">
<title>node0x6000031ecae0&#45;&#45;node0x6000031ecab0</title>
<path fill="none" stroke="black" d="M719.16,-1310.32C720.86,-1299.47 723.05,-1285.54 724.75,-1274.73"/>
</g>
<!-- node0x6000031ec480 -->
<g id="node18" class="node">
<title>node0x6000031ec480</title>
<ellipse fill="none" stroke="black" cx="627.44" cy="-1175.75" rx="94.51" ry="26.74"/>
<text text-anchor="middle" x="627.44" y="-1179.55" font-family="Times,serif" font-size="14.00">IDENTIFIER_DATA</text>
<text text-anchor="middle" x="627.44" y="-1164.55" font-family="Times,serif" font-size="14.00">main</text>
</g>
<!-- node0x6000031ecab0&#45;&#45;node0x6000031ec480 -->
<g id="edge17" class="edge">
<title>node0x6000031ecab0&#45;&#45;node0x6000031ec480</title>
<path fill="none" stroke="black" d="M707.2,-1239.66C693.28,-1228.68 674.51,-1213.88 658.68,-1201.39"/>
</g>
<!-- node0x6000031ec570 -->
<g id="node19" class="node">
<title>node0x6000031ec570</title>
<ellipse fill="none" stroke="black" cx="827.44" cy="-1175.75" rx="87.18" ry="18"/>
<text text-anchor="middle" x="827.44" y="-1172.05" font-family="Times,serif" font-size="14.00">PARAMETER_LIST</text>
</g>
<!-- node0x6000031ecab0&#45;&#45;node0x6000031ec570 -->
<g id="edge18" class="edge">
<title>node0x6000031ecab0&#45;&#45;node0x6000031ec570</title>
<path fill="none" stroke="black" d="M747.68,-1239.66C764.68,-1226.25 788.91,-1207.14 806.2,-1193.5"/>
</g>
<!-- node0x6000031eca80 -->
<g id="node24" class="node">
<title>node0x6000031eca80</title>
<ellipse fill="none" stroke="black" cx="1009.44" cy="-1175.75" rx="62.29" ry="18"/>
<text text-anchor="middle" x="1009.44" y="-1172.05" font-family="Times,serif" font-size="14.00">STATEMENT</text>
</g>
<!-- node0x6000031ecab0&#45;&#45;node0x6000031eca80 -->
<g id="edge23" class="edge">
<title>node0x6000031ecab0&#45;&#45;node0x6000031eca80</title>
<path fill="none" stroke="black" d="M769.59,-1244.59C809.35,-1234.1 870.56,-1217.72 923.44,-1202.62 937.98,-1198.47 953.85,-1193.75 967.95,-1189.49"/>
</g>
<!-- node0x6000031ec540 -->
<g id="node20" class="node">
<title>node0x6000031ec540</title>
<ellipse fill="none" stroke="black" cx="821.44" cy="-1094.88" rx="77.19" ry="18"/>
<text text-anchor="middle" x="821.44" y="-1091.18" font-family="Times,serif" font-size="14.00">VARIABLE_LIST</text>
</g>
<!-- node0x6000031ec570&#45;&#45;node0x6000031ec540 -->
<g id="edge19" class="edge">
<title>node0x6000031ec570&#45;&#45;node0x6000031ec540</title>
<path fill="none" stroke="black" d="M826.14,-1157.64C825.14,-1144.5 823.76,-1126.43 822.76,-1113.23"/>
</g>
<!-- node0x6000031ec4e0 -->
<g id="node21" class="node">
<title>node0x6000031ec4e0</title>
<ellipse fill="none" stroke="black" cx="631.44" cy="-1014.01" rx="77.19" ry="18"/>
<text text-anchor="middle" x="631.44" y="-1010.31" font-family="Times,serif" font-size="14.00">VARIABLE_LIST</text>
</g>
<!-- node0x6000031ec540&#45;&#45;node0x6000031ec4e0 -->
<g id="edge20" class="edge">
<title>node0x6000031ec540&#45;&#45;node0x6000031ec4e0</title>
<path fill="none" stroke="black" d="M784.8,-1078.67C751.16,-1064.71 701.57,-1044.12 667.96,-1030.17"/>
</g>
<!-- node0x6000031ec510 -->
<g id="node23" class="node">
<title>node0x6000031ec510</title>
<ellipse fill="none" stroke="black" cx="821.44" cy="-1014.01" rx="94.51" ry="26.74"/>
<text text-anchor="middle" x="821.44" y="-1017.81" font-family="Times,serif" font-size="14.00">IDENTIFIER_DATA</text>
<text text-anchor="middle" x="821.44" y="-1002.81" font-family="Times,serif" font-size="14.00">y</text>
</g>
<!-- node0x6000031ec540&#45;&#45;node0x6000031ec510 -->
<g id="edge22" class="edge">
<title>node0x6000031ec540&#45;&#45;node0x6000031ec510</title>
<path fill="none" stroke="black" d="M821.44,-1076.77C821.44,-1066.35 821.44,-1052.83 821.44,-1041.09"/>
</g>
<!-- node0x6000031ec4b0 -->
<g id="node22" class="node">
<title>node0x6000031ec4b0</title>
<ellipse fill="none" stroke="black" cx="631.44" cy="-924.27" rx="94.51" ry="26.74"/>
<text text-anchor="middle" x="631.44" y="-928.07" font-family="Times,serif" font-size="14.00">IDENTIFIER_DATA</text>
<text text-anchor="middle" x="631.44" y="-913.07" font-family="Times,serif" font-size="14.00">x</text>
</g>
<!-- node0x6000031ec4e0&#45;&#45;node0x6000031ec4b0 -->
<g id="edge21" class="edge">
<title>node0x6000031ec4e0&#45;&#45;node0x6000031ec4b0</title>
<path fill="none" stroke="black" d="M631.44,-995.68C631.44,-982.99 631.44,-965.56 631.44,-951.22"/>
</g>
<!-- node0x6000031eca50 -->
<g id="node25" class="node">
<title>node0x6000031eca50</title>
<ellipse fill="none" stroke="black" cx="1014.44" cy="-1094.88" rx="40.09" ry="18"/>
<text text-anchor="middle" x="1014.44" y="-1091.18" font-family="Times,serif" font-size="14.00">BLOCK</text>
</g>
<!-- node0x6000031eca80&#45;&#45;node0x6000031eca50 -->
<g id="edge24" class="edge">
<title>node0x6000031eca80&#45;&#45;node0x6000031eca50</title>
<path fill="none" stroke="black" d="M1010.52,-1157.64C1011.36,-1144.5 1012.5,-1126.43 1013.34,-1113.23"/>
</g>
<!-- node0x6000031eca20 -->
<g id="node26" class="node">
<title>node0x6000031eca20</title>
<ellipse fill="none" stroke="black" cx="1019.44" cy="-1014.01" rx="85.29" ry="18"/>
<text text-anchor="middle" x="1019.44" y="-1010.31" font-family="Times,serif" font-size="14.00">STATEMENT_LIST</text>
</g>
<!-- node0x6000031eca50&#45;&#45;node0x6000031eca20 -->
<g id="edge25" class="edge">
<title>node0x6000031eca50&#45;&#45;node0x6000031eca20</title>
<path fill="none" stroke="black" d="M1015.52,-1076.77C1016.36,-1063.63 1017.5,-1045.56 1018.34,-1032.36"/>
</g>
<!-- node0x6000031ec720 -->
<g id="node27" class="node">
<title>node0x6000031ec720</title>
<ellipse fill="none" stroke="black" cx="934.44" cy="-924.27" rx="85.29" ry="18"/>
<text text-anchor="middle" x="934.44" y="-920.57" font-family="Times,serif" font-size="14.00">STATEMENT_LIST</text>
</g>
<!-- node0x6000031eca20&#45;&#45;node0x6000031ec720 -->
<g id="edge26" class="edge">
<title>node0x6000031eca20&#45;&#45;node0x6000031ec720</title>
<path fill="none" stroke="black" d="M1003.05,-996.09C988,-980.56 965.81,-957.66 950.78,-942.14"/>
</g>
<!-- node0x6000031ec9f0 -->
<g id="node36" class="node">
<title>node0x6000031ec9f0</title>
<ellipse fill="none" stroke="black" cx="1103.44" cy="-924.27" rx="62.29" ry="18"/>
<text text-anchor="middle" x="1103.44" y="-920.57" font-family="Times,serif" font-size="14.00">STATEMENT</text>
</g>
<!-- node0x6000031eca20&#45;&#45;node0x6000031ec9f0 -->
<g id="edge35" class="edge">
<title>node0x6000031eca20&#45;&#45;node0x6000031ec9f0</title>
<path fill="none" stroke="black" d="M1035.63,-996.09C1050.51,-980.56 1072.43,-957.66 1087.29,-942.14"/>
</g>
<!-- node0x6000031ec6f0 -->
<g id="node28" class="node">
<title>node0x6000031ec6f0</title>
<ellipse fill="none" stroke="black" cx="925.44" cy="-834.53" rx="62.29" ry="18"/>
<text text-anchor="middle" x="925.44" y="-830.83" font-family="Times,serif" font-size="14.00">STATEMENT</text>
</g>
<!-- node0x6000031ec720&#45;&#45;node0x6000031ec6f0 -->
<g id="edge27" class="edge">
<title>node0x6000031ec720&#45;&#45;node0x6000031ec6f0</title>
<path fill="none" stroke="black" d="M932.66,-905.94C931.08,-890.55 928.79,-868.2 927.21,-852.83"/>
</g>
<!-- node0x6000031ec6c0 -->
<g id="node29" class="node">
<title>node0x6000031ec6c0</title>
<ellipse fill="none" stroke="black" cx="918.44" cy="-744.79" rx="124.28" ry="18"/>
<text text-anchor="middle" x="918.44" y="-741.09" font-family="Times,serif" font-size="14.00">ASSIGNMENT_STATEMENT</text>
</g>
<!-- node0x6000031ec6f0&#45;&#45;node0x6000031ec6c0 -->
<g id="edge28" class="edge">
<title>node0x6000031ec6f0&#45;&#45;node0x6000031ec6c0</title>
<path fill="none" stroke="black" d="M924.06,-816.2C922.83,-800.81 921.05,-778.46 919.82,-763.09"/>
</g>
<!-- node0x6000031ec630 -->
<g id="node30" class="node">
<title>node0x6000031ec630</title>
<ellipse fill="none" stroke="black" cx="757.44" cy="-655.05" rx="89.08" ry="18"/>
<text text-anchor="middle" x="757.44" y="-651.35" font-family="Times,serif" font-size="14.00">ARRAY_INDEXING</text>
</g>
<!-- node0x6000031ec6c0&#45;&#45;node0x6000031ec630 -->
<g id="edge29" class="edge">
<title>node0x6000031ec6c0&#45;&#45;node0x6000031ec630</title>
<path fill="none" stroke="black" d="M887.4,-726.87C858.61,-711.19 816.06,-688 787.57,-672.47"/>
</g>
<!-- node0x6000031ec690 -->
<g id="node34" class="node">
<title>node0x6000031ec690</title>
<ellipse fill="none" stroke="black" cx="933.44" cy="-655.05" rx="69.09" ry="26.74"/>
<text text-anchor="middle" x="933.44" y="-658.85" font-family="Times,serif" font-size="14.00">EXPRESSION</text>
<text text-anchor="middle" x="933.44" y="-643.85" font-family="Times,serif" font-size="14.00">NULL</text>
</g>
<!-- node0x6000031ec6c0&#45;&#45;node0x6000031ec690 -->
<g id="edge33" class="edge">
<title>node0x6000031ec6c0&#45;&#45;node0x6000031ec690</title>
<path fill="none" stroke="black" d="M921.4,-726.46C923.57,-713.77 926.55,-696.34 929,-682"/>
</g>
<!-- node0x6000031ec5a0 -->
<g id="node31" class="node">
<title>node0x6000031ec5a0</title>
<ellipse fill="none" stroke="black" cx="578.44" cy="-565.31" rx="94.51" ry="26.74"/>
<text text-anchor="middle" x="578.44" y="-569.11" font-family="Times,serif" font-size="14.00">IDENTIFIER_DATA</text>
<text text-anchor="middle" x="578.44" y="-554.11" font-family="Times,serif" font-size="14.00">array</text>
</g>
<!-- node0x6000031ec630&#45;&#45;node0x6000031ec5a0 -->
<g id="edge30" class="edge">
<title>node0x6000031ec630&#45;&#45;node0x6000031ec5a0</title>
<path fill="none" stroke="black" d="M724.61,-637.96C696.55,-624.2 655.87,-604.26 624.54,-588.91"/>
</g>
<!-- node0x6000031ec600 -->
<g id="node32" class="node">
<title>node0x6000031ec600</title>
<ellipse fill="none" stroke="black" cx="760.44" cy="-565.31" rx="69.09" ry="26.74"/>
<text text-anchor="middle" x="760.44" y="-569.11" font-family="Times,serif" font-size="14.00">EXPRESSION</text>
<text text-anchor="middle" x="760.44" y="-554.11" font-family="Times,serif" font-size="14.00">NULL</text>
</g>
<!-- node0x6000031ec630&#45;&#45;node0x6000031ec600 -->
<g id="edge31" class="edge">
<title>node0x6000031ec630&#45;&#45;node0x6000031ec600</title>
<path fill="none" stroke="black" d="M758.03,-636.72C758.47,-624.03 759.06,-606.6 759.55,-592.26"/>
</g>
<!-- node0x6000031ec5d0 -->
<g id="node33" class="node">
<title>node0x6000031ec5d0</title>
<ellipse fill="none" stroke="black" cx="760.44" cy="-475.57" rx="83.38" ry="26.74"/>
<text text-anchor="middle" x="760.44" y="-479.37" font-family="Times,serif" font-size="14.00">NUMBER_DATA</text>
<text text-anchor="middle" x="760.44" y="-464.37" font-family="Times,serif" font-size="14.00">2</text>
</g>
<!-- node0x6000031ec600&#45;&#45;node0x6000031ec5d0 -->
<g id="edge32" class="edge">
<title>node0x6000031ec600&#45;&#45;node0x6000031ec5d0</title>
<path fill="none" stroke="black" d="M760.44,-538.46C760.44,-527.14 760.44,-513.88 760.44,-502.54"/>
</g>
<!-- node0x6000031ec660 -->
<g id="node35" class="node">
<title>node0x6000031ec660</title>
<ellipse fill="none" stroke="black" cx="933.44" cy="-565.31" rx="83.38" ry="26.74"/>
<text text-anchor="middle" x="933.44" y="-569.11" font-family="Times,serif" font-size="14.00">NUMBER_DATA</text>
<text text-anchor="middle" x="933.44" y="-554.11" font-family="Times,serif" font-size="14.00">20</text>
</g>
<!-- node0x6000031ec690&#45;&#45;node0x6000031ec660 -->
<g id="edge34" class="edge">
<title>node0x6000031ec690&#45;&#45;node0x6000031ec660</title>
<path fill="none" stroke="black" d="M933.44,-628.2C933.44,-616.88 933.44,-603.62 933.44,-592.28"/>
</g>
<!-- node0x6000031ec9c0 -->
<g id="node37" class="node">
<title>node0x6000031ec9c0</title>
<ellipse fill="none" stroke="black" cx="1112.44" cy="-834.53" rx="92.08" ry="18"/>
<text text-anchor="middle" x="1112.44" y="-830.83" font-family="Times,serif" font-size="14.00">PRINT_STATEMENT</text>
</g>
<!-- node0x6000031ec9f0&#45;&#45;node0x6000031ec9c0 -->
<g id="edge36" class="edge">
<title>node0x6000031ec9f0&#45;&#45;node0x6000031ec9c0</title>
<path fill="none" stroke="black" d="M1105.22,-905.94C1106.79,-890.55 1109.09,-868.2 1110.66,-852.83"/>
</g>
<!-- node0x6000031ec990 -->
<g id="node38" class="node">
<title>node0x6000031ec990</title>
<ellipse fill="none" stroke="black" cx="1119.44" cy="-744.79" rx="59.29" ry="18"/>
<text text-anchor="middle" x="1119.44" y="-741.09" font-family="Times,serif" font-size="14.00">PRINT_LIST</text>
</g>
<!-- node0x6000031ec9c0&#45;&#45;node0x6000031ec990 -->
<g id="edge37" class="edge">
<title>node0x6000031ec9c0&#45;&#45;node0x6000031ec990</title>
<path fill="none" stroke="black" d="M1113.82,-816.2C1115.05,-800.81 1116.83,-778.46 1118.06,-763.09"/>
</g>
<!-- node0x6000031ec960 -->
<g id="node39" class="node">
<title>node0x6000031ec960</title>
<ellipse fill="none" stroke="black" cx="1119.44" cy="-655.05" rx="62.29" ry="18"/>
<text text-anchor="middle" x="1119.44" y="-651.35" font-family="Times,serif" font-size="14.00">PRINT_ITEM</text>
</g>
<!-- node0x6000031ec990&#45;&#45;node0x6000031ec960 -->
<g id="edge38" class="edge">
<title>node0x6000031ec990&#45;&#45;node0x6000031ec960</title>
<path fill="none" stroke="black" d="M1119.44,-726.46C1119.44,-711.07 1119.44,-688.72 1119.44,-673.35"/>
</g>
<!-- node0x6000031ec930 -->
<g id="node40" class="node">
<title>node0x6000031ec930</title>
<ellipse fill="none" stroke="black" cx="1119.44" cy="-565.31" rx="69.09" ry="26.74"/>
<text text-anchor="middle" x="1119.44" y="-569.11" font-family="Times,serif" font-size="14.00">EXPRESSION</text>
<text text-anchor="middle" x="1119.44" y="-554.11" font-family="Times,serif" font-size="14.00">NULL</text>
</g>
<!-- node0x6000031ec960&#45;&#45;node0x6000031ec930 -->
<g id="edge39" class="edge">
<title>node0x6000031ec960&#45;&#45;node0x6000031ec930</title>
<path fill="none" stroke="black" d="M1119.44,-636.72C1119.44,-624.03 1119.44,-606.6 1119.44,-592.26"/>
</g>
<!-- node0x6000031ec900 -->
<g id="node41" class="node">
<title>node0x6000031ec900</title>
<ellipse fill="none" stroke="black" cx="1119.44" cy="-475.57" rx="89.08" ry="18"/>
<text text-anchor="middle" x="1119.44" y="-471.87" font-family="Times,serif" font-size="14.00">ARRAY_INDEXING</text>
</g>
<!-- node0x6000031ec930&#45;&#45;node0x6000031ec900 -->
<g id="edge40" class="edge">
<title>node0x6000031ec930&#45;&#45;node0x6000031ec900</title>
<path fill="none" stroke="black" d="M1119.44,-538.46C1119.44,-524.1 1119.44,-506.63 1119.44,-493.92"/>
</g>
<!-- node0x6000031ec750 -->
<g id="node42" class="node">
<title>node0x6000031ec750</title>
<ellipse fill="none" stroke="black" cx="1028.44" cy="-385.83" rx="94.51" ry="26.74"/>
<text text-anchor="middle" x="1028.44" y="-389.63" font-family="Times,serif" font-size="14.00">IDENTIFIER_DATA</text>
<text text-anchor="middle" x="1028.44" y="-374.63" font-family="Times,serif" font-size="14.00">array</text>
</g>
<!-- node0x6000031ec900&#45;&#45;node0x6000031ec750 -->
<g id="edge41" class="edge">
<title>node0x6000031ec900&#45;&#45;node0x6000031ec750</title>
<path fill="none" stroke="black" d="M1101.89,-457.65C1088.46,-444.71 1069.73,-426.65 1054.55,-412"/>
</g>
<!-- node0x6000031ec8d0 -->
<g id="node43" class="node">
<title>node0x6000031ec8d0</title>
<ellipse fill="none" stroke="black" cx="1210.44" cy="-385.83" rx="69.09" ry="26.74"/>
<text text-anchor="middle" x="1210.44" y="-389.63" font-family="Times,serif" font-size="14.00">EXPRESSION</text>
<text text-anchor="middle" x="1210.44" y="-374.63" font-family="Times,serif" font-size="14.00">+</text>
</g>
<!-- node0x6000031ec900&#45;&#45;node0x6000031ec8d0 -->
<g id="edge42" class="edge">
<title>node0x6000031ec900&#45;&#45;node0x6000031ec8d0</title>
<path fill="none" stroke="black" d="M1136.98,-457.65C1150.72,-444.41 1170.01,-425.81 1185.38,-410.99"/>
</g>
<!-- node0x6000031ec840 -->
<g id="node44" class="node">
<title>node0x6000031ec840</title>
<ellipse fill="none" stroke="black" cx="1126.44" cy="-296.09" rx="69.09" ry="26.74"/>
<text text-anchor="middle" x="1126.44" y="-299.89" font-family="Times,serif" font-size="14.00">EXPRESSION</text>
<text text-anchor="middle" x="1126.44" y="-284.89" font-family="Times,serif" font-size="14.00">NULL</text>
</g>
<!-- node0x6000031ec8d0&#45;&#45;node0x6000031ec840 -->
<g id="edge43" class="edge">
<title>node0x6000031ec8d0&#45;&#45;node0x6000031ec840</title>
<path fill="none" stroke="black" d="M1187.04,-360.39C1175.49,-348.32 1161.58,-333.8 1150,-321.7"/>
</g>
<!-- node0x6000031ec8a0 -->
<g id="node49" class="node">
<title>node0x6000031ec8a0</title>
<ellipse fill="none" stroke="black" cx="1294.44" cy="-296.09" rx="69.09" ry="26.74"/>
<text text-anchor="middle" x="1294.44" y="-299.89" font-family="Times,serif" font-size="14.00">EXPRESSION</text>
<text text-anchor="middle" x="1294.44" y="-284.89" font-family="Times,serif" font-size="14.00">NULL</text>
</g>
<!-- node0x6000031ec8d0&#45;&#45;node0x6000031ec8a0 -->
<g id="edge48" class="edge">
<title>node0x6000031ec8d0&#45;&#45;node0x6000031ec8a0</title>
<path fill="none" stroke="black" d="M1233.84,-360.39C1245.39,-348.32 1259.3,-333.8 1270.87,-321.7"/>
</g>
<!-- node0x6000031ec810 -->
<g id="node45" class="node">
<title>node0x6000031ec810</title>
<ellipse fill="none" stroke="black" cx="1104.44" cy="-206.35" rx="89.08" ry="18"/>
<text text-anchor="middle" x="1104.44" y="-202.65" font-family="Times,serif" font-size="14.00">ARRAY_INDEXING</text>
</g>
<!-- node0x6000031ec840&#45;&#45;node0x6000031ec810 -->
<g id="edge44" class="edge">
<title>node0x6000031ec840&#45;&#45;node0x6000031ec810</title>
<path fill="none" stroke="black" d="M1119.96,-269.24C1116.36,-254.88 1111.98,-237.41 1108.79,-224.7"/>
</g>
<!-- node0x6000031ec780 -->
<g id="node46" class="node">
<title>node0x6000031ec780</title>
<ellipse fill="none" stroke="black" cx="1013.44" cy="-116.61" rx="94.51" ry="26.74"/>
<text text-anchor="middle" x="1013.44" y="-120.41" font-family="Times,serif" font-size="14.00">IDENTIFIER_DATA</text>
<text text-anchor="middle" x="1013.44" y="-105.41" font-family="Times,serif" font-size="14.00">array</text>
</g>
<!-- node0x6000031ec810&#45;&#45;node0x6000031ec780 -->
<g id="edge45" class="edge">
<title>node0x6000031ec810&#45;&#45;node0x6000031ec780</title>
<path fill="none" stroke="black" d="M1086.89,-188.43C1073.46,-175.49 1054.73,-157.42 1039.55,-142.78"/>
</g>
<!-- node0x6000031ec7e0 -->
<g id="node47" class="node">
<title>node0x6000031ec7e0</title>
<ellipse fill="none" stroke="black" cx="1195.44" cy="-116.61" rx="69.09" ry="26.74"/>
<text text-anchor="middle" x="1195.44" y="-120.41" font-family="Times,serif" font-size="14.00">EXPRESSION</text>
<text text-anchor="middle" x="1195.44" y="-105.41" font-family="Times,serif" font-size="14.00">NULL</text>
</g>
<!-- node0x6000031ec810&#45;&#45;node0x6000031ec7e0 -->
<g id="edge46" class="edge">
<title>node0x6000031ec810&#45;&#45;node0x6000031ec7e0</title>
<path fill="none" stroke="black" d="M1121.98,-188.43C1135.72,-175.19 1155.01,-156.59 1170.38,-141.77"/>
</g>
<!-- node0x6000031ec7b0 -->
<g id="node48" class="node">
<title>node0x6000031ec7b0</title>
<ellipse fill="none" stroke="black" cx="1195.44" cy="-26.87" rx="94.51" ry="26.74"/>
<text text-anchor="middle" x="1195.44" y="-30.67" font-family="Times,serif" font-size="14.00">IDENTIFIER_DATA</text>
<text text-anchor="middle" x="1195.44" y="-15.67" font-family="Times,serif" font-size="14.00">x</text>
</g>
<!-- node0x6000031ec7e0&#45;&#45;node0x6000031ec7b0 -->
<g id="edge47" class="edge">
<title>node0x6000031ec7e0&#45;&#45;node0x6000031ec7b0</title>
<path fill="none" stroke="black" d="M1195.44,-89.76C1195.44,-78.44 1195.44,-65.18 1195.44,-53.84"/>
</g>
<!-- node0x6000031ec870 -->
<g id="node50" class="node">
<title>node0x6000031ec870</title>
<ellipse fill="none" stroke="black" cx="1306.44" cy="-206.35" rx="94.51" ry="26.74"/>
<text text-anchor="middle" x="1306.44" y="-210.15" font-family="Times,serif" font-size="14.00">IDENTIFIER_DATA</text>
<text text-anchor="middle" x="1306.44" y="-195.15" font-family="Times,serif" font-size="14.00">y</text>
</g>
<!-- node0x6000031ec8a0&#45;&#45;node0x6000031ec870 -->
<g id="edge49" class="edge">
<title>node0x6000031ec8a0&#45;&#45;node0x6000031ec870</title>
<path fill="none" stroke="black" d="M1297.97,-269.24C1299.52,-257.92 1301.34,-244.66 1302.89,-233.32"/>
</g>
</g>
</svg>
