<?xml version="1.0" encoding="UTF-8" standalone="no"?>
<!DOCTYPE svg PUBLIC "-//W3C//DTD SVG 1.1//EN"
 "http://www.w3.org/Graphics/SVG/1.1/DTD/svg11.dtd">
<!-- Generated by graphviz version 7.1.0 (20230121.1956)
 -->
<!-- Pages: 1 -->
<svg width="1331pt" height="726pt"
 viewBox="0.00 0.00 1330.50 726.44" xmlns="http://www.w3.org/2000/svg" xmlns:xlink="http://www.w3.org/1999/xlink">
<g id="graph0" class="graph" transform="scale(1 1) rotate(0) translate(4 722.44)">
<polygon fill="white" stroke="none" points="-4,4 -4,-722.44 1326.5,-722.44 1326.5,4 -4,4"/>
<!-- node0x6000024d0b10 -->
<g id="node1" class="node">
<title>node0x6000024d0b10</title>
<ellipse fill="none" stroke="black" cx="388.75" cy="-700.44" rx="69.59" ry="18"/>
<text text-anchor="middle" x="388.75" y="-696.74" font-family="Times,serif" font-size="14.00">GLOBAL_LIST</text>
</g>
<!-- node0x6000024d03f0 -->
<g id="node2" class="node">
<title>node0x6000024d03f0</title>
<ellipse fill="none" stroke="black" cx="290.75" cy="-628.44" rx="107.48" ry="18"/>
<text text-anchor="middle" x="290.75" y="-624.74" font-family="Times,serif" font-size="14.00">ARRAY_DECLARATION</text>
</g>
<!-- node0x6000024d0b10&#45;&#45;node0x6000024d03f0 -->
<g id="edge1" class="edge">
<title>node0x6000024d0b10&#45;&#45;node0x6000024d03f0</title>
<path fill="none" stroke="black" d="M366.02,-683.21C350.53,-672.14 330.06,-657.52 314.38,-646.32"/>
</g>
<!-- node0x6000024d0ab0 -->
<g id="node5" class="node">
<title>node0x6000024d0ab0</title>
<ellipse fill="none" stroke="black" cx="586.75" cy="-628.44" rx="55.49" ry="18"/>
<text text-anchor="middle" x="586.75" y="-624.74" font-family="Times,serif" font-size="14.00">FUNCTION</text>
</g>
<!-- node0x6000024d0b10&#45;&#45;node0x6000024d0ab0 -->
<g id="edge4" class="edge">
<title>node0x6000024d0b10&#45;&#45;node0x6000024d0ab0</title>
<path fill="none" stroke="black" d="M428.82,-685.28C464.3,-672.73 515.66,-654.57 550.08,-642.4"/>
</g>
<!-- node0x6000024d0210 -->
<g id="node3" class="node">
<title>node0x6000024d0210</title>
<ellipse fill="none" stroke="black" cx="94.75" cy="-547.57" rx="94.51" ry="26.74"/>
<text text-anchor="middle" x="94.75" y="-551.37" font-family="Times,serif" font-size="14.00">IDENTIFIER_DATA</text>
<text text-anchor="middle" x="94.75" y="-536.37" font-family="Times,serif" font-size="14.00">array</text>
</g>
<!-- node0x6000024d03f0&#45;&#45;node0x6000024d0210 -->
<g id="edge2" class="edge">
<title>node0x6000024d03f0&#45;&#45;node0x6000024d0210</title>
<path fill="none" stroke="black" d="M250.62,-611.29C220.94,-599.35 180.23,-582.97 147.85,-569.94"/>
</g>
<!-- node0x6000024d0390 -->
<g id="node4" class="node">
<title>node0x6000024d0390</title>
<ellipse fill="none" stroke="black" cx="290.75" cy="-547.57" rx="83.38" ry="26.74"/>
<text text-anchor="middle" x="290.75" y="-551.37" font-family="Times,serif" font-size="14.00">NUMBER_DATA</text>
<text text-anchor="middle" x="290.75" y="-536.37" font-family="Times,serif" font-size="14.00">102</text>
</g>
<!-- node0x6000024d03f0&#45;&#45;node0x6000024d0390 -->
<g id="edge3" class="edge">
<title>node0x6000024d03f0&#45;&#45;node0x6000024d0390</title>
<path fill="none" stroke="black" d="M290.75,-610.33C290.75,-599.91 290.75,-586.39 290.75,-574.65"/>
</g>
<!-- node0x6000024d0480 -->
<g id="node6" class="node">
<title>node0x6000024d0480</title>
<ellipse fill="none" stroke="black" cx="486.75" cy="-547.57" rx="94.51" ry="26.74"/>
<text text-anchor="middle" x="486.75" y="-551.37" font-family="Times,serif" font-size="14.00">IDENTIFIER_DATA</text>
<text text-anchor="middle" x="486.75" y="-536.37" font-family="Times,serif" font-size="14.00">main</text>
</g>
<!-- node0x6000024d0ab0&#45;&#45;node0x6000024d0480 -->
<g id="edge5" class="edge">
<title>node0x6000024d0ab0&#45;&#45;node0x6000024d0480</title>
<path fill="none" stroke="black" d="M566.52,-611.48C552.59,-600.5 533.82,-585.69 517.99,-573.21"/>
</g>
<!-- node0x6000024d0570 -->
<g id="node7" class="node">
<title>node0x6000024d0570</title>
<ellipse fill="none" stroke="black" cx="686.75" cy="-547.57" rx="87.18" ry="18"/>
<text text-anchor="middle" x="686.75" y="-543.87" font-family="Times,serif" font-size="14.00">PARAMETER_LIST</text>
</g>
<!-- node0x6000024d0ab0&#45;&#45;node0x6000024d0570 -->
<g id="edge6" class="edge">
<title>node0x6000024d0ab0&#45;&#45;node0x6000024d0570</title>
<path fill="none" stroke="black" d="M606.99,-611.48C624,-598.07 648.23,-578.96 665.51,-565.32"/>
</g>
<!-- node0x6000024d0a50 -->
<g id="node10" class="node">
<title>node0x6000024d0a50</title>
<ellipse fill="none" stroke="black" cx="858.75" cy="-547.57" rx="40.09" ry="18"/>
<text text-anchor="middle" x="858.75" y="-543.87" font-family="Times,serif" font-size="14.00">BLOCK</text>
</g>
<!-- node0x6000024d0ab0&#45;&#45;node0x6000024d0a50 -->
<g id="edge9" class="edge">
<title>node0x6000024d0ab0&#45;&#45;node0x6000024d0a50</title>
<path fill="none" stroke="black" d="M629.8,-616.65C669.66,-606.45 730.49,-590.38 782.75,-574.44 797.82,-569.85 814.39,-564.27 828.2,-559.47"/>
</g>
<!-- node0x6000024d04b0 -->
<g id="node8" class="node">
<title>node0x6000024d04b0</title>
<ellipse fill="none" stroke="black" cx="478.75" cy="-457.83" rx="94.51" ry="26.74"/>
<text text-anchor="middle" x="478.75" y="-461.63" font-family="Times,serif" font-size="14.00">IDENTIFIER_DATA</text>
<text text-anchor="middle" x="478.75" y="-446.63" font-family="Times,serif" font-size="14.00">x</text>
</g>
<!-- node0x6000024d0570&#45;&#45;node0x6000024d04b0 -->
<g id="edge7" class="edge">
<title>node0x6000024d0570&#45;&#45;node0x6000024d04b0</title>
<path fill="none" stroke="black" d="M649.57,-530.88C616.38,-516.89 567.45,-496.25 530.46,-480.64"/>
</g>
<!-- node0x6000024d0510 -->
<g id="node9" class="node">
<title>node0x6000024d0510</title>
<ellipse fill="none" stroke="black" cx="686.75" cy="-457.83" rx="94.51" ry="26.74"/>
<text text-anchor="middle" x="686.75" y="-461.63" font-family="Times,serif" font-size="14.00">IDENTIFIER_DATA</text>
<text text-anchor="middle" x="686.75" y="-446.63" font-family="Times,serif" font-size="14.00">y</text>
</g>
<!-- node0x6000024d0570&#45;&#45;node0x6000024d0510 -->
<g id="edge8" class="edge">
<title>node0x6000024d0570&#45;&#45;node0x6000024d0510</title>
<path fill="none" stroke="black" d="M686.75,-529.24C686.75,-516.55 686.75,-499.12 686.75,-484.78"/>
</g>
<!-- node0x6000024d0a20 -->
<g id="node11" class="node">
<title>node0x6000024d0a20</title>
<ellipse fill="none" stroke="black" cx="884.75" cy="-457.83" rx="85.29" ry="18"/>
<text text-anchor="middle" x="884.75" y="-454.13" font-family="Times,serif" font-size="14.00">STATEMENT_LIST</text>
</g>
<!-- node0x6000024d0a50&#45;&#45;node0x6000024d0a20 -->
<g id="edge10" class="edge">
<title>node0x6000024d0a50&#45;&#45;node0x6000024d0a20</title>
<path fill="none" stroke="black" d="M863.89,-529.24C868.45,-513.85 875.07,-491.5 879.63,-476.13"/>
</g>
<!-- node0x6000024d06c0 -->
<g id="node12" class="node">
<title>node0x6000024d06c0</title>
<ellipse fill="none" stroke="black" cx="767.75" cy="-376.96" rx="124.28" ry="18"/>
<text text-anchor="middle" x="767.75" y="-373.26" font-family="Times,serif" font-size="14.00">ASSIGNMENT_STATEMENT</text>
</g>
<!-- node0x6000024d0a20&#45;&#45;node0x6000024d06c0 -->
<g id="edge11" class="edge">
<title>node0x6000024d0a20&#45;&#45;node0x6000024d06c0</title>
<path fill="none" stroke="black" d="M860.23,-440.3C840.52,-427.02 812.96,-408.43 793.06,-395.02"/>
</g>
<!-- node0x6000024d09c0 -->
<g id="node17" class="node">
<title>node0x6000024d09c0</title>
<ellipse fill="none" stroke="black" cx="1001.75" cy="-376.96" rx="92.08" ry="18"/>
<text text-anchor="middle" x="1001.75" y="-373.26" font-family="Times,serif" font-size="14.00">PRINT_STATEMENT</text>
</g>
<!-- node0x6000024d0a20&#45;&#45;node0x6000024d09c0 -->
<g id="edge16" class="edge">
<title>node0x6000024d0a20&#45;&#45;node0x6000024d09c0</title>
<path fill="none" stroke="black" d="M909.28,-440.3C929.11,-426.93 956.92,-408.18 976.85,-394.74"/>
</g>
<!-- node0x6000024d0630 -->
<g id="node13" class="node">
<title>node0x6000024d0630</title>
<ellipse fill="none" stroke="black" cx="599.75" cy="-296.09" rx="89.08" ry="18"/>
<text text-anchor="middle" x="599.75" y="-292.39" font-family="Times,serif" font-size="14.00">ARRAY_INDEXING</text>
</g>
<!-- node0x6000024d06c0&#45;&#45;node0x6000024d0630 -->
<g id="edge12" class="edge">
<title>node0x6000024d06c0&#45;&#45;node0x6000024d0630</title>
<path fill="none" stroke="black" d="M732.12,-359.23C703.13,-345.62 662.48,-326.54 633.9,-313.12"/>
</g>
<!-- node0x6000024d0660 -->
<g id="node16" class="node">
<title>node0x6000024d0660</title>
<ellipse fill="none" stroke="black" cx="789.75" cy="-296.09" rx="83.38" ry="26.74"/>
<text text-anchor="middle" x="789.75" y="-299.89" font-family="Times,serif" font-size="14.00">NUMBER_DATA</text>
<text text-anchor="middle" x="789.75" y="-284.89" font-family="Times,serif" font-size="14.00">20</text>
</g>
<!-- node0x6000024d06c0&#45;&#45;node0x6000024d0660 -->
<g id="edge15" class="edge">
<title>node0x6000024d06c0&#45;&#45;node0x6000024d0660</title>
<path fill="none" stroke="black" d="M772.53,-358.85C775.43,-348.43 779.2,-334.91 782.48,-323.17"/>
</g>
<!-- node0x6000024d05a0 -->
<g id="node14" class="node">
<title>node0x6000024d05a0</title>
<ellipse fill="none" stroke="black" cx="460.75" cy="-206.35" rx="94.51" ry="26.74"/>
<text text-anchor="middle" x="460.75" y="-210.15" font-family="Times,serif" font-size="14.00">IDENTIFIER_DATA</text>
<text text-anchor="middle" x="460.75" y="-195.15" font-family="Times,serif" font-size="14.00">array</text>
</g>
<!-- node0x6000024d0630&#45;&#45;node0x6000024d05a0 -->
<g id="edge13" class="edge">
<title>node0x6000024d0630&#45;&#45;node0x6000024d05a0</title>
<path fill="none" stroke="black" d="M573.61,-278.59C552.45,-265.23 522.37,-246.25 498.59,-231.23"/>
</g>
<!-- node0x6000024d05d0 -->
<g id="node15" class="node">
<title>node0x6000024d05d0</title>
<ellipse fill="none" stroke="black" cx="656.75" cy="-206.35" rx="83.38" ry="26.74"/>
<text text-anchor="middle" x="656.75" y="-210.15" font-family="Times,serif" font-size="14.00">NUMBER_DATA</text>
<text text-anchor="middle" x="656.75" y="-195.15" font-family="Times,serif" font-size="14.00">2</text>
</g>
<!-- node0x6000024d0630&#45;&#45;node0x6000024d05d0 -->
<g id="edge14" class="edge">
<title>node0x6000024d0630&#45;&#45;node0x6000024d05d0</title>
<path fill="none" stroke="black" d="M611.01,-277.76C619.32,-264.97 630.75,-247.37 640.11,-232.96"/>
</g>
<!-- node0x6000024d0900 -->
<g id="node18" class="node">
<title>node0x6000024d0900</title>
<ellipse fill="none" stroke="black" cx="1001.75" cy="-296.09" rx="89.08" ry="18"/>
<text text-anchor="middle" x="1001.75" y="-292.39" font-family="Times,serif" font-size="14.00">ARRAY_INDEXING</text>
</g>
<!-- node0x6000024d09c0&#45;&#45;node0x6000024d0900 -->
<g id="edge17" class="edge">
<title>node0x6000024d09c0&#45;&#45;node0x6000024d0900</title>
<path fill="none" stroke="black" d="M1001.75,-358.85C1001.75,-345.71 1001.75,-327.64 1001.75,-314.44"/>
</g>
<!-- node0x6000024d0750 -->
<g id="node19" class="node">
<title>node0x6000024d0750</title>
<ellipse fill="none" stroke="black" cx="944.75" cy="-206.35" rx="94.51" ry="26.74"/>
<text text-anchor="middle" x="944.75" y="-210.15" font-family="Times,serif" font-size="14.00">IDENTIFIER_DATA</text>
<text text-anchor="middle" x="944.75" y="-195.15" font-family="Times,serif" font-size="14.00">array</text>
</g>
<!-- node0x6000024d0900&#45;&#45;node0x6000024d0750 -->
<g id="edge18" class="edge">
<title>node0x6000024d0900&#45;&#45;node0x6000024d0750</title>
<path fill="none" stroke="black" d="M990.49,-277.76C982.19,-264.97 970.75,-247.37 961.39,-232.96"/>
</g>
<!-- node0x6000024d08d0 -->
<g id="node20" class="node">
<title>node0x6000024d08d0</title>
<ellipse fill="none" stroke="black" cx="1126.75" cy="-206.35" rx="69.09" ry="26.74"/>
<text text-anchor="middle" x="1126.75" y="-210.15" font-family="Times,serif" font-size="14.00">EXPRESSION</text>
<text text-anchor="middle" x="1126.75" y="-195.15" font-family="Times,serif" font-size="14.00">+</text>
</g>
<!-- node0x6000024d0900&#45;&#45;node0x6000024d08d0 -->
<g id="edge19" class="edge">
<title>node0x6000024d0900&#45;&#45;node0x6000024d08d0</title>
<path fill="none" stroke="black" d="M1025.56,-278.38C1044.97,-264.76 1072.58,-245.37 1094.06,-230.29"/>
</g>
<!-- node0x6000024d0810 -->
<g id="node21" class="node">
<title>node0x6000024d0810</title>
<ellipse fill="none" stroke="black" cx="1025.75" cy="-116.61" rx="89.08" ry="18"/>
<text text-anchor="middle" x="1025.75" y="-112.91" font-family="Times,serif" font-size="14.00">ARRAY_INDEXING</text>
</g>
<!-- node0x6000024d08d0&#45;&#45;node0x6000024d0810 -->
<g id="edge20" class="edge">
<title>node0x6000024d08d0&#45;&#45;node0x6000024d0810</title>
<path fill="none" stroke="black" d="M1099.15,-181.37C1082.1,-166.56 1060.62,-147.9 1045.32,-134.61"/>
</g>
<!-- node0x6000024d0870 -->
<g id="node24" class="node">
<title>node0x6000024d0870</title>
<ellipse fill="none" stroke="black" cx="1227.75" cy="-116.61" rx="94.51" ry="26.74"/>
<text text-anchor="middle" x="1227.75" y="-120.41" font-family="Times,serif" font-size="14.00">IDENTIFIER_DATA</text>
<text text-anchor="middle" x="1227.75" y="-105.41" font-family="Times,serif" font-size="14.00">y</text>
</g>
<!-- node0x6000024d08d0&#45;&#45;node0x6000024d0870 -->
<g id="edge23" class="edge">
<title>node0x6000024d08d0&#45;&#45;node0x6000024d0870</title>
<path fill="none" stroke="black" d="M1154.35,-181.37C1168.25,-169.3 1185.09,-154.67 1199.13,-142.47"/>
</g>
<!-- node0x6000024d0780 -->
<g id="node22" class="node">
<title>node0x6000024d0780</title>
<ellipse fill="none" stroke="black" cx="921.75" cy="-26.87" rx="94.51" ry="26.74"/>
<text text-anchor="middle" x="921.75" y="-30.67" font-family="Times,serif" font-size="14.00">IDENTIFIER_DATA</text>
<text text-anchor="middle" x="921.75" y="-15.67" font-family="Times,serif" font-size="14.00">array</text>
</g>
<!-- node0x6000024d0810&#45;&#45;node0x6000024d0780 -->
<g id="edge21" class="edge">
<title>node0x6000024d0810&#45;&#45;node0x6000024d0780</title>
<path fill="none" stroke="black" d="M1005.7,-98.69C990.24,-85.65 968.62,-67.41 951.19,-52.7"/>
</g>
<!-- node0x6000024d07b0 -->
<g id="node23" class="node">
<title>node0x6000024d07b0</title>
<ellipse fill="none" stroke="black" cx="1129.75" cy="-26.87" rx="94.51" ry="26.74"/>
<text text-anchor="middle" x="1129.75" y="-30.67" font-family="Times,serif" font-size="14.00">IDENTIFIER_DATA</text>
<text text-anchor="middle" x="1129.75" y="-15.67" font-family="Times,serif" font-size="14.00">x</text>
</g>
<!-- node0x6000024d0810&#45;&#45;node0x6000024d07b0 -->
<g id="edge22" class="edge">
<title>node0x6000024d0810&#45;&#45;node0x6000024d07b0</title>
<path fill="none" stroke="black" d="M1045.8,-98.69C1061.27,-85.65 1082.89,-67.41 1100.32,-52.7"/>
</g>
</g>
</svg>
