<?xml version="1.0" encoding="UTF-8" standalone="no"?>
<!DOCTYPE svg PUBLIC "-//W3C//DTD SVG 1.1//EN"
 "http://www.w3.org/Graphics/SVG/1.1/DTD/svg11.dtd">
<!-- Generated by graphviz version 7.1.0 (20230121.1956)
 -->
<!-- Pages: 1 -->
<svg width="800pt" height="295pt"
 viewBox="0.00 0.00 800.19 295.48" xmlns="http://www.w3.org/2000/svg" xmlns:xlink="http://www.w3.org/1999/xlink">
<g id="graph0" class="graph" transform="scale(1 1) rotate(0) translate(4 291.48)">
<polygon fill="white" stroke="none" points="-4,4 -4,-291.48 796.19,-291.48 796.19,4 -4,4"/>
<!-- node0x600000628a50 -->
<g id="node1" class="node">
<title>node0x600000628a50</title>
<ellipse fill="none" stroke="black" cx="294.75" cy="-269.48" rx="69.59" ry="18"/>
<text text-anchor="middle" x="294.75" y="-265.78" font-family="Times,serif" font-size="14.00">GLOBAL_LIST</text>
</g>
<!-- node0x6000006289f0 -->
<g id="node2" class="node">
<title>node0x6000006289f0</title>
<ellipse fill="none" stroke="black" cx="294.75" cy="-197.48" rx="55.49" ry="18"/>
<text text-anchor="middle" x="294.75" y="-193.78" font-family="Times,serif" font-size="14.00">FUNCTION</text>
</g>
<!-- node0x600000628a50&#45;&#45;node0x6000006289f0 -->
<g id="edge1" class="edge">
<title>node0x600000628a50&#45;&#45;node0x6000006289f0</title>
<path fill="none" stroke="black" d="M294.75,-251.18C294.75,-240.33 294.75,-226.4 294.75,-215.58"/>
</g>
<!-- node0x600000628210 -->
<g id="node3" class="node">
<title>node0x600000628210</title>
<ellipse fill="none" stroke="black" cx="94.75" cy="-116.61" rx="94.51" ry="26.74"/>
<text text-anchor="middle" x="94.75" y="-120.41" font-family="Times,serif" font-size="14.00">IDENTIFIER_DATA</text>
<text text-anchor="middle" x="94.75" y="-105.41" font-family="Times,serif" font-size="14.00">main</text>
</g>
<!-- node0x6000006289f0&#45;&#45;node0x600000628210 -->
<g id="edge2" class="edge">
<title>node0x6000006289f0&#45;&#45;node0x600000628210</title>
<path fill="none" stroke="black" d="M260.37,-182.92C229.66,-170.81 184.16,-152.87 148.62,-138.85"/>
</g>
<!-- node0x6000006282a0 -->
<g id="node4" class="node">
<title>node0x6000006282a0</title>
<ellipse fill="none" stroke="black" cx="294.75" cy="-116.61" rx="87.18" ry="18"/>
<text text-anchor="middle" x="294.75" y="-112.91" font-family="Times,serif" font-size="14.00">PARAMETER_LIST</text>
</g>
<!-- node0x6000006289f0&#45;&#45;node0x6000006282a0 -->
<g id="edge3" class="edge">
<title>node0x6000006289f0&#45;&#45;node0x6000006282a0</title>
<path fill="none" stroke="black" d="M294.75,-179.37C294.75,-166.23 294.75,-148.16 294.75,-134.96"/>
</g>
<!-- node0x600000628990 -->
<g id="node6" class="node">
<title>node0x600000628990</title>
<ellipse fill="none" stroke="black" cx="523.75" cy="-116.61" rx="124.28" ry="18"/>
<text text-anchor="middle" x="523.75" y="-112.91" font-family="Times,serif" font-size="14.00">ASSIGNMENT_STATEMENT</text>
</g>
<!-- node0x6000006289f0&#45;&#45;node0x600000628990 -->
<g id="edge5" class="edge">
<title>node0x6000006289f0&#45;&#45;node0x600000628990</title>
<path fill="none" stroke="black" d="M331.8,-183.72C371.42,-170.07 434.34,-148.41 477.26,-133.62"/>
</g>
<!-- node0x600000628240 -->
<g id="node5" class="node">
<title>node0x600000628240</title>
<ellipse fill="none" stroke="black" cx="294.75" cy="-26.87" rx="94.51" ry="26.74"/>
<text text-anchor="middle" x="294.75" y="-30.67" font-family="Times,serif" font-size="14.00">IDENTIFIER_DATA</text>
<text text-anchor="middle" x="294.75" y="-15.67" font-family="Times,serif" font-size="14.00">a</text>
</g>
<!-- node0x6000006282a0&#45;&#45;node0x600000628240 -->
<g id="edge4" class="edge">
<title>node0x6000006282a0&#45;&#45;node0x600000628240</title>
<path fill="none" stroke="black" d="M294.75,-98.28C294.75,-85.59 294.75,-68.16 294.75,-53.82"/>
</g>
<!-- node0x6000006282d0 -->
<g id="node7" class="node">
<title>node0x6000006282d0</title>
<ellipse fill="none" stroke="black" cx="512.75" cy="-26.87" rx="94.51" ry="26.74"/>
<text text-anchor="middle" x="512.75" y="-30.67" font-family="Times,serif" font-size="14.00">IDENTIFIER_DATA</text>
<text text-anchor="middle" x="512.75" y="-15.67" font-family="Times,serif" font-size="14.00">a</text>
</g>
<!-- node0x600000628990&#45;&#45;node0x6000006282d0 -->
<g id="edge6" class="edge">
<title>node0x600000628990&#45;&#45;node0x6000006282d0</title>
<path fill="none" stroke="black" d="M521.58,-98.28C519.99,-85.59 517.8,-68.16 516.01,-53.82"/>
</g>
<!-- node0x600000628960 -->
<g id="node8" class="node">
<title>node0x600000628960</title>
<ellipse fill="none" stroke="black" cx="708.75" cy="-26.87" rx="83.38" ry="26.74"/>
<text text-anchor="middle" x="708.75" y="-30.67" font-family="Times,serif" font-size="14.00">NUMBER_DATA</text>
<text text-anchor="middle" x="708.75" y="-15.67" font-family="Times,serif" font-size="14.00">1</text>
</g>
<!-- node0x600000628990&#45;&#45;node0x600000628960 -->
<g id="edge7" class="edge">
<title>node0x600000628990&#45;&#45;node0x600000628960</title>
<path fill="none" stroke="black" d="M558.98,-98.9C588.55,-84.88 630.98,-64.76 663.14,-49.5"/>
</g>
</g>
</svg>
