<?xml version="1.0" encoding="UTF-8" standalone="no"?>
<!DOCTYPE svg PUBLIC "-//W3C//DTD SVG 1.1//EN"
 "http://www.w3.org/Graphics/SVG/1.1/DTD/svg11.dtd">
<!-- Generated by graphviz version 7.1.0 (20230121.1956)
 -->
<!-- Pages: 1 -->
<svg width="749pt" height="870pt"
 viewBox="0.00 0.00 748.50 870.44" xmlns="http://www.w3.org/2000/svg" xmlns:xlink="http://www.w3.org/1999/xlink">
<g id="graph0" class="graph" transform="scale(1 1) rotate(0) translate(4 866.44)">
<polygon fill="white" stroke="none" points="-4,4 -4,-866.44 744.5,-866.44 744.5,4 -4,4"/>
<!-- node0x60000386c8d0 -->
<g id="node1" class="node">
<title>node0x60000386c8d0</title>
<ellipse fill="none" stroke="black" cx="318.75" cy="-844.44" rx="69.59" ry="18"/>
<text text-anchor="middle" x="318.75" y="-840.74" font-family="Times,serif" font-size="14.00">GLOBAL_LIST</text>
</g>
<!-- node0x60000386c870 -->
<g id="node2" class="node">
<title>node0x60000386c870</title>
<ellipse fill="none" stroke="black" cx="318.75" cy="-772.44" rx="55.49" ry="18"/>
<text text-anchor="middle" x="318.75" y="-768.74" font-family="Times,serif" font-size="14.00">FUNCTION</text>
</g>
<!-- node0x60000386c8d0&#45;&#45;node0x60000386c870 -->
<g id="edge1" class="edge">
<title>node0x60000386c8d0&#45;&#45;node0x60000386c870</title>
<path fill="none" stroke="black" d="M318.75,-826.14C318.75,-815.29 318.75,-801.36 318.75,-790.55"/>
</g>
<!-- node0x60000386c210 -->
<g id="node3" class="node">
<title>node0x60000386c210</title>
<ellipse fill="none" stroke="black" cx="128.75" cy="-691.57" rx="94.51" ry="26.74"/>
<text text-anchor="middle" x="128.75" y="-695.37" font-family="Times,serif" font-size="14.00">IDENTIFIER_DATA</text>
<text text-anchor="middle" x="128.75" y="-680.37" font-family="Times,serif" font-size="14.00">main</text>
</g>
<!-- node0x60000386c870&#45;&#45;node0x60000386c210 -->
<g id="edge2" class="edge">
<title>node0x60000386c870&#45;&#45;node0x60000386c210</title>
<path fill="none" stroke="black" d="M285.66,-757.7C256.74,-745.7 214.26,-728.07 180.8,-714.17"/>
</g>
<!-- node0x60000386c2d0 -->
<g id="node4" class="node">
<title>node0x60000386c2d0</title>
<ellipse fill="none" stroke="black" cx="318.75" cy="-691.57" rx="77.19" ry="18"/>
<text text-anchor="middle" x="318.75" y="-687.87" font-family="Times,serif" font-size="14.00">VARIABLE_LIST</text>
</g>
<!-- node0x60000386c870&#45;&#45;node0x60000386c2d0 -->
<g id="edge3" class="edge">
<title>node0x60000386c870&#45;&#45;node0x60000386c2d0</title>
<path fill="none" stroke="black" d="M318.75,-754.33C318.75,-741.19 318.75,-723.12 318.75,-709.92"/>
</g>
<!-- node0x60000386c840 -->
<g id="node6" class="node">
<title>node0x60000386c840</title>
<ellipse fill="none" stroke="black" cx="476.75" cy="-691.57" rx="62.29" ry="18"/>
<text text-anchor="middle" x="476.75" y="-687.87" font-family="Times,serif" font-size="14.00">STATEMENT</text>
</g>
<!-- node0x60000386c870&#45;&#45;node0x60000386c840 -->
<g id="edge5" class="edge">
<title>node0x60000386c870&#45;&#45;node0x60000386c840</title>
<path fill="none" stroke="black" d="M348.1,-756.79C376.12,-742.8 418.16,-721.82 446.49,-707.68"/>
</g>
<!-- node0x60000386c2a0 -->
<g id="node5" class="node">
<title>node0x60000386c2a0</title>
<ellipse fill="none" stroke="black" cx="318.75" cy="-601.83" rx="94.51" ry="26.74"/>
<text text-anchor="middle" x="318.75" y="-605.63" font-family="Times,serif" font-size="14.00">IDENTIFIER_DATA</text>
<text text-anchor="middle" x="318.75" y="-590.63" font-family="Times,serif" font-size="14.00">b</text>
</g>
<!-- node0x60000386c2d0&#45;&#45;node0x60000386c2a0 -->
<g id="edge4" class="edge">
<title>node0x60000386c2d0&#45;&#45;node0x60000386c2a0</title>
<path fill="none" stroke="black" d="M318.75,-673.24C318.75,-660.55 318.75,-643.12 318.75,-628.78"/>
</g>
<!-- node0x60000386c810 -->
<g id="node7" class="node">
<title>node0x60000386c810</title>
<ellipse fill="none" stroke="black" cx="476.75" cy="-601.83" rx="40.09" ry="18"/>
<text text-anchor="middle" x="476.75" y="-598.13" font-family="Times,serif" font-size="14.00">BLOCK</text>
</g>
<!-- node0x60000386c840&#45;&#45;node0x60000386c810 -->
<g id="edge6" class="edge">
<title>node0x60000386c840&#45;&#45;node0x60000386c810</title>
<path fill="none" stroke="black" d="M476.75,-673.24C476.75,-657.85 476.75,-635.5 476.75,-620.13"/>
</g>
<!-- node0x60000386c7e0 -->
<g id="node8" class="node">
<title>node0x60000386c7e0</title>
<ellipse fill="none" stroke="black" cx="476.75" cy="-520.96" rx="85.29" ry="18"/>
<text text-anchor="middle" x="476.75" y="-517.26" font-family="Times,serif" font-size="14.00">STATEMENT_LIST</text>
</g>
<!-- node0x60000386c810&#45;&#45;node0x60000386c7e0 -->
<g id="edge7" class="edge">
<title>node0x60000386c810&#45;&#45;node0x60000386c7e0</title>
<path fill="none" stroke="black" d="M476.75,-583.72C476.75,-570.58 476.75,-552.51 476.75,-539.31"/>
</g>
<!-- node0x60000386c6c0 -->
<g id="node9" class="node">
<title>node0x60000386c6c0</title>
<ellipse fill="none" stroke="black" cx="393.75" cy="-448.96" rx="85.29" ry="18"/>
<text text-anchor="middle" x="393.75" y="-445.26" font-family="Times,serif" font-size="14.00">STATEMENT_LIST</text>
</g>
<!-- node0x60000386c7e0&#45;&#45;node0x60000386c6c0 -->
<g id="edge8" class="edge">
<title>node0x60000386c7e0&#45;&#45;node0x60000386c6c0</title>
<path fill="none" stroke="black" d="M456.66,-503.02C443.61,-492.01 426.67,-477.72 413.66,-466.75"/>
</g>
<!-- node0x60000386c7b0 -->
<g id="node20" class="node">
<title>node0x60000386c7b0</title>
<ellipse fill="none" stroke="black" cx="559.75" cy="-448.96" rx="62.29" ry="18"/>
<text text-anchor="middle" x="559.75" y="-445.26" font-family="Times,serif" font-size="14.00">STATEMENT</text>
</g>
<!-- node0x60000386c7e0&#45;&#45;node0x60000386c7b0 -->
<g id="edge19" class="edge">
<title>node0x60000386c7e0&#45;&#45;node0x60000386c7b0</title>
<path fill="none" stroke="black" d="M496.84,-503.02C509.99,-491.93 527.08,-477.51 540.13,-466.51"/>
</g>
<!-- node0x60000386c690 -->
<g id="node10" class="node">
<title>node0x60000386c690</title>
<ellipse fill="none" stroke="black" cx="393.75" cy="-368.09" rx="62.29" ry="18"/>
<text text-anchor="middle" x="393.75" y="-364.39" font-family="Times,serif" font-size="14.00">STATEMENT</text>
</g>
<!-- node0x60000386c6c0&#45;&#45;node0x60000386c690 -->
<g id="edge9" class="edge">
<title>node0x60000386c6c0&#45;&#45;node0x60000386c690</title>
<path fill="none" stroke="black" d="M393.75,-430.85C393.75,-417.71 393.75,-399.64 393.75,-386.44"/>
</g>
<!-- node0x60000386c660 -->
<g id="node11" class="node">
<title>node0x60000386c660</title>
<ellipse fill="none" stroke="black" cx="393.75" cy="-287.22" rx="83.69" ry="18"/>
<text text-anchor="middle" x="393.75" y="-283.52" font-family="Times,serif" font-size="14.00">FOR_STATEMENT</text>
</g>
<!-- node0x60000386c690&#45;&#45;node0x60000386c660 -->
<g id="edge10" class="edge">
<title>node0x60000386c690&#45;&#45;node0x60000386c660</title>
<path fill="none" stroke="black" d="M393.75,-349.98C393.75,-336.84 393.75,-318.77 393.75,-305.57"/>
</g>
<!-- node0x60000386c330 -->
<g id="node12" class="node">
<title>node0x60000386c330</title>
<ellipse fill="none" stroke="black" cx="94.75" cy="-206.35" rx="94.51" ry="26.74"/>
<text text-anchor="middle" x="94.75" y="-210.15" font-family="Times,serif" font-size="14.00">IDENTIFIER_DATA</text>
<text text-anchor="middle" x="94.75" y="-195.15" font-family="Times,serif" font-size="14.00">i</text>
</g>
<!-- node0x60000386c660&#45;&#45;node0x60000386c330 -->
<g id="edge11" class="edge">
<title>node0x60000386c660&#45;&#45;node0x60000386c330</title>
<path fill="none" stroke="black" d="M342.35,-272.66C292.76,-259.58 217.39,-239.7 162.83,-225.31"/>
</g>
<!-- node0x60000386c360 -->
<g id="node13" class="node">
<title>node0x60000386c360</title>
<ellipse fill="none" stroke="black" cx="302.75" cy="-206.35" rx="94.51" ry="26.74"/>
<text text-anchor="middle" x="302.75" y="-210.15" font-family="Times,serif" font-size="14.00">IDENTIFIER_DATA</text>
<text text-anchor="middle" x="302.75" y="-195.15" font-family="Times,serif" font-size="14.00">a</text>
</g>
<!-- node0x60000386c660&#45;&#45;node0x60000386c360 -->
<g id="edge12" class="edge">
<title>node0x60000386c660&#45;&#45;node0x60000386c360</title>
<path fill="none" stroke="black" d="M374.45,-269.49C361.93,-258.64 345.39,-244.31 331.36,-232.14"/>
</g>
<!-- node0x60000386c480 -->
<g id="node14" class="node">
<title>node0x60000386c480</title>
<ellipse fill="none" stroke="black" cx="484.75" cy="-206.35" rx="69.09" ry="26.74"/>
<text text-anchor="middle" x="484.75" y="-210.15" font-family="Times,serif" font-size="14.00">EXPRESSION</text>
<text text-anchor="middle" x="484.75" y="-195.15" font-family="Times,serif" font-size="14.00">+</text>
</g>
<!-- node0x60000386c660&#45;&#45;node0x60000386c480 -->
<g id="edge13" class="edge">
<title>node0x60000386c660&#45;&#45;node0x60000386c480</title>
<path fill="none" stroke="black" d="M413.05,-269.49C425.89,-258.37 442.94,-243.59 457.19,-231.23"/>
</g>
<!-- node0x60000386c630 -->
<g id="node17" class="node">
<title>node0x60000386c630</title>
<ellipse fill="none" stroke="black" cx="640.75" cy="-206.35" rx="62.29" ry="18"/>
<text text-anchor="middle" x="640.75" y="-202.65" font-family="Times,serif" font-size="14.00">STATEMENT</text>
</g>
<!-- node0x60000386c660&#45;&#45;node0x60000386c630 -->
<g id="edge16" class="edge">
<title>node0x60000386c660&#45;&#45;node0x60000386c630</title>
<path fill="none" stroke="black" d="M440.08,-271.91C474.08,-261.36 521.34,-246.58 562.75,-233.22 575.24,-229.19 588.83,-224.72 601.11,-220.64"/>
</g>
<!-- node0x60000386c3c0 -->
<g id="node15" class="node">
<title>node0x60000386c3c0</title>
<ellipse fill="none" stroke="black" cx="288.75" cy="-116.61" rx="94.51" ry="26.74"/>
<text text-anchor="middle" x="288.75" y="-120.41" font-family="Times,serif" font-size="14.00">IDENTIFIER_DATA</text>
<text text-anchor="middle" x="288.75" y="-105.41" font-family="Times,serif" font-size="14.00">b</text>
</g>
<!-- node0x60000386c480&#45;&#45;node0x60000386c3c0 -->
<g id="edge14" class="edge">
<title>node0x60000386c480&#45;&#45;node0x60000386c3c0</title>
<path fill="none" stroke="black" d="M440.28,-185.44C409.89,-171.84 369.61,-153.81 338.22,-139.75"/>
</g>
<!-- node0x60000386c420 -->
<g id="node16" class="node">
<title>node0x60000386c420</title>
<ellipse fill="none" stroke="black" cx="484.75" cy="-116.61" rx="83.38" ry="26.74"/>
<text text-anchor="middle" x="484.75" y="-120.41" font-family="Times,serif" font-size="14.00">NUMBER_DATA</text>
<text text-anchor="middle" x="484.75" y="-105.41" font-family="Times,serif" font-size="14.00">1</text>
</g>
<!-- node0x60000386c480&#45;&#45;node0x60000386c420 -->
<g id="edge15" class="edge">
<title>node0x60000386c480&#45;&#45;node0x60000386c420</title>
<path fill="none" stroke="black" d="M484.75,-179.5C484.75,-168.18 484.75,-154.92 484.75,-143.58"/>
</g>
<!-- node0x60000386c5d0 -->
<g id="node18" class="node">
<title>node0x60000386c5d0</title>
<ellipse fill="none" stroke="black" cx="645.75" cy="-116.61" rx="59.29" ry="18"/>
<text text-anchor="middle" x="645.75" y="-112.91" font-family="Times,serif" font-size="14.00">PRINT_LIST</text>
</g>
<!-- node0x60000386c630&#45;&#45;node0x60000386c5d0 -->
<g id="edge17" class="edge">
<title>node0x60000386c630&#45;&#45;node0x60000386c5d0</title>
<path fill="none" stroke="black" d="M641.74,-188.02C642.62,-172.63 643.89,-150.28 644.77,-134.91"/>
</g>
<!-- node0x60000386c540 -->
<g id="node19" class="node">
<title>node0x60000386c540</title>
<ellipse fill="none" stroke="black" cx="645.75" cy="-26.87" rx="94.51" ry="26.74"/>
<text text-anchor="middle" x="645.75" y="-30.67" font-family="Times,serif" font-size="14.00">IDENTIFIER_DATA</text>
<text text-anchor="middle" x="645.75" y="-15.67" font-family="Times,serif" font-size="14.00">i</text>
</g>
<!-- node0x60000386c5d0&#45;&#45;node0x60000386c540 -->
<g id="edge18" class="edge">
<title>node0x60000386c5d0&#45;&#45;node0x60000386c540</title>
<path fill="none" stroke="black" d="M645.75,-98.28C645.75,-85.59 645.75,-68.16 645.75,-53.82"/>
</g>
<!-- node0x60000386c6f0 -->
<g id="node21" class="node">
<title>node0x60000386c6f0</title>
<ellipse fill="none" stroke="black" cx="559.75" cy="-368.09" rx="76.24" ry="26.74"/>
<text text-anchor="middle" x="559.75" y="-371.89" font-family="Times,serif" font-size="14.00">STRING_DATA</text>
<text text-anchor="middle" x="559.75" y="-356.89" font-family="Times,serif" font-size="14.00">&quot;Done!&quot;</text>
</g>
<!-- node0x60000386c7b0&#45;&#45;node0x60000386c6f0 -->
<g id="edge20" class="edge">
<title>node0x60000386c7b0&#45;&#45;node0x60000386c6f0</title>
<path fill="none" stroke="black" d="M559.75,-430.85C559.75,-420.43 559.75,-406.91 559.75,-395.17"/>
</g>
</g>
</svg>
