<?xml version="1.0" encoding="UTF-8" standalone="no"?>
<!DOCTYPE svg PUBLIC "-//W3C//DTD SVG 1.1//EN"
 "http://www.w3.org/Graphics/SVG/1.1/DTD/svg11.dtd">
<!-- Generated by graphviz version 7.1.0 (20230121.1956)
 -->
<!-- Pages: 1 -->
<svg width="2071pt" height="960pt"
 viewBox="0.00 0.00 2071.19 960.18" xmlns="http://www.w3.org/2000/svg" xmlns:xlink="http://www.w3.org/1999/xlink">
<g id="graph0" class="graph" transform="scale(1 1) rotate(0) translate(4 956.18)">
<polygon fill="white" stroke="none" points="-4,4 -4,-956.18 2067.19,-956.18 2067.19,4 -4,4"/>
<!-- node0x6000032e08d0 -->
<g id="node1" class="node">
<title>node0x6000032e08d0</title>
<ellipse fill="none" stroke="black" cx="584.75" cy="-934.18" rx="69.59" ry="18"/>
<text text-anchor="middle" x="584.75" y="-930.48" font-family="Times,serif" font-size="14.00">GLOBAL_LIST</text>
</g>
<!-- node0x6000032e0870 -->
<g id="node2" class="node">
<title>node0x6000032e0870</title>
<ellipse fill="none" stroke="black" cx="584.75" cy="-862.18" rx="55.49" ry="18"/>
<text text-anchor="middle" x="584.75" y="-858.48" font-family="Times,serif" font-size="14.00">FUNCTION</text>
</g>
<!-- node0x6000032e08d0&#45;&#45;node0x6000032e0870 -->
<g id="edge1" class="edge">
<title>node0x6000032e08d0&#45;&#45;node0x6000032e0870</title>
<path fill="none" stroke="black" d="M584.75,-915.88C584.75,-905.03 584.75,-891.1 584.75,-880.29"/>
</g>
<!-- node0x6000032e0210 -->
<g id="node3" class="node">
<title>node0x6000032e0210</title>
<ellipse fill="none" stroke="black" cx="384.75" cy="-781.31" rx="94.51" ry="26.74"/>
<text text-anchor="middle" x="384.75" y="-785.11" font-family="Times,serif" font-size="14.00">IDENTIFIER_DATA</text>
<text text-anchor="middle" x="384.75" y="-770.11" font-family="Times,serif" font-size="14.00">main</text>
</g>
<!-- node0x6000032e0870&#45;&#45;node0x6000032e0210 -->
<g id="edge2" class="edge">
<title>node0x6000032e0870&#45;&#45;node0x6000032e0210</title>
<path fill="none" stroke="black" d="M550.37,-847.62C519.66,-835.51 474.16,-817.57 438.62,-803.55"/>
</g>
<!-- node0x6000032e0300 -->
<g id="node4" class="node">
<title>node0x6000032e0300</title>
<ellipse fill="none" stroke="black" cx="584.75" cy="-781.31" rx="87.18" ry="18"/>
<text text-anchor="middle" x="584.75" y="-777.61" font-family="Times,serif" font-size="14.00">PARAMETER_LIST</text>
</g>
<!-- node0x6000032e0870&#45;&#45;node0x6000032e0300 -->
<g id="edge3" class="edge">
<title>node0x6000032e0870&#45;&#45;node0x6000032e0300</title>
<path fill="none" stroke="black" d="M584.75,-844.07C584.75,-830.93 584.75,-812.86 584.75,-799.66"/>
</g>
<!-- node0x6000032e0810 -->
<g id="node7" class="node">
<title>node0x6000032e0810</title>
<ellipse fill="none" stroke="black" cx="755.75" cy="-781.31" rx="40.09" ry="18"/>
<text text-anchor="middle" x="755.75" y="-777.61" font-family="Times,serif" font-size="14.00">BLOCK</text>
</g>
<!-- node0x6000032e0870&#45;&#45;node0x6000032e0810 -->
<g id="edge6" class="edge">
<title>node0x6000032e0870&#45;&#45;node0x6000032e0810</title>
<path fill="none" stroke="black" d="M615.72,-846.9C647.86,-832.07 697.66,-809.1 728.4,-794.93"/>
</g>
<!-- node0x6000032e0240 -->
<g id="node5" class="node">
<title>node0x6000032e0240</title>
<ellipse fill="none" stroke="black" cx="376.75" cy="-691.57" rx="94.51" ry="26.74"/>
<text text-anchor="middle" x="376.75" y="-695.37" font-family="Times,serif" font-size="14.00">IDENTIFIER_DATA</text>
<text text-anchor="middle" x="376.75" y="-680.37" font-family="Times,serif" font-size="14.00">a</text>
</g>
<!-- node0x6000032e0300&#45;&#45;node0x6000032e0240 -->
<g id="edge4" class="edge">
<title>node0x6000032e0300&#45;&#45;node0x6000032e0240</title>
<path fill="none" stroke="black" d="M547.57,-764.62C514.38,-750.63 465.45,-729.99 428.46,-714.38"/>
</g>
<!-- node0x6000032e02a0 -->
<g id="node6" class="node">
<title>node0x6000032e02a0</title>
<ellipse fill="none" stroke="black" cx="584.75" cy="-691.57" rx="94.51" ry="26.74"/>
<text text-anchor="middle" x="584.75" y="-695.37" font-family="Times,serif" font-size="14.00">IDENTIFIER_DATA</text>
<text text-anchor="middle" x="584.75" y="-680.37" font-family="Times,serif" font-size="14.00">b</text>
</g>
<!-- node0x6000032e0300&#45;&#45;node0x6000032e02a0 -->
<g id="edge5" class="edge">
<title>node0x6000032e0300&#45;&#45;node0x6000032e02a0</title>
<path fill="none" stroke="black" d="M584.75,-762.98C584.75,-750.29 584.75,-732.86 584.75,-718.52"/>
</g>
<!-- node0x6000032e07e0 -->
<g id="node8" class="node">
<title>node0x6000032e07e0</title>
<ellipse fill="none" stroke="black" cx="782.75" cy="-691.57" rx="85.29" ry="18"/>
<text text-anchor="middle" x="782.75" y="-687.87" font-family="Times,serif" font-size="14.00">STATEMENT_LIST</text>
</g>
<!-- node0x6000032e0810&#45;&#45;node0x6000032e07e0 -->
<g id="edge7" class="edge">
<title>node0x6000032e0810&#45;&#45;node0x6000032e07e0</title>
<path fill="none" stroke="black" d="M761.09,-762.98C765.82,-747.59 772.7,-725.24 777.43,-709.87"/>
</g>
<!-- node0x6000032e0ae0 -->
<g id="node9" class="node">
<title>node0x6000032e0ae0</title>
<ellipse fill="none" stroke="black" cx="700.75" cy="-610.7" rx="40.09" ry="18"/>
<text text-anchor="middle" x="700.75" y="-607" font-family="Times,serif" font-size="14.00">BLOCK</text>
</g>
<!-- node0x6000032e07e0&#45;&#45;node0x6000032e0ae0 -->
<g id="edge8" class="edge">
<title>node0x6000032e07e0&#45;&#45;node0x6000032e0ae0</title>
<path fill="none" stroke="black" d="M765.36,-673.84C751.16,-660.19 731.24,-641.02 717.28,-627.6"/>
</g>
<!-- node0x6000032e0780 -->
<g id="node38" class="node">
<title>node0x6000032e0780</title>
<ellipse fill="none" stroke="black" cx="865.75" cy="-610.7" rx="92.08" ry="18"/>
<text text-anchor="middle" x="865.75" y="-607" font-family="Times,serif" font-size="14.00">PRINT_STATEMENT</text>
</g>
<!-- node0x6000032e07e0&#45;&#45;node0x6000032e0780 -->
<g id="edge37" class="edge">
<title>node0x6000032e07e0&#45;&#45;node0x6000032e0780</title>
<path fill="none" stroke="black" d="M800.35,-673.84C814.34,-660.55 833.83,-642.03 847.89,-628.67"/>
</g>
<!-- node0x6000032e05a0 -->
<g id="node10" class="node">
<title>node0x6000032e05a0</title>
<ellipse fill="none" stroke="black" cx="494.75" cy="-529.83" rx="94.78" ry="18"/>
<text text-anchor="middle" x="494.75" y="-526.13" font-family="Times,serif" font-size="14.00">DECLARATION_LIST</text>
</g>
<!-- node0x6000032e0ae0&#45;&#45;node0x6000032e05a0 -->
<g id="edge9" class="edge">
<title>node0x6000032e0ae0&#45;&#45;node0x6000032e05a0</title>
<path fill="none" stroke="black" d="M670.8,-598.23C635.09,-584.56 575.25,-561.65 535.39,-546.39"/>
</g>
<!-- node0x6000032e0ab0 -->
<g id="node15" class="node">
<title>node0x6000032e0ab0</title>
<ellipse fill="none" stroke="black" cx="700.75" cy="-529.83" rx="85.29" ry="18"/>
<text text-anchor="middle" x="700.75" y="-526.13" font-family="Times,serif" font-size="14.00">STATEMENT_LIST</text>
</g>
<!-- node0x6000032e0ae0&#45;&#45;node0x6000032e0ab0 -->
<g id="edge14" class="edge">
<title>node0x6000032e0ae0&#45;&#45;node0x6000032e0ab0</title>
<path fill="none" stroke="black" d="M700.75,-592.59C700.75,-579.45 700.75,-561.38 700.75,-548.18"/>
</g>
<!-- node0x6000032e0510 -->
<g id="node11" class="node">
<title>node0x6000032e0510</title>
<ellipse fill="none" stroke="black" cx="290.75" cy="-448.96" rx="72.29" ry="18"/>
<text text-anchor="middle" x="290.75" y="-445.26" font-family="Times,serif" font-size="14.00">DECLARATION</text>
</g>
<!-- node0x6000032e05a0&#45;&#45;node0x6000032e0510 -->
<g id="edge10" class="edge">
<title>node0x6000032e05a0&#45;&#45;node0x6000032e0510</title>
<path fill="none" stroke="black" d="M454.45,-513.25C417.99,-499.15 364.68,-478.54 328.9,-464.71"/>
</g>
<!-- node0x6000032e05d0 -->
<g id="node12" class="node">
<title>node0x6000032e05d0</title>
<ellipse fill="none" stroke="black" cx="198.75" cy="-368.09" rx="77.19" ry="18"/>
<text text-anchor="middle" x="198.75" y="-364.39" font-family="Times,serif" font-size="14.00">VARIABLE_LIST</text>
</g>
<!-- node0x6000032e0510&#45;&#45;node0x6000032e05d0 -->
<g id="edge11" class="edge">
<title>node0x6000032e0510&#45;&#45;node0x6000032e05d0</title>
<path fill="none" stroke="black" d="M271.24,-431.23C255.63,-417.85 233.84,-399.17 218.24,-385.79"/>
</g>
<!-- node0x6000032e0330 -->
<g id="node13" class="node">
<title>node0x6000032e0330</title>
<ellipse fill="none" stroke="black" cx="94.75" cy="-278.35" rx="94.51" ry="26.74"/>
<text text-anchor="middle" x="94.75" y="-282.15" font-family="Times,serif" font-size="14.00">IDENTIFIER_DATA</text>
<text text-anchor="middle" x="94.75" y="-267.15" font-family="Times,serif" font-size="14.00">i</text>
</g>
<!-- node0x6000032e05d0&#45;&#45;node0x6000032e0330 -->
<g id="edge12" class="edge">
<title>node0x6000032e05d0&#45;&#45;node0x6000032e0330</title>
<path fill="none" stroke="black" d="M179.19,-350.59C163.66,-337.48 141.69,-318.95 124.06,-304.08"/>
</g>
<!-- node0x6000032e0630 -->
<g id="node14" class="node">
<title>node0x6000032e0630</title>
<ellipse fill="none" stroke="black" cx="302.75" cy="-278.35" rx="94.51" ry="26.74"/>
<text text-anchor="middle" x="302.75" y="-282.15" font-family="Times,serif" font-size="14.00">IDENTIFIER_DATA</text>
<text text-anchor="middle" x="302.75" y="-267.15" font-family="Times,serif" font-size="14.00">__FOR_END__</text>
</g>
<!-- node0x6000032e05d0&#45;&#45;node0x6000032e0630 -->
<g id="edge13" class="edge">
<title>node0x6000032e05d0&#45;&#45;node0x6000032e0630</title>
<path fill="none" stroke="black" d="M218.31,-350.59C233.85,-337.48 255.81,-318.95 273.45,-304.08"/>
</g>
<!-- node0x6000032e04e0 -->
<g id="node16" class="node">
<title>node0x6000032e04e0</title>
<ellipse fill="none" stroke="black" cx="567.75" cy="-448.96" rx="124.28" ry="18"/>
<text text-anchor="middle" x="567.75" y="-445.26" font-family="Times,serif" font-size="14.00">ASSIGNMENT_STATEMENT</text>
</g>
<!-- node0x6000032e0ab0&#45;&#45;node0x6000032e04e0 -->
<g id="edge15" class="edge">
<title>node0x6000032e0ab0&#45;&#45;node0x6000032e04e0</title>
<path fill="none" stroke="black" d="M673.19,-512.49C650.67,-499.13 618.95,-480.32 596.19,-466.83"/>
</g>
<!-- node0x6000032e03f0 -->
<g id="node19" class="node">
<title>node0x6000032e03f0</title>
<ellipse fill="none" stroke="black" cx="833.75" cy="-448.96" rx="124.28" ry="18"/>
<text text-anchor="middle" x="833.75" y="-445.26" font-family="Times,serif" font-size="14.00">ASSIGNMENT_STATEMENT</text>
</g>
<!-- node0x6000032e0ab0&#45;&#45;node0x6000032e03f0 -->
<g id="edge18" class="edge">
<title>node0x6000032e0ab0&#45;&#45;node0x6000032e03f0</title>
<path fill="none" stroke="black" d="M728.31,-512.49C750.83,-499.13 782.55,-480.32 805.31,-466.83"/>
</g>
<!-- node0x6000032e0a80 -->
<g id="node24" class="node">
<title>node0x6000032e0a80</title>
<ellipse fill="none" stroke="black" cx="1286.75" cy="-448.96" rx="95.58" ry="18"/>
<text text-anchor="middle" x="1286.75" y="-445.26" font-family="Times,serif" font-size="14.00">WHILE_STATEMENT</text>
</g>
<!-- node0x6000032e0ab0&#45;&#45;node0x6000032e0a80 -->
<g id="edge23" class="edge">
<title>node0x6000032e0ab0&#45;&#45;node0x6000032e0a80</title>
<path fill="none" stroke="black" d="M747.77,-514.45C762.96,-510.22 779.96,-505.94 795.75,-502.96 934.55,-476.74 1098.05,-462.32 1196.98,-455.37"/>
</g>
<!-- node0x6000032e0570 -->
<g id="node17" class="node">
<title>node0x6000032e0570</title>
<ellipse fill="none" stroke="black" cx="388.75" cy="-368.09" rx="94.51" ry="26.74"/>
<text text-anchor="middle" x="388.75" y="-371.89" font-family="Times,serif" font-size="14.00">IDENTIFIER_DATA</text>
<text text-anchor="middle" x="388.75" y="-356.89" font-family="Times,serif" font-size="14.00">i</text>
</g>
<!-- node0x6000032e04e0&#45;&#45;node0x6000032e0570 -->
<g id="edge16" class="edge">
<title>node0x6000032e04e0&#45;&#45;node0x6000032e0570</title>
<path fill="none" stroke="black" d="M530.23,-431.43C503.68,-419.73 467.78,-403.91 438.8,-391.14"/>
</g>
<!-- node0x6000032e0360 -->
<g id="node18" class="node">
<title>node0x6000032e0360</title>
<ellipse fill="none" stroke="black" cx="596.75" cy="-368.09" rx="94.51" ry="26.74"/>
<text text-anchor="middle" x="596.75" y="-371.89" font-family="Times,serif" font-size="14.00">IDENTIFIER_DATA</text>
<text text-anchor="middle" x="596.75" y="-356.89" font-family="Times,serif" font-size="14.00">a</text>
</g>
<!-- node0x6000032e04e0&#45;&#45;node0x6000032e0360 -->
<g id="edge17" class="edge">
<title>node0x6000032e04e0&#45;&#45;node0x6000032e0360</title>
<path fill="none" stroke="black" d="M574.04,-430.85C577.88,-420.43 582.85,-406.91 587.16,-395.17"/>
</g>
<!-- node0x6000032e0450 -->
<g id="node20" class="node">
<title>node0x6000032e0450</title>
<ellipse fill="none" stroke="black" cx="804.75" cy="-368.09" rx="94.51" ry="26.74"/>
<text text-anchor="middle" x="804.75" y="-371.89" font-family="Times,serif" font-size="14.00">IDENTIFIER_DATA</text>
<text text-anchor="middle" x="804.75" y="-356.89" font-family="Times,serif" font-size="14.00">__FOR_END__</text>
</g>
<!-- node0x6000032e03f0&#45;&#45;node0x6000032e0450 -->
<g id="edge19" class="edge">
<title>node0x6000032e03f0&#45;&#45;node0x6000032e0450</title>
<path fill="none" stroke="black" d="M827.46,-430.85C823.63,-420.43 818.66,-406.91 814.34,-395.17"/>
</g>
<!-- node0x6000032e0480 -->
<g id="node21" class="node">
<title>node0x6000032e0480</title>
<ellipse fill="none" stroke="black" cx="986.75" cy="-368.09" rx="69.09" ry="26.74"/>
<text text-anchor="middle" x="986.75" y="-371.89" font-family="Times,serif" font-size="14.00">EXPRESSION</text>
<text text-anchor="middle" x="986.75" y="-356.89" font-family="Times,serif" font-size="14.00">+</text>
</g>
<!-- node0x6000032e03f0&#45;&#45;node0x6000032e0480 -->
<g id="edge20" class="edge">
<title>node0x6000032e03f0&#45;&#45;node0x6000032e0480</title>
<path fill="none" stroke="black" d="M866.2,-431.23C889.53,-419.21 921.16,-402.9 946.17,-390.01"/>
</g>
<!-- node0x6000032e03c0 -->
<g id="node22" class="node">
<title>node0x6000032e03c0</title>
<ellipse fill="none" stroke="black" cx="790.75" cy="-278.35" rx="94.51" ry="26.74"/>
<text text-anchor="middle" x="790.75" y="-282.15" font-family="Times,serif" font-size="14.00">IDENTIFIER_DATA</text>
<text text-anchor="middle" x="790.75" y="-267.15" font-family="Times,serif" font-size="14.00">b</text>
</g>
<!-- node0x6000032e0480&#45;&#45;node0x6000032e03c0 -->
<g id="edge21" class="edge">
<title>node0x6000032e0480&#45;&#45;node0x6000032e03c0</title>
<path fill="none" stroke="black" d="M942.28,-347.18C911.89,-333.58 871.61,-315.55 840.22,-301.49"/>
</g>
<!-- node0x6000032e0420 -->
<g id="node23" class="node">
<title>node0x6000032e0420</title>
<ellipse fill="none" stroke="black" cx="986.75" cy="-278.35" rx="83.38" ry="26.74"/>
<text text-anchor="middle" x="986.75" y="-282.15" font-family="Times,serif" font-size="14.00">NUMBER_DATA</text>
<text text-anchor="middle" x="986.75" y="-267.15" font-family="Times,serif" font-size="14.00">1</text>
</g>
<!-- node0x6000032e0480&#45;&#45;node0x6000032e0420 -->
<g id="edge22" class="edge">
<title>node0x6000032e0480&#45;&#45;node0x6000032e0420</title>
<path fill="none" stroke="black" d="M986.75,-341.24C986.75,-329.92 986.75,-316.66 986.75,-305.32"/>
</g>
<!-- node0x6000032e0a50 -->
<g id="node25" class="node">
<title>node0x6000032e0a50</title>
<ellipse fill="none" stroke="black" cx="1286.75" cy="-368.09" rx="58.88" ry="26.74"/>
<text text-anchor="middle" x="1286.75" y="-371.89" font-family="Times,serif" font-size="14.00">RELATION</text>
<text text-anchor="middle" x="1286.75" y="-356.89" font-family="Times,serif" font-size="14.00">&lt;</text>
</g>
<!-- node0x6000032e0a80&#45;&#45;node0x6000032e0a50 -->
<g id="edge24" class="edge">
<title>node0x6000032e0a80&#45;&#45;node0x6000032e0a50</title>
<path fill="none" stroke="black" d="M1286.75,-430.85C1286.75,-420.43 1286.75,-406.91 1286.75,-395.17"/>
</g>
<!-- node0x6000032e09c0 -->
<g id="node28" class="node">
<title>node0x6000032e09c0</title>
<ellipse fill="none" stroke="black" cx="1495.75" cy="-368.09" rx="40.09" ry="18"/>
<text text-anchor="middle" x="1495.75" y="-364.39" font-family="Times,serif" font-size="14.00">BLOCK</text>
</g>
<!-- node0x6000032e0a80&#45;&#45;node0x6000032e09c0 -->
<g id="edge27" class="edge">
<title>node0x6000032e0a80&#45;&#45;node0x6000032e09c0</title>
<path fill="none" stroke="black" d="M1328.29,-432.28C1368.89,-416.97 1429.69,-394.02 1465.78,-380.4"/>
</g>
<!-- node0x6000032e09f0 -->
<g id="node26" class="node">
<title>node0x6000032e09f0</title>
<ellipse fill="none" stroke="black" cx="1182.75" cy="-278.35" rx="94.51" ry="26.74"/>
<text text-anchor="middle" x="1182.75" y="-282.15" font-family="Times,serif" font-size="14.00">IDENTIFIER_DATA</text>
<text text-anchor="middle" x="1182.75" y="-267.15" font-family="Times,serif" font-size="14.00">i</text>
</g>
<!-- node0x6000032e0a50&#45;&#45;node0x6000032e09f0 -->
<g id="edge25" class="edge">
<title>node0x6000032e0a50&#45;&#45;node0x6000032e09f0</title>
<path fill="none" stroke="black" d="M1259.43,-344.04C1244.86,-331.75 1226.94,-316.63 1212.08,-304.09"/>
</g>
<!-- node0x6000032e0a20 -->
<g id="node27" class="node">
<title>node0x6000032e0a20</title>
<ellipse fill="none" stroke="black" cx="1390.75" cy="-278.35" rx="94.51" ry="26.74"/>
<text text-anchor="middle" x="1390.75" y="-282.15" font-family="Times,serif" font-size="14.00">IDENTIFIER_DATA</text>
<text text-anchor="middle" x="1390.75" y="-267.15" font-family="Times,serif" font-size="14.00">__FOR_END__</text>
</g>
<!-- node0x6000032e0a50&#45;&#45;node0x6000032e0a20 -->
<g id="edge26" class="edge">
<title>node0x6000032e0a50&#45;&#45;node0x6000032e0a20</title>
<path fill="none" stroke="black" d="M1314.08,-344.04C1328.64,-331.75 1346.57,-316.63 1361.42,-304.09"/>
</g>
<!-- node0x6000032e0990 -->
<g id="node29" class="node">
<title>node0x6000032e0990</title>
<ellipse fill="none" stroke="black" cx="1588.75" cy="-278.35" rx="85.29" ry="18"/>
<text text-anchor="middle" x="1588.75" y="-274.65" font-family="Times,serif" font-size="14.00">STATEMENT_LIST</text>
</g>
<!-- node0x6000032e09c0&#45;&#45;node0x6000032e0990 -->
<g id="edge28" class="edge">
<title>node0x6000032e09c0&#45;&#45;node0x6000032e0990</title>
<path fill="none" stroke="black" d="M1512.38,-351.4C1528.78,-335.93 1553.79,-312.33 1570.68,-296.4"/>
</g>
<!-- node0x6000032e0600 -->
<g id="node30" class="node">
<title>node0x6000032e0600</title>
<ellipse fill="none" stroke="black" cx="1471.75" cy="-197.48" rx="92.08" ry="18"/>
<text text-anchor="middle" x="1471.75" y="-193.78" font-family="Times,serif" font-size="14.00">PRINT_STATEMENT</text>
</g>
<!-- node0x6000032e0990&#45;&#45;node0x6000032e0600 -->
<g id="edge29" class="edge">
<title>node0x6000032e0990&#45;&#45;node0x6000032e0600</title>
<path fill="none" stroke="black" d="M1564.23,-260.82C1544.39,-247.45 1516.58,-228.7 1496.65,-215.26"/>
</g>
<!-- node0x6000032e0960 -->
<g id="node33" class="node">
<title>node0x6000032e0960</title>
<ellipse fill="none" stroke="black" cx="1705.75" cy="-197.48" rx="124.28" ry="18"/>
<text text-anchor="middle" x="1705.75" y="-193.78" font-family="Times,serif" font-size="14.00">ASSIGNMENT_STATEMENT</text>
</g>
<!-- node0x6000032e0990&#45;&#45;node0x6000032e0960 -->
<g id="edge32" class="edge">
<title>node0x6000032e0990&#45;&#45;node0x6000032e0960</title>
<path fill="none" stroke="black" d="M1613.28,-260.82C1632.98,-247.54 1660.55,-228.95 1680.45,-215.54"/>
</g>
<!-- node0x6000032e04b0 -->
<g id="node31" class="node">
<title>node0x6000032e04b0</title>
<ellipse fill="none" stroke="black" cx="1289.75" cy="-116.61" rx="76.24" ry="26.74"/>
<text text-anchor="middle" x="1289.75" y="-120.41" font-family="Times,serif" font-size="14.00">STRING_DATA</text>
<text text-anchor="middle" x="1289.75" y="-105.41" font-family="Times,serif" font-size="14.00">&quot;i is now&quot;</text>
</g>
<!-- node0x6000032e0600&#45;&#45;node0x6000032e04b0 -->
<g id="edge30" class="edge">
<title>node0x6000032e0600&#45;&#45;node0x6000032e04b0</title>
<path fill="none" stroke="black" d="M1434.92,-180.52C1406.67,-168.28 1367.46,-151.29 1336.92,-138.05"/>
</g>
<!-- node0x6000032e0540 -->
<g id="node32" class="node">
<title>node0x6000032e0540</title>
<ellipse fill="none" stroke="black" cx="1478.75" cy="-116.61" rx="94.51" ry="26.74"/>
<text text-anchor="middle" x="1478.75" y="-120.41" font-family="Times,serif" font-size="14.00">IDENTIFIER_DATA</text>
<text text-anchor="middle" x="1478.75" y="-105.41" font-family="Times,serif" font-size="14.00">i</text>
</g>
<!-- node0x6000032e0600&#45;&#45;node0x6000032e0540 -->
<g id="edge31" class="edge">
<title>node0x6000032e0600&#45;&#45;node0x6000032e0540</title>
<path fill="none" stroke="black" d="M1473.27,-179.37C1474.2,-168.95 1475.4,-155.43 1476.44,-143.69"/>
</g>
<!-- node0x6000032e0930 -->
<g id="node34" class="node">
<title>node0x6000032e0930</title>
<ellipse fill="none" stroke="black" cx="1699.75" cy="-116.61" rx="94.51" ry="26.74"/>
<text text-anchor="middle" x="1699.75" y="-120.41" font-family="Times,serif" font-size="14.00">IDENTIFIER_DATA</text>
<text text-anchor="middle" x="1699.75" y="-105.41" font-family="Times,serif" font-size="14.00">i</text>
</g>
<!-- node0x6000032e0960&#45;&#45;node0x6000032e0930 -->
<g id="edge33" class="edge">
<title>node0x6000032e0960&#45;&#45;node0x6000032e0930</title>
<path fill="none" stroke="black" d="M1704.45,-179.37C1703.66,-168.95 1702.63,-155.43 1701.74,-143.69"/>
</g>
<!-- node0x6000032e02d0 -->
<g id="node35" class="node">
<title>node0x6000032e02d0</title>
<ellipse fill="none" stroke="black" cx="1881.75" cy="-116.61" rx="69.09" ry="26.74"/>
<text text-anchor="middle" x="1881.75" y="-120.41" font-family="Times,serif" font-size="14.00">EXPRESSION</text>
<text text-anchor="middle" x="1881.75" y="-105.41" font-family="Times,serif" font-size="14.00">+</text>
</g>
<!-- node0x6000032e0960&#45;&#45;node0x6000032e02d0 -->
<g id="edge34" class="edge">
<title>node0x6000032e0960&#45;&#45;node0x6000032e02d0</title>
<path fill="none" stroke="black" d="M1742.65,-179.95C1770.27,-167.57 1808.16,-150.59 1837.43,-137.47"/>
</g>
<!-- node0x6000032e0390 -->
<g id="node36" class="node">
<title>node0x6000032e0390</title>
<ellipse fill="none" stroke="black" cx="1783.75" cy="-26.87" rx="94.51" ry="26.74"/>
<text text-anchor="middle" x="1783.75" y="-30.67" font-family="Times,serif" font-size="14.00">IDENTIFIER_DATA</text>
<text text-anchor="middle" x="1783.75" y="-15.67" font-family="Times,serif" font-size="14.00">i</text>
</g>
<!-- node0x6000032e02d0&#45;&#45;node0x6000032e0390 -->
<g id="edge35" class="edge">
<title>node0x6000032e02d0&#45;&#45;node0x6000032e0390</title>
<path fill="none" stroke="black" d="M1854.97,-91.63C1841.49,-79.56 1825.15,-64.93 1811.52,-52.73"/>
</g>
<!-- node0x6000032e0270 -->
<g id="node37" class="node">
<title>node0x6000032e0270</title>
<ellipse fill="none" stroke="black" cx="1979.75" cy="-26.87" rx="83.38" ry="26.74"/>
<text text-anchor="middle" x="1979.75" y="-30.67" font-family="Times,serif" font-size="14.00">NUMBER_DATA</text>
<text text-anchor="middle" x="1979.75" y="-15.67" font-family="Times,serif" font-size="14.00">1</text>
</g>
<!-- node0x6000032e02d0&#45;&#45;node0x6000032e0270 -->
<g id="edge36" class="edge">
<title>node0x6000032e02d0&#45;&#45;node0x6000032e0270</title>
<path fill="none" stroke="black" d="M1908.53,-91.63C1922.13,-79.46 1938.63,-64.69 1952.32,-52.43"/>
</g>
<!-- node0x6000032e06f0 -->
<g id="node39" class="node">
<title>node0x6000032e06f0</title>
<ellipse fill="none" stroke="black" cx="880.75" cy="-529.83" rx="76.24" ry="26.74"/>
<text text-anchor="middle" x="880.75" y="-533.63" font-family="Times,serif" font-size="14.00">STRING_DATA</text>
<text text-anchor="middle" x="880.75" y="-518.63" font-family="Times,serif" font-size="14.00">&quot;Done!&quot;</text>
</g>
<!-- node0x6000032e0780&#45;&#45;node0x6000032e06f0 -->
<g id="edge38" class="edge">
<title>node0x6000032e0780&#45;&#45;node0x6000032e06f0</title>
<path fill="none" stroke="black" d="M869.01,-592.59C870.99,-582.17 873.56,-568.65 875.79,-556.91"/>
</g>
</g>
</svg>
