<?xml version="1.0" encoding="UTF-8" standalone="no"?>
<!DOCTYPE svg PUBLIC "-//W3C//DTD SVG 1.1//EN"
 "http://www.w3.org/Graphics/SVG/1.1/DTD/svg11.dtd">
<!-- Generated by graphviz version 7.1.0 (20230121.1956)
 -->
<!-- Pages: 1 -->
<svg width="886pt" height="1050pt"
 viewBox="0.00 0.00 885.50 1049.92" xmlns="http://www.w3.org/2000/svg" xmlns:xlink="http://www.w3.org/1999/xlink">
<g id="graph0" class="graph" transform="scale(1 1) rotate(0) translate(4 1045.92)">
<polygon fill="white" stroke="none" points="-4,4 -4,-1045.92 881.5,-1045.92 881.5,4 -4,4"/>
<!-- node0x6000002c48d0 -->
<g id="node1" class="node">
<title>node0x6000002c48d0</title>
<ellipse fill="none" stroke="black" cx="413.75" cy="-1023.92" rx="69.59" ry="18"/>
<text text-anchor="middle" x="413.75" y="-1020.22" font-family="Times,serif" font-size="14.00">GLOBAL_LIST</text>
</g>
<!-- node0x6000002c4870 -->
<g id="node2" class="node">
<title>node0x6000002c4870</title>
<ellipse fill="none" stroke="black" cx="413.75" cy="-951.92" rx="55.49" ry="18"/>
<text text-anchor="middle" x="413.75" y="-948.22" font-family="Times,serif" font-size="14.00">FUNCTION</text>
</g>
<!-- node0x6000002c48d0&#45;&#45;node0x6000002c4870 -->
<g id="edge1" class="edge">
<title>node0x6000002c48d0&#45;&#45;node0x6000002c4870</title>
<path fill="none" stroke="black" d="M413.75,-1005.62C413.75,-994.77 413.75,-980.84 413.75,-970.03"/>
</g>
<!-- node0x6000002c4210 -->
<g id="node3" class="node">
<title>node0x6000002c4210</title>
<ellipse fill="none" stroke="black" cx="213.75" cy="-871.05" rx="94.51" ry="26.74"/>
<text text-anchor="middle" x="213.75" y="-874.85" font-family="Times,serif" font-size="14.00">IDENTIFIER_DATA</text>
<text text-anchor="middle" x="213.75" y="-859.85" font-family="Times,serif" font-size="14.00">main</text>
</g>
<!-- node0x6000002c4870&#45;&#45;node0x6000002c4210 -->
<g id="edge2" class="edge">
<title>node0x6000002c4870&#45;&#45;node0x6000002c4210</title>
<path fill="none" stroke="black" d="M379.37,-937.36C348.66,-925.25 303.16,-907.31 267.62,-893.29"/>
</g>
<!-- node0x6000002c4300 -->
<g id="node4" class="node">
<title>node0x6000002c4300</title>
<ellipse fill="none" stroke="black" cx="413.75" cy="-871.05" rx="87.18" ry="18"/>
<text text-anchor="middle" x="413.75" y="-867.35" font-family="Times,serif" font-size="14.00">PARAMETER_LIST</text>
</g>
<!-- node0x6000002c4870&#45;&#45;node0x6000002c4300 -->
<g id="edge3" class="edge">
<title>node0x6000002c4870&#45;&#45;node0x6000002c4300</title>
<path fill="none" stroke="black" d="M413.75,-933.81C413.75,-920.67 413.75,-902.6 413.75,-889.4"/>
</g>
<!-- node0x6000002c4840 -->
<g id="node9" class="node">
<title>node0x6000002c4840</title>
<ellipse fill="none" stroke="black" cx="595.75" cy="-871.05" rx="62.29" ry="18"/>
<text text-anchor="middle" x="595.75" y="-867.35" font-family="Times,serif" font-size="14.00">STATEMENT</text>
</g>
<!-- node0x6000002c4870&#45;&#45;node0x6000002c4840 -->
<g id="edge8" class="edge">
<title>node0x6000002c4870&#45;&#45;node0x6000002c4840</title>
<path fill="none" stroke="black" d="M445.87,-937C478.53,-922.85 528.91,-901.02 562.11,-886.63"/>
</g>
<!-- node0x6000002c42d0 -->
<g id="node5" class="node">
<title>node0x6000002c42d0</title>
<ellipse fill="none" stroke="black" cx="405.75" cy="-790.18" rx="77.19" ry="18"/>
<text text-anchor="middle" x="405.75" y="-786.48" font-family="Times,serif" font-size="14.00">VARIABLE_LIST</text>
</g>
<!-- node0x6000002c4300&#45;&#45;node0x6000002c42d0 -->
<g id="edge4" class="edge">
<title>node0x6000002c4300&#45;&#45;node0x6000002c42d0</title>
<path fill="none" stroke="black" d="M412.02,-852.94C410.68,-839.8 408.85,-821.73 407.51,-808.53"/>
</g>
<!-- node0x6000002c4270 -->
<g id="node6" class="node">
<title>node0x6000002c4270</title>
<ellipse fill="none" stroke="black" cx="215.75" cy="-709.31" rx="77.19" ry="18"/>
<text text-anchor="middle" x="215.75" y="-705.61" font-family="Times,serif" font-size="14.00">VARIABLE_LIST</text>
</g>
<!-- node0x6000002c42d0&#45;&#45;node0x6000002c4270 -->
<g id="edge5" class="edge">
<title>node0x6000002c42d0&#45;&#45;node0x6000002c4270</title>
<path fill="none" stroke="black" d="M369.12,-773.97C335.47,-760.01 285.88,-739.42 252.27,-725.47"/>
</g>
<!-- node0x6000002c42a0 -->
<g id="node8" class="node">
<title>node0x6000002c42a0</title>
<ellipse fill="none" stroke="black" cx="405.75" cy="-709.31" rx="94.51" ry="26.74"/>
<text text-anchor="middle" x="405.75" y="-713.11" font-family="Times,serif" font-size="14.00">IDENTIFIER_DATA</text>
<text text-anchor="middle" x="405.75" y="-698.11" font-family="Times,serif" font-size="14.00">b</text>
</g>
<!-- node0x6000002c42d0&#45;&#45;node0x6000002c42a0 -->
<g id="edge7" class="edge">
<title>node0x6000002c42d0&#45;&#45;node0x6000002c42a0</title>
<path fill="none" stroke="black" d="M405.75,-772.07C405.75,-761.65 405.75,-748.13 405.75,-736.39"/>
</g>
<!-- node0x6000002c4240 -->
<g id="node7" class="node">
<title>node0x6000002c4240</title>
<ellipse fill="none" stroke="black" cx="215.75" cy="-619.57" rx="94.51" ry="26.74"/>
<text text-anchor="middle" x="215.75" y="-623.37" font-family="Times,serif" font-size="14.00">IDENTIFIER_DATA</text>
<text text-anchor="middle" x="215.75" y="-608.37" font-family="Times,serif" font-size="14.00">a</text>
</g>
<!-- node0x6000002c4270&#45;&#45;node0x6000002c4240 -->
<g id="edge6" class="edge">
<title>node0x6000002c4270&#45;&#45;node0x6000002c4240</title>
<path fill="none" stroke="black" d="M215.75,-690.98C215.75,-678.29 215.75,-660.86 215.75,-646.52"/>
</g>
<!-- node0x6000002c4810 -->
<g id="node10" class="node">
<title>node0x6000002c4810</title>
<ellipse fill="none" stroke="black" cx="599.75" cy="-790.18" rx="40.09" ry="18"/>
<text text-anchor="middle" x="599.75" y="-786.48" font-family="Times,serif" font-size="14.00">BLOCK</text>
</g>
<!-- node0x6000002c4840&#45;&#45;node0x6000002c4810 -->
<g id="edge9" class="edge">
<title>node0x6000002c4840&#45;&#45;node0x6000002c4810</title>
<path fill="none" stroke="black" d="M596.62,-852.94C597.29,-839.8 598.2,-821.73 598.87,-808.53"/>
</g>
<!-- node0x6000002c47e0 -->
<g id="node11" class="node">
<title>node0x6000002c47e0</title>
<ellipse fill="none" stroke="black" cx="603.75" cy="-709.31" rx="85.29" ry="18"/>
<text text-anchor="middle" x="603.75" y="-705.61" font-family="Times,serif" font-size="14.00">STATEMENT_LIST</text>
</g>
<!-- node0x6000002c4810&#45;&#45;node0x6000002c47e0 -->
<g id="edge10" class="edge">
<title>node0x6000002c4810&#45;&#45;node0x6000002c47e0</title>
<path fill="none" stroke="black" d="M600.62,-772.07C601.29,-758.93 602.2,-740.86 602.87,-727.66"/>
</g>
<!-- node0x6000002c46c0 -->
<g id="node12" class="node">
<title>node0x6000002c46c0</title>
<ellipse fill="none" stroke="black" cx="514.75" cy="-619.57" rx="85.29" ry="18"/>
<text text-anchor="middle" x="514.75" y="-615.87" font-family="Times,serif" font-size="14.00">STATEMENT_LIST</text>
</g>
<!-- node0x6000002c47e0&#45;&#45;node0x6000002c46c0 -->
<g id="edge11" class="edge">
<title>node0x6000002c47e0&#45;&#45;node0x6000002c46c0</title>
<path fill="none" stroke="black" d="M586.59,-691.39C570.83,-675.86 547.6,-652.96 531.86,-637.44"/>
</g>
<!-- node0x6000002c47b0 -->
<g id="node30" class="node">
<title>node0x6000002c47b0</title>
<ellipse fill="none" stroke="black" cx="692.75" cy="-619.57" rx="62.29" ry="18"/>
<text text-anchor="middle" x="692.75" y="-615.87" font-family="Times,serif" font-size="14.00">STATEMENT</text>
</g>
<!-- node0x6000002c47e0&#45;&#45;node0x6000002c47b0 -->
<g id="edge29" class="edge">
<title>node0x6000002c47e0&#45;&#45;node0x6000002c47b0</title>
<path fill="none" stroke="black" d="M620.91,-691.39C636.77,-675.76 660.2,-652.66 675.95,-637.14"/>
</g>
<!-- node0x6000002c4690 -->
<g id="node13" class="node">
<title>node0x6000002c4690</title>
<ellipse fill="none" stroke="black" cx="500.75" cy="-538.7" rx="62.29" ry="18"/>
<text text-anchor="middle" x="500.75" y="-535" font-family="Times,serif" font-size="14.00">STATEMENT</text>
</g>
<!-- node0x6000002c46c0&#45;&#45;node0x6000002c4690 -->
<g id="edge12" class="edge">
<title>node0x6000002c46c0&#45;&#45;node0x6000002c4690</title>
<path fill="none" stroke="black" d="M511.71,-601.46C509.38,-588.32 506.18,-570.25 503.83,-557.05"/>
</g>
<!-- node0x6000002c4660 -->
<g id="node14" class="node">
<title>node0x6000002c4660</title>
<ellipse fill="none" stroke="black" cx="433.75" cy="-466.7" rx="83.69" ry="18"/>
<text text-anchor="middle" x="433.75" y="-463" font-family="Times,serif" font-size="14.00">FOR_STATEMENT</text>
</g>
<!-- node0x6000002c4690&#45;&#45;node0x6000002c4660 -->
<g id="edge13" class="edge">
<title>node0x6000002c4690&#45;&#45;node0x6000002c4660</title>
<path fill="none" stroke="black" d="M484.87,-521.11C474.35,-510.11 460.58,-495.73 449.98,-484.66"/>
</g>
<!-- node0x6000002c4330 -->
<g id="node15" class="node">
<title>node0x6000002c4330</title>
<ellipse fill="none" stroke="black" cx="94.75" cy="-385.83" rx="94.51" ry="26.74"/>
<text text-anchor="middle" x="94.75" y="-389.63" font-family="Times,serif" font-size="14.00">IDENTIFIER_DATA</text>
<text text-anchor="middle" x="94.75" y="-374.63" font-family="Times,serif" font-size="14.00">i</text>
</g>
<!-- node0x6000002c4660&#45;&#45;node0x6000002c4330 -->
<g id="edge14" class="edge">
<title>node0x6000002c4660&#45;&#45;node0x6000002c4330</title>
<path fill="none" stroke="black" d="M376.69,-453.2C329.05,-442.67 259.39,-427.08 198.75,-412.7 187.62,-410.06 175.83,-407.2 164.35,-404.37"/>
</g>
<!-- node0x6000002c4390 -->
<g id="node16" class="node">
<title>node0x6000002c4390</title>
<ellipse fill="none" stroke="black" cx="276.75" cy="-385.83" rx="69.09" ry="26.74"/>
<text text-anchor="middle" x="276.75" y="-389.63" font-family="Times,serif" font-size="14.00">EXPRESSION</text>
<text text-anchor="middle" x="276.75" y="-374.63" font-family="Times,serif" font-size="14.00">NULL</text>
</g>
<!-- node0x6000002c4660&#45;&#45;node0x6000002c4390 -->
<g id="edge15" class="edge">
<title>node0x6000002c4660&#45;&#45;node0x6000002c4390</title>
<path fill="none" stroke="black" d="M401.98,-449.74C377.79,-437.59 344.29,-420.76 318.02,-407.56"/>
</g>
<!-- node0x6000002c4480 -->
<g id="node18" class="node">
<title>node0x6000002c4480</title>
<ellipse fill="none" stroke="black" cx="433.75" cy="-385.83" rx="69.09" ry="26.74"/>
<text text-anchor="middle" x="433.75" y="-389.63" font-family="Times,serif" font-size="14.00">EXPRESSION</text>
<text text-anchor="middle" x="433.75" y="-374.63" font-family="Times,serif" font-size="14.00">+</text>
</g>
<!-- node0x6000002c4660&#45;&#45;node0x6000002c4480 -->
<g id="edge17" class="edge">
<title>node0x6000002c4660&#45;&#45;node0x6000002c4480</title>
<path fill="none" stroke="black" d="M433.75,-448.59C433.75,-438.17 433.75,-424.65 433.75,-412.91"/>
</g>
<!-- node0x6000002c4630 -->
<g id="node23" class="node">
<title>node0x6000002c4630</title>
<ellipse fill="none" stroke="black" cx="583.75" cy="-385.83" rx="62.29" ry="18"/>
<text text-anchor="middle" x="583.75" y="-382.13" font-family="Times,serif" font-size="14.00">STATEMENT</text>
</g>
<!-- node0x6000002c4660&#45;&#45;node0x6000002c4630 -->
<g id="edge22" class="edge">
<title>node0x6000002c4660&#45;&#45;node0x6000002c4630</title>
<path fill="none" stroke="black" d="M464.47,-449.55C490.87,-435.67 528.67,-415.79 554.61,-402.16"/>
</g>
<!-- node0x6000002c4360 -->
<g id="node17" class="node">
<title>node0x6000002c4360</title>
<ellipse fill="none" stroke="black" cx="173.75" cy="-296.09" rx="94.51" ry="26.74"/>
<text text-anchor="middle" x="173.75" y="-299.89" font-family="Times,serif" font-size="14.00">IDENTIFIER_DATA</text>
<text text-anchor="middle" x="173.75" y="-284.89" font-family="Times,serif" font-size="14.00">a</text>
</g>
<!-- node0x6000002c4390&#45;&#45;node0x6000002c4360 -->
<g id="edge16" class="edge">
<title>node0x6000002c4390&#45;&#45;node0x6000002c4360</title>
<path fill="none" stroke="black" d="M248.88,-361.09C234.58,-348.91 217.18,-334.08 202.73,-321.77"/>
</g>
<!-- node0x6000002c43f0 -->
<g id="node19" class="node">
<title>node0x6000002c43f0</title>
<ellipse fill="none" stroke="black" cx="355.75" cy="-296.09" rx="69.09" ry="26.74"/>
<text text-anchor="middle" x="355.75" y="-299.89" font-family="Times,serif" font-size="14.00">EXPRESSION</text>
<text text-anchor="middle" x="355.75" y="-284.89" font-family="Times,serif" font-size="14.00">NULL</text>
</g>
<!-- node0x6000002c4480&#45;&#45;node0x6000002c43f0 -->
<g id="edge18" class="edge">
<title>node0x6000002c4480&#45;&#45;node0x6000002c43f0</title>
<path fill="none" stroke="black" d="M412.02,-360.39C401.3,-348.32 388.38,-333.8 377.63,-321.7"/>
</g>
<!-- node0x6000002c4450 -->
<g id="node21" class="node">
<title>node0x6000002c4450</title>
<ellipse fill="none" stroke="black" cx="512.75" cy="-296.09" rx="69.09" ry="26.74"/>
<text text-anchor="middle" x="512.75" y="-299.89" font-family="Times,serif" font-size="14.00">EXPRESSION</text>
<text text-anchor="middle" x="512.75" y="-284.89" font-family="Times,serif" font-size="14.00">NULL</text>
</g>
<!-- node0x6000002c4480&#45;&#45;node0x6000002c4450 -->
<g id="edge20" class="edge">
<title>node0x6000002c4480&#45;&#45;node0x6000002c4450</title>
<path fill="none" stroke="black" d="M455.76,-360.39C466.62,-348.32 479.7,-333.8 490.59,-321.7"/>
</g>
<!-- node0x6000002c43c0 -->
<g id="node20" class="node">
<title>node0x6000002c43c0</title>
<ellipse fill="none" stroke="black" cx="325.75" cy="-206.35" rx="94.51" ry="26.74"/>
<text text-anchor="middle" x="325.75" y="-210.15" font-family="Times,serif" font-size="14.00">IDENTIFIER_DATA</text>
<text text-anchor="middle" x="325.75" y="-195.15" font-family="Times,serif" font-size="14.00">b</text>
</g>
<!-- node0x6000002c43f0&#45;&#45;node0x6000002c43c0 -->
<g id="edge19" class="edge">
<title>node0x6000002c43f0&#45;&#45;node0x6000002c43c0</title>
<path fill="none" stroke="black" d="M346.91,-269.24C343.04,-257.92 338.51,-244.66 334.63,-233.32"/>
</g>
<!-- node0x6000002c4420 -->
<g id="node22" class="node">
<title>node0x6000002c4420</title>
<ellipse fill="none" stroke="black" cx="521.75" cy="-206.35" rx="83.38" ry="26.74"/>
<text text-anchor="middle" x="521.75" y="-210.15" font-family="Times,serif" font-size="14.00">NUMBER_DATA</text>
<text text-anchor="middle" x="521.75" y="-195.15" font-family="Times,serif" font-size="14.00">1</text>
</g>
<!-- node0x6000002c4450&#45;&#45;node0x6000002c4420 -->
<g id="edge21" class="edge">
<title>node0x6000002c4450&#45;&#45;node0x6000002c4420</title>
<path fill="none" stroke="black" d="M515.4,-269.24C516.57,-257.92 517.93,-244.66 519.09,-233.32"/>
</g>
<!-- node0x6000002c4600 -->
<g id="node24" class="node">
<title>node0x6000002c4600</title>
<ellipse fill="none" stroke="black" cx="692.75" cy="-296.09" rx="92.08" ry="18"/>
<text text-anchor="middle" x="692.75" y="-292.39" font-family="Times,serif" font-size="14.00">PRINT_STATEMENT</text>
</g>
<!-- node0x6000002c4630&#45;&#45;node0x6000002c4600 -->
<g id="edge23" class="edge">
<title>node0x6000002c4630&#45;&#45;node0x6000002c4600</title>
<path fill="none" stroke="black" d="M604,-368.53C623.33,-352.97 652.33,-329.63 671.87,-313.9"/>
</g>
<!-- node0x6000002c45d0 -->
<g id="node25" class="node">
<title>node0x6000002c45d0</title>
<ellipse fill="none" stroke="black" cx="692.75" cy="-206.35" rx="59.29" ry="18"/>
<text text-anchor="middle" x="692.75" y="-202.65" font-family="Times,serif" font-size="14.00">PRINT_LIST</text>
</g>
<!-- node0x6000002c4600&#45;&#45;node0x6000002c45d0 -->
<g id="edge24" class="edge">
<title>node0x6000002c4600&#45;&#45;node0x6000002c45d0</title>
<path fill="none" stroke="black" d="M692.75,-277.76C692.75,-262.37 692.75,-240.02 692.75,-224.65"/>
</g>
<!-- node0x6000002c4510 -->
<g id="node26" class="node">
<title>node0x6000002c4510</title>
<ellipse fill="none" stroke="black" cx="614.75" cy="-116.61" rx="59.29" ry="18"/>
<text text-anchor="middle" x="614.75" y="-112.91" font-family="Times,serif" font-size="14.00">PRINT_LIST</text>
</g>
<!-- node0x6000002c45d0&#45;&#45;node0x6000002c4510 -->
<g id="edge25" class="edge">
<title>node0x6000002c45d0&#45;&#45;node0x6000002c4510</title>
<path fill="none" stroke="black" d="M678.08,-188.85C664.22,-173.26 643.54,-150 629.62,-134.34"/>
</g>
<!-- node0x6000002c4570 -->
<g id="node28" class="node">
<title>node0x6000002c4570</title>
<ellipse fill="none" stroke="black" cx="771.75" cy="-116.61" rx="69.09" ry="26.74"/>
<text text-anchor="middle" x="771.75" y="-120.41" font-family="Times,serif" font-size="14.00">EXPRESSION</text>
<text text-anchor="middle" x="771.75" y="-105.41" font-family="Times,serif" font-size="14.00">NULL</text>
</g>
<!-- node0x6000002c45d0&#45;&#45;node0x6000002c4570 -->
<g id="edge27" class="edge">
<title>node0x6000002c45d0&#45;&#45;node0x6000002c4570</title>
<path fill="none" stroke="black" d="M707.61,-188.85C719.41,-175.74 736.1,-157.21 749.49,-142.34"/>
</g>
<!-- node0x6000002c44b0 -->
<g id="node27" class="node">
<title>node0x6000002c44b0</title>
<ellipse fill="none" stroke="black" cx="593.75" cy="-26.87" rx="76.24" ry="26.74"/>
<text text-anchor="middle" x="593.75" y="-30.67" font-family="Times,serif" font-size="14.00">STRING_DATA</text>
<text text-anchor="middle" x="593.75" y="-15.67" font-family="Times,serif" font-size="14.00">&quot;i is now&quot;</text>
</g>
<!-- node0x6000002c4510&#45;&#45;node0x6000002c44b0 -->
<g id="edge26" class="edge">
<title>node0x6000002c4510&#45;&#45;node0x6000002c44b0</title>
<path fill="none" stroke="black" d="M610.6,-98.28C607.57,-85.59 603.4,-68.16 599.96,-53.82"/>
</g>
<!-- node0x6000002c4540 -->
<g id="node29" class="node">
<title>node0x6000002c4540</title>
<ellipse fill="none" stroke="black" cx="782.75" cy="-26.87" rx="94.51" ry="26.74"/>
<text text-anchor="middle" x="782.75" y="-30.67" font-family="Times,serif" font-size="14.00">IDENTIFIER_DATA</text>
<text text-anchor="middle" x="782.75" y="-15.67" font-family="Times,serif" font-size="14.00">i</text>
</g>
<!-- node0x6000002c4570&#45;&#45;node0x6000002c4540 -->
<g id="edge28" class="edge">
<title>node0x6000002c4570&#45;&#45;node0x6000002c4540</title>
<path fill="none" stroke="black" d="M774.99,-89.76C776.41,-78.44 778.08,-65.18 779.5,-53.84"/>
</g>
<!-- node0x6000002c4780 -->
<g id="node31" class="node">
<title>node0x6000002c4780</title>
<ellipse fill="none" stroke="black" cx="706.75" cy="-538.7" rx="92.08" ry="18"/>
<text text-anchor="middle" x="706.75" y="-535" font-family="Times,serif" font-size="14.00">PRINT_STATEMENT</text>
</g>
<!-- node0x6000002c47b0&#45;&#45;node0x6000002c4780 -->
<g id="edge30" class="edge">
<title>node0x6000002c47b0&#45;&#45;node0x6000002c4780</title>
<path fill="none" stroke="black" d="M695.79,-601.46C698.12,-588.32 701.33,-570.25 703.67,-557.05"/>
</g>
<!-- node0x6000002c4750 -->
<g id="node32" class="node">
<title>node0x6000002c4750</title>
<ellipse fill="none" stroke="black" cx="723.75" cy="-466.7" rx="59.29" ry="18"/>
<text text-anchor="middle" x="723.75" y="-463" font-family="Times,serif" font-size="14.00">PRINT_LIST</text>
</g>
<!-- node0x6000002c4780&#45;&#45;node0x6000002c4750 -->
<g id="edge31" class="edge">
<title>node0x6000002c4780&#45;&#45;node0x6000002c4750</title>
<path fill="none" stroke="black" d="M710.95,-520.4C713.59,-509.55 716.97,-495.62 719.6,-484.8"/>
</g>
<!-- node0x6000002c46f0 -->
<g id="node33" class="node">
<title>node0x6000002c46f0</title>
<ellipse fill="none" stroke="black" cx="740.75" cy="-385.83" rx="76.24" ry="26.74"/>
<text text-anchor="middle" x="740.75" y="-389.63" font-family="Times,serif" font-size="14.00">STRING_DATA</text>
<text text-anchor="middle" x="740.75" y="-374.63" font-family="Times,serif" font-size="14.00">&quot;Done!&quot;</text>
</g>
<!-- node0x6000002c4750&#45;&#45;node0x6000002c46f0 -->
<g id="edge32" class="edge">
<title>node0x6000002c4750&#45;&#45;node0x6000002c46f0</title>
<path fill="none" stroke="black" d="M727.44,-448.59C729.69,-438.17 732.6,-424.65 735.13,-412.91"/>
</g>
</g>
</svg>
