<?xml version="1.0" encoding="UTF-8" standalone="no"?>
<!DOCTYPE svg PUBLIC "-//W3C//DTD SVG 1.1//EN"
 "http://www.w3.org/Graphics/SVG/1.1/DTD/svg11.dtd">
<!-- Generated by graphviz version 7.1.0 (20230121.1956)
 -->
<!-- Pages: 1 -->
<svg width="957pt" height="547pt"
 viewBox="0.00 0.00 956.50 546.96" xmlns="http://www.w3.org/2000/svg" xmlns:xlink="http://www.w3.org/1999/xlink">
<g id="graph0" class="graph" transform="scale(1 1) rotate(0) translate(4 542.96)">
<polygon fill="white" stroke="none" points="-4,4 -4,-542.96 952.5,-542.96 952.5,4 -4,4"/>
<!-- node0x600001b508d0 -->
<g id="node1" class="node">
<title>node0x600001b508d0</title>
<ellipse fill="none" stroke="black" cx="426.75" cy="-520.96" rx="69.59" ry="18"/>
<text text-anchor="middle" x="426.75" y="-517.26" font-family="Times,serif" font-size="14.00">GLOBAL_LIST</text>
</g>
<!-- node0x600001b50870 -->
<g id="node2" class="node">
<title>node0x600001b50870</title>
<ellipse fill="none" stroke="black" cx="426.75" cy="-448.96" rx="55.49" ry="18"/>
<text text-anchor="middle" x="426.75" y="-445.26" font-family="Times,serif" font-size="14.00">FUNCTION</text>
</g>
<!-- node0x600001b508d0&#45;&#45;node0x600001b50870 -->
<g id="edge1" class="edge">
<title>node0x600001b508d0&#45;&#45;node0x600001b50870</title>
<path fill="none" stroke="black" d="M426.75,-502.66C426.75,-491.81 426.75,-477.88 426.75,-467.06"/>
</g>
<!-- node0x600001b50210 -->
<g id="node3" class="node">
<title>node0x600001b50210</title>
<ellipse fill="none" stroke="black" cx="226.75" cy="-368.09" rx="94.51" ry="26.74"/>
<text text-anchor="middle" x="226.75" y="-371.89" font-family="Times,serif" font-size="14.00">IDENTIFIER_DATA</text>
<text text-anchor="middle" x="226.75" y="-356.89" font-family="Times,serif" font-size="14.00">main</text>
</g>
<!-- node0x600001b50870&#45;&#45;node0x600001b50210 -->
<g id="edge2" class="edge">
<title>node0x600001b50870&#45;&#45;node0x600001b50210</title>
<path fill="none" stroke="black" d="M392.37,-434.4C361.66,-422.29 316.16,-404.35 280.62,-390.33"/>
</g>
<!-- node0x600001b50300 -->
<g id="node4" class="node">
<title>node0x600001b50300</title>
<ellipse fill="none" stroke="black" cx="426.75" cy="-368.09" rx="87.18" ry="18"/>
<text text-anchor="middle" x="426.75" y="-364.39" font-family="Times,serif" font-size="14.00">PARAMETER_LIST</text>
</g>
<!-- node0x600001b50870&#45;&#45;node0x600001b50300 -->
<g id="edge3" class="edge">
<title>node0x600001b50870&#45;&#45;node0x600001b50300</title>
<path fill="none" stroke="black" d="M426.75,-430.85C426.75,-417.71 426.75,-399.64 426.75,-386.44"/>
</g>
<!-- node0x600001b50810 -->
<g id="node7" class="node">
<title>node0x600001b50810</title>
<ellipse fill="none" stroke="black" cx="597.75" cy="-368.09" rx="40.09" ry="18"/>
<text text-anchor="middle" x="597.75" y="-364.39" font-family="Times,serif" font-size="14.00">BLOCK</text>
</g>
<!-- node0x600001b50870&#45;&#45;node0x600001b50810 -->
<g id="edge6" class="edge">
<title>node0x600001b50870&#45;&#45;node0x600001b50810</title>
<path fill="none" stroke="black" d="M457.72,-433.68C489.86,-418.85 539.66,-395.88 570.4,-381.71"/>
</g>
<!-- node0x600001b50240 -->
<g id="node5" class="node">
<title>node0x600001b50240</title>
<ellipse fill="none" stroke="black" cx="218.75" cy="-278.35" rx="94.51" ry="26.74"/>
<text text-anchor="middle" x="218.75" y="-282.15" font-family="Times,serif" font-size="14.00">IDENTIFIER_DATA</text>
<text text-anchor="middle" x="218.75" y="-267.15" font-family="Times,serif" font-size="14.00">a</text>
</g>
<!-- node0x600001b50300&#45;&#45;node0x600001b50240 -->
<g id="edge4" class="edge">
<title>node0x600001b50300&#45;&#45;node0x600001b50240</title>
<path fill="none" stroke="black" d="M389.57,-351.4C356.38,-337.41 307.45,-316.77 270.46,-301.16"/>
</g>
<!-- node0x600001b502a0 -->
<g id="node6" class="node">
<title>node0x600001b502a0</title>
<ellipse fill="none" stroke="black" cx="426.75" cy="-278.35" rx="94.51" ry="26.74"/>
<text text-anchor="middle" x="426.75" y="-282.15" font-family="Times,serif" font-size="14.00">IDENTIFIER_DATA</text>
<text text-anchor="middle" x="426.75" y="-267.15" font-family="Times,serif" font-size="14.00">b</text>
</g>
<!-- node0x600001b50300&#45;&#45;node0x600001b502a0 -->
<g id="edge5" class="edge">
<title>node0x600001b50300&#45;&#45;node0x600001b502a0</title>
<path fill="none" stroke="black" d="M426.75,-349.76C426.75,-337.07 426.75,-319.64 426.75,-305.3"/>
</g>
<!-- node0x600001b507e0 -->
<g id="node8" class="node">
<title>node0x600001b507e0</title>
<ellipse fill="none" stroke="black" cx="624.75" cy="-278.35" rx="85.29" ry="18"/>
<text text-anchor="middle" x="624.75" y="-274.65" font-family="Times,serif" font-size="14.00">STATEMENT_LIST</text>
</g>
<!-- node0x600001b50810&#45;&#45;node0x600001b507e0 -->
<g id="edge7" class="edge">
<title>node0x600001b50810&#45;&#45;node0x600001b507e0</title>
<path fill="none" stroke="black" d="M603.09,-349.76C607.82,-334.37 614.7,-312.02 619.43,-296.65"/>
</g>
<!-- node0x600001b50660 -->
<g id="node9" class="node">
<title>node0x600001b50660</title>
<ellipse fill="none" stroke="black" cx="484.75" cy="-197.48" rx="83.69" ry="18"/>
<text text-anchor="middle" x="484.75" y="-193.78" font-family="Times,serif" font-size="14.00">FOR_STATEMENT</text>
</g>
<!-- node0x600001b507e0&#45;&#45;node0x600001b50660 -->
<g id="edge8" class="edge">
<title>node0x600001b507e0&#45;&#45;node0x600001b50660</title>
<path fill="none" stroke="black" d="M595.74,-261.01C571.72,-247.47 537.74,-228.33 513.72,-214.8"/>
</g>
<!-- node0x600001b50780 -->
<g id="node18" class="node">
<title>node0x600001b50780</title>
<ellipse fill="none" stroke="black" cx="764.75" cy="-197.48" rx="92.08" ry="18"/>
<text text-anchor="middle" x="764.75" y="-193.78" font-family="Times,serif" font-size="14.00">PRINT_STATEMENT</text>
</g>
<!-- node0x600001b507e0&#45;&#45;node0x600001b50780 -->
<g id="edge17" class="edge">
<title>node0x600001b507e0&#45;&#45;node0x600001b50780</title>
<path fill="none" stroke="black" d="M653.76,-261.01C677.79,-247.47 711.76,-228.33 735.78,-214.8"/>
</g>
<!-- node0x600001b50330 -->
<g id="node10" class="node">
<title>node0x600001b50330</title>
<ellipse fill="none" stroke="black" cx="94.75" cy="-116.61" rx="94.51" ry="26.74"/>
<text text-anchor="middle" x="94.75" y="-120.41" font-family="Times,serif" font-size="14.00">IDENTIFIER_DATA</text>
<text text-anchor="middle" x="94.75" y="-105.41" font-family="Times,serif" font-size="14.00">i</text>
</g>
<!-- node0x600001b50660&#45;&#45;node0x600001b50330 -->
<g id="edge9" class="edge">
<title>node0x600001b50660&#45;&#45;node0x600001b50330</title>
<path fill="none" stroke="black" d="M420.07,-185.65C361.96,-175.64 274.38,-159.88 198.75,-143.48 187.3,-141 175.18,-138.17 163.42,-135.32"/>
</g>
<!-- node0x600001b50360 -->
<g id="node11" class="node">
<title>node0x600001b50360</title>
<ellipse fill="none" stroke="black" cx="302.75" cy="-116.61" rx="94.51" ry="26.74"/>
<text text-anchor="middle" x="302.75" y="-120.41" font-family="Times,serif" font-size="14.00">IDENTIFIER_DATA</text>
<text text-anchor="middle" x="302.75" y="-105.41" font-family="Times,serif" font-size="14.00">a</text>
</g>
<!-- node0x600001b50660&#45;&#45;node0x600001b50360 -->
<g id="edge10" class="edge">
<title>node0x600001b50660&#45;&#45;node0x600001b50360</title>
<path fill="none" stroke="black" d="M448.79,-180.9C421.55,-169.09 383.76,-152.72 353.45,-139.58"/>
</g>
<!-- node0x600001b50480 -->
<g id="node12" class="node">
<title>node0x600001b50480</title>
<ellipse fill="none" stroke="black" cx="484.75" cy="-116.61" rx="69.09" ry="26.74"/>
<text text-anchor="middle" x="484.75" y="-120.41" font-family="Times,serif" font-size="14.00">EXPRESSION</text>
<text text-anchor="middle" x="484.75" y="-105.41" font-family="Times,serif" font-size="14.00">+</text>
</g>
<!-- node0x600001b50660&#45;&#45;node0x600001b50480 -->
<g id="edge11" class="edge">
<title>node0x600001b50660&#45;&#45;node0x600001b50480</title>
<path fill="none" stroke="black" d="M484.75,-179.37C484.75,-168.95 484.75,-155.43 484.75,-143.69"/>
</g>
<!-- node0x600001b50600 -->
<g id="node15" class="node">
<title>node0x600001b50600</title>
<ellipse fill="none" stroke="black" cx="664.75" cy="-116.61" rx="92.08" ry="18"/>
<text text-anchor="middle" x="664.75" y="-112.91" font-family="Times,serif" font-size="14.00">PRINT_STATEMENT</text>
</g>
<!-- node0x600001b50660&#45;&#45;node0x600001b50600 -->
<g id="edge14" class="edge">
<title>node0x600001b50660&#45;&#45;node0x600001b50600</title>
<path fill="none" stroke="black" d="M520.31,-180.9C551.56,-167.21 596.84,-147.37 628.34,-133.57"/>
</g>
<!-- node0x600001b503c0 -->
<g id="node13" class="node">
<title>node0x600001b503c0</title>
<ellipse fill="none" stroke="black" cx="289.75" cy="-26.87" rx="94.51" ry="26.74"/>
<text text-anchor="middle" x="289.75" y="-30.67" font-family="Times,serif" font-size="14.00">IDENTIFIER_DATA</text>
<text text-anchor="middle" x="289.75" y="-15.67" font-family="Times,serif" font-size="14.00">b</text>
</g>
<!-- node0x600001b50480&#45;&#45;node0x600001b503c0 -->
<g id="edge12" class="edge">
<title>node0x600001b50480&#45;&#45;node0x600001b503c0</title>
<path fill="none" stroke="black" d="M440.5,-95.7C410.28,-82.1 370.2,-64.07 338.96,-50.01"/>
</g>
<!-- node0x600001b50420 -->
<g id="node14" class="node">
<title>node0x600001b50420</title>
<ellipse fill="none" stroke="black" cx="485.75" cy="-26.87" rx="83.38" ry="26.74"/>
<text text-anchor="middle" x="485.75" y="-30.67" font-family="Times,serif" font-size="14.00">NUMBER_DATA</text>
<text text-anchor="middle" x="485.75" y="-15.67" font-family="Times,serif" font-size="14.00">1</text>
</g>
<!-- node0x600001b50480&#45;&#45;node0x600001b50420 -->
<g id="edge13" class="edge">
<title>node0x600001b50480&#45;&#45;node0x600001b50420</title>
<path fill="none" stroke="black" d="M485.05,-89.76C485.18,-78.44 485.33,-65.18 485.46,-53.84"/>
</g>
<!-- node0x600001b504b0 -->
<g id="node16" class="node">
<title>node0x600001b504b0</title>
<ellipse fill="none" stroke="black" cx="664.75" cy="-26.87" rx="76.24" ry="26.74"/>
<text text-anchor="middle" x="664.75" y="-30.67" font-family="Times,serif" font-size="14.00">STRING_DATA</text>
<text text-anchor="middle" x="664.75" y="-15.67" font-family="Times,serif" font-size="14.00">&quot;i is now&quot;</text>
</g>
<!-- node0x600001b50600&#45;&#45;node0x600001b504b0 -->
<g id="edge15" class="edge">
<title>node0x600001b50600&#45;&#45;node0x600001b504b0</title>
<path fill="none" stroke="black" d="M664.75,-98.28C664.75,-85.59 664.75,-68.16 664.75,-53.82"/>
</g>
<!-- node0x600001b50540 -->
<g id="node17" class="node">
<title>node0x600001b50540</title>
<ellipse fill="none" stroke="black" cx="853.75" cy="-26.87" rx="94.51" ry="26.74"/>
<text text-anchor="middle" x="853.75" y="-30.67" font-family="Times,serif" font-size="14.00">IDENTIFIER_DATA</text>
<text text-anchor="middle" x="853.75" y="-15.67" font-family="Times,serif" font-size="14.00">i</text>
</g>
<!-- node0x600001b50600&#45;&#45;node0x600001b50540 -->
<g id="edge16" class="edge">
<title>node0x600001b50600&#45;&#45;node0x600001b50540</title>
<path fill="none" stroke="black" d="M699.42,-99.52C729.15,-85.71 772.31,-65.68 805.43,-50.3"/>
</g>
<!-- node0x600001b506f0 -->
<g id="node19" class="node">
<title>node0x600001b506f0</title>
<ellipse fill="none" stroke="black" cx="851.75" cy="-116.61" rx="76.24" ry="26.74"/>
<text text-anchor="middle" x="851.75" y="-120.41" font-family="Times,serif" font-size="14.00">STRING_DATA</text>
<text text-anchor="middle" x="851.75" y="-105.41" font-family="Times,serif" font-size="14.00">&quot;Done!&quot;</text>
</g>
<!-- node0x600001b50780&#45;&#45;node0x600001b506f0 -->
<g id="edge18" class="edge">
<title>node0x600001b50780&#45;&#45;node0x600001b506f0</title>
<path fill="none" stroke="black" d="M783.2,-179.75C795.27,-168.81 811.25,-154.33 824.74,-142.1"/>
</g>
</g>
</svg>
