<?xml version="1.0" encoding="UTF-8" standalone="no"?>
<!DOCTYPE svg PUBLIC "-//W3C//DTD SVG 1.1//EN"
 "http://www.w3.org/Graphics/SVG/1.1/DTD/svg11.dtd">
<!-- Generated by graphviz version 7.1.0 (20230121.1956)
 -->
<!-- Pages: 1 -->
<svg width="782pt" height="853pt"
 viewBox="0.00 0.00 781.50 852.70" xmlns="http://www.w3.org/2000/svg" xmlns:xlink="http://www.w3.org/1999/xlink">
<g id="graph0" class="graph" transform="scale(1 1) rotate(0) translate(4 848.7)">
<polygon fill="white" stroke="none" points="-4,4 -4,-848.7 777.5,-848.7 777.5,4 -4,4"/>
<!-- node0x6000037508d0 -->
<g id="node1" class="node">
<title>node0x6000037508d0</title>
<ellipse fill="none" stroke="black" cx="312.75" cy="-826.7" rx="69.59" ry="18"/>
<text text-anchor="middle" x="312.75" y="-823" font-family="Times,serif" font-size="14.00">GLOBAL_LIST</text>
</g>
<!-- node0x600003750870 -->
<g id="node2" class="node">
<title>node0x600003750870</title>
<ellipse fill="none" stroke="black" cx="312.75" cy="-754.7" rx="55.49" ry="18"/>
<text text-anchor="middle" x="312.75" y="-751" font-family="Times,serif" font-size="14.00">FUNCTION</text>
</g>
<!-- node0x6000037508d0&#45;&#45;node0x600003750870 -->
<g id="edge1" class="edge">
<title>node0x6000037508d0&#45;&#45;node0x600003750870</title>
<path fill="none" stroke="black" d="M312.75,-808.4C312.75,-797.55 312.75,-783.62 312.75,-772.8"/>
</g>
<!-- node0x600003750210 -->
<g id="node3" class="node">
<title>node0x600003750210</title>
<ellipse fill="none" stroke="black" cx="112.75" cy="-673.83" rx="94.51" ry="26.74"/>
<text text-anchor="middle" x="112.75" y="-677.63" font-family="Times,serif" font-size="14.00">IDENTIFIER_DATA</text>
<text text-anchor="middle" x="112.75" y="-662.63" font-family="Times,serif" font-size="14.00">main</text>
</g>
<!-- node0x600003750870&#45;&#45;node0x600003750210 -->
<g id="edge2" class="edge">
<title>node0x600003750870&#45;&#45;node0x600003750210</title>
<path fill="none" stroke="black" d="M278.37,-740.14C247.66,-728.03 202.16,-710.09 166.62,-696.07"/>
</g>
<!-- node0x600003750300 -->
<g id="node4" class="node">
<title>node0x600003750300</title>
<ellipse fill="none" stroke="black" cx="312.75" cy="-673.83" rx="87.18" ry="18"/>
<text text-anchor="middle" x="312.75" y="-670.13" font-family="Times,serif" font-size="14.00">PARAMETER_LIST</text>
</g>
<!-- node0x600003750870&#45;&#45;node0x600003750300 -->
<g id="edge3" class="edge">
<title>node0x600003750870&#45;&#45;node0x600003750300</title>
<path fill="none" stroke="black" d="M312.75,-736.59C312.75,-723.45 312.75,-705.38 312.75,-692.18"/>
</g>
<!-- node0x600003750840 -->
<g id="node6" class="node">
<title>node0x600003750840</title>
<ellipse fill="none" stroke="black" cx="479.75" cy="-673.83" rx="62.29" ry="18"/>
<text text-anchor="middle" x="479.75" y="-670.13" font-family="Times,serif" font-size="14.00">STATEMENT</text>
</g>
<!-- node0x600003750870&#45;&#45;node0x600003750840 -->
<g id="edge5" class="edge">
<title>node0x600003750870&#45;&#45;node0x600003750840</title>
<path fill="none" stroke="black" d="M343.38,-739.23C373.14,-725.18 418.11,-703.94 448.18,-689.74"/>
</g>
<!-- node0x6000037502a0 -->
<g id="node5" class="node">
<title>node0x6000037502a0</title>
<ellipse fill="none" stroke="black" cx="312.75" cy="-584.09" rx="94.51" ry="26.74"/>
<text text-anchor="middle" x="312.75" y="-587.89" font-family="Times,serif" font-size="14.00">IDENTIFIER_DATA</text>
<text text-anchor="middle" x="312.75" y="-572.89" font-family="Times,serif" font-size="14.00">b</text>
</g>
<!-- node0x600003750300&#45;&#45;node0x6000037502a0 -->
<g id="edge4" class="edge">
<title>node0x600003750300&#45;&#45;node0x6000037502a0</title>
<path fill="none" stroke="black" d="M312.75,-655.5C312.75,-642.81 312.75,-625.38 312.75,-611.04"/>
</g>
<!-- node0x600003750810 -->
<g id="node7" class="node">
<title>node0x600003750810</title>
<ellipse fill="none" stroke="black" cx="479.75" cy="-584.09" rx="40.09" ry="18"/>
<text text-anchor="middle" x="479.75" y="-580.39" font-family="Times,serif" font-size="14.00">BLOCK</text>
</g>
<!-- node0x600003750840&#45;&#45;node0x600003750810 -->
<g id="edge6" class="edge">
<title>node0x600003750840&#45;&#45;node0x600003750810</title>
<path fill="none" stroke="black" d="M479.75,-655.5C479.75,-640.11 479.75,-617.76 479.75,-602.39"/>
</g>
<!-- node0x6000037507e0 -->
<g id="node8" class="node">
<title>node0x6000037507e0</title>
<ellipse fill="none" stroke="black" cx="479.75" cy="-503.22" rx="85.29" ry="18"/>
<text text-anchor="middle" x="479.75" y="-499.52" font-family="Times,serif" font-size="14.00">STATEMENT_LIST</text>
</g>
<!-- node0x600003750810&#45;&#45;node0x6000037507e0 -->
<g id="edge7" class="edge">
<title>node0x600003750810&#45;&#45;node0x6000037507e0</title>
<path fill="none" stroke="black" d="M479.75,-565.98C479.75,-552.84 479.75,-534.77 479.75,-521.57"/>
</g>
<!-- node0x6000037506c0 -->
<g id="node9" class="node">
<title>node0x6000037506c0</title>
<ellipse fill="none" stroke="black" cx="396.75" cy="-431.22" rx="85.29" ry="18"/>
<text text-anchor="middle" x="396.75" y="-427.52" font-family="Times,serif" font-size="14.00">STATEMENT_LIST</text>
</g>
<!-- node0x6000037507e0&#45;&#45;node0x6000037506c0 -->
<g id="edge8" class="edge">
<title>node0x6000037507e0&#45;&#45;node0x6000037506c0</title>
<path fill="none" stroke="black" d="M459.66,-485.28C446.61,-474.27 429.67,-459.98 416.66,-449.01"/>
</g>
<!-- node0x6000037507b0 -->
<g id="node20" class="node">
<title>node0x6000037507b0</title>
<ellipse fill="none" stroke="black" cx="564.75" cy="-431.22" rx="62.29" ry="18"/>
<text text-anchor="middle" x="564.75" y="-427.52" font-family="Times,serif" font-size="14.00">STATEMENT</text>
</g>
<!-- node0x6000037507e0&#45;&#45;node0x6000037507b0 -->
<g id="edge19" class="edge">
<title>node0x6000037507e0&#45;&#45;node0x6000037507b0</title>
<path fill="none" stroke="black" d="M500.33,-485.28C513.89,-474.11 531.55,-459.56 544.95,-448.53"/>
</g>
<!-- node0x600003750690 -->
<g id="node10" class="node">
<title>node0x600003750690</title>
<ellipse fill="none" stroke="black" cx="393.75" cy="-359.22" rx="62.29" ry="18"/>
<text text-anchor="middle" x="393.75" y="-355.52" font-family="Times,serif" font-size="14.00">STATEMENT</text>
</g>
<!-- node0x6000037506c0&#45;&#45;node0x600003750690 -->
<g id="edge9" class="edge">
<title>node0x6000037506c0&#45;&#45;node0x600003750690</title>
<path fill="none" stroke="black" d="M396.01,-412.92C395.55,-402.07 394.95,-388.14 394.49,-377.32"/>
</g>
<!-- node0x600003750660 -->
<g id="node11" class="node">
<title>node0x600003750660</title>
<ellipse fill="none" stroke="black" cx="393.75" cy="-287.22" rx="83.69" ry="18"/>
<text text-anchor="middle" x="393.75" y="-283.52" font-family="Times,serif" font-size="14.00">FOR_STATEMENT</text>
</g>
<!-- node0x600003750690&#45;&#45;node0x600003750660 -->
<g id="edge10" class="edge">
<title>node0x600003750690&#45;&#45;node0x600003750660</title>
<path fill="none" stroke="black" d="M393.75,-340.92C393.75,-330.07 393.75,-316.14 393.75,-305.32"/>
</g>
<!-- node0x600003750330 -->
<g id="node12" class="node">
<title>node0x600003750330</title>
<ellipse fill="none" stroke="black" cx="94.75" cy="-206.35" rx="94.51" ry="26.74"/>
<text text-anchor="middle" x="94.75" y="-210.15" font-family="Times,serif" font-size="14.00">IDENTIFIER_DATA</text>
<text text-anchor="middle" x="94.75" y="-195.15" font-family="Times,serif" font-size="14.00">i</text>
</g>
<!-- node0x600003750660&#45;&#45;node0x600003750330 -->
<g id="edge11" class="edge">
<title>node0x600003750660&#45;&#45;node0x600003750330</title>
<path fill="none" stroke="black" d="M342.35,-272.66C292.76,-259.58 217.39,-239.7 162.83,-225.31"/>
</g>
<!-- node0x600003750360 -->
<g id="node13" class="node">
<title>node0x600003750360</title>
<ellipse fill="none" stroke="black" cx="302.75" cy="-206.35" rx="94.51" ry="26.74"/>
<text text-anchor="middle" x="302.75" y="-210.15" font-family="Times,serif" font-size="14.00">IDENTIFIER_DATA</text>
<text text-anchor="middle" x="302.75" y="-195.15" font-family="Times,serif" font-size="14.00">a</text>
</g>
<!-- node0x600003750660&#45;&#45;node0x600003750360 -->
<g id="edge12" class="edge">
<title>node0x600003750660&#45;&#45;node0x600003750360</title>
<path fill="none" stroke="black" d="M374.45,-269.49C361.93,-258.64 345.39,-244.31 331.36,-232.14"/>
</g>
<!-- node0x600003750480 -->
<g id="node14" class="node">
<title>node0x600003750480</title>
<ellipse fill="none" stroke="black" cx="484.75" cy="-206.35" rx="69.09" ry="26.74"/>
<text text-anchor="middle" x="484.75" y="-210.15" font-family="Times,serif" font-size="14.00">EXPRESSION</text>
<text text-anchor="middle" x="484.75" y="-195.15" font-family="Times,serif" font-size="14.00">+</text>
</g>
<!-- node0x600003750660&#45;&#45;node0x600003750480 -->
<g id="edge13" class="edge">
<title>node0x600003750660&#45;&#45;node0x600003750480</title>
<path fill="none" stroke="black" d="M413.05,-269.49C425.89,-258.37 442.94,-243.59 457.19,-231.23"/>
</g>
<!-- node0x600003750630 -->
<g id="node17" class="node">
<title>node0x600003750630</title>
<ellipse fill="none" stroke="black" cx="656.75" cy="-206.35" rx="62.29" ry="18"/>
<text text-anchor="middle" x="656.75" y="-202.65" font-family="Times,serif" font-size="14.00">STATEMENT</text>
</g>
<!-- node0x600003750660&#45;&#45;node0x600003750630 -->
<g id="edge16" class="edge">
<title>node0x600003750660&#45;&#45;node0x600003750630</title>
<path fill="none" stroke="black" d="M441.08,-272.03C490.47,-257.22 567.2,-234.21 614.58,-220"/>
</g>
<!-- node0x6000037503c0 -->
<g id="node15" class="node">
<title>node0x6000037503c0</title>
<ellipse fill="none" stroke="black" cx="288.75" cy="-116.61" rx="94.51" ry="26.74"/>
<text text-anchor="middle" x="288.75" y="-120.41" font-family="Times,serif" font-size="14.00">IDENTIFIER_DATA</text>
<text text-anchor="middle" x="288.75" y="-105.41" font-family="Times,serif" font-size="14.00">b</text>
</g>
<!-- node0x600003750480&#45;&#45;node0x6000037503c0 -->
<g id="edge14" class="edge">
<title>node0x600003750480&#45;&#45;node0x6000037503c0</title>
<path fill="none" stroke="black" d="M440.28,-185.44C409.89,-171.84 369.61,-153.81 338.22,-139.75"/>
</g>
<!-- node0x600003750420 -->
<g id="node16" class="node">
<title>node0x600003750420</title>
<ellipse fill="none" stroke="black" cx="484.75" cy="-116.61" rx="83.38" ry="26.74"/>
<text text-anchor="middle" x="484.75" y="-120.41" font-family="Times,serif" font-size="14.00">NUMBER_DATA</text>
<text text-anchor="middle" x="484.75" y="-105.41" font-family="Times,serif" font-size="14.00">1</text>
</g>
<!-- node0x600003750480&#45;&#45;node0x600003750420 -->
<g id="edge15" class="edge">
<title>node0x600003750480&#45;&#45;node0x600003750420</title>
<path fill="none" stroke="black" d="M484.75,-179.5C484.75,-168.18 484.75,-154.92 484.75,-143.58"/>
</g>
<!-- node0x600003750600 -->
<g id="node18" class="node">
<title>node0x600003750600</title>
<ellipse fill="none" stroke="black" cx="678.75" cy="-116.61" rx="92.08" ry="18"/>
<text text-anchor="middle" x="678.75" y="-112.91" font-family="Times,serif" font-size="14.00">PRINT_STATEMENT</text>
</g>
<!-- node0x600003750630&#45;&#45;node0x600003750600 -->
<g id="edge17" class="edge">
<title>node0x600003750630&#45;&#45;node0x600003750600</title>
<path fill="none" stroke="black" d="M661.1,-188.02C664.96,-172.63 670.56,-150.28 674.41,-134.91"/>
</g>
<!-- node0x600003750540 -->
<g id="node19" class="node">
<title>node0x600003750540</title>
<ellipse fill="none" stroke="black" cx="678.75" cy="-26.87" rx="94.51" ry="26.74"/>
<text text-anchor="middle" x="678.75" y="-30.67" font-family="Times,serif" font-size="14.00">IDENTIFIER_DATA</text>
<text text-anchor="middle" x="678.75" y="-15.67" font-family="Times,serif" font-size="14.00">i</text>
</g>
<!-- node0x600003750600&#45;&#45;node0x600003750540 -->
<g id="edge18" class="edge">
<title>node0x600003750600&#45;&#45;node0x600003750540</title>
<path fill="none" stroke="black" d="M678.75,-98.28C678.75,-85.59 678.75,-68.16 678.75,-53.82"/>
</g>
<!-- node0x600003750780 -->
<g id="node21" class="node">
<title>node0x600003750780</title>
<ellipse fill="none" stroke="black" cx="566.75" cy="-359.22" rx="92.08" ry="18"/>
<text text-anchor="middle" x="566.75" y="-355.52" font-family="Times,serif" font-size="14.00">PRINT_STATEMENT</text>
</g>
<!-- node0x6000037507b0&#45;&#45;node0x600003750780 -->
<g id="edge20" class="edge">
<title>node0x6000037507b0&#45;&#45;node0x600003750780</title>
<path fill="none" stroke="black" d="M565.25,-412.92C565.56,-402.07 565.95,-388.14 566.26,-377.32"/>
</g>
</g>
</svg>
