<?xml version="1.0" encoding="UTF-8" standalone="no"?>
<!DOCTYPE svg PUBLIC "-//W3C//DTD SVG 1.1//EN"
 "http://www.w3.org/Graphics/SVG/1.1/DTD/svg11.dtd">
<!-- Generated by graphviz version 7.1.0 (20230121.1956)
 -->
<!-- Pages: 1 -->
<svg width="885pt" height="1266pt"
 viewBox="0.00 0.00 885.12 1265.92" xmlns="http://www.w3.org/2000/svg" xmlns:xlink="http://www.w3.org/1999/xlink">
<g id="graph0" class="graph" transform="scale(1 1) rotate(0) translate(4 1261.92)">
<polygon fill="white" stroke="none" points="-4,4 -4,-1261.92 881.12,-1261.92 881.12,4 -4,4"/>
<!-- node0x600001b0c900 -->
<g id="node1" class="node">
<title>node0x600001b0c900</title>
<ellipse fill="none" stroke="black" cx="450.75" cy="-1239.92" rx="54.69" ry="18"/>
<text text-anchor="middle" x="450.75" y="-1236.22" font-family="Times,serif" font-size="14.00">PROGRAM</text>
</g>
<!-- node0x600001b0c8d0 -->
<g id="node2" class="node">
<title>node0x600001b0c8d0</title>
<ellipse fill="none" stroke="black" cx="450.75" cy="-1167.92" rx="69.59" ry="18"/>
<text text-anchor="middle" x="450.75" y="-1164.22" font-family="Times,serif" font-size="14.00">GLOBAL_LIST</text>
</g>
<!-- node0x600001b0c900&#45;&#45;node0x600001b0c8d0 -->
<g id="edge1" class="edge">
<title>node0x600001b0c900&#45;&#45;node0x600001b0c8d0</title>
<path fill="none" stroke="black" d="M450.75,-1221.62C450.75,-1210.77 450.75,-1196.84 450.75,-1186.03"/>
</g>
<!-- node0x600001b0c8a0 -->
<g id="node3" class="node">
<title>node0x600001b0c8a0</title>
<ellipse fill="none" stroke="black" cx="450.75" cy="-1095.92" rx="46.29" ry="18"/>
<text text-anchor="middle" x="450.75" y="-1092.22" font-family="Times,serif" font-size="14.00">GLOBAL</text>
</g>
<!-- node0x600001b0c8d0&#45;&#45;node0x600001b0c8a0 -->
<g id="edge2" class="edge">
<title>node0x600001b0c8d0&#45;&#45;node0x600001b0c8a0</title>
<path fill="none" stroke="black" d="M450.75,-1149.62C450.75,-1138.77 450.75,-1124.84 450.75,-1114.03"/>
</g>
<!-- node0x600001b0c870 -->
<g id="node4" class="node">
<title>node0x600001b0c870</title>
<ellipse fill="none" stroke="black" cx="450.75" cy="-1023.92" rx="55.49" ry="18"/>
<text text-anchor="middle" x="450.75" y="-1020.22" font-family="Times,serif" font-size="14.00">FUNCTION</text>
</g>
<!-- node0x600001b0c8a0&#45;&#45;node0x600001b0c870 -->
<g id="edge3" class="edge">
<title>node0x600001b0c8a0&#45;&#45;node0x600001b0c870</title>
<path fill="none" stroke="black" d="M450.75,-1077.62C450.75,-1066.77 450.75,-1052.84 450.75,-1042.03"/>
</g>
<!-- node0x600001b0c210 -->
<g id="node5" class="node">
<title>node0x600001b0c210</title>
<ellipse fill="none" stroke="black" cx="250.75" cy="-943.05" rx="94.51" ry="26.74"/>
<text text-anchor="middle" x="250.75" y="-946.85" font-family="Times,serif" font-size="14.00">IDENTIFIER_DATA</text>
<text text-anchor="middle" x="250.75" y="-931.85" font-family="Times,serif" font-size="14.00">main</text>
</g>
<!-- node0x600001b0c870&#45;&#45;node0x600001b0c210 -->
<g id="edge4" class="edge">
<title>node0x600001b0c870&#45;&#45;node0x600001b0c210</title>
<path fill="none" stroke="black" d="M416.37,-1009.36C385.66,-997.25 340.16,-979.31 304.62,-965.29"/>
</g>
<!-- node0x600001b0c300 -->
<g id="node6" class="node">
<title>node0x600001b0c300</title>
<ellipse fill="none" stroke="black" cx="450.75" cy="-943.05" rx="87.18" ry="18"/>
<text text-anchor="middle" x="450.75" y="-939.35" font-family="Times,serif" font-size="14.00">PARAMETER_LIST</text>
</g>
<!-- node0x600001b0c870&#45;&#45;node0x600001b0c300 -->
<g id="edge5" class="edge">
<title>node0x600001b0c870&#45;&#45;node0x600001b0c300</title>
<path fill="none" stroke="black" d="M450.75,-1005.81C450.75,-992.67 450.75,-974.6 450.75,-961.4"/>
</g>
<!-- node0x600001b0c840 -->
<g id="node11" class="node">
<title>node0x600001b0c840</title>
<ellipse fill="none" stroke="black" cx="632.75" cy="-943.05" rx="62.29" ry="18"/>
<text text-anchor="middle" x="632.75" y="-939.35" font-family="Times,serif" font-size="14.00">STATEMENT</text>
</g>
<!-- node0x600001b0c870&#45;&#45;node0x600001b0c840 -->
<g id="edge10" class="edge">
<title>node0x600001b0c870&#45;&#45;node0x600001b0c840</title>
<path fill="none" stroke="black" d="M482.87,-1009C515.53,-994.85 565.91,-973.02 599.11,-958.63"/>
</g>
<!-- node0x600001b0c2d0 -->
<g id="node7" class="node">
<title>node0x600001b0c2d0</title>
<ellipse fill="none" stroke="black" cx="442.75" cy="-862.18" rx="77.19" ry="18"/>
<text text-anchor="middle" x="442.75" y="-858.48" font-family="Times,serif" font-size="14.00">VARIABLE_LIST</text>
</g>
<!-- node0x600001b0c300&#45;&#45;node0x600001b0c2d0 -->
<g id="edge6" class="edge">
<title>node0x600001b0c300&#45;&#45;node0x600001b0c2d0</title>
<path fill="none" stroke="black" d="M449.02,-924.94C447.68,-911.8 445.85,-893.73 444.51,-880.53"/>
</g>
<!-- node0x600001b0c270 -->
<g id="node8" class="node">
<title>node0x600001b0c270</title>
<ellipse fill="none" stroke="black" cx="252.75" cy="-781.31" rx="77.19" ry="18"/>
<text text-anchor="middle" x="252.75" y="-777.61" font-family="Times,serif" font-size="14.00">VARIABLE_LIST</text>
</g>
<!-- node0x600001b0c2d0&#45;&#45;node0x600001b0c270 -->
<g id="edge7" class="edge">
<title>node0x600001b0c2d0&#45;&#45;node0x600001b0c270</title>
<path fill="none" stroke="black" d="M406.12,-845.97C372.47,-832.01 322.88,-811.42 289.27,-797.47"/>
</g>
<!-- node0x600001b0c2a0 -->
<g id="node10" class="node">
<title>node0x600001b0c2a0</title>
<ellipse fill="none" stroke="black" cx="442.75" cy="-781.31" rx="94.51" ry="26.74"/>
<text text-anchor="middle" x="442.75" y="-785.11" font-family="Times,serif" font-size="14.00">IDENTIFIER_DATA</text>
<text text-anchor="middle" x="442.75" y="-770.11" font-family="Times,serif" font-size="14.00">b</text>
</g>
<!-- node0x600001b0c2d0&#45;&#45;node0x600001b0c2a0 -->
<g id="edge9" class="edge">
<title>node0x600001b0c2d0&#45;&#45;node0x600001b0c2a0</title>
<path fill="none" stroke="black" d="M442.75,-844.07C442.75,-833.65 442.75,-820.13 442.75,-808.39"/>
</g>
<!-- node0x600001b0c240 -->
<g id="node9" class="node">
<title>node0x600001b0c240</title>
<ellipse fill="none" stroke="black" cx="252.75" cy="-691.57" rx="94.51" ry="26.74"/>
<text text-anchor="middle" x="252.75" y="-695.37" font-family="Times,serif" font-size="14.00">IDENTIFIER_DATA</text>
<text text-anchor="middle" x="252.75" y="-680.37" font-family="Times,serif" font-size="14.00">a</text>
</g>
<!-- node0x600001b0c270&#45;&#45;node0x600001b0c240 -->
<g id="edge8" class="edge">
<title>node0x600001b0c270&#45;&#45;node0x600001b0c240</title>
<path fill="none" stroke="black" d="M252.75,-762.98C252.75,-750.29 252.75,-732.86 252.75,-718.52"/>
</g>
<!-- node0x600001b0c810 -->
<g id="node12" class="node">
<title>node0x600001b0c810</title>
<ellipse fill="none" stroke="black" cx="636.75" cy="-862.18" rx="40.09" ry="18"/>
<text text-anchor="middle" x="636.75" y="-858.48" font-family="Times,serif" font-size="14.00">BLOCK</text>
</g>
<!-- node0x600001b0c840&#45;&#45;node0x600001b0c810 -->
<g id="edge11" class="edge">
<title>node0x600001b0c840&#45;&#45;node0x600001b0c810</title>
<path fill="none" stroke="black" d="M633.62,-924.94C634.29,-911.8 635.2,-893.73 635.87,-880.53"/>
</g>
<!-- node0x600001b0c7e0 -->
<g id="node13" class="node">
<title>node0x600001b0c7e0</title>
<ellipse fill="none" stroke="black" cx="640.75" cy="-781.31" rx="85.29" ry="18"/>
<text text-anchor="middle" x="640.75" y="-777.61" font-family="Times,serif" font-size="14.00">STATEMENT_LIST</text>
</g>
<!-- node0x600001b0c810&#45;&#45;node0x600001b0c7e0 -->
<g id="edge12" class="edge">
<title>node0x600001b0c810&#45;&#45;node0x600001b0c7e0</title>
<path fill="none" stroke="black" d="M637.62,-844.07C638.29,-830.93 639.2,-812.86 639.87,-799.66"/>
</g>
<!-- node0x600001b0c6c0 -->
<g id="node14" class="node">
<title>node0x600001b0c6c0</title>
<ellipse fill="none" stroke="black" cx="551.75" cy="-691.57" rx="85.29" ry="18"/>
<text text-anchor="middle" x="551.75" y="-687.87" font-family="Times,serif" font-size="14.00">STATEMENT_LIST</text>
</g>
<!-- node0x600001b0c7e0&#45;&#45;node0x600001b0c6c0 -->
<g id="edge13" class="edge">
<title>node0x600001b0c7e0&#45;&#45;node0x600001b0c6c0</title>
<path fill="none" stroke="black" d="M623.59,-763.39C607.83,-747.86 584.6,-724.96 568.86,-709.44"/>
</g>
<!-- node0x600001b0c7b0 -->
<g id="node34" class="node">
<title>node0x600001b0c7b0</title>
<ellipse fill="none" stroke="black" cx="729.75" cy="-691.57" rx="62.29" ry="18"/>
<text text-anchor="middle" x="729.75" y="-687.87" font-family="Times,serif" font-size="14.00">STATEMENT</text>
</g>
<!-- node0x600001b0c7e0&#45;&#45;node0x600001b0c7b0 -->
<g id="edge33" class="edge">
<title>node0x600001b0c7e0&#45;&#45;node0x600001b0c7b0</title>
<path fill="none" stroke="black" d="M657.91,-763.39C673.77,-747.76 697.2,-724.66 712.95,-709.14"/>
</g>
<!-- node0x600001b0c690 -->
<g id="node15" class="node">
<title>node0x600001b0c690</title>
<ellipse fill="none" stroke="black" cx="530.75" cy="-610.7" rx="62.29" ry="18"/>
<text text-anchor="middle" x="530.75" y="-607" font-family="Times,serif" font-size="14.00">STATEMENT</text>
</g>
<!-- node0x600001b0c6c0&#45;&#45;node0x600001b0c690 -->
<g id="edge14" class="edge">
<title>node0x600001b0c6c0&#45;&#45;node0x600001b0c690</title>
<path fill="none" stroke="black" d="M547.2,-673.46C543.7,-660.32 538.89,-642.25 535.37,-629.05"/>
</g>
<!-- node0x600001b0c660 -->
<g id="node16" class="node">
<title>node0x600001b0c660</title>
<ellipse fill="none" stroke="black" cx="433.75" cy="-538.7" rx="83.69" ry="18"/>
<text text-anchor="middle" x="433.75" y="-535" font-family="Times,serif" font-size="14.00">FOR_STATEMENT</text>
</g>
<!-- node0x600001b0c690&#45;&#45;node0x600001b0c660 -->
<g id="edge15" class="edge">
<title>node0x600001b0c690&#45;&#45;node0x600001b0c660</title>
<path fill="none" stroke="black" d="M508.25,-593.47C492.81,-582.32 472.37,-567.57 456.8,-556.33"/>
</g>
<!-- node0x600001b0c330 -->
<g id="node17" class="node">
<title>node0x600001b0c330</title>
<ellipse fill="none" stroke="black" cx="94.75" cy="-457.83" rx="94.51" ry="26.74"/>
<text text-anchor="middle" x="94.75" y="-461.63" font-family="Times,serif" font-size="14.00">IDENTIFIER_DATA</text>
<text text-anchor="middle" x="94.75" y="-446.63" font-family="Times,serif" font-size="14.00">i</text>
</g>
<!-- node0x600001b0c660&#45;&#45;node0x600001b0c330 -->
<g id="edge16" class="edge">
<title>node0x600001b0c660&#45;&#45;node0x600001b0c330</title>
<path fill="none" stroke="black" d="M376.69,-525.2C329.05,-514.67 259.39,-499.08 198.75,-484.7 187.62,-482.06 175.83,-479.2 164.35,-476.37"/>
</g>
<!-- node0x600001b0c390 -->
<g id="node18" class="node">
<title>node0x600001b0c390</title>
<ellipse fill="none" stroke="black" cx="276.75" cy="-457.83" rx="69.09" ry="26.74"/>
<text text-anchor="middle" x="276.75" y="-461.63" font-family="Times,serif" font-size="14.00">EXPRESSION</text>
<text text-anchor="middle" x="276.75" y="-446.63" font-family="Times,serif" font-size="14.00">NULL</text>
</g>
<!-- node0x600001b0c660&#45;&#45;node0x600001b0c390 -->
<g id="edge17" class="edge">
<title>node0x600001b0c660&#45;&#45;node0x600001b0c390</title>
<path fill="none" stroke="black" d="M401.98,-521.74C377.79,-509.59 344.29,-492.76 318.02,-479.56"/>
</g>
<!-- node0x600001b0c480 -->
<g id="node20" class="node">
<title>node0x600001b0c480</title>
<ellipse fill="none" stroke="black" cx="433.75" cy="-457.83" rx="69.09" ry="26.74"/>
<text text-anchor="middle" x="433.75" y="-461.63" font-family="Times,serif" font-size="14.00">EXPRESSION</text>
<text text-anchor="middle" x="433.75" y="-446.63" font-family="Times,serif" font-size="14.00">+</text>
</g>
<!-- node0x600001b0c660&#45;&#45;node0x600001b0c480 -->
<g id="edge19" class="edge">
<title>node0x600001b0c660&#45;&#45;node0x600001b0c480</title>
<path fill="none" stroke="black" d="M433.75,-520.59C433.75,-510.17 433.75,-496.65 433.75,-484.91"/>
</g>
<!-- node0x600001b0c630 -->
<g id="node25" class="node">
<title>node0x600001b0c630</title>
<ellipse fill="none" stroke="black" cx="598.75" cy="-457.83" rx="62.29" ry="18"/>
<text text-anchor="middle" x="598.75" y="-454.13" font-family="Times,serif" font-size="14.00">STATEMENT</text>
</g>
<!-- node0x600001b0c660&#45;&#45;node0x600001b0c630 -->
<g id="edge24" class="edge">
<title>node0x600001b0c660&#45;&#45;node0x600001b0c630</title>
<path fill="none" stroke="black" d="M467.14,-521.74C496.43,-507.74 538.7,-487.54 567.37,-473.83"/>
</g>
<!-- node0x600001b0c360 -->
<g id="node19" class="node">
<title>node0x600001b0c360</title>
<ellipse fill="none" stroke="black" cx="94.75" cy="-368.09" rx="94.51" ry="26.74"/>
<text text-anchor="middle" x="94.75" y="-371.89" font-family="Times,serif" font-size="14.00">IDENTIFIER_DATA</text>
<text text-anchor="middle" x="94.75" y="-356.89" font-family="Times,serif" font-size="14.00">a</text>
</g>
<!-- node0x600001b0c390&#45;&#45;node0x600001b0c360 -->
<g id="edge18" class="edge">
<title>node0x600001b0c390&#45;&#45;node0x600001b0c360</title>
<path fill="none" stroke="black" d="M234.54,-436.48C206.71,-423.07 170.24,-405.48 141.53,-391.64"/>
</g>
<!-- node0x600001b0c3f0 -->
<g id="node21" class="node">
<title>node0x600001b0c3f0</title>
<ellipse fill="none" stroke="black" cx="276.75" cy="-368.09" rx="69.09" ry="26.74"/>
<text text-anchor="middle" x="276.75" y="-371.89" font-family="Times,serif" font-size="14.00">EXPRESSION</text>
<text text-anchor="middle" x="276.75" y="-356.89" font-family="Times,serif" font-size="14.00">NULL</text>
</g>
<!-- node0x600001b0c480&#45;&#45;node0x600001b0c3f0 -->
<g id="edge20" class="edge">
<title>node0x600001b0c480&#45;&#45;node0x600001b0c3f0</title>
<path fill="none" stroke="black" d="M395.35,-435.37C371.02,-421.77 339.66,-404.25 315.31,-390.64"/>
</g>
<!-- node0x600001b0c450 -->
<g id="node23" class="node">
<title>node0x600001b0c450</title>
<ellipse fill="none" stroke="black" cx="433.75" cy="-368.09" rx="69.09" ry="26.74"/>
<text text-anchor="middle" x="433.75" y="-371.89" font-family="Times,serif" font-size="14.00">EXPRESSION</text>
<text text-anchor="middle" x="433.75" y="-356.89" font-family="Times,serif" font-size="14.00">NULL</text>
</g>
<!-- node0x600001b0c480&#45;&#45;node0x600001b0c450 -->
<g id="edge22" class="edge">
<title>node0x600001b0c480&#45;&#45;node0x600001b0c450</title>
<path fill="none" stroke="black" d="M433.75,-430.98C433.75,-419.66 433.75,-406.4 433.75,-395.06"/>
</g>
<!-- node0x600001b0c3c0 -->
<g id="node22" class="node">
<title>node0x600001b0c3c0</title>
<ellipse fill="none" stroke="black" cx="247.75" cy="-278.35" rx="94.51" ry="26.74"/>
<text text-anchor="middle" x="247.75" y="-282.15" font-family="Times,serif" font-size="14.00">IDENTIFIER_DATA</text>
<text text-anchor="middle" x="247.75" y="-267.15" font-family="Times,serif" font-size="14.00">b</text>
</g>
<!-- node0x600001b0c3f0&#45;&#45;node0x600001b0c3c0 -->
<g id="edge21" class="edge">
<title>node0x600001b0c3f0&#45;&#45;node0x600001b0c3c0</title>
<path fill="none" stroke="black" d="M268.21,-341.24C264.47,-329.92 260.08,-316.66 256.34,-305.32"/>
</g>
<!-- node0x600001b0c420 -->
<g id="node24" class="node">
<title>node0x600001b0c420</title>
<ellipse fill="none" stroke="black" cx="443.75" cy="-278.35" rx="83.38" ry="26.74"/>
<text text-anchor="middle" x="443.75" y="-282.15" font-family="Times,serif" font-size="14.00">NUMBER_DATA</text>
<text text-anchor="middle" x="443.75" y="-267.15" font-family="Times,serif" font-size="14.00">1</text>
</g>
<!-- node0x600001b0c450&#45;&#45;node0x600001b0c420 -->
<g id="edge23" class="edge">
<title>node0x600001b0c450&#45;&#45;node0x600001b0c420</title>
<path fill="none" stroke="black" d="M436.7,-341.24C437.99,-329.92 439.5,-316.66 440.79,-305.32"/>
</g>
<!-- node0x600001b0c600 -->
<g id="node26" class="node">
<title>node0x600001b0c600</title>
<ellipse fill="none" stroke="black" cx="613.75" cy="-368.09" rx="92.08" ry="18"/>
<text text-anchor="middle" x="613.75" y="-364.39" font-family="Times,serif" font-size="14.00">PRINT_STATEMENT</text>
</g>
<!-- node0x600001b0c630&#45;&#45;node0x600001b0c600 -->
<g id="edge25" class="edge">
<title>node0x600001b0c630&#45;&#45;node0x600001b0c600</title>
<path fill="none" stroke="black" d="M601.72,-439.5C604.35,-424.11 608.17,-401.76 610.79,-386.39"/>
</g>
<!-- node0x600001b0c5d0 -->
<g id="node27" class="node">
<title>node0x600001b0c5d0</title>
<ellipse fill="none" stroke="black" cx="613.75" cy="-278.35" rx="59.29" ry="18"/>
<text text-anchor="middle" x="613.75" y="-274.65" font-family="Times,serif" font-size="14.00">PRINT_LIST</text>
</g>
<!-- node0x600001b0c600&#45;&#45;node0x600001b0c5d0 -->
<g id="edge26" class="edge">
<title>node0x600001b0c600&#45;&#45;node0x600001b0c5d0</title>
<path fill="none" stroke="black" d="M613.75,-349.76C613.75,-334.37 613.75,-312.02 613.75,-296.65"/>
</g>
<!-- node0x600001b0c510 -->
<g id="node28" class="node">
<title>node0x600001b0c510</title>
<ellipse fill="none" stroke="black" cx="542.75" cy="-197.48" rx="59.29" ry="18"/>
<text text-anchor="middle" x="542.75" y="-193.78" font-family="Times,serif" font-size="14.00">PRINT_LIST</text>
</g>
<!-- node0x600001b0c5d0&#45;&#45;node0x600001b0c510 -->
<g id="edge27" class="edge">
<title>node0x600001b0c5d0&#45;&#45;node0x600001b0c510</title>
<path fill="none" stroke="black" d="M598.7,-260.62C586.65,-247.24 569.83,-228.56 557.79,-215.18"/>
</g>
<!-- node0x600001b0c5a0 -->
<g id="node31" class="node">
<title>node0x600001b0c5a0</title>
<ellipse fill="none" stroke="black" cx="684.75" cy="-197.48" rx="62.29" ry="18"/>
<text text-anchor="middle" x="684.75" y="-193.78" font-family="Times,serif" font-size="14.00">PRINT_ITEM</text>
</g>
<!-- node0x600001b0c5d0&#45;&#45;node0x600001b0c5a0 -->
<g id="edge30" class="edge">
<title>node0x600001b0c5d0&#45;&#45;node0x600001b0c5a0</title>
<path fill="none" stroke="black" d="M628.81,-260.62C640.86,-247.24 657.67,-228.56 669.72,-215.18"/>
</g>
<!-- node0x600001b0c4e0 -->
<g id="node29" class="node">
<title>node0x600001b0c4e0</title>
<ellipse fill="none" stroke="black" cx="537.75" cy="-116.61" rx="62.29" ry="18"/>
<text text-anchor="middle" x="537.75" y="-112.91" font-family="Times,serif" font-size="14.00">PRINT_ITEM</text>
</g>
<!-- node0x600001b0c510&#45;&#45;node0x600001b0c4e0 -->
<g id="edge28" class="edge">
<title>node0x600001b0c510&#45;&#45;node0x600001b0c4e0</title>
<path fill="none" stroke="black" d="M541.67,-179.37C540.83,-166.23 539.69,-148.16 538.85,-134.96"/>
</g>
<!-- node0x600001b0c4b0 -->
<g id="node30" class="node">
<title>node0x600001b0c4b0</title>
<ellipse fill="none" stroke="black" cx="518.75" cy="-26.87" rx="76.24" ry="26.74"/>
<text text-anchor="middle" x="518.75" y="-30.67" font-family="Times,serif" font-size="14.00">STRING_DATA</text>
<text text-anchor="middle" x="518.75" y="-15.67" font-family="Times,serif" font-size="14.00">&quot;i is now&quot;</text>
</g>
<!-- node0x600001b0c4e0&#45;&#45;node0x600001b0c4b0 -->
<g id="edge29" class="edge">
<title>node0x600001b0c4e0&#45;&#45;node0x600001b0c4b0</title>
<path fill="none" stroke="black" d="M534,-98.28C531.25,-85.59 527.48,-68.16 524.37,-53.82"/>
</g>
<!-- node0x600001b0c570 -->
<g id="node32" class="node">
<title>node0x600001b0c570</title>
<ellipse fill="none" stroke="black" cx="697.75" cy="-116.61" rx="69.09" ry="26.74"/>
<text text-anchor="middle" x="697.75" y="-120.41" font-family="Times,serif" font-size="14.00">EXPRESSION</text>
<text text-anchor="middle" x="697.75" y="-105.41" font-family="Times,serif" font-size="14.00">NULL</text>
</g>
<!-- node0x600001b0c5a0&#45;&#45;node0x600001b0c570 -->
<g id="edge31" class="edge">
<title>node0x600001b0c5a0&#45;&#45;node0x600001b0c570</title>
<path fill="none" stroke="black" d="M687.57,-179.37C689.29,-168.95 691.52,-155.43 693.45,-143.69"/>
</g>
<!-- node0x600001b0c540 -->
<g id="node33" class="node">
<title>node0x600001b0c540</title>
<ellipse fill="none" stroke="black" cx="707.75" cy="-26.87" rx="94.51" ry="26.74"/>
<text text-anchor="middle" x="707.75" y="-30.67" font-family="Times,serif" font-size="14.00">IDENTIFIER_DATA</text>
<text text-anchor="middle" x="707.75" y="-15.67" font-family="Times,serif" font-size="14.00">i</text>
</g>
<!-- node0x600001b0c570&#45;&#45;node0x600001b0c540 -->
<g id="edge32" class="edge">
<title>node0x600001b0c570&#45;&#45;node0x600001b0c540</title>
<path fill="none" stroke="black" d="M700.7,-89.76C701.99,-78.44 703.5,-65.18 704.79,-53.84"/>
</g>
<!-- node0x600001b0c780 -->
<g id="node35" class="node">
<title>node0x600001b0c780</title>
<ellipse fill="none" stroke="black" cx="751.75" cy="-610.7" rx="92.08" ry="18"/>
<text text-anchor="middle" x="751.75" y="-607" font-family="Times,serif" font-size="14.00">PRINT_STATEMENT</text>
</g>
<!-- node0x600001b0c7b0&#45;&#45;node0x600001b0c780 -->
<g id="edge34" class="edge">
<title>node0x600001b0c7b0&#45;&#45;node0x600001b0c780</title>
<path fill="none" stroke="black" d="M734.53,-673.46C738.19,-660.32 743.23,-642.25 746.91,-629.05"/>
</g>
<!-- node0x600001b0c750 -->
<g id="node36" class="node">
<title>node0x600001b0c750</title>
<ellipse fill="none" stroke="black" cx="764.75" cy="-538.7" rx="59.29" ry="18"/>
<text text-anchor="middle" x="764.75" y="-535" font-family="Times,serif" font-size="14.00">PRINT_LIST</text>
</g>
<!-- node0x600001b0c780&#45;&#45;node0x600001b0c750 -->
<g id="edge35" class="edge">
<title>node0x600001b0c780&#45;&#45;node0x600001b0c750</title>
<path fill="none" stroke="black" d="M754.97,-592.4C756.98,-581.55 759.57,-567.62 761.58,-556.8"/>
</g>
<!-- node0x600001b0c720 -->
<g id="node37" class="node">
<title>node0x600001b0c720</title>
<ellipse fill="none" stroke="black" cx="778.75" cy="-457.83" rx="62.29" ry="18"/>
<text text-anchor="middle" x="778.75" y="-454.13" font-family="Times,serif" font-size="14.00">PRINT_ITEM</text>
</g>
<!-- node0x600001b0c750&#45;&#45;node0x600001b0c720 -->
<g id="edge36" class="edge">
<title>node0x600001b0c750&#45;&#45;node0x600001b0c720</title>
<path fill="none" stroke="black" d="M767.79,-520.59C770.12,-507.45 773.33,-489.38 775.67,-476.18"/>
</g>
<!-- node0x600001b0c6f0 -->
<g id="node38" class="node">
<title>node0x600001b0c6f0</title>
<ellipse fill="none" stroke="black" cx="800.75" cy="-368.09" rx="76.24" ry="26.74"/>
<text text-anchor="middle" x="800.75" y="-371.89" font-family="Times,serif" font-size="14.00">STRING_DATA</text>
<text text-anchor="middle" x="800.75" y="-356.89" font-family="Times,serif" font-size="14.00">&quot;Done!&quot;</text>
</g>
<!-- node0x600001b0c720&#45;&#45;node0x600001b0c6f0 -->
<g id="edge37" class="edge">
<title>node0x600001b0c720&#45;&#45;node0x600001b0c6f0</title>
<path fill="none" stroke="black" d="M783.1,-439.5C786.28,-426.81 790.65,-409.38 794.25,-395.04"/>
</g>
</g>
</svg>
