<?xml version="1.0" encoding="UTF-8" standalone="no"?>
<!DOCTYPE svg PUBLIC "-//W3C//DTD SVG 1.1//EN"
 "http://www.w3.org/Graphics/SVG/1.1/DTD/svg11.dtd">
<!-- Generated by graphviz version 7.1.0 (20230121.1956)
 -->
<!-- Pages: 1 -->
<svg width="1187pt" height="439pt"
 viewBox="0.00 0.00 1186.74 439.48" xmlns="http://www.w3.org/2000/svg" xmlns:xlink="http://www.w3.org/1999/xlink">
<g id="graph0" class="graph" transform="scale(1 1) rotate(0) translate(4 435.48)">
<polygon fill="white" stroke="none" points="-4,4 -4,-435.48 1182.74,-435.48 1182.74,4 -4,4"/>
<!-- node0x600003da48d0 -->
<g id="node1" class="node">
<title>node0x600003da48d0</title>
<ellipse fill="none" stroke="black" cx="615.37" cy="-413.48" rx="69.59" ry="18"/>
<text text-anchor="middle" x="615.37" y="-409.78" font-family="Times,serif" font-size="14.00">GLOBAL_LIST</text>
</g>
<!-- node0x600003da4870 -->
<g id="node2" class="node">
<title>node0x600003da4870</title>
<ellipse fill="none" stroke="black" cx="615.37" cy="-341.48" rx="55.49" ry="18"/>
<text text-anchor="middle" x="615.37" y="-337.78" font-family="Times,serif" font-size="14.00">FUNCTION</text>
</g>
<!-- node0x600003da48d0&#45;&#45;node0x600003da4870 -->
<g id="edge1" class="edge">
<title>node0x600003da48d0&#45;&#45;node0x600003da4870</title>
<path fill="none" stroke="black" d="M615.37,-395.18C615.37,-384.33 615.37,-370.4 615.37,-359.58"/>
</g>
<!-- node0x600003da4210 -->
<g id="node3" class="node">
<title>node0x600003da4210</title>
<ellipse fill="none" stroke="black" cx="415.37" cy="-260.61" rx="94.51" ry="26.74"/>
<text text-anchor="middle" x="415.37" y="-264.41" font-family="Times,serif" font-size="14.00">IDENTIFIER_DATA</text>
<text text-anchor="middle" x="415.37" y="-249.41" font-family="Times,serif" font-size="14.00">main</text>
</g>
<!-- node0x600003da4870&#45;&#45;node0x600003da4210 -->
<g id="edge2" class="edge">
<title>node0x600003da4870&#45;&#45;node0x600003da4210</title>
<path fill="none" stroke="black" d="M580.99,-326.92C550.27,-314.81 504.77,-296.87 469.23,-282.85"/>
</g>
<!-- node0x600003da4240 -->
<g id="node4" class="node">
<title>node0x600003da4240</title>
<ellipse fill="none" stroke="black" cx="615.37" cy="-260.61" rx="87.18" ry="18"/>
<text text-anchor="middle" x="615.37" y="-256.91" font-family="Times,serif" font-size="14.00">PARAMETER_LIST</text>
</g>
<!-- node0x600003da4870&#45;&#45;node0x600003da4240 -->
<g id="edge3" class="edge">
<title>node0x600003da4870&#45;&#45;node0x600003da4240</title>
<path fill="none" stroke="black" d="M615.37,-323.37C615.37,-310.23 615.37,-292.16 615.37,-278.96"/>
</g>
<!-- node0x600003da4810 -->
<g id="node5" class="node">
<title>node0x600003da4810</title>
<ellipse fill="none" stroke="black" cx="760.37" cy="-260.61" rx="40.09" ry="18"/>
<text text-anchor="middle" x="760.37" y="-256.91" font-family="Times,serif" font-size="14.00">BLOCK</text>
</g>
<!-- node0x600003da4870&#45;&#45;node0x600003da4810 -->
<g id="edge4" class="edge">
<title>node0x600003da4870&#45;&#45;node0x600003da4810</title>
<path fill="none" stroke="black" d="M642.98,-325.46C669.77,-310.89 710.03,-288.99 735.75,-275"/>
</g>
<!-- node0x600003da47e0 -->
<g id="node6" class="node">
<title>node0x600003da47e0</title>
<ellipse fill="none" stroke="black" cx="760.37" cy="-179.74" rx="85.29" ry="18"/>
<text text-anchor="middle" x="760.37" y="-176.04" font-family="Times,serif" font-size="14.00">STATEMENT_LIST</text>
</g>
<!-- node0x600003da4810&#45;&#45;node0x600003da47e0 -->
<g id="edge5" class="edge">
<title>node0x600003da4810&#45;&#45;node0x600003da47e0</title>
<path fill="none" stroke="black" d="M760.37,-242.5C760.37,-229.36 760.37,-211.29 760.37,-198.09"/>
</g>
<!-- node0x600003da4420 -->
<g id="node7" class="node">
<title>node0x600003da4420</title>
<ellipse fill="none" stroke="black" cx="333.37" cy="-107.74" rx="92.08" ry="18"/>
<text text-anchor="middle" x="333.37" y="-104.04" font-family="Times,serif" font-size="14.00">PRINT_STATEMENT</text>
</g>
<!-- node0x600003da47e0&#45;&#45;node0x600003da4420 -->
<g id="edge6" class="edge">
<title>node0x600003da47e0&#45;&#45;node0x600003da4420</title>
<path fill="none" stroke="black" d="M694.58,-167.96C615.4,-154.97 483.03,-133.27 402.41,-120.06"/>
</g>
<!-- node0x600003da4660 -->
<g id="node11" class="node">
<title>node0x600003da4660</title>
<ellipse fill="none" stroke="black" cx="760.37" cy="-107.74" rx="92.08" ry="18"/>
<text text-anchor="middle" x="760.37" y="-104.04" font-family="Times,serif" font-size="14.00">PRINT_STATEMENT</text>
</g>
<!-- node0x600003da47e0&#45;&#45;node0x600003da4660 -->
<g id="edge10" class="edge">
<title>node0x600003da47e0&#45;&#45;node0x600003da4660</title>
<path fill="none" stroke="black" d="M760.37,-161.44C760.37,-150.59 760.37,-136.66 760.37,-125.84"/>
</g>
<!-- node0x600003da4780 -->
<g id="node15" class="node">
<title>node0x600003da4780</title>
<ellipse fill="none" stroke="black" cx="1032.37" cy="-107.74" rx="92.08" ry="18"/>
<text text-anchor="middle" x="1032.37" y="-104.04" font-family="Times,serif" font-size="14.00">PRINT_STATEMENT</text>
</g>
<!-- node0x600003da47e0&#45;&#45;node0x600003da4780 -->
<g id="edge14" class="edge">
<title>node0x600003da47e0&#45;&#45;node0x600003da4780</title>
<path fill="none" stroke="black" d="M813.13,-165.16C860.72,-152.91 930.39,-134.98 978.35,-122.64"/>
</g>
<!-- node0x600003da4270 -->
<g id="node8" class="node">
<title>node0x600003da4270</title>
<ellipse fill="none" stroke="black" cx="76.37" cy="-26.87" rx="76.24" ry="26.74"/>
<text text-anchor="middle" x="76.37" y="-30.67" font-family="Times,serif" font-size="14.00">STRING_DATA</text>
<text text-anchor="middle" x="76.37" y="-15.67" font-family="Times,serif" font-size="14.00">&quot;Hello&quot;</text>
</g>
<!-- node0x600003da4420&#45;&#45;node0x600003da4270 -->
<g id="edge7" class="edge">
<title>node0x600003da4420&#45;&#45;node0x600003da4270</title>
<path fill="none" stroke="black" d="M285.33,-92C242.03,-78.71 178.35,-59.17 132.68,-45.15"/>
</g>
<!-- node0x600003da4300 -->
<g id="node9" class="node">
<title>node0x600003da4300</title>
<ellipse fill="none" stroke="black" cx="247.37" cy="-26.87" rx="76.24" ry="26.74"/>
<text text-anchor="middle" x="247.37" y="-30.67" font-family="Times,serif" font-size="14.00">STRING_DATA</text>
<text text-anchor="middle" x="247.37" y="-15.67" font-family="Times,serif" font-size="14.00">&quot; &quot;</text>
</g>
<!-- node0x600003da4420&#45;&#45;node0x600003da4300 -->
<g id="edge8" class="edge">
<title>node0x600003da4420&#45;&#45;node0x600003da4300</title>
<path fill="none" stroke="black" d="M314.71,-89.63C302.75,-78.66 287.05,-64.27 273.82,-52.13"/>
</g>
<!-- node0x600003da4390 -->
<g id="node10" class="node">
<title>node0x600003da4390</title>
<ellipse fill="none" stroke="black" cx="418.37" cy="-26.87" rx="76.24" ry="26.74"/>
<text text-anchor="middle" x="418.37" y="-30.67" font-family="Times,serif" font-size="14.00">STRING_DATA</text>
<text text-anchor="middle" x="418.37" y="-15.67" font-family="Times,serif" font-size="14.00">&quot;World&quot;</text>
</g>
<!-- node0x600003da4420&#45;&#45;node0x600003da4390 -->
<g id="edge9" class="edge">
<title>node0x600003da4420&#45;&#45;node0x600003da4390</title>
<path fill="none" stroke="black" d="M351.81,-89.63C363.53,-78.75 378.89,-64.5 391.9,-52.43"/>
</g>
<!-- node0x600003da44b0 -->
<g id="node12" class="node">
<title>node0x600003da44b0</title>
<ellipse fill="none" stroke="black" cx="589.37" cy="-26.87" rx="76.24" ry="26.74"/>
<text text-anchor="middle" x="589.37" y="-30.67" font-family="Times,serif" font-size="14.00">STRING_DATA</text>
<text text-anchor="middle" x="589.37" y="-15.67" font-family="Times,serif" font-size="14.00">&quot;Hallo&quot;</text>
</g>
<!-- node0x600003da4660&#45;&#45;node0x600003da44b0 -->
<g id="edge11" class="edge">
<title>node0x600003da4660&#45;&#45;node0x600003da44b0</title>
<path fill="none" stroke="black" d="M725.76,-90.78C699.51,-78.67 663.19,-61.92 634.63,-48.75"/>
</g>
<!-- node0x600003da4540 -->
<g id="node13" class="node">
<title>node0x600003da4540</title>
<ellipse fill="none" stroke="black" cx="760.37" cy="-26.87" rx="76.24" ry="26.74"/>
<text text-anchor="middle" x="760.37" y="-30.67" font-family="Times,serif" font-size="14.00">STRING_DATA</text>
<text text-anchor="middle" x="760.37" y="-15.67" font-family="Times,serif" font-size="14.00">&quot; &quot;</text>
</g>
<!-- node0x600003da4660&#45;&#45;node0x600003da4540 -->
<g id="edge12" class="edge">
<title>node0x600003da4660&#45;&#45;node0x600003da4540</title>
<path fill="none" stroke="black" d="M760.37,-89.63C760.37,-79.21 760.37,-65.69 760.37,-53.95"/>
</g>
<!-- node0x600003da45d0 -->
<g id="node14" class="node">
<title>node0x600003da45d0</title>
<ellipse fill="none" stroke="black" cx="931.37" cy="-26.87" rx="76.24" ry="26.74"/>
<text text-anchor="middle" x="931.37" y="-30.67" font-family="Times,serif" font-size="14.00">STRING_DATA</text>
<text text-anchor="middle" x="931.37" y="-15.67" font-family="Times,serif" font-size="14.00">&quot;Verden&quot;</text>
</g>
<!-- node0x600003da4660&#45;&#45;node0x600003da45d0 -->
<g id="edge13" class="edge">
<title>node0x600003da4660&#45;&#45;node0x600003da45d0</title>
<path fill="none" stroke="black" d="M794.97,-90.78C821.22,-78.67 857.54,-61.92 886.1,-48.75"/>
</g>
<!-- node0x600003da46f0 -->
<g id="node16" class="node">
<title>node0x600003da46f0</title>
<ellipse fill="none" stroke="black" cx="1102.37" cy="-26.87" rx="76.24" ry="26.74"/>
<text text-anchor="middle" x="1102.37" y="-30.67" font-family="Times,serif" font-size="14.00">STRING_DATA</text>
<text text-anchor="middle" x="1102.37" y="-15.67" font-family="Times,serif" font-size="14.00">&quot;Goodbye\n&quot;</text>
</g>
<!-- node0x600003da4780&#45;&#45;node0x600003da46f0 -->
<g id="edge15" class="edge">
<title>node0x600003da4780&#45;&#45;node0x600003da46f0</title>
<path fill="none" stroke="black" d="M1047.56,-89.63C1057.13,-78.84 1069.64,-64.74 1080.3,-52.74"/>
</g>
</g>
</svg>
