<?xml version="1.0" encoding="UTF-8" standalone="no"?>
<!DOCTYPE svg PUBLIC "-//W3C//DTD SVG 1.1//EN"
 "http://www.w3.org/Graphics/SVG/1.1/DTD/svg11.dtd">
<!-- Generated by graphviz version 7.1.0 (20230121.1956)
 -->
<!-- Pages: 1 -->
<svg width="652pt" height="745pt"
 viewBox="0.00 0.00 652.04 745.22" xmlns="http://www.w3.org/2000/svg" xmlns:xlink="http://www.w3.org/1999/xlink">
<g id="graph0" class="graph" transform="scale(1 1) rotate(0) translate(4 741.22)">
<polygon fill="white" stroke="none" points="-4,4 -4,-741.22 648.04,-741.22 648.04,4 -4,4"/>
<!-- node0x6000014346c0 -->
<g id="node1" class="node">
<title>node0x6000014346c0</title>
<ellipse fill="none" stroke="black" cx="294.75" cy="-719.22" rx="69.59" ry="18"/>
<text text-anchor="middle" x="294.75" y="-715.52" font-family="Times,serif" font-size="14.00">GLOBAL_LIST</text>
</g>
<!-- node0x600001434660 -->
<g id="node2" class="node">
<title>node0x600001434660</title>
<ellipse fill="none" stroke="black" cx="294.75" cy="-647.22" rx="55.49" ry="18"/>
<text text-anchor="middle" x="294.75" y="-643.52" font-family="Times,serif" font-size="14.00">FUNCTION</text>
</g>
<!-- node0x6000014346c0&#45;&#45;node0x600001434660 -->
<g id="edge1" class="edge">
<title>node0x6000014346c0&#45;&#45;node0x600001434660</title>
<path fill="none" stroke="black" d="M294.75,-700.92C294.75,-690.07 294.75,-676.14 294.75,-665.32"/>
</g>
<!-- node0x600001434000 -->
<g id="node3" class="node">
<title>node0x600001434000</title>
<ellipse fill="none" stroke="black" cx="94.75" cy="-566.35" rx="94.51" ry="26.74"/>
<text text-anchor="middle" x="94.75" y="-570.15" font-family="Times,serif" font-size="14.00">IDENTIFIER_DATA</text>
<text text-anchor="middle" x="94.75" y="-555.15" font-family="Times,serif" font-size="14.00">main</text>
</g>
<!-- node0x600001434660&#45;&#45;node0x600001434000 -->
<g id="edge2" class="edge">
<title>node0x600001434660&#45;&#45;node0x600001434000</title>
<path fill="none" stroke="black" d="M260.37,-632.66C229.66,-620.55 184.16,-602.61 148.62,-588.59"/>
</g>
<!-- node0x600001434030 -->
<g id="node4" class="node">
<title>node0x600001434030</title>
<ellipse fill="none" stroke="black" cx="294.75" cy="-566.35" rx="87.18" ry="18"/>
<text text-anchor="middle" x="294.75" y="-562.65" font-family="Times,serif" font-size="14.00">PARAMETER_LIST</text>
</g>
<!-- node0x600001434660&#45;&#45;node0x600001434030 -->
<g id="edge3" class="edge">
<title>node0x600001434660&#45;&#45;node0x600001434030</title>
<path fill="none" stroke="black" d="M294.75,-629.11C294.75,-615.97 294.75,-597.9 294.75,-584.7"/>
</g>
<!-- node0x600001434630 -->
<g id="node5" class="node">
<title>node0x600001434630</title>
<ellipse fill="none" stroke="black" cx="461.75" cy="-566.35" rx="62.29" ry="18"/>
<text text-anchor="middle" x="461.75" y="-562.65" font-family="Times,serif" font-size="14.00">STATEMENT</text>
</g>
<!-- node0x600001434660&#45;&#45;node0x600001434630 -->
<g id="edge4" class="edge">
<title>node0x600001434660&#45;&#45;node0x600001434630</title>
<path fill="none" stroke="black" d="M325.38,-631.75C355.14,-617.7 400.11,-596.46 430.18,-582.26"/>
</g>
<!-- node0x600001434600 -->
<g id="node6" class="node">
<title>node0x600001434600</title>
<ellipse fill="none" stroke="black" cx="461.75" cy="-485.48" rx="40.09" ry="18"/>
<text text-anchor="middle" x="461.75" y="-481.78" font-family="Times,serif" font-size="14.00">BLOCK</text>
</g>
<!-- node0x600001434630&#45;&#45;node0x600001434600 -->
<g id="edge5" class="edge">
<title>node0x600001434630&#45;&#45;node0x600001434600</title>
<path fill="none" stroke="black" d="M461.75,-548.24C461.75,-535.1 461.75,-517.03 461.75,-503.83"/>
</g>
<!-- node0x6000014345d0 -->
<g id="node7" class="node">
<title>node0x6000014345d0</title>
<ellipse fill="none" stroke="black" cx="461.75" cy="-413.48" rx="85.29" ry="18"/>
<text text-anchor="middle" x="461.75" y="-409.78" font-family="Times,serif" font-size="14.00">STATEMENT_LIST</text>
</g>
<!-- node0x600001434600&#45;&#45;node0x6000014345d0 -->
<g id="edge6" class="edge">
<title>node0x600001434600&#45;&#45;node0x6000014345d0</title>
<path fill="none" stroke="black" d="M461.75,-467.18C461.75,-456.33 461.75,-442.4 461.75,-431.58"/>
</g>
<!-- node0x6000014344b0 -->
<g id="node8" class="node">
<title>node0x6000014344b0</title>
<ellipse fill="none" stroke="black" cx="378.75" cy="-341.48" rx="85.29" ry="18"/>
<text text-anchor="middle" x="378.75" y="-337.78" font-family="Times,serif" font-size="14.00">STATEMENT_LIST</text>
</g>
<!-- node0x6000014345d0&#45;&#45;node0x6000014344b0 -->
<g id="edge7" class="edge">
<title>node0x6000014345d0&#45;&#45;node0x6000014344b0</title>
<path fill="none" stroke="black" d="M441.66,-395.54C428.61,-384.53 411.67,-370.24 398.66,-359.27"/>
</g>
<!-- node0x6000014345a0 -->
<g id="node16" class="node">
<title>node0x6000014345a0</title>
<ellipse fill="none" stroke="black" cx="547.75" cy="-341.48" rx="62.29" ry="18"/>
<text text-anchor="middle" x="547.75" y="-337.78" font-family="Times,serif" font-size="14.00">STATEMENT</text>
</g>
<!-- node0x6000014345d0&#45;&#45;node0x6000014345a0 -->
<g id="edge15" class="edge">
<title>node0x6000014345d0&#45;&#45;node0x6000014345a0</title>
<path fill="none" stroke="black" d="M482.57,-395.54C496.29,-384.37 514.16,-369.82 527.72,-358.79"/>
</g>
<!-- node0x600001434270 -->
<g id="node9" class="node">
<title>node0x600001434270</title>
<ellipse fill="none" stroke="black" cx="210.75" cy="-269.48" rx="85.29" ry="18"/>
<text text-anchor="middle" x="210.75" y="-265.78" font-family="Times,serif" font-size="14.00">STATEMENT_LIST</text>
</g>
<!-- node0x6000014344b0&#45;&#45;node0x600001434270 -->
<g id="edge8" class="edge">
<title>node0x6000014344b0&#45;&#45;node0x600001434270</title>
<path fill="none" stroke="black" d="M341.47,-324.94C313.72,-313.39 276.01,-297.67 248.22,-286.09"/>
</g>
<!-- node0x600001434480 -->
<g id="node13" class="node">
<title>node0x600001434480</title>
<ellipse fill="none" stroke="black" cx="378.75" cy="-269.48" rx="62.29" ry="18"/>
<text text-anchor="middle" x="378.75" y="-265.78" font-family="Times,serif" font-size="14.00">STATEMENT</text>
</g>
<!-- node0x6000014344b0&#45;&#45;node0x600001434480 -->
<g id="edge12" class="edge">
<title>node0x6000014344b0&#45;&#45;node0x600001434480</title>
<path fill="none" stroke="black" d="M378.75,-323.18C378.75,-312.33 378.75,-298.4 378.75,-287.58"/>
</g>
<!-- node0x600001434240 -->
<g id="node10" class="node">
<title>node0x600001434240</title>
<ellipse fill="none" stroke="black" cx="207.75" cy="-197.48" rx="62.29" ry="18"/>
<text text-anchor="middle" x="207.75" y="-193.78" font-family="Times,serif" font-size="14.00">STATEMENT</text>
</g>
<!-- node0x600001434270&#45;&#45;node0x600001434240 -->
<g id="edge9" class="edge">
<title>node0x600001434270&#45;&#45;node0x600001434240</title>
<path fill="none" stroke="black" d="M210.01,-251.18C209.55,-240.33 208.95,-226.4 208.49,-215.58"/>
</g>
<!-- node0x600001434210 -->
<g id="node11" class="node">
<title>node0x600001434210</title>
<ellipse fill="none" stroke="black" cx="200.75" cy="-116.61" rx="92.08" ry="18"/>
<text text-anchor="middle" x="200.75" y="-112.91" font-family="Times,serif" font-size="14.00">PRINT_STATEMENT</text>
</g>
<!-- node0x600001434240&#45;&#45;node0x600001434210 -->
<g id="edge10" class="edge">
<title>node0x600001434240&#45;&#45;node0x600001434210</title>
<path fill="none" stroke="black" d="M206.23,-179.37C205.07,-166.23 203.46,-148.16 202.29,-134.96"/>
</g>
<!-- node0x600001434180 -->
<g id="node12" class="node">
<title>node0x600001434180</title>
<ellipse fill="none" stroke="black" cx="200.75" cy="-26.87" rx="76.24" ry="26.74"/>
<text text-anchor="middle" x="200.75" y="-30.67" font-family="Times,serif" font-size="14.00">STRING_DATA</text>
<text text-anchor="middle" x="200.75" y="-15.67" font-family="Times,serif" font-size="14.00">&quot;World&quot;</text>
</g>
<!-- node0x600001434210&#45;&#45;node0x600001434180 -->
<g id="edge11" class="edge">
<title>node0x600001434210&#45;&#45;node0x600001434180</title>
<path fill="none" stroke="black" d="M200.75,-98.28C200.75,-85.59 200.75,-68.16 200.75,-53.82"/>
</g>
<!-- node0x600001434450 -->
<g id="node14" class="node">
<title>node0x600001434450</title>
<ellipse fill="none" stroke="black" cx="383.75" cy="-197.48" rx="92.08" ry="18"/>
<text text-anchor="middle" x="383.75" y="-193.78" font-family="Times,serif" font-size="14.00">PRINT_STATEMENT</text>
</g>
<!-- node0x600001434480&#45;&#45;node0x600001434450 -->
<g id="edge13" class="edge">
<title>node0x600001434480&#45;&#45;node0x600001434450</title>
<path fill="none" stroke="black" d="M379.99,-251.18C380.76,-240.33 381.76,-226.4 382.53,-215.58"/>
</g>
<!-- node0x6000014343c0 -->
<g id="node15" class="node">
<title>node0x6000014343c0</title>
<ellipse fill="none" stroke="black" cx="387.75" cy="-116.61" rx="76.24" ry="26.74"/>
<text text-anchor="middle" x="387.75" y="-120.41" font-family="Times,serif" font-size="14.00">STRING_DATA</text>
<text text-anchor="middle" x="387.75" y="-105.41" font-family="Times,serif" font-size="14.00">&quot;Verden&quot;</text>
</g>
<!-- node0x600001434450&#45;&#45;node0x6000014343c0 -->
<g id="edge14" class="edge">
<title>node0x600001434450&#45;&#45;node0x6000014343c0</title>
<path fill="none" stroke="black" d="M384.62,-179.37C385.15,-168.95 385.83,-155.43 386.43,-143.69"/>
</g>
<!-- node0x600001434570 -->
<g id="node17" class="node">
<title>node0x600001434570</title>
<ellipse fill="none" stroke="black" cx="551.75" cy="-269.48" rx="92.08" ry="18"/>
<text text-anchor="middle" x="551.75" y="-265.78" font-family="Times,serif" font-size="14.00">PRINT_STATEMENT</text>
</g>
<!-- node0x6000014345a0&#45;&#45;node0x600001434570 -->
<g id="edge16" class="edge">
<title>node0x6000014345a0&#45;&#45;node0x600001434570</title>
<path fill="none" stroke="black" d="M548.74,-323.18C549.36,-312.33 550.16,-298.4 550.77,-287.58"/>
</g>
</g>
</svg>
