<?xml version="1.0" encoding="UTF-8" standalone="no"?>
<!DOCTYPE svg PUBLIC "-//W3C//DTD SVG 1.1//EN"
 "http://www.w3.org/Graphics/SVG/1.1/DTD/svg11.dtd">
<!-- Generated by graphviz version 7.1.0 (20230121.1956)
 -->
<!-- Pages: 1 -->
<svg width="974pt" height="1086pt"
 viewBox="0.00 0.00 973.74 1086.44" xmlns="http://www.w3.org/2000/svg" xmlns:xlink="http://www.w3.org/1999/xlink">
<g id="graph0" class="graph" transform="scale(1 1) rotate(0) translate(4 1082.44)">
<polygon fill="white" stroke="none" points="-4,4 -4,-1082.44 969.74,-1082.44 969.74,4 -4,4"/>
<!-- node0x6000012808d0 -->
<g id="node1" class="node">
<title>node0x6000012808d0</title>
<ellipse fill="none" stroke="black" cx="558.37" cy="-1060.44" rx="69.59" ry="18"/>
<text text-anchor="middle" x="558.37" y="-1056.74" font-family="Times,serif" font-size="14.00">GLOBAL_LIST</text>
</g>
<!-- node0x600001280870 -->
<g id="node2" class="node">
<title>node0x600001280870</title>
<ellipse fill="none" stroke="black" cx="558.37" cy="-988.44" rx="55.49" ry="18"/>
<text text-anchor="middle" x="558.37" y="-984.74" font-family="Times,serif" font-size="14.00">FUNCTION</text>
</g>
<!-- node0x6000012808d0&#45;&#45;node0x600001280870 -->
<g id="edge1" class="edge">
<title>node0x6000012808d0&#45;&#45;node0x600001280870</title>
<path fill="none" stroke="black" d="M558.37,-1042.14C558.37,-1031.29 558.37,-1017.36 558.37,-1006.55"/>
</g>
<!-- node0x600001280210 -->
<g id="node3" class="node">
<title>node0x600001280210</title>
<ellipse fill="none" stroke="black" cx="358.37" cy="-907.57" rx="94.51" ry="26.74"/>
<text text-anchor="middle" x="358.37" y="-911.37" font-family="Times,serif" font-size="14.00">IDENTIFIER_DATA</text>
<text text-anchor="middle" x="358.37" y="-896.37" font-family="Times,serif" font-size="14.00">main</text>
</g>
<!-- node0x600001280870&#45;&#45;node0x600001280210 -->
<g id="edge2" class="edge">
<title>node0x600001280870&#45;&#45;node0x600001280210</title>
<path fill="none" stroke="black" d="M523.99,-973.88C493.27,-961.77 447.77,-943.83 412.23,-929.81"/>
</g>
<!-- node0x600001280240 -->
<g id="node4" class="node">
<title>node0x600001280240</title>
<ellipse fill="none" stroke="black" cx="558.37" cy="-907.57" rx="87.18" ry="18"/>
<text text-anchor="middle" x="558.37" y="-903.87" font-family="Times,serif" font-size="14.00">PARAMETER_LIST</text>
</g>
<!-- node0x600001280870&#45;&#45;node0x600001280240 -->
<g id="edge3" class="edge">
<title>node0x600001280870&#45;&#45;node0x600001280240</title>
<path fill="none" stroke="black" d="M558.37,-970.33C558.37,-957.19 558.37,-939.12 558.37,-925.92"/>
</g>
<!-- node0x600001280840 -->
<g id="node5" class="node">
<title>node0x600001280840</title>
<ellipse fill="none" stroke="black" cx="725.37" cy="-907.57" rx="62.29" ry="18"/>
<text text-anchor="middle" x="725.37" y="-903.87" font-family="Times,serif" font-size="14.00">STATEMENT</text>
</g>
<!-- node0x600001280870&#45;&#45;node0x600001280840 -->
<g id="edge4" class="edge">
<title>node0x600001280870&#45;&#45;node0x600001280840</title>
<path fill="none" stroke="black" d="M589,-972.97C618.75,-958.92 663.73,-937.68 693.8,-923.48"/>
</g>
<!-- node0x600001280810 -->
<g id="node6" class="node">
<title>node0x600001280810</title>
<ellipse fill="none" stroke="black" cx="725.37" cy="-826.7" rx="40.09" ry="18"/>
<text text-anchor="middle" x="725.37" y="-823" font-family="Times,serif" font-size="14.00">BLOCK</text>
</g>
<!-- node0x600001280840&#45;&#45;node0x600001280810 -->
<g id="edge5" class="edge">
<title>node0x600001280840&#45;&#45;node0x600001280810</title>
<path fill="none" stroke="black" d="M725.37,-889.46C725.37,-876.32 725.37,-858.25 725.37,-845.05"/>
</g>
<!-- node0x6000012807e0 -->
<g id="node7" class="node">
<title>node0x6000012807e0</title>
<ellipse fill="none" stroke="black" cx="725.37" cy="-754.7" rx="85.29" ry="18"/>
<text text-anchor="middle" x="725.37" y="-751" font-family="Times,serif" font-size="14.00">STATEMENT_LIST</text>
</g>
<!-- node0x600001280810&#45;&#45;node0x6000012807e0 -->
<g id="edge6" class="edge">
<title>node0x600001280810&#45;&#45;node0x6000012807e0</title>
<path fill="none" stroke="black" d="M725.37,-808.4C725.37,-797.55 725.37,-783.62 725.37,-772.8"/>
</g>
<!-- node0x6000012806c0 -->
<g id="node8" class="node">
<title>node0x6000012806c0</title>
<ellipse fill="none" stroke="black" cx="642.37" cy="-682.7" rx="85.29" ry="18"/>
<text text-anchor="middle" x="642.37" y="-679" font-family="Times,serif" font-size="14.00">STATEMENT_LIST</text>
</g>
<!-- node0x6000012807e0&#45;&#45;node0x6000012806c0 -->
<g id="edge7" class="edge">
<title>node0x6000012807e0&#45;&#45;node0x6000012806c0</title>
<path fill="none" stroke="black" d="M705.28,-736.76C692.23,-725.75 675.29,-711.46 662.27,-700.49"/>
</g>
<!-- node0x6000012807b0 -->
<g id="node32" class="node">
<title>node0x6000012807b0</title>
<ellipse fill="none" stroke="black" cx="811.37" cy="-682.7" rx="62.29" ry="18"/>
<text text-anchor="middle" x="811.37" y="-679" font-family="Times,serif" font-size="14.00">STATEMENT</text>
</g>
<!-- node0x6000012807e0&#45;&#45;node0x6000012807b0 -->
<g id="edge31" class="edge">
<title>node0x6000012807e0&#45;&#45;node0x6000012807b0</title>
<path fill="none" stroke="black" d="M746.19,-736.76C759.91,-725.59 777.78,-711.04 791.33,-700.01"/>
</g>
<!-- node0x600001280480 -->
<g id="node9" class="node">
<title>node0x600001280480</title>
<ellipse fill="none" stroke="black" cx="473.37" cy="-610.7" rx="85.29" ry="18"/>
<text text-anchor="middle" x="473.37" y="-607" font-family="Times,serif" font-size="14.00">STATEMENT_LIST</text>
</g>
<!-- node0x6000012806c0&#45;&#45;node0x600001280480 -->
<g id="edge8" class="edge">
<title>node0x6000012806c0&#45;&#45;node0x600001280480</title>
<path fill="none" stroke="black" d="M604.86,-666.17C576.95,-654.61 539.01,-638.89 511.06,-627.31"/>
</g>
<!-- node0x600001280690 -->
<g id="node21" class="node">
<title>node0x600001280690</title>
<ellipse fill="none" stroke="black" cx="642.37" cy="-610.7" rx="62.29" ry="18"/>
<text text-anchor="middle" x="642.37" y="-607" font-family="Times,serif" font-size="14.00">STATEMENT</text>
</g>
<!-- node0x6000012806c0&#45;&#45;node0x600001280690 -->
<g id="edge20" class="edge">
<title>node0x6000012806c0&#45;&#45;node0x600001280690</title>
<path fill="none" stroke="black" d="M642.37,-664.4C642.37,-653.55 642.37,-639.62 642.37,-628.8"/>
</g>
<!-- node0x600001280450 -->
<g id="node10" class="node">
<title>node0x600001280450</title>
<ellipse fill="none" stroke="black" cx="466.37" cy="-538.7" rx="62.29" ry="18"/>
<text text-anchor="middle" x="466.37" y="-535" font-family="Times,serif" font-size="14.00">STATEMENT</text>
</g>
<!-- node0x600001280480&#45;&#45;node0x600001280450 -->
<g id="edge9" class="edge">
<title>node0x600001280480&#45;&#45;node0x600001280450</title>
<path fill="none" stroke="black" d="M471.64,-592.4C470.55,-581.55 469.16,-567.62 468.08,-556.8"/>
</g>
<!-- node0x600001280420 -->
<g id="node11" class="node">
<title>node0x600001280420</title>
<ellipse fill="none" stroke="black" cx="439.37" cy="-466.7" rx="92.08" ry="18"/>
<text text-anchor="middle" x="439.37" y="-463" font-family="Times,serif" font-size="14.00">PRINT_STATEMENT</text>
</g>
<!-- node0x600001280450&#45;&#45;node0x600001280420 -->
<g id="edge10" class="edge">
<title>node0x600001280450&#45;&#45;node0x600001280420</title>
<path fill="none" stroke="black" d="M459.69,-520.4C455.51,-509.55 450.14,-495.62 445.96,-484.8"/>
</g>
<!-- node0x6000012803f0 -->
<g id="node12" class="node">
<title>node0x6000012803f0</title>
<ellipse fill="none" stroke="black" cx="385.37" cy="-385.83" rx="59.29" ry="18"/>
<text text-anchor="middle" x="385.37" y="-382.13" font-family="Times,serif" font-size="14.00">PRINT_LIST</text>
</g>
<!-- node0x600001280420&#45;&#45;node0x6000012803f0 -->
<g id="edge11" class="edge">
<title>node0x600001280420&#45;&#45;node0x6000012803f0</title>
<path fill="none" stroke="black" d="M427.65,-448.59C418.59,-435.36 406.11,-417.13 397.06,-403.91"/>
</g>
<!-- node0x600001280360 -->
<g id="node13" class="node">
<title>node0x600001280360</title>
<ellipse fill="none" stroke="black" cx="228.37" cy="-296.09" rx="59.29" ry="18"/>
<text text-anchor="middle" x="228.37" y="-292.39" font-family="Times,serif" font-size="14.00">PRINT_LIST</text>
</g>
<!-- node0x6000012803f0&#45;&#45;node0x600001280360 -->
<g id="edge12" class="edge">
<title>node0x6000012803f0&#45;&#45;node0x600001280360</title>
<path fill="none" stroke="black" d="M358.02,-369.55C329.38,-353.54 284.65,-328.54 255.93,-312.49"/>
</g>
<!-- node0x6000012803c0 -->
<g id="node19" class="node">
<title>node0x6000012803c0</title>
<ellipse fill="none" stroke="black" cx="385.37" cy="-296.09" rx="62.29" ry="18"/>
<text text-anchor="middle" x="385.37" y="-292.39" font-family="Times,serif" font-size="14.00">PRINT_ITEM</text>
</g>
<!-- node0x6000012803f0&#45;&#45;node0x6000012803c0 -->
<g id="edge18" class="edge">
<title>node0x6000012803f0&#45;&#45;node0x6000012803c0</title>
<path fill="none" stroke="black" d="M385.37,-367.5C385.37,-352.11 385.37,-329.76 385.37,-314.39"/>
</g>
<!-- node0x6000012802d0 -->
<g id="node14" class="node">
<title>node0x6000012802d0</title>
<ellipse fill="none" stroke="black" cx="84.37" cy="-206.35" rx="59.29" ry="18"/>
<text text-anchor="middle" x="84.37" y="-202.65" font-family="Times,serif" font-size="14.00">PRINT_LIST</text>
</g>
<!-- node0x600001280360&#45;&#45;node0x6000012802d0 -->
<g id="edge13" class="edge">
<title>node0x600001280360&#45;&#45;node0x6000012802d0</title>
<path fill="none" stroke="black" d="M202.62,-279.4C176.41,-263.43 136.02,-238.82 109.89,-222.9"/>
</g>
<!-- node0x600001280330 -->
<g id="node17" class="node">
<title>node0x600001280330</title>
<ellipse fill="none" stroke="black" cx="228.37" cy="-206.35" rx="62.29" ry="18"/>
<text text-anchor="middle" x="228.37" y="-202.65" font-family="Times,serif" font-size="14.00">PRINT_ITEM</text>
</g>
<!-- node0x600001280360&#45;&#45;node0x600001280330 -->
<g id="edge16" class="edge">
<title>node0x600001280360&#45;&#45;node0x600001280330</title>
<path fill="none" stroke="black" d="M228.37,-277.76C228.37,-262.37 228.37,-240.02 228.37,-224.65"/>
</g>
<!-- node0x6000012802a0 -->
<g id="node15" class="node">
<title>node0x6000012802a0</title>
<ellipse fill="none" stroke="black" cx="76.37" cy="-116.61" rx="62.29" ry="18"/>
<text text-anchor="middle" x="76.37" y="-112.91" font-family="Times,serif" font-size="14.00">PRINT_ITEM</text>
</g>
<!-- node0x6000012802d0&#45;&#45;node0x6000012802a0 -->
<g id="edge14" class="edge">
<title>node0x6000012802d0&#45;&#45;node0x6000012802a0</title>
<path fill="none" stroke="black" d="M82.79,-188.02C81.38,-172.63 79.35,-150.28 77.94,-134.91"/>
</g>
<!-- node0x600001280270 -->
<g id="node16" class="node">
<title>node0x600001280270</title>
<ellipse fill="none" stroke="black" cx="76.37" cy="-26.87" rx="76.24" ry="26.74"/>
<text text-anchor="middle" x="76.37" y="-30.67" font-family="Times,serif" font-size="14.00">STRING_DATA</text>
<text text-anchor="middle" x="76.37" y="-15.67" font-family="Times,serif" font-size="14.00">&quot;Hello&quot;</text>
</g>
<!-- node0x6000012802a0&#45;&#45;node0x600001280270 -->
<g id="edge15" class="edge">
<title>node0x6000012802a0&#45;&#45;node0x600001280270</title>
<path fill="none" stroke="black" d="M76.37,-98.28C76.37,-85.59 76.37,-68.16 76.37,-53.82"/>
</g>
<!-- node0x600001280300 -->
<g id="node18" class="node">
<title>node0x600001280300</title>
<ellipse fill="none" stroke="black" cx="233.37" cy="-116.61" rx="76.24" ry="26.74"/>
<text text-anchor="middle" x="233.37" y="-120.41" font-family="Times,serif" font-size="14.00">STRING_DATA</text>
<text text-anchor="middle" x="233.37" y="-105.41" font-family="Times,serif" font-size="14.00">&quot; &quot;</text>
</g>
<!-- node0x600001280330&#45;&#45;node0x600001280300 -->
<g id="edge17" class="edge">
<title>node0x600001280330&#45;&#45;node0x600001280300</title>
<path fill="none" stroke="black" d="M229.36,-188.02C230.08,-175.33 231.07,-157.9 231.89,-143.56"/>
</g>
<!-- node0x600001280390 -->
<g id="node20" class="node">
<title>node0x600001280390</title>
<ellipse fill="none" stroke="black" cx="385.37" cy="-206.35" rx="76.24" ry="26.74"/>
<text text-anchor="middle" x="385.37" y="-210.15" font-family="Times,serif" font-size="14.00">STRING_DATA</text>
<text text-anchor="middle" x="385.37" y="-195.15" font-family="Times,serif" font-size="14.00">&quot;World&quot;</text>
</g>
<!-- node0x6000012803c0&#45;&#45;node0x600001280390 -->
<g id="edge19" class="edge">
<title>node0x6000012803c0&#45;&#45;node0x600001280390</title>
<path fill="none" stroke="black" d="M385.37,-277.76C385.37,-265.07 385.37,-247.64 385.37,-233.3"/>
</g>
<!-- node0x600001280660 -->
<g id="node22" class="node">
<title>node0x600001280660</title>
<ellipse fill="none" stroke="black" cx="642.37" cy="-538.7" rx="92.08" ry="18"/>
<text text-anchor="middle" x="642.37" y="-535" font-family="Times,serif" font-size="14.00">PRINT_STATEMENT</text>
</g>
<!-- node0x600001280690&#45;&#45;node0x600001280660 -->
<g id="edge21" class="edge">
<title>node0x600001280690&#45;&#45;node0x600001280660</title>
<path fill="none" stroke="black" d="M642.37,-592.4C642.37,-581.55 642.37,-567.62 642.37,-556.8"/>
</g>
<!-- node0x600001280630 -->
<g id="node23" class="node">
<title>node0x600001280630</title>
<ellipse fill="none" stroke="black" cx="642.37" cy="-466.7" rx="59.29" ry="18"/>
<text text-anchor="middle" x="642.37" y="-463" font-family="Times,serif" font-size="14.00">PRINT_LIST</text>
</g>
<!-- node0x600001280660&#45;&#45;node0x600001280630 -->
<g id="edge22" class="edge">
<title>node0x600001280660&#45;&#45;node0x600001280630</title>
<path fill="none" stroke="black" d="M642.37,-520.4C642.37,-509.55 642.37,-495.62 642.37,-484.8"/>
</g>
<!-- node0x6000012805a0 -->
<g id="node24" class="node">
<title>node0x6000012805a0</title>
<ellipse fill="none" stroke="black" cx="592.37" cy="-385.83" rx="59.29" ry="18"/>
<text text-anchor="middle" x="592.37" y="-382.13" font-family="Times,serif" font-size="14.00">PRINT_LIST</text>
</g>
<!-- node0x600001280630&#45;&#45;node0x6000012805a0 -->
<g id="edge23" class="edge">
<title>node0x600001280630&#45;&#45;node0x6000012805a0</title>
<path fill="none" stroke="black" d="M631.52,-448.59C623.13,-435.36 611.58,-417.13 603.2,-403.91"/>
</g>
<!-- node0x600001280600 -->
<g id="node30" class="node">
<title>node0x600001280600</title>
<ellipse fill="none" stroke="black" cx="732.37" cy="-385.83" rx="62.29" ry="18"/>
<text text-anchor="middle" x="732.37" y="-382.13" font-family="Times,serif" font-size="14.00">PRINT_ITEM</text>
</g>
<!-- node0x600001280630&#45;&#45;node0x600001280600 -->
<g id="edge29" class="edge">
<title>node0x600001280630&#45;&#45;node0x600001280600</title>
<path fill="none" stroke="black" d="M661.02,-449.36C676.36,-435.91 698.01,-416.94 713.43,-403.42"/>
</g>
<!-- node0x600001280510 -->
<g id="node25" class="node">
<title>node0x600001280510</title>
<ellipse fill="none" stroke="black" cx="542.37" cy="-296.09" rx="59.29" ry="18"/>
<text text-anchor="middle" x="542.37" y="-292.39" font-family="Times,serif" font-size="14.00">PRINT_LIST</text>
</g>
<!-- node0x6000012805a0&#45;&#45;node0x600001280510 -->
<g id="edge24" class="edge">
<title>node0x6000012805a0&#45;&#45;node0x600001280510</title>
<path fill="none" stroke="black" d="M582.73,-367.91C573.93,-352.48 560.99,-329.77 552.15,-314.26"/>
</g>
<!-- node0x600001280570 -->
<g id="node28" class="node">
<title>node0x600001280570</title>
<ellipse fill="none" stroke="black" cx="682.37" cy="-296.09" rx="62.29" ry="18"/>
<text text-anchor="middle" x="682.37" y="-292.39" font-family="Times,serif" font-size="14.00">PRINT_ITEM</text>
</g>
<!-- node0x6000012805a0&#45;&#45;node0x600001280570 -->
<g id="edge27" class="edge">
<title>node0x6000012805a0&#45;&#45;node0x600001280570</title>
<path fill="none" stroke="black" d="M609.3,-368.33C625.28,-352.74 649.15,-329.48 665.21,-313.82"/>
</g>
<!-- node0x6000012804e0 -->
<g id="node26" class="node">
<title>node0x6000012804e0</title>
<ellipse fill="none" stroke="black" cx="542.37" cy="-206.35" rx="62.29" ry="18"/>
<text text-anchor="middle" x="542.37" y="-202.65" font-family="Times,serif" font-size="14.00">PRINT_ITEM</text>
</g>
<!-- node0x600001280510&#45;&#45;node0x6000012804e0 -->
<g id="edge25" class="edge">
<title>node0x600001280510&#45;&#45;node0x6000012804e0</title>
<path fill="none" stroke="black" d="M542.37,-277.76C542.37,-262.37 542.37,-240.02 542.37,-224.65"/>
</g>
<!-- node0x6000012804b0 -->
<g id="node27" class="node">
<title>node0x6000012804b0</title>
<ellipse fill="none" stroke="black" cx="542.37" cy="-116.61" rx="76.24" ry="26.74"/>
<text text-anchor="middle" x="542.37" y="-120.41" font-family="Times,serif" font-size="14.00">STRING_DATA</text>
<text text-anchor="middle" x="542.37" y="-105.41" font-family="Times,serif" font-size="14.00">&quot;Hallo&quot;</text>
</g>
<!-- node0x6000012804e0&#45;&#45;node0x6000012804b0 -->
<g id="edge26" class="edge">
<title>node0x6000012804e0&#45;&#45;node0x6000012804b0</title>
<path fill="none" stroke="black" d="M542.37,-188.02C542.37,-175.33 542.37,-157.9 542.37,-143.56"/>
</g>
<!-- node0x600001280540 -->
<g id="node29" class="node">
<title>node0x600001280540</title>
<ellipse fill="none" stroke="black" cx="699.37" cy="-206.35" rx="76.24" ry="26.74"/>
<text text-anchor="middle" x="699.37" y="-210.15" font-family="Times,serif" font-size="14.00">STRING_DATA</text>
<text text-anchor="middle" x="699.37" y="-195.15" font-family="Times,serif" font-size="14.00">&quot; &quot;</text>
</g>
<!-- node0x600001280570&#45;&#45;node0x600001280540 -->
<g id="edge28" class="edge">
<title>node0x600001280570&#45;&#45;node0x600001280540</title>
<path fill="none" stroke="black" d="M685.73,-277.76C688.18,-265.07 691.56,-247.64 694.34,-233.3"/>
</g>
<!-- node0x6000012805d0 -->
<g id="node31" class="node">
<title>node0x6000012805d0</title>
<ellipse fill="none" stroke="black" cx="839.37" cy="-296.09" rx="76.24" ry="26.74"/>
<text text-anchor="middle" x="839.37" y="-299.89" font-family="Times,serif" font-size="14.00">STRING_DATA</text>
<text text-anchor="middle" x="839.37" y="-284.89" font-family="Times,serif" font-size="14.00">&quot;Verden&quot;</text>
</g>
<!-- node0x600001280600&#45;&#45;node0x6000012805d0 -->
<g id="edge30" class="edge">
<title>node0x600001280600&#45;&#45;node0x6000012805d0</title>
<path fill="none" stroke="black" d="M752.49,-368.33C768.72,-355.02 791.76,-336.13 810.04,-321.14"/>
</g>
<!-- node0x600001280780 -->
<g id="node33" class="node">
<title>node0x600001280780</title>
<ellipse fill="none" stroke="black" cx="822.37" cy="-610.7" rx="92.08" ry="18"/>
<text text-anchor="middle" x="822.37" y="-607" font-family="Times,serif" font-size="14.00">PRINT_STATEMENT</text>
</g>
<!-- node0x6000012807b0&#45;&#45;node0x600001280780 -->
<g id="edge32" class="edge">
<title>node0x6000012807b0&#45;&#45;node0x600001280780</title>
<path fill="none" stroke="black" d="M814.09,-664.4C815.79,-653.55 817.98,-639.62 819.68,-628.8"/>
</g>
<!-- node0x600001280750 -->
<g id="node34" class="node">
<title>node0x600001280750</title>
<ellipse fill="none" stroke="black" cx="835.37" cy="-538.7" rx="59.29" ry="18"/>
<text text-anchor="middle" x="835.37" y="-535" font-family="Times,serif" font-size="14.00">PRINT_LIST</text>
</g>
<!-- node0x600001280780&#45;&#45;node0x600001280750 -->
<g id="edge33" class="edge">
<title>node0x600001280780&#45;&#45;node0x600001280750</title>
<path fill="none" stroke="black" d="M825.58,-592.4C827.6,-581.55 830.18,-567.62 832.19,-556.8"/>
</g>
<!-- node0x600001280720 -->
<g id="node35" class="node">
<title>node0x600001280720</title>
<ellipse fill="none" stroke="black" cx="862.37" cy="-466.7" rx="62.29" ry="18"/>
<text text-anchor="middle" x="862.37" y="-463" font-family="Times,serif" font-size="14.00">PRINT_ITEM</text>
</g>
<!-- node0x600001280750&#45;&#45;node0x600001280720 -->
<g id="edge34" class="edge">
<title>node0x600001280750&#45;&#45;node0x600001280720</title>
<path fill="none" stroke="black" d="M842.04,-520.4C846.23,-509.55 851.6,-495.62 855.77,-484.8"/>
</g>
<!-- node0x6000012806f0 -->
<g id="node36" class="node">
<title>node0x6000012806f0</title>
<ellipse fill="none" stroke="black" cx="889.37" cy="-385.83" rx="76.24" ry="26.74"/>
<text text-anchor="middle" x="889.37" y="-389.63" font-family="Times,serif" font-size="14.00">STRING_DATA</text>
<text text-anchor="middle" x="889.37" y="-374.63" font-family="Times,serif" font-size="14.00">&quot;Goodbye\n&quot;</text>
</g>
<!-- node0x600001280720&#45;&#45;node0x6000012806f0 -->
<g id="edge35" class="edge">
<title>node0x600001280720&#45;&#45;node0x6000012806f0</title>
<path fill="none" stroke="black" d="M868.23,-448.59C871.82,-438.08 876.5,-424.41 880.54,-412.61"/>
</g>
</g>
</svg>
