<?xml version="1.0" encoding="UTF-8" standalone="no"?>
<!DOCTYPE svg PUBLIC "-//W3C//DTD SVG 1.1//EN"
 "http://www.w3.org/Graphics/SVG/1.1/DTD/svg11.dtd">
<!-- Generated by graphviz version 7.1.0 (20230121.1956)
 -->
<!-- Pages: 1 -->
<svg width="749pt" height="1014pt"
 viewBox="0.00 0.00 748.66 1014.44" xmlns="http://www.w3.org/2000/svg" xmlns:xlink="http://www.w3.org/1999/xlink">
<g id="graph0" class="graph" transform="scale(1 1) rotate(0) translate(4 1010.44)">
<polygon fill="white" stroke="none" points="-4,4 -4,-1010.44 744.66,-1010.44 744.66,4 -4,4"/>
<!-- node0x60000253c8d0 -->
<g id="node1" class="node">
<title>node0x60000253c8d0</title>
<ellipse fill="none" stroke="black" cx="391.37" cy="-988.44" rx="69.59" ry="18"/>
<text text-anchor="middle" x="391.37" y="-984.74" font-family="Times,serif" font-size="14.00">GLOBAL_LIST</text>
</g>
<!-- node0x60000253c870 -->
<g id="node2" class="node">
<title>node0x60000253c870</title>
<ellipse fill="none" stroke="black" cx="391.37" cy="-916.44" rx="55.49" ry="18"/>
<text text-anchor="middle" x="391.37" y="-912.74" font-family="Times,serif" font-size="14.00">FUNCTION</text>
</g>
<!-- node0x60000253c8d0&#45;&#45;node0x60000253c870 -->
<g id="edge1" class="edge">
<title>node0x60000253c8d0&#45;&#45;node0x60000253c870</title>
<path fill="none" stroke="black" d="M391.37,-970.14C391.37,-959.29 391.37,-945.36 391.37,-934.55"/>
</g>
<!-- node0x60000253c210 -->
<g id="node3" class="node">
<title>node0x60000253c210</title>
<ellipse fill="none" stroke="black" cx="191.37" cy="-835.57" rx="94.51" ry="26.74"/>
<text text-anchor="middle" x="191.37" y="-839.37" font-family="Times,serif" font-size="14.00">IDENTIFIER_DATA</text>
<text text-anchor="middle" x="191.37" y="-824.37" font-family="Times,serif" font-size="14.00">main</text>
</g>
<!-- node0x60000253c870&#45;&#45;node0x60000253c210 -->
<g id="edge2" class="edge">
<title>node0x60000253c870&#45;&#45;node0x60000253c210</title>
<path fill="none" stroke="black" d="M356.99,-901.88C326.27,-889.77 280.77,-871.83 245.23,-857.81"/>
</g>
<!-- node0x60000253c240 -->
<g id="node4" class="node">
<title>node0x60000253c240</title>
<ellipse fill="none" stroke="black" cx="391.37" cy="-835.57" rx="87.18" ry="18"/>
<text text-anchor="middle" x="391.37" y="-831.87" font-family="Times,serif" font-size="14.00">PARAMETER_LIST</text>
</g>
<!-- node0x60000253c870&#45;&#45;node0x60000253c240 -->
<g id="edge3" class="edge">
<title>node0x60000253c870&#45;&#45;node0x60000253c240</title>
<path fill="none" stroke="black" d="M391.37,-898.33C391.37,-885.19 391.37,-867.12 391.37,-853.92"/>
</g>
<!-- node0x60000253c840 -->
<g id="node5" class="node">
<title>node0x60000253c840</title>
<ellipse fill="none" stroke="black" cx="558.37" cy="-835.57" rx="62.29" ry="18"/>
<text text-anchor="middle" x="558.37" y="-831.87" font-family="Times,serif" font-size="14.00">STATEMENT</text>
</g>
<!-- node0x60000253c870&#45;&#45;node0x60000253c840 -->
<g id="edge4" class="edge">
<title>node0x60000253c870&#45;&#45;node0x60000253c840</title>
<path fill="none" stroke="black" d="M422,-900.97C451.75,-886.92 496.73,-865.68 526.8,-851.48"/>
</g>
<!-- node0x60000253c810 -->
<g id="node6" class="node">
<title>node0x60000253c810</title>
<ellipse fill="none" stroke="black" cx="558.37" cy="-754.7" rx="40.09" ry="18"/>
<text text-anchor="middle" x="558.37" y="-751" font-family="Times,serif" font-size="14.00">BLOCK</text>
</g>
<!-- node0x60000253c840&#45;&#45;node0x60000253c810 -->
<g id="edge5" class="edge">
<title>node0x60000253c840&#45;&#45;node0x60000253c810</title>
<path fill="none" stroke="black" d="M558.37,-817.46C558.37,-804.32 558.37,-786.25 558.37,-773.05"/>
</g>
<!-- node0x60000253c7e0 -->
<g id="node7" class="node">
<title>node0x60000253c7e0</title>
<ellipse fill="none" stroke="black" cx="558.37" cy="-682.7" rx="85.29" ry="18"/>
<text text-anchor="middle" x="558.37" y="-679" font-family="Times,serif" font-size="14.00">STATEMENT_LIST</text>
</g>
<!-- node0x60000253c810&#45;&#45;node0x60000253c7e0 -->
<g id="edge6" class="edge">
<title>node0x60000253c810&#45;&#45;node0x60000253c7e0</title>
<path fill="none" stroke="black" d="M558.37,-736.4C558.37,-725.55 558.37,-711.62 558.37,-700.8"/>
</g>
<!-- node0x60000253c6c0 -->
<g id="node8" class="node">
<title>node0x60000253c6c0</title>
<ellipse fill="none" stroke="black" cx="475.37" cy="-610.7" rx="85.29" ry="18"/>
<text text-anchor="middle" x="475.37" y="-607" font-family="Times,serif" font-size="14.00">STATEMENT_LIST</text>
</g>
<!-- node0x60000253c7e0&#45;&#45;node0x60000253c6c0 -->
<g id="edge7" class="edge">
<title>node0x60000253c7e0&#45;&#45;node0x60000253c6c0</title>
<path fill="none" stroke="black" d="M538.28,-664.76C525.23,-653.75 508.29,-639.46 495.27,-628.49"/>
</g>
<!-- node0x60000253c7b0 -->
<g id="node26" class="node">
<title>node0x60000253c7b0</title>
<ellipse fill="none" stroke="black" cx="644.37" cy="-610.7" rx="62.29" ry="18"/>
<text text-anchor="middle" x="644.37" y="-607" font-family="Times,serif" font-size="14.00">STATEMENT</text>
</g>
<!-- node0x60000253c7e0&#45;&#45;node0x60000253c7b0 -->
<g id="edge25" class="edge">
<title>node0x60000253c7e0&#45;&#45;node0x60000253c7b0</title>
<path fill="none" stroke="black" d="M579.19,-664.76C592.91,-653.59 610.78,-639.04 624.33,-628.01"/>
</g>
<!-- node0x60000253c480 -->
<g id="node9" class="node">
<title>node0x60000253c480</title>
<ellipse fill="none" stroke="black" cx="308.37" cy="-538.7" rx="85.29" ry="18"/>
<text text-anchor="middle" x="308.37" y="-535" font-family="Times,serif" font-size="14.00">STATEMENT_LIST</text>
</g>
<!-- node0x60000253c6c0&#45;&#45;node0x60000253c480 -->
<g id="edge8" class="edge">
<title>node0x60000253c6c0&#45;&#45;node0x60000253c480</title>
<path fill="none" stroke="black" d="M438.3,-594.17C410.73,-582.61 373.24,-566.89 345.62,-555.31"/>
</g>
<!-- node0x60000253c690 -->
<g id="node18" class="node">
<title>node0x60000253c690</title>
<ellipse fill="none" stroke="black" cx="475.37" cy="-538.7" rx="62.29" ry="18"/>
<text text-anchor="middle" x="475.37" y="-535" font-family="Times,serif" font-size="14.00">STATEMENT</text>
</g>
<!-- node0x60000253c6c0&#45;&#45;node0x60000253c690 -->
<g id="edge17" class="edge">
<title>node0x60000253c6c0&#45;&#45;node0x60000253c690</title>
<path fill="none" stroke="black" d="M475.37,-592.4C475.37,-581.55 475.37,-567.62 475.37,-556.8"/>
</g>
<!-- node0x60000253c450 -->
<g id="node10" class="node">
<title>node0x60000253c450</title>
<ellipse fill="none" stroke="black" cx="304.37" cy="-466.7" rx="62.29" ry="18"/>
<text text-anchor="middle" x="304.37" y="-463" font-family="Times,serif" font-size="14.00">STATEMENT</text>
</g>
<!-- node0x60000253c480&#45;&#45;node0x60000253c450 -->
<g id="edge9" class="edge">
<title>node0x60000253c480&#45;&#45;node0x60000253c450</title>
<path fill="none" stroke="black" d="M307.38,-520.4C306.76,-509.55 305.96,-495.62 305.34,-484.8"/>
</g>
<!-- node0x60000253c420 -->
<g id="node11" class="node">
<title>node0x60000253c420</title>
<ellipse fill="none" stroke="black" cx="304.37" cy="-385.83" rx="92.08" ry="18"/>
<text text-anchor="middle" x="304.37" y="-382.13" font-family="Times,serif" font-size="14.00">PRINT_STATEMENT</text>
</g>
<!-- node0x60000253c450&#45;&#45;node0x60000253c420 -->
<g id="edge10" class="edge">
<title>node0x60000253c450&#45;&#45;node0x60000253c420</title>
<path fill="none" stroke="black" d="M304.37,-448.59C304.37,-435.45 304.37,-417.38 304.37,-404.18"/>
</g>
<!-- node0x60000253c3f0 -->
<g id="node12" class="node">
<title>node0x60000253c3f0</title>
<ellipse fill="none" stroke="black" cx="304.37" cy="-296.09" rx="59.29" ry="18"/>
<text text-anchor="middle" x="304.37" y="-292.39" font-family="Times,serif" font-size="14.00">PRINT_LIST</text>
</g>
<!-- node0x60000253c420&#45;&#45;node0x60000253c3f0 -->
<g id="edge11" class="edge">
<title>node0x60000253c420&#45;&#45;node0x60000253c3f0</title>
<path fill="none" stroke="black" d="M304.37,-367.5C304.37,-352.11 304.37,-329.76 304.37,-314.39"/>
</g>
<!-- node0x60000253c360 -->
<g id="node13" class="node">
<title>node0x60000253c360</title>
<ellipse fill="none" stroke="black" cx="159.37" cy="-206.35" rx="59.29" ry="18"/>
<text text-anchor="middle" x="159.37" y="-202.65" font-family="Times,serif" font-size="14.00">PRINT_LIST</text>
</g>
<!-- node0x60000253c3f0&#45;&#45;node0x60000253c360 -->
<g id="edge12" class="edge">
<title>node0x60000253c3f0&#45;&#45;node0x60000253c360</title>
<path fill="none" stroke="black" d="M278.78,-279.61C252.44,-263.67 211.62,-238.97 185.19,-222.97"/>
</g>
<!-- node0x60000253c390 -->
<g id="node17" class="node">
<title>node0x60000253c390</title>
<ellipse fill="none" stroke="black" cx="313.37" cy="-206.35" rx="76.24" ry="26.74"/>
<text text-anchor="middle" x="313.37" y="-210.15" font-family="Times,serif" font-size="14.00">STRING_DATA</text>
<text text-anchor="middle" x="313.37" y="-195.15" font-family="Times,serif" font-size="14.00">&quot;World&quot;</text>
</g>
<!-- node0x60000253c3f0&#45;&#45;node0x60000253c390 -->
<g id="edge16" class="edge">
<title>node0x60000253c3f0&#45;&#45;node0x60000253c390</title>
<path fill="none" stroke="black" d="M306.15,-277.76C307.45,-265.07 309.23,-247.64 310.71,-233.3"/>
</g>
<!-- node0x60000253c2d0 -->
<g id="node14" class="node">
<title>node0x60000253c2d0</title>
<ellipse fill="none" stroke="black" cx="76.37" cy="-116.61" rx="59.29" ry="18"/>
<text text-anchor="middle" x="76.37" y="-112.91" font-family="Times,serif" font-size="14.00">PRINT_LIST</text>
</g>
<!-- node0x60000253c360&#45;&#45;node0x60000253c2d0 -->
<g id="edge13" class="edge">
<title>node0x60000253c360&#45;&#45;node0x60000253c2d0</title>
<path fill="none" stroke="black" d="M143.76,-188.85C129.01,-173.26 107.01,-150 92.19,-134.34"/>
</g>
<!-- node0x60000253c300 -->
<g id="node16" class="node">
<title>node0x60000253c300</title>
<ellipse fill="none" stroke="black" cx="230.37" cy="-116.61" rx="76.24" ry="26.74"/>
<text text-anchor="middle" x="230.37" y="-120.41" font-family="Times,serif" font-size="14.00">STRING_DATA</text>
<text text-anchor="middle" x="230.37" y="-105.41" font-family="Times,serif" font-size="14.00">&quot; &quot;</text>
</g>
<!-- node0x60000253c360&#45;&#45;node0x60000253c300 -->
<g id="edge15" class="edge">
<title>node0x60000253c360&#45;&#45;node0x60000253c300</title>
<path fill="none" stroke="black" d="M173.06,-188.43C183.53,-175.49 198.15,-157.42 210,-142.78"/>
</g>
<!-- node0x60000253c270 -->
<g id="node15" class="node">
<title>node0x60000253c270</title>
<ellipse fill="none" stroke="black" cx="76.37" cy="-26.87" rx="76.24" ry="26.74"/>
<text text-anchor="middle" x="76.37" y="-30.67" font-family="Times,serif" font-size="14.00">STRING_DATA</text>
<text text-anchor="middle" x="76.37" y="-15.67" font-family="Times,serif" font-size="14.00">&quot;Hello&quot;</text>
</g>
<!-- node0x60000253c2d0&#45;&#45;node0x60000253c270 -->
<g id="edge14" class="edge">
<title>node0x60000253c2d0&#45;&#45;node0x60000253c270</title>
<path fill="none" stroke="black" d="M76.37,-98.28C76.37,-85.59 76.37,-68.16 76.37,-53.82"/>
</g>
<!-- node0x60000253c660 -->
<g id="node19" class="node">
<title>node0x60000253c660</title>
<ellipse fill="none" stroke="black" cx="477.37" cy="-466.7" rx="92.08" ry="18"/>
<text text-anchor="middle" x="477.37" y="-463" font-family="Times,serif" font-size="14.00">PRINT_STATEMENT</text>
</g>
<!-- node0x60000253c690&#45;&#45;node0x60000253c660 -->
<g id="edge18" class="edge">
<title>node0x60000253c690&#45;&#45;node0x60000253c660</title>
<path fill="none" stroke="black" d="M475.86,-520.4C476.17,-509.55 476.57,-495.62 476.88,-484.8"/>
</g>
<!-- node0x60000253c630 -->
<g id="node20" class="node">
<title>node0x60000253c630</title>
<ellipse fill="none" stroke="black" cx="477.37" cy="-385.83" rx="59.29" ry="18"/>
<text text-anchor="middle" x="477.37" y="-382.13" font-family="Times,serif" font-size="14.00">PRINT_LIST</text>
</g>
<!-- node0x60000253c660&#45;&#45;node0x60000253c630 -->
<g id="edge19" class="edge">
<title>node0x60000253c660&#45;&#45;node0x60000253c630</title>
<path fill="none" stroke="black" d="M477.37,-448.59C477.37,-435.45 477.37,-417.38 477.37,-404.18"/>
</g>
<!-- node0x60000253c5a0 -->
<g id="node21" class="node">
<title>node0x60000253c5a0</title>
<ellipse fill="none" stroke="black" cx="474.37" cy="-296.09" rx="59.29" ry="18"/>
<text text-anchor="middle" x="474.37" y="-292.39" font-family="Times,serif" font-size="14.00">PRINT_LIST</text>
</g>
<!-- node0x60000253c630&#45;&#45;node0x60000253c5a0 -->
<g id="edge20" class="edge">
<title>node0x60000253c630&#45;&#45;node0x60000253c5a0</title>
<path fill="none" stroke="black" d="M476.77,-367.5C476.25,-352.11 475.48,-329.76 474.96,-314.39"/>
</g>
<!-- node0x60000253c5d0 -->
<g id="node25" class="node">
<title>node0x60000253c5d0</title>
<ellipse fill="none" stroke="black" cx="628.37" cy="-296.09" rx="76.24" ry="26.74"/>
<text text-anchor="middle" x="628.37" y="-299.89" font-family="Times,serif" font-size="14.00">STRING_DATA</text>
<text text-anchor="middle" x="628.37" y="-284.89" font-family="Times,serif" font-size="14.00">&quot;Verden&quot;</text>
</g>
<!-- node0x60000253c630&#45;&#45;node0x60000253c5d0 -->
<g id="edge24" class="edge">
<title>node0x60000253c630&#45;&#45;node0x60000253c5d0</title>
<path fill="none" stroke="black" d="M504.02,-369.35C527.81,-355.52 562.94,-335.11 589.8,-319.5"/>
</g>
<!-- node0x60000253c510 -->
<g id="node22" class="node">
<title>node0x60000253c510</title>
<ellipse fill="none" stroke="black" cx="472.37" cy="-206.35" rx="59.29" ry="18"/>
<text text-anchor="middle" x="472.37" y="-202.65" font-family="Times,serif" font-size="14.00">PRINT_LIST</text>
</g>
<!-- node0x60000253c5a0&#45;&#45;node0x60000253c510 -->
<g id="edge21" class="edge">
<title>node0x60000253c5a0&#45;&#45;node0x60000253c510</title>
<path fill="none" stroke="black" d="M473.97,-277.76C473.62,-262.37 473.11,-240.02 472.76,-224.65"/>
</g>
<!-- node0x60000253c540 -->
<g id="node24" class="node">
<title>node0x60000253c540</title>
<ellipse fill="none" stroke="black" cx="626.37" cy="-206.35" rx="76.24" ry="26.74"/>
<text text-anchor="middle" x="626.37" y="-210.15" font-family="Times,serif" font-size="14.00">STRING_DATA</text>
<text text-anchor="middle" x="626.37" y="-195.15" font-family="Times,serif" font-size="14.00">&quot; &quot;</text>
</g>
<!-- node0x60000253c5a0&#45;&#45;node0x60000253c540 -->
<g id="edge23" class="edge">
<title>node0x60000253c5a0&#45;&#45;node0x60000253c540</title>
<path fill="none" stroke="black" d="M501.19,-279.61C525.14,-265.78 560.51,-245.37 587.54,-229.76"/>
</g>
<!-- node0x60000253c4b0 -->
<g id="node23" class="node">
<title>node0x60000253c4b0</title>
<ellipse fill="none" stroke="black" cx="472.37" cy="-116.61" rx="76.24" ry="26.74"/>
<text text-anchor="middle" x="472.37" y="-120.41" font-family="Times,serif" font-size="14.00">STRING_DATA</text>
<text text-anchor="middle" x="472.37" y="-105.41" font-family="Times,serif" font-size="14.00">&quot;Hallo&quot;</text>
</g>
<!-- node0x60000253c510&#45;&#45;node0x60000253c4b0 -->
<g id="edge22" class="edge">
<title>node0x60000253c510&#45;&#45;node0x60000253c4b0</title>
<path fill="none" stroke="black" d="M472.37,-188.02C472.37,-175.33 472.37,-157.9 472.37,-143.56"/>
</g>
<!-- node0x60000253c780 -->
<g id="node27" class="node">
<title>node0x60000253c780</title>
<ellipse fill="none" stroke="black" cx="648.37" cy="-538.7" rx="92.08" ry="18"/>
<text text-anchor="middle" x="648.37" y="-535" font-family="Times,serif" font-size="14.00">PRINT_STATEMENT</text>
</g>
<!-- node0x60000253c7b0&#45;&#45;node0x60000253c780 -->
<g id="edge26" class="edge">
<title>node0x60000253c7b0&#45;&#45;node0x60000253c780</title>
<path fill="none" stroke="black" d="M645.36,-592.4C645.98,-581.55 646.77,-567.62 647.39,-556.8"/>
</g>
<!-- node0x60000253c750 -->
<g id="node28" class="node">
<title>node0x60000253c750</title>
<ellipse fill="none" stroke="black" cx="648.37" cy="-466.7" rx="59.29" ry="18"/>
<text text-anchor="middle" x="648.37" y="-463" font-family="Times,serif" font-size="14.00">PRINT_LIST</text>
</g>
<!-- node0x60000253c780&#45;&#45;node0x60000253c750 -->
<g id="edge27" class="edge">
<title>node0x60000253c780&#45;&#45;node0x60000253c750</title>
<path fill="none" stroke="black" d="M648.37,-520.4C648.37,-509.55 648.37,-495.62 648.37,-484.8"/>
</g>
<!-- node0x60000253c6f0 -->
<g id="node29" class="node">
<title>node0x60000253c6f0</title>
<ellipse fill="none" stroke="black" cx="648.37" cy="-385.83" rx="76.24" ry="26.74"/>
<text text-anchor="middle" x="648.37" y="-389.63" font-family="Times,serif" font-size="14.00">STRING_DATA</text>
<text text-anchor="middle" x="648.37" y="-374.63" font-family="Times,serif" font-size="14.00">&quot;Goodbye\n&quot;</text>
</g>
<!-- node0x60000253c750&#45;&#45;node0x60000253c6f0 -->
<g id="edge28" class="edge">
<title>node0x60000253c750&#45;&#45;node0x60000253c6f0</title>
<path fill="none" stroke="black" d="M648.37,-448.59C648.37,-438.17 648.37,-424.65 648.37,-412.91"/>
</g>
</g>
</svg>
