<?xml version="1.0" encoding="UTF-8" standalone="no"?>
<!DOCTYPE svg PUBLIC "-//W3C//DTD SVG 1.1//EN"
 "http://www.w3.org/Graphics/SVG/1.1/DTD/svg11.dtd">
<!-- Generated by graphviz version 7.1.0 (20230121.1956)
 -->
<!-- Pages: 1 -->
<svg width="629pt" height="763pt"
 viewBox="0.00 0.00 629.12 762.96" xmlns="http://www.w3.org/2000/svg" xmlns:xlink="http://www.w3.org/1999/xlink">
<g id="graph0" class="graph" transform="scale(1 1) rotate(0) translate(4 758.96)">
<polygon fill="white" stroke="none" points="-4,4 -4,-758.96 625.12,-758.96 625.12,4 -4,4"/>
<!-- node0x600003ba48d0 -->
<g id="node1" class="node">
<title>node0x600003ba48d0</title>
<ellipse fill="none" stroke="black" cx="294.75" cy="-736.96" rx="69.59" ry="18"/>
<text text-anchor="middle" x="294.75" y="-733.26" font-family="Times,serif" font-size="14.00">GLOBAL_LIST</text>
</g>
<!-- node0x600003ba4870 -->
<g id="node2" class="node">
<title>node0x600003ba4870</title>
<ellipse fill="none" stroke="black" cx="294.75" cy="-664.96" rx="55.49" ry="18"/>
<text text-anchor="middle" x="294.75" y="-661.26" font-family="Times,serif" font-size="14.00">FUNCTION</text>
</g>
<!-- node0x600003ba48d0&#45;&#45;node0x600003ba4870 -->
<g id="edge1" class="edge">
<title>node0x600003ba48d0&#45;&#45;node0x600003ba4870</title>
<path fill="none" stroke="black" d="M294.75,-718.66C294.75,-707.81 294.75,-693.88 294.75,-683.06"/>
</g>
<!-- node0x600003ba4210 -->
<g id="node3" class="node">
<title>node0x600003ba4210</title>
<ellipse fill="none" stroke="black" cx="94.75" cy="-584.09" rx="94.51" ry="26.74"/>
<text text-anchor="middle" x="94.75" y="-587.89" font-family="Times,serif" font-size="14.00">IDENTIFIER_DATA</text>
<text text-anchor="middle" x="94.75" y="-572.89" font-family="Times,serif" font-size="14.00">main</text>
</g>
<!-- node0x600003ba4870&#45;&#45;node0x600003ba4210 -->
<g id="edge2" class="edge">
<title>node0x600003ba4870&#45;&#45;node0x600003ba4210</title>
<path fill="none" stroke="black" d="M260.37,-650.4C229.66,-638.29 184.16,-620.35 148.62,-606.33"/>
</g>
<!-- node0x600003ba4240 -->
<g id="node4" class="node">
<title>node0x600003ba4240</title>
<ellipse fill="none" stroke="black" cx="294.75" cy="-584.09" rx="87.18" ry="18"/>
<text text-anchor="middle" x="294.75" y="-580.39" font-family="Times,serif" font-size="14.00">PARAMETER_LIST</text>
</g>
<!-- node0x600003ba4870&#45;&#45;node0x600003ba4240 -->
<g id="edge3" class="edge">
<title>node0x600003ba4870&#45;&#45;node0x600003ba4240</title>
<path fill="none" stroke="black" d="M294.75,-646.85C294.75,-633.71 294.75,-615.64 294.75,-602.44"/>
</g>
<!-- node0x600003ba4840 -->
<g id="node5" class="node">
<title>node0x600003ba4840</title>
<ellipse fill="none" stroke="black" cx="461.75" cy="-584.09" rx="62.29" ry="18"/>
<text text-anchor="middle" x="461.75" y="-580.39" font-family="Times,serif" font-size="14.00">STATEMENT</text>
</g>
<!-- node0x600003ba4870&#45;&#45;node0x600003ba4840 -->
<g id="edge4" class="edge">
<title>node0x600003ba4870&#45;&#45;node0x600003ba4840</title>
<path fill="none" stroke="black" d="M325.38,-649.49C355.14,-635.44 400.11,-614.2 430.18,-600"/>
</g>
<!-- node0x600003ba4810 -->
<g id="node6" class="node">
<title>node0x600003ba4810</title>
<ellipse fill="none" stroke="black" cx="461.75" cy="-503.22" rx="40.09" ry="18"/>
<text text-anchor="middle" x="461.75" y="-499.52" font-family="Times,serif" font-size="14.00">BLOCK</text>
</g>
<!-- node0x600003ba4840&#45;&#45;node0x600003ba4810 -->
<g id="edge5" class="edge">
<title>node0x600003ba4840&#45;&#45;node0x600003ba4810</title>
<path fill="none" stroke="black" d="M461.75,-565.98C461.75,-552.84 461.75,-534.77 461.75,-521.57"/>
</g>
<!-- node0x600003ba47e0 -->
<g id="node7" class="node">
<title>node0x600003ba47e0</title>
<ellipse fill="none" stroke="black" cx="461.75" cy="-431.22" rx="85.29" ry="18"/>
<text text-anchor="middle" x="461.75" y="-427.52" font-family="Times,serif" font-size="14.00">STATEMENT_LIST</text>
</g>
<!-- node0x600003ba4810&#45;&#45;node0x600003ba47e0 -->
<g id="edge6" class="edge">
<title>node0x600003ba4810&#45;&#45;node0x600003ba47e0</title>
<path fill="none" stroke="black" d="M461.75,-484.92C461.75,-474.07 461.75,-460.14 461.75,-449.32"/>
</g>
<!-- node0x600003ba46c0 -->
<g id="node8" class="node">
<title>node0x600003ba46c0</title>
<ellipse fill="none" stroke="black" cx="378.75" cy="-359.22" rx="85.29" ry="18"/>
<text text-anchor="middle" x="378.75" y="-355.52" font-family="Times,serif" font-size="14.00">STATEMENT_LIST</text>
</g>
<!-- node0x600003ba47e0&#45;&#45;node0x600003ba46c0 -->
<g id="edge7" class="edge">
<title>node0x600003ba47e0&#45;&#45;node0x600003ba46c0</title>
<path fill="none" stroke="black" d="M441.66,-413.28C428.61,-402.27 411.67,-387.98 398.66,-377.01"/>
</g>
<!-- node0x600003ba47b0 -->
<g id="node16" class="node">
<title>node0x600003ba47b0</title>
<ellipse fill="none" stroke="black" cx="544.75" cy="-359.22" rx="62.29" ry="18"/>
<text text-anchor="middle" x="544.75" y="-355.52" font-family="Times,serif" font-size="14.00">STATEMENT</text>
</g>
<!-- node0x600003ba47e0&#45;&#45;node0x600003ba47b0 -->
<g id="edge15" class="edge">
<title>node0x600003ba47e0&#45;&#45;node0x600003ba47b0</title>
<path fill="none" stroke="black" d="M481.84,-413.28C494.99,-402.19 512.08,-387.77 525.13,-376.77"/>
</g>
<!-- node0x600003ba4480 -->
<g id="node9" class="node">
<title>node0x600003ba4480</title>
<ellipse fill="none" stroke="black" cx="217.75" cy="-278.35" rx="85.29" ry="18"/>
<text text-anchor="middle" x="217.75" y="-274.65" font-family="Times,serif" font-size="14.00">STATEMENT_LIST</text>
</g>
<!-- node0x600003ba46c0&#45;&#45;node0x600003ba4480 -->
<g id="edge8" class="edge">
<title>node0x600003ba46c0&#45;&#45;node0x600003ba4480</title>
<path fill="none" stroke="black" d="M346.17,-342.26C318.33,-328.62 278.47,-309.09 250.56,-295.42"/>
</g>
<!-- node0x600003ba4690 -->
<g id="node13" class="node">
<title>node0x600003ba4690</title>
<ellipse fill="none" stroke="black" cx="383.75" cy="-278.35" rx="62.29" ry="18"/>
<text text-anchor="middle" x="383.75" y="-274.65" font-family="Times,serif" font-size="14.00">STATEMENT</text>
</g>
<!-- node0x600003ba46c0&#45;&#45;node0x600003ba4690 -->
<g id="edge12" class="edge">
<title>node0x600003ba46c0&#45;&#45;node0x600003ba4690</title>
<path fill="none" stroke="black" d="M379.84,-341.11C380.67,-327.97 381.82,-309.9 382.65,-296.7"/>
</g>
<!-- node0x600003ba4450 -->
<g id="node10" class="node">
<title>node0x600003ba4450</title>
<ellipse fill="none" stroke="black" cx="217.75" cy="-197.48" rx="62.29" ry="18"/>
<text text-anchor="middle" x="217.75" y="-193.78" font-family="Times,serif" font-size="14.00">STATEMENT</text>
</g>
<!-- node0x600003ba4480&#45;&#45;node0x600003ba4450 -->
<g id="edge9" class="edge">
<title>node0x600003ba4480&#45;&#45;node0x600003ba4450</title>
<path fill="none" stroke="black" d="M217.75,-260.24C217.75,-247.1 217.75,-229.03 217.75,-215.83"/>
</g>
<!-- node0x600003ba43f0 -->
<g id="node11" class="node">
<title>node0x600003ba43f0</title>
<ellipse fill="none" stroke="black" cx="217.75" cy="-116.61" rx="59.29" ry="18"/>
<text text-anchor="middle" x="217.75" y="-112.91" font-family="Times,serif" font-size="14.00">PRINT_LIST</text>
</g>
<!-- node0x600003ba4450&#45;&#45;node0x600003ba43f0 -->
<g id="edge10" class="edge">
<title>node0x600003ba4450&#45;&#45;node0x600003ba43f0</title>
<path fill="none" stroke="black" d="M217.75,-179.37C217.75,-166.23 217.75,-148.16 217.75,-134.96"/>
</g>
<!-- node0x600003ba4390 -->
<g id="node12" class="node">
<title>node0x600003ba4390</title>
<ellipse fill="none" stroke="black" cx="217.75" cy="-26.87" rx="76.24" ry="26.74"/>
<text text-anchor="middle" x="217.75" y="-30.67" font-family="Times,serif" font-size="14.00">STRING_DATA</text>
<text text-anchor="middle" x="217.75" y="-15.67" font-family="Times,serif" font-size="14.00">&quot;World&quot;</text>
</g>
<!-- node0x600003ba43f0&#45;&#45;node0x600003ba4390 -->
<g id="edge11" class="edge">
<title>node0x600003ba43f0&#45;&#45;node0x600003ba4390</title>
<path fill="none" stroke="black" d="M217.75,-98.28C217.75,-85.59 217.75,-68.16 217.75,-53.82"/>
</g>
<!-- node0x600003ba4630 -->
<g id="node14" class="node">
<title>node0x600003ba4630</title>
<ellipse fill="none" stroke="black" cx="383.75" cy="-197.48" rx="59.29" ry="18"/>
<text text-anchor="middle" x="383.75" y="-193.78" font-family="Times,serif" font-size="14.00">PRINT_LIST</text>
</g>
<!-- node0x600003ba4690&#45;&#45;node0x600003ba4630 -->
<g id="edge13" class="edge">
<title>node0x600003ba4690&#45;&#45;node0x600003ba4630</title>
<path fill="none" stroke="black" d="M383.75,-260.24C383.75,-247.1 383.75,-229.03 383.75,-215.83"/>
</g>
<!-- node0x600003ba45d0 -->
<g id="node15" class="node">
<title>node0x600003ba45d0</title>
<ellipse fill="none" stroke="black" cx="383.75" cy="-116.61" rx="76.24" ry="26.74"/>
<text text-anchor="middle" x="383.75" y="-120.41" font-family="Times,serif" font-size="14.00">STRING_DATA</text>
<text text-anchor="middle" x="383.75" y="-105.41" font-family="Times,serif" font-size="14.00">&quot;Verden&quot;</text>
</g>
<!-- node0x600003ba4630&#45;&#45;node0x600003ba45d0 -->
<g id="edge14" class="edge">
<title>node0x600003ba4630&#45;&#45;node0x600003ba45d0</title>
<path fill="none" stroke="black" d="M383.75,-179.37C383.75,-168.95 383.75,-155.43 383.75,-143.69"/>
</g>
<!-- node0x600003ba46f0 -->
<g id="node17" class="node">
<title>node0x600003ba46f0</title>
<ellipse fill="none" stroke="black" cx="544.75" cy="-278.35" rx="76.24" ry="26.74"/>
<text text-anchor="middle" x="544.75" y="-282.15" font-family="Times,serif" font-size="14.00">STRING_DATA</text>
<text text-anchor="middle" x="544.75" y="-267.15" font-family="Times,serif" font-size="14.00">&quot;Goodbye\n&quot;</text>
</g>
<!-- node0x600003ba47b0&#45;&#45;node0x600003ba46f0 -->
<g id="edge16" class="edge">
<title>node0x600003ba47b0&#45;&#45;node0x600003ba46f0</title>
<path fill="none" stroke="black" d="M544.75,-341.11C544.75,-330.69 544.75,-317.17 544.75,-305.43"/>
</g>
</g>
</svg>
