<?xml version="1.0" encoding="UTF-8" standalone="no"?>
<!DOCTYPE svg PUBLIC "-//W3C//DTD SVG 1.1//EN"
 "http://www.w3.org/Graphics/SVG/1.1/DTD/svg11.dtd">
<!-- Generated by graphviz version 7.1.0 (20230121.1956)
 -->
<!-- Pages: 1 -->
<svg width="2896pt" height="834pt"
 viewBox="0.00 0.00 2895.50 833.92" xmlns="http://www.w3.org/2000/svg" xmlns:xlink="http://www.w3.org/1999/xlink">
<g id="graph0" class="graph" transform="scale(1 1) rotate(0) translate(4 829.92)">
<polygon fill="white" stroke="none" points="-4,4 -4,-829.92 2891.5,-829.92 2891.5,4 -4,4"/>
<!-- node0x6000022095c0 -->
<g id="node1" class="node">
<title>node0x6000022095c0</title>
<ellipse fill="none" stroke="black" cx="1463.75" cy="-807.92" rx="69.59" ry="18"/>
<text text-anchor="middle" x="1463.75" y="-804.22" font-family="Times,serif" font-size="14.00">GLOBAL_LIST</text>
</g>
<!-- node0x600002209230 -->
<g id="node2" class="node">
<title>node0x600002209230</title>
<ellipse fill="none" stroke="black" cx="1037.75" cy="-735.92" rx="69.59" ry="18"/>
<text text-anchor="middle" x="1037.75" y="-732.22" font-family="Times,serif" font-size="14.00">GLOBAL_LIST</text>
</g>
<!-- node0x6000022095c0&#45;&#45;node0x600002209230 -->
<g id="edge1" class="edge">
<title>node0x6000022095c0&#45;&#45;node0x600002209230</title>
<path fill="none" stroke="black" d="M1406.3,-797.48C1324.88,-784.1 1176.79,-759.77 1095.31,-746.38"/>
</g>
<!-- node0x600002209560 -->
<g id="node53" class="node">
<title>node0x600002209560</title>
<ellipse fill="none" stroke="black" cx="1680.75" cy="-735.92" rx="55.49" ry="18"/>
<text text-anchor="middle" x="1680.75" y="-732.22" font-family="Times,serif" font-size="14.00">FUNCTION</text>
</g>
<!-- node0x6000022095c0&#45;&#45;node0x600002209560 -->
<g id="edge52" class="edge">
<title>node0x6000022095c0&#45;&#45;node0x600002209560</title>
<path fill="none" stroke="black" d="M1506.11,-793.26C1545.7,-780.49 1604.29,-761.58 1642.5,-749.26"/>
</g>
<!-- node0x600002208480 -->
<g id="node3" class="node">
<title>node0x600002208480</title>
<ellipse fill="none" stroke="black" cx="611.75" cy="-655.05" rx="69.59" ry="18"/>
<text text-anchor="middle" x="611.75" y="-651.35" font-family="Times,serif" font-size="14.00">GLOBAL_LIST</text>
</g>
<!-- node0x600002209230&#45;&#45;node0x600002208480 -->
<g id="edge2" class="edge">
<title>node0x600002209230&#45;&#45;node0x600002208480</title>
<path fill="none" stroke="black" d="M982.5,-724.69C900.89,-709.58 748.99,-681.46 667.25,-666.33"/>
</g>
<!-- node0x6000022091d0 -->
<g id="node12" class="node">
<title>node0x6000022091d0</title>
<ellipse fill="none" stroke="black" cx="1037.75" cy="-655.05" rx="55.49" ry="18"/>
<text text-anchor="middle" x="1037.75" y="-651.35" font-family="Times,serif" font-size="14.00">FUNCTION</text>
</g>
<!-- node0x600002209230&#45;&#45;node0x6000022091d0 -->
<g id="edge11" class="edge">
<title>node0x600002209230&#45;&#45;node0x6000022091d0</title>
<path fill="none" stroke="black" d="M1037.75,-717.81C1037.75,-704.67 1037.75,-686.6 1037.75,-673.4"/>
</g>
<!-- node0x600002208330 -->
<g id="node4" class="node">
<title>node0x600002208330</title>
<ellipse fill="none" stroke="black" cx="404.75" cy="-565.31" rx="69.59" ry="18"/>
<text text-anchor="middle" x="404.75" y="-561.61" font-family="Times,serif" font-size="14.00">GLOBAL_LIST</text>
</g>
<!-- node0x600002208480&#45;&#45;node0x600002208330 -->
<g id="edge3" class="edge">
<title>node0x600002208480&#45;&#45;node0x600002208330</title>
<path fill="none" stroke="black" d="M576.64,-639.17C538.57,-623.03 478.17,-597.43 440.04,-581.27"/>
</g>
<!-- node0x600002208420 -->
<g id="node8" class="node">
<title>node0x600002208420</title>
<ellipse fill="none" stroke="black" cx="611.75" cy="-565.31" rx="107.48" ry="18"/>
<text text-anchor="middle" x="611.75" y="-561.61" font-family="Times,serif" font-size="14.00">ARRAY_DECLARATION</text>
</g>
<!-- node0x600002208480&#45;&#45;node0x600002208420 -->
<g id="edge7" class="edge">
<title>node0x600002208480&#45;&#45;node0x600002208420</title>
<path fill="none" stroke="black" d="M611.75,-636.72C611.75,-621.33 611.75,-598.98 611.75,-583.61"/>
</g>
<!-- node0x6000022082d0 -->
<g id="node5" class="node">
<title>node0x6000022082d0</title>
<ellipse fill="none" stroke="black" cx="302.75" cy="-475.57" rx="72.29" ry="18"/>
<text text-anchor="middle" x="302.75" y="-471.87" font-family="Times,serif" font-size="14.00">DECLARATION</text>
</g>
<!-- node0x600002208330&#45;&#45;node0x6000022082d0 -->
<g id="edge4" class="edge">
<title>node0x600002208330&#45;&#45;node0x6000022082d0</title>
<path fill="none" stroke="black" d="M385.57,-547.81C367.45,-532.22 340.4,-508.96 322.2,-493.3"/>
</g>
<!-- node0x600002208210 -->
<g id="node6" class="node">
<title>node0x600002208210</title>
<ellipse fill="none" stroke="black" cx="94.75" cy="-385.83" rx="94.51" ry="26.74"/>
<text text-anchor="middle" x="94.75" y="-389.63" font-family="Times,serif" font-size="14.00">IDENTIFIER_DATA</text>
<text text-anchor="middle" x="94.75" y="-374.63" font-family="Times,serif" font-size="14.00">a</text>
</g>
<!-- node0x6000022082d0&#45;&#45;node0x600002208210 -->
<g id="edge5" class="edge">
<title>node0x6000022082d0&#45;&#45;node0x600002208210</title>
<path fill="none" stroke="black" d="M267,-459.49C233.78,-445.47 183.92,-424.45 146.39,-408.61"/>
</g>
<!-- node0x600002208270 -->
<g id="node7" class="node">
<title>node0x600002208270</title>
<ellipse fill="none" stroke="black" cx="302.75" cy="-385.83" rx="94.51" ry="26.74"/>
<text text-anchor="middle" x="302.75" y="-389.63" font-family="Times,serif" font-size="14.00">IDENTIFIER_DATA</text>
<text text-anchor="middle" x="302.75" y="-374.63" font-family="Times,serif" font-size="14.00">b</text>
</g>
<!-- node0x6000022082d0&#45;&#45;node0x600002208270 -->
<g id="edge6" class="edge">
<title>node0x6000022082d0&#45;&#45;node0x600002208270</title>
<path fill="none" stroke="black" d="M302.75,-457.24C302.75,-444.55 302.75,-427.12 302.75,-412.78"/>
</g>
<!-- node0x6000022083f0 -->
<g id="node9" class="node">
<title>node0x6000022083f0</title>
<ellipse fill="none" stroke="black" cx="611.75" cy="-475.57" rx="89.08" ry="18"/>
<text text-anchor="middle" x="611.75" y="-471.87" font-family="Times,serif" font-size="14.00">ARRAY_INDEXING</text>
</g>
<!-- node0x600002208420&#45;&#45;node0x6000022083f0 -->
<g id="edge8" class="edge">
<title>node0x600002208420&#45;&#45;node0x6000022083f0</title>
<path fill="none" stroke="black" d="M611.75,-546.98C611.75,-531.59 611.75,-509.24 611.75,-493.87"/>
</g>
<!-- node0x600002208360 -->
<g id="node10" class="node">
<title>node0x600002208360</title>
<ellipse fill="none" stroke="black" cx="510.75" cy="-385.83" rx="94.51" ry="26.74"/>
<text text-anchor="middle" x="510.75" y="-389.63" font-family="Times,serif" font-size="14.00">IDENTIFIER_DATA</text>
<text text-anchor="middle" x="510.75" y="-374.63" font-family="Times,serif" font-size="14.00">arr</text>
</g>
<!-- node0x6000022083f0&#45;&#45;node0x600002208360 -->
<g id="edge9" class="edge">
<title>node0x6000022083f0&#45;&#45;node0x600002208360</title>
<path fill="none" stroke="black" d="M592.28,-457.65C577.26,-444.61 556.26,-426.37 539.34,-411.67"/>
</g>
<!-- node0x600002208390 -->
<g id="node11" class="node">
<title>node0x600002208390</title>
<ellipse fill="none" stroke="black" cx="706.75" cy="-385.83" rx="83.38" ry="26.74"/>
<text text-anchor="middle" x="706.75" y="-389.63" font-family="Times,serif" font-size="14.00">NUMBER_DATA</text>
<text text-anchor="middle" x="706.75" y="-374.63" font-family="Times,serif" font-size="14.00">10</text>
</g>
<!-- node0x6000022083f0&#45;&#45;node0x600002208390 -->
<g id="edge10" class="edge">
<title>node0x6000022083f0&#45;&#45;node0x600002208390</title>
<path fill="none" stroke="black" d="M630.07,-457.65C644.3,-444.51 664.25,-426.09 680.23,-411.33"/>
</g>
<!-- node0x6000022084b0 -->
<g id="node13" class="node">
<title>node0x6000022084b0</title>
<ellipse fill="none" stroke="black" cx="837.75" cy="-565.31" rx="94.51" ry="26.74"/>
<text text-anchor="middle" x="837.75" y="-569.11" font-family="Times,serif" font-size="14.00">IDENTIFIER_DATA</text>
<text text-anchor="middle" x="837.75" y="-554.11" font-family="Times,serif" font-size="14.00">main</text>
</g>
<!-- node0x6000022091d0&#45;&#45;node0x6000022084b0 -->
<g id="edge12" class="edge">
<title>node0x6000022091d0&#45;&#45;node0x6000022084b0</title>
<path fill="none" stroke="black" d="M1005.62,-639.95C973.82,-626 924.68,-604.45 887.77,-588.25"/>
</g>
<!-- node0x6000022084e0 -->
<g id="node14" class="node">
<title>node0x6000022084e0</title>
<ellipse fill="none" stroke="black" cx="1037.75" cy="-565.31" rx="87.18" ry="18"/>
<text text-anchor="middle" x="1037.75" y="-561.61" font-family="Times,serif" font-size="14.00">PARAMETER_LIST</text>
</g>
<!-- node0x6000022091d0&#45;&#45;node0x6000022084e0 -->
<g id="edge13" class="edge">
<title>node0x6000022091d0&#45;&#45;node0x6000022084e0</title>
<path fill="none" stroke="black" d="M1037.75,-636.72C1037.75,-621.33 1037.75,-598.98 1037.75,-583.61"/>
</g>
<!-- node0x600002209170 -->
<g id="node15" class="node">
<title>node0x600002209170</title>
<ellipse fill="none" stroke="black" cx="1182.75" cy="-565.31" rx="40.09" ry="18"/>
<text text-anchor="middle" x="1182.75" y="-561.61" font-family="Times,serif" font-size="14.00">BLOCK</text>
</g>
<!-- node0x6000022091d0&#45;&#45;node0x600002209170 -->
<g id="edge14" class="edge">
<title>node0x6000022091d0&#45;&#45;node0x600002209170</title>
<path fill="none" stroke="black" d="M1063.01,-638.77C1090.27,-622.27 1133.32,-596.22 1159.7,-580.26"/>
</g>
<!-- node0x6000022087e0 -->
<g id="node16" class="node">
<title>node0x6000022087e0</title>
<ellipse fill="none" stroke="black" cx="1087.75" cy="-475.57" rx="94.78" ry="18"/>
<text text-anchor="middle" x="1087.75" y="-471.87" font-family="Times,serif" font-size="14.00">DECLARATION_LIST</text>
</g>
<!-- node0x600002209170&#45;&#45;node0x6000022087e0 -->
<g id="edge15" class="edge">
<title>node0x600002209170&#45;&#45;node0x6000022087e0</title>
<path fill="none" stroke="black" d="M1165.77,-548.62C1149.01,-533.15 1123.46,-509.55 1106.21,-493.62"/>
</g>
<!-- node0x600002209140 -->
<g id="node26" class="node">
<title>node0x600002209140</title>
<ellipse fill="none" stroke="black" cx="1714.75" cy="-475.57" rx="85.29" ry="18"/>
<text text-anchor="middle" x="1714.75" y="-471.87" font-family="Times,serif" font-size="14.00">STATEMENT_LIST</text>
</g>
<!-- node0x600002209170&#45;&#45;node0x600002209140 -->
<g id="edge25" class="edge">
<title>node0x600002209170&#45;&#45;node0x600002209140</title>
<path fill="none" stroke="black" d="M1220.16,-558.14C1309.56,-543.4 1536.54,-505.96 1649.22,-487.38"/>
</g>
<!-- node0x6000022086c0 -->
<g id="node17" class="node">
<title>node0x6000022086c0</title>
<ellipse fill="none" stroke="black" cx="902.75" cy="-385.83" rx="94.78" ry="18"/>
<text text-anchor="middle" x="902.75" y="-382.13" font-family="Times,serif" font-size="14.00">DECLARATION_LIST</text>
</g>
<!-- node0x6000022087e0&#45;&#45;node0x6000022086c0 -->
<g id="edge16" class="edge">
<title>node0x6000022087e0&#45;&#45;node0x6000022086c0</title>
<path fill="none" stroke="black" d="M1053.82,-458.48C1020.54,-442.7 970.09,-418.77 936.78,-402.97"/>
</g>
<!-- node0x6000022087b0 -->
<g id="node23" class="node">
<title>node0x6000022087b0</title>
<ellipse fill="none" stroke="black" cx="1087.75" cy="-385.83" rx="72.29" ry="18"/>
<text text-anchor="middle" x="1087.75" y="-382.13" font-family="Times,serif" font-size="14.00">DECLARATION</text>
</g>
<!-- node0x6000022087e0&#45;&#45;node0x6000022087b0 -->
<g id="edge22" class="edge">
<title>node0x6000022087e0&#45;&#45;node0x6000022087b0</title>
<path fill="none" stroke="black" d="M1087.75,-457.24C1087.75,-441.85 1087.75,-419.5 1087.75,-404.13"/>
</g>
<!-- node0x600002208690 -->
<g id="node18" class="node">
<title>node0x600002208690</title>
<ellipse fill="none" stroke="black" cx="694.75" cy="-296.09" rx="72.29" ry="18"/>
<text text-anchor="middle" x="694.75" y="-292.39" font-family="Times,serif" font-size="14.00">DECLARATION</text>
</g>
<!-- node0x6000022086c0&#45;&#45;node0x600002208690 -->
<g id="edge17" class="edge">
<title>node0x6000022086c0&#45;&#45;node0x600002208690</title>
<path fill="none" stroke="black" d="M865.09,-368.94C826.8,-352.79 767.94,-327.96 730.4,-312.13"/>
</g>
<!-- node0x600002208510 -->
<g id="node19" class="node">
<title>node0x600002208510</title>
<ellipse fill="none" stroke="black" cx="382.75" cy="-206.35" rx="94.51" ry="26.74"/>
<text text-anchor="middle" x="382.75" y="-210.15" font-family="Times,serif" font-size="14.00">IDENTIFIER_DATA</text>
<text text-anchor="middle" x="382.75" y="-195.15" font-family="Times,serif" font-size="14.00">A</text>
</g>
<!-- node0x600002208690&#45;&#45;node0x600002208510 -->
<g id="edge18" class="edge">
<title>node0x600002208690&#45;&#45;node0x600002208510</title>
<path fill="none" stroke="black" d="M648.04,-281.95C595.09,-267.06 508.37,-242.68 448.58,-225.86"/>
</g>
<!-- node0x600002208570 -->
<g id="node20" class="node">
<title>node0x600002208570</title>
<ellipse fill="none" stroke="black" cx="590.75" cy="-206.35" rx="94.51" ry="26.74"/>
<text text-anchor="middle" x="590.75" y="-210.15" font-family="Times,serif" font-size="14.00">IDENTIFIER_DATA</text>
<text text-anchor="middle" x="590.75" y="-195.15" font-family="Times,serif" font-size="14.00">B</text>
</g>
<!-- node0x600002208690&#45;&#45;node0x600002208570 -->
<g id="edge19" class="edge">
<title>node0x600002208690&#45;&#45;node0x600002208570</title>
<path fill="none" stroke="black" d="M675.19,-278.59C659.66,-265.48 637.69,-246.95 620.06,-232.08"/>
</g>
<!-- node0x6000022085d0 -->
<g id="node21" class="node">
<title>node0x6000022085d0</title>
<ellipse fill="none" stroke="black" cx="798.75" cy="-206.35" rx="94.51" ry="26.74"/>
<text text-anchor="middle" x="798.75" y="-210.15" font-family="Times,serif" font-size="14.00">IDENTIFIER_DATA</text>
<text text-anchor="middle" x="798.75" y="-195.15" font-family="Times,serif" font-size="14.00">C</text>
</g>
<!-- node0x600002208690&#45;&#45;node0x6000022085d0 -->
<g id="edge20" class="edge">
<title>node0x600002208690&#45;&#45;node0x6000022085d0</title>
<path fill="none" stroke="black" d="M714.31,-278.59C729.85,-265.48 751.81,-246.95 769.45,-232.08"/>
</g>
<!-- node0x600002208630 -->
<g id="node22" class="node">
<title>node0x600002208630</title>
<ellipse fill="none" stroke="black" cx="1006.75" cy="-206.35" rx="94.51" ry="26.74"/>
<text text-anchor="middle" x="1006.75" y="-210.15" font-family="Times,serif" font-size="14.00">IDENTIFIER_DATA</text>
<text text-anchor="middle" x="1006.75" y="-195.15" font-family="Times,serif" font-size="14.00">D</text>
</g>
<!-- node0x600002208690&#45;&#45;node0x600002208630 -->
<g id="edge21" class="edge">
<title>node0x600002208690&#45;&#45;node0x600002208630</title>
<path fill="none" stroke="black" d="M737.09,-281.15C749.51,-277.17 763.15,-272.92 775.75,-269.22 829.83,-253.35 891.51,-236.92 937.53,-224.98"/>
</g>
<!-- node0x6000022086f0 -->
<g id="node24" class="node">
<title>node0x6000022086f0</title>
<ellipse fill="none" stroke="black" cx="879.75" cy="-296.09" rx="94.51" ry="26.74"/>
<text text-anchor="middle" x="879.75" y="-299.89" font-family="Times,serif" font-size="14.00">IDENTIFIER_DATA</text>
<text text-anchor="middle" x="879.75" y="-284.89" font-family="Times,serif" font-size="14.00">X</text>
</g>
<!-- node0x6000022087b0&#45;&#45;node0x6000022086f0 -->
<g id="edge23" class="edge">
<title>node0x6000022087b0&#45;&#45;node0x6000022086f0</title>
<path fill="none" stroke="black" d="M1052,-369.75C1018.78,-355.73 968.92,-334.71 931.39,-318.87"/>
</g>
<!-- node0x600002208750 -->
<g id="node25" class="node">
<title>node0x600002208750</title>
<ellipse fill="none" stroke="black" cx="1087.75" cy="-296.09" rx="94.51" ry="26.74"/>
<text text-anchor="middle" x="1087.75" y="-299.89" font-family="Times,serif" font-size="14.00">IDENTIFIER_DATA</text>
<text text-anchor="middle" x="1087.75" y="-284.89" font-family="Times,serif" font-size="14.00">Y</text>
</g>
<!-- node0x6000022087b0&#45;&#45;node0x600002208750 -->
<g id="edge24" class="edge">
<title>node0x6000022087b0&#45;&#45;node0x600002208750</title>
<path fill="none" stroke="black" d="M1087.75,-367.5C1087.75,-354.81 1087.75,-337.38 1087.75,-323.04"/>
</g>
<!-- node0x600002208930 -->
<g id="node27" class="node">
<title>node0x600002208930</title>
<ellipse fill="none" stroke="black" cx="1447.75" cy="-385.83" rx="92.08" ry="18"/>
<text text-anchor="middle" x="1447.75" y="-382.13" font-family="Times,serif" font-size="14.00">PRINT_STATEMENT</text>
</g>
<!-- node0x600002209140&#45;&#45;node0x600002208930 -->
<g id="edge26" class="edge">
<title>node0x600002209140&#45;&#45;node0x600002208930</title>
<path fill="none" stroke="black" d="M1670.06,-459.88C1621.07,-443.79 1542.88,-418.09 1493.48,-401.86"/>
</g>
<!-- node0x600002208b70 -->
<g id="node30" class="node">
<title>node0x600002208b70</title>
<ellipse fill="none" stroke="black" cx="1714.75" cy="-385.83" rx="124.28" ry="18"/>
<text text-anchor="middle" x="1714.75" y="-382.13" font-family="Times,serif" font-size="14.00">ASSIGNMENT_STATEMENT</text>
</g>
<!-- node0x600002209140&#45;&#45;node0x600002208b70 -->
<g id="edge29" class="edge">
<title>node0x600002209140&#45;&#45;node0x600002208b70</title>
<path fill="none" stroke="black" d="M1714.75,-457.24C1714.75,-441.85 1714.75,-419.5 1714.75,-404.13"/>
</g>
<!-- node0x600002208e70 -->
<g id="node37" class="node">
<title>node0x600002208e70</title>
<ellipse fill="none" stroke="black" cx="1964.75" cy="-385.83" rx="74.99" ry="18"/>
<text text-anchor="middle" x="1964.75" y="-382.13" font-family="Times,serif" font-size="14.00">IF_STATEMENT</text>
</g>
<!-- node0x600002209140&#45;&#45;node0x600002208e70 -->
<g id="edge36" class="edge">
<title>node0x600002209140&#45;&#45;node0x600002208e70</title>
<path fill="none" stroke="black" d="M1757.44,-459.59C1803.88,-443.29 1877.61,-417.41 1923.48,-401.31"/>
</g>
<!-- node0x6000022090e0 -->
<g id="node46" class="node">
<title>node0x6000022090e0</title>
<ellipse fill="none" stroke="black" cx="2291.75" cy="-385.83" rx="124.28" ry="18"/>
<text text-anchor="middle" x="2291.75" y="-382.13" font-family="Times,serif" font-size="14.00">ASSIGNMENT_STATEMENT</text>
</g>
<!-- node0x600002209140&#45;&#45;node0x6000022090e0 -->
<g id="edge45" class="edge">
<title>node0x600002209140&#45;&#45;node0x6000022090e0</title>
<path fill="none" stroke="black" d="M1782.35,-464.29C1888.3,-448.18 2093.19,-417.03 2208.21,-399.53"/>
</g>
<!-- node0x600002208810 -->
<g id="node28" class="node">
<title>node0x600002208810</title>
<ellipse fill="none" stroke="black" cx="1276.75" cy="-296.09" rx="76.24" ry="26.74"/>
<text text-anchor="middle" x="1276.75" y="-299.89" font-family="Times,serif" font-size="14.00">STRING_DATA</text>
<text text-anchor="middle" x="1276.75" y="-284.89" font-family="Times,serif" font-size="14.00">&quot;Hello&quot;</text>
</g>
<!-- node0x600002208930&#45;&#45;node0x600002208810 -->
<g id="edge27" class="edge">
<title>node0x600002208930&#45;&#45;node0x600002208810</title>
<path fill="none" stroke="black" d="M1415.99,-368.53C1388.66,-354.51 1349,-334.16 1318.99,-318.76"/>
</g>
<!-- node0x6000022088a0 -->
<g id="node29" class="node">
<title>node0x6000022088a0</title>
<ellipse fill="none" stroke="black" cx="1447.75" cy="-296.09" rx="76.24" ry="26.74"/>
<text text-anchor="middle" x="1447.75" y="-299.89" font-family="Times,serif" font-size="14.00">STRING_DATA</text>
<text text-anchor="middle" x="1447.75" y="-284.89" font-family="Times,serif" font-size="14.00">&quot;World&quot;</text>
</g>
<!-- node0x600002208930&#45;&#45;node0x6000022088a0 -->
<g id="edge28" class="edge">
<title>node0x600002208930&#45;&#45;node0x6000022088a0</title>
<path fill="none" stroke="black" d="M1447.75,-367.5C1447.75,-354.81 1447.75,-337.38 1447.75,-323.04"/>
</g>
<!-- node0x6000022089c0 -->
<g id="node31" class="node">
<title>node0x6000022089c0</title>
<ellipse fill="none" stroke="black" cx="1636.75" cy="-296.09" rx="94.51" ry="26.74"/>
<text text-anchor="middle" x="1636.75" y="-299.89" font-family="Times,serif" font-size="14.00">IDENTIFIER_DATA</text>
<text text-anchor="middle" x="1636.75" y="-284.89" font-family="Times,serif" font-size="14.00">A</text>
</g>
<!-- node0x600002208b70&#45;&#45;node0x6000022089c0 -->
<g id="edge30" class="edge">
<title>node0x600002208b70&#45;&#45;node0x6000022089c0</title>
<path fill="none" stroke="black" d="M1699.34,-367.5C1687.89,-354.61 1672.08,-336.83 1659.22,-322.37"/>
</g>
<!-- node0x600002208b40 -->
<g id="node32" class="node">
<title>node0x600002208b40</title>
<ellipse fill="none" stroke="black" cx="1818.75" cy="-296.09" rx="69.09" ry="26.74"/>
<text text-anchor="middle" x="1818.75" y="-299.89" font-family="Times,serif" font-size="14.00">EXPRESSION</text>
<text text-anchor="middle" x="1818.75" y="-284.89" font-family="Times,serif" font-size="14.00">+</text>
</g>
<!-- node0x600002208b70&#45;&#45;node0x600002208b40 -->
<g id="edge31" class="edge">
<title>node0x600002208b70&#45;&#45;node0x600002208b40</title>
<path fill="none" stroke="black" d="M1734.8,-367.91C1750.62,-354.57 1772.88,-335.79 1790.51,-320.92"/>
</g>
<!-- node0x600002208ab0 -->
<g id="node33" class="node">
<title>node0x600002208ab0</title>
<ellipse fill="none" stroke="black" cx="1380.75" cy="-206.35" rx="69.09" ry="26.74"/>
<text text-anchor="middle" x="1380.75" y="-210.15" font-family="Times,serif" font-size="14.00">EXPRESSION</text>
<text text-anchor="middle" x="1380.75" y="-195.15" font-family="Times,serif" font-size="14.00">+</text>
</g>
<!-- node0x600002208b40&#45;&#45;node0x600002208ab0 -->
<g id="edge32" class="edge">
<title>node0x600002208b40&#45;&#45;node0x600002208ab0</title>
<path fill="none" stroke="black" d="M1769.23,-277.07C1759.86,-274.12 1750.07,-271.34 1740.75,-269.22 1617.55,-241.2 1581.96,-261.24 1458.75,-233.22 1449.43,-231.1 1439.65,-228.32 1430.28,-225.37"/>
</g>
<!-- node0x600002208ae0 -->
<g id="node36" class="node">
<title>node0x600002208ae0</title>
<ellipse fill="none" stroke="black" cx="1562.75" cy="-206.35" rx="94.51" ry="26.74"/>
<text text-anchor="middle" x="1562.75" y="-210.15" font-family="Times,serif" font-size="14.00">IDENTIFIER_DATA</text>
<text text-anchor="middle" x="1562.75" y="-195.15" font-family="Times,serif" font-size="14.00">D</text>
</g>
<!-- node0x600002208b40&#45;&#45;node0x600002208ae0 -->
<g id="edge35" class="edge">
<title>node0x600002208b40&#45;&#45;node0x600002208ae0</title>
<path fill="none" stroke="black" d="M1767.87,-277.65C1725.73,-263.21 1665.81,-242.67 1621.61,-227.52"/>
</g>
<!-- node0x6000022089f0 -->
<g id="node34" class="node">
<title>node0x6000022089f0</title>
<ellipse fill="none" stroke="black" cx="1276.75" cy="-116.61" rx="94.51" ry="26.74"/>
<text text-anchor="middle" x="1276.75" y="-120.41" font-family="Times,serif" font-size="14.00">IDENTIFIER_DATA</text>
<text text-anchor="middle" x="1276.75" y="-105.41" font-family="Times,serif" font-size="14.00">B</text>
</g>
<!-- node0x600002208ab0&#45;&#45;node0x6000022089f0 -->
<g id="edge33" class="edge">
<title>node0x600002208ab0&#45;&#45;node0x6000022089f0</title>
<path fill="none" stroke="black" d="M1352.61,-181.61C1338.17,-169.43 1320.6,-154.6 1306.01,-142.29"/>
</g>
<!-- node0x600002208a50 -->
<g id="node35" class="node">
<title>node0x600002208a50</title>
<ellipse fill="none" stroke="black" cx="1484.75" cy="-116.61" rx="94.51" ry="26.74"/>
<text text-anchor="middle" x="1484.75" y="-120.41" font-family="Times,serif" font-size="14.00">IDENTIFIER_DATA</text>
<text text-anchor="middle" x="1484.75" y="-105.41" font-family="Times,serif" font-size="14.00">C</text>
</g>
<!-- node0x600002208ab0&#45;&#45;node0x600002208a50 -->
<g id="edge34" class="edge">
<title>node0x600002208ab0&#45;&#45;node0x600002208a50</title>
<path fill="none" stroke="black" d="M1408.9,-181.61C1423.33,-169.43 1440.9,-154.6 1455.5,-142.29"/>
</g>
<!-- node0x600002208cc0 -->
<g id="node38" class="node">
<title>node0x600002208cc0</title>
<ellipse fill="none" stroke="black" cx="1964.75" cy="-296.09" rx="58.88" ry="26.74"/>
<text text-anchor="middle" x="1964.75" y="-299.89" font-family="Times,serif" font-size="14.00">RELATION</text>
<text text-anchor="middle" x="1964.75" y="-284.89" font-family="Times,serif" font-size="14.00">NULL</text>
</g>
<!-- node0x600002208e70&#45;&#45;node0x600002208cc0 -->
<g id="edge37" class="edge">
<title>node0x600002208e70&#45;&#45;node0x600002208cc0</title>
<path fill="none" stroke="black" d="M1964.75,-367.5C1964.75,-354.81 1964.75,-337.38 1964.75,-323.04"/>
</g>
<!-- node0x600002208e10 -->
<g id="node41" class="node">
<title>node0x600002208e10</title>
<ellipse fill="none" stroke="black" cx="2165.75" cy="-296.09" rx="124.28" ry="18"/>
<text text-anchor="middle" x="2165.75" y="-292.39" font-family="Times,serif" font-size="14.00">ASSIGNMENT_STATEMENT</text>
</g>
<!-- node0x600002208e70&#45;&#45;node0x600002208e10 -->
<g id="edge40" class="edge">
<title>node0x600002208e70&#45;&#45;node0x600002208e10</title>
<path fill="none" stroke="black" d="M1999.76,-369.55C2035.53,-353.93 2090.9,-329.76 2127.72,-313.69"/>
</g>
<!-- node0x600002208c00 -->
<g id="node39" class="node">
<title>node0x600002208c00</title>
<ellipse fill="none" stroke="black" cx="1770.75" cy="-206.35" rx="94.51" ry="26.74"/>
<text text-anchor="middle" x="1770.75" y="-210.15" font-family="Times,serif" font-size="14.00">IDENTIFIER_DATA</text>
<text text-anchor="middle" x="1770.75" y="-195.15" font-family="Times,serif" font-size="14.00">A</text>
</g>
<!-- node0x600002208cc0&#45;&#45;node0x600002208c00 -->
<g id="edge38" class="edge">
<title>node0x600002208cc0&#45;&#45;node0x600002208c00</title>
<path fill="none" stroke="black" d="M1923.61,-276.48C1893.25,-262.75 1851.8,-244.01 1819.73,-229.5"/>
</g>
<!-- node0x600002208c60 -->
<g id="node40" class="node">
<title>node0x600002208c60</title>
<ellipse fill="none" stroke="black" cx="1978.75" cy="-206.35" rx="94.51" ry="26.74"/>
<text text-anchor="middle" x="1978.75" y="-210.15" font-family="Times,serif" font-size="14.00">IDENTIFIER_DATA</text>
<text text-anchor="middle" x="1978.75" y="-195.15" font-family="Times,serif" font-size="14.00">B</text>
</g>
<!-- node0x600002208cc0&#45;&#45;node0x600002208c60 -->
<g id="edge39" class="edge">
<title>node0x600002208cc0&#45;&#45;node0x600002208c60</title>
<path fill="none" stroke="black" d="M1968.88,-269.24C1970.68,-257.92 1972.8,-244.66 1974.61,-233.32"/>
</g>
<!-- node0x600002208cf0 -->
<g id="node42" class="node">
<title>node0x600002208cf0</title>
<ellipse fill="none" stroke="black" cx="2186.75" cy="-206.35" rx="94.51" ry="26.74"/>
<text text-anchor="middle" x="2186.75" y="-210.15" font-family="Times,serif" font-size="14.00">IDENTIFIER_DATA</text>
<text text-anchor="middle" x="2186.75" y="-195.15" font-family="Times,serif" font-size="14.00">A</text>
</g>
<!-- node0x600002208e10&#45;&#45;node0x600002208cf0 -->
<g id="edge41" class="edge">
<title>node0x600002208e10&#45;&#45;node0x600002208cf0</title>
<path fill="none" stroke="black" d="M2169.9,-277.76C2172.94,-265.07 2177.11,-247.64 2180.54,-233.3"/>
</g>
<!-- node0x600002208de0 -->
<g id="node43" class="node">
<title>node0x600002208de0</title>
<ellipse fill="none" stroke="black" cx="2368.75" cy="-206.35" rx="69.09" ry="26.74"/>
<text text-anchor="middle" x="2368.75" y="-210.15" font-family="Times,serif" font-size="14.00">EXPRESSION</text>
<text text-anchor="middle" x="2368.75" y="-195.15" font-family="Times,serif" font-size="14.00">+</text>
</g>
<!-- node0x600002208e10&#45;&#45;node0x600002208de0 -->
<g id="edge42" class="edge">
<title>node0x600002208e10&#45;&#45;node0x600002208de0</title>
<path fill="none" stroke="black" d="M2203.94,-278.59C2237.93,-263.89 2287.71,-242.38 2323.65,-226.84"/>
</g>
<!-- node0x600002208d20 -->
<g id="node44" class="node">
<title>node0x600002208d20</title>
<ellipse fill="none" stroke="black" cx="2179.75" cy="-116.61" rx="94.51" ry="26.74"/>
<text text-anchor="middle" x="2179.75" y="-120.41" font-family="Times,serif" font-size="14.00">IDENTIFIER_DATA</text>
<text text-anchor="middle" x="2179.75" y="-105.41" font-family="Times,serif" font-size="14.00">A</text>
</g>
<!-- node0x600002208de0&#45;&#45;node0x600002208d20 -->
<g id="edge43" class="edge">
<title>node0x600002208de0&#45;&#45;node0x600002208d20</title>
<path fill="none" stroke="black" d="M2325.39,-185.22C2296.29,-171.71 2257.94,-153.91 2227.89,-139.96"/>
</g>
<!-- node0x600002208d80 -->
<g id="node45" class="node">
<title>node0x600002208d80</title>
<ellipse fill="none" stroke="black" cx="2375.75" cy="-116.61" rx="83.38" ry="26.74"/>
<text text-anchor="middle" x="2375.75" y="-120.41" font-family="Times,serif" font-size="14.00">NUMBER_DATA</text>
<text text-anchor="middle" x="2375.75" y="-105.41" font-family="Times,serif" font-size="14.00">1</text>
</g>
<!-- node0x600002208de0&#45;&#45;node0x600002208d80 -->
<g id="edge44" class="edge">
<title>node0x600002208de0&#45;&#45;node0x600002208d80</title>
<path fill="none" stroke="black" d="M2370.81,-179.5C2371.72,-168.18 2372.78,-154.92 2373.68,-143.58"/>
</g>
<!-- node0x600002208f00 -->
<g id="node47" class="node">
<title>node0x600002208f00</title>
<ellipse fill="none" stroke="black" cx="2402.75" cy="-296.09" rx="94.51" ry="26.74"/>
<text text-anchor="middle" x="2402.75" y="-299.89" font-family="Times,serif" font-size="14.00">IDENTIFIER_DATA</text>
<text text-anchor="middle" x="2402.75" y="-284.89" font-family="Times,serif" font-size="14.00">A</text>
</g>
<!-- node0x6000022090e0&#45;&#45;node0x600002208f00 -->
<g id="edge46" class="edge">
<title>node0x6000022090e0&#45;&#45;node0x600002208f00</title>
<path fill="none" stroke="black" d="M2313.42,-367.71C2330.07,-354.54 2353.3,-336.18 2371.9,-321.48"/>
</g>
<!-- node0x600002209080 -->
<g id="node48" class="node">
<title>node0x600002209080</title>
<ellipse fill="none" stroke="black" cx="2599.75" cy="-296.09" rx="83.69" ry="18"/>
<text text-anchor="middle" x="2599.75" y="-292.39" font-family="Times,serif" font-size="14.00">ARGUMENT_LIST</text>
</g>
<!-- node0x6000022090e0&#45;&#45;node0x600002209080 -->
<g id="edge47" class="edge">
<title>node0x6000022090e0&#45;&#45;node0x600002209080</title>
<path fill="none" stroke="black" d="M2346.46,-369.25C2404.37,-352.75 2494.94,-326.95 2550.63,-311.08"/>
</g>
<!-- node0x600002209050 -->
<g id="node49" class="node">
<title>node0x600002209050</title>
<ellipse fill="none" stroke="black" cx="2599.75" cy="-206.35" rx="87.18" ry="18"/>
<text text-anchor="middle" x="2599.75" y="-202.65" font-family="Times,serif" font-size="14.00">EXPRESSION_LIST</text>
</g>
<!-- node0x600002209080&#45;&#45;node0x600002209050 -->
<g id="edge48" class="edge">
<title>node0x600002209080&#45;&#45;node0x600002209050</title>
<path fill="none" stroke="black" d="M2599.75,-277.76C2599.75,-262.37 2599.75,-240.02 2599.75,-224.65"/>
</g>
<!-- node0x600002208fc0 -->
<g id="node50" class="node">
<title>node0x600002208fc0</title>
<ellipse fill="none" stroke="black" cx="2592.75" cy="-116.61" rx="87.18" ry="18"/>
<text text-anchor="middle" x="2592.75" y="-112.91" font-family="Times,serif" font-size="14.00">EXPRESSION_LIST</text>
</g>
<!-- node0x600002209050&#45;&#45;node0x600002208fc0 -->
<g id="edge49" class="edge">
<title>node0x600002209050&#45;&#45;node0x600002208fc0</title>
<path fill="none" stroke="black" d="M2598.37,-188.02C2597.14,-172.63 2595.36,-150.28 2594.13,-134.91"/>
</g>
<!-- node0x600002208ff0 -->
<g id="node52" class="node">
<title>node0x600002208ff0</title>
<ellipse fill="none" stroke="black" cx="2792.75" cy="-116.61" rx="94.51" ry="26.74"/>
<text text-anchor="middle" x="2792.75" y="-120.41" font-family="Times,serif" font-size="14.00">IDENTIFIER_DATA</text>
<text text-anchor="middle" x="2792.75" y="-105.41" font-family="Times,serif" font-size="14.00">B</text>
</g>
<!-- node0x600002209050&#45;&#45;node0x600002208ff0 -->
<g id="edge51" class="edge">
<title>node0x600002209050&#45;&#45;node0x600002208ff0</title>
<path fill="none" stroke="black" d="M2634.7,-189.46C2665.23,-175.58 2709.85,-155.3 2743.91,-139.82"/>
</g>
<!-- node0x600002208f60 -->
<g id="node51" class="node">
<title>node0x600002208f60</title>
<ellipse fill="none" stroke="black" cx="2592.75" cy="-26.87" rx="94.51" ry="26.74"/>
<text text-anchor="middle" x="2592.75" y="-30.67" font-family="Times,serif" font-size="14.00">IDENTIFIER_DATA</text>
<text text-anchor="middle" x="2592.75" y="-15.67" font-family="Times,serif" font-size="14.00">A</text>
</g>
<!-- node0x600002208fc0&#45;&#45;node0x600002208f60 -->
<g id="edge50" class="edge">
<title>node0x600002208fc0&#45;&#45;node0x600002208f60</title>
<path fill="none" stroke="black" d="M2592.75,-98.28C2592.75,-85.59 2592.75,-68.16 2592.75,-53.82"/>
</g>
<!-- node0x600002209260 -->
<g id="node54" class="node">
<title>node0x600002209260</title>
<ellipse fill="none" stroke="black" cx="1580.75" cy="-655.05" rx="94.51" ry="26.74"/>
<text text-anchor="middle" x="1580.75" y="-658.85" font-family="Times,serif" font-size="14.00">IDENTIFIER_DATA</text>
<text text-anchor="middle" x="1580.75" y="-643.85" font-family="Times,serif" font-size="14.00">another</text>
</g>
<!-- node0x600002209560&#45;&#45;node0x600002209260 -->
<g id="edge53" class="edge">
<title>node0x600002209560&#45;&#45;node0x600002209260</title>
<path fill="none" stroke="black" d="M1660.52,-718.96C1646.59,-707.98 1627.82,-693.18 1611.99,-680.69"/>
</g>
<!-- node0x600002209350 -->
<g id="node55" class="node">
<title>node0x600002209350</title>
<ellipse fill="none" stroke="black" cx="1780.75" cy="-655.05" rx="87.18" ry="18"/>
<text text-anchor="middle" x="1780.75" y="-651.35" font-family="Times,serif" font-size="14.00">PARAMETER_LIST</text>
</g>
<!-- node0x600002209560&#45;&#45;node0x600002209350 -->
<g id="edge54" class="edge">
<title>node0x600002209560&#45;&#45;node0x600002209350</title>
<path fill="none" stroke="black" d="M1700.99,-718.96C1718,-705.55 1742.23,-686.44 1759.51,-672.8"/>
</g>
<!-- node0x600002209500 -->
<g id="node58" class="node">
<title>node0x600002209500</title>
<ellipse fill="none" stroke="black" cx="2064.75" cy="-655.05" rx="40.09" ry="18"/>
<text text-anchor="middle" x="2064.75" y="-651.35" font-family="Times,serif" font-size="14.00">BLOCK</text>
</g>
<!-- node0x600002209560&#45;&#45;node0x600002209500 -->
<g id="edge57" class="edge">
<title>node0x600002209560&#45;&#45;node0x600002209500</title>
<path fill="none" stroke="black" d="M1726.69,-725.49C1804.03,-709.6 1958.64,-677.84 2028.73,-663.45"/>
</g>
<!-- node0x600002209290 -->
<g id="node56" class="node">
<title>node0x600002209290</title>
<ellipse fill="none" stroke="black" cx="1676.75" cy="-565.31" rx="94.51" ry="26.74"/>
<text text-anchor="middle" x="1676.75" y="-569.11" font-family="Times,serif" font-size="14.00">IDENTIFIER_DATA</text>
<text text-anchor="middle" x="1676.75" y="-554.11" font-family="Times,serif" font-size="14.00">x</text>
</g>
<!-- node0x600002209350&#45;&#45;node0x600002209290 -->
<g id="edge55" class="edge">
<title>node0x600002209350&#45;&#45;node0x600002209290</title>
<path fill="none" stroke="black" d="M1760.7,-637.13C1745.24,-624.09 1723.62,-605.85 1706.19,-591.15"/>
</g>
<!-- node0x6000022092f0 -->
<g id="node57" class="node">
<title>node0x6000022092f0</title>
<ellipse fill="none" stroke="black" cx="1884.75" cy="-565.31" rx="94.51" ry="26.74"/>
<text text-anchor="middle" x="1884.75" y="-569.11" font-family="Times,serif" font-size="14.00">IDENTIFIER_DATA</text>
<text text-anchor="middle" x="1884.75" y="-554.11" font-family="Times,serif" font-size="14.00">y</text>
</g>
<!-- node0x600002209350&#45;&#45;node0x6000022092f0 -->
<g id="edge56" class="edge">
<title>node0x600002209350&#45;&#45;node0x6000022092f0</title>
<path fill="none" stroke="black" d="M1800.8,-637.13C1816.27,-624.09 1837.89,-605.85 1855.32,-591.15"/>
</g>
<!-- node0x600002209470 -->
<g id="node59" class="node">
<title>node0x600002209470</title>
<ellipse fill="none" stroke="black" cx="2312.75" cy="-565.31" rx="102.08" ry="18"/>
<text text-anchor="middle" x="2312.75" y="-561.61" font-family="Times,serif" font-size="14.00">RETURN_STATEMENT</text>
</g>
<!-- node0x600002209500&#45;&#45;node0x600002209470 -->
<g id="edge58" class="edge">
<title>node0x600002209500&#45;&#45;node0x600002209470</title>
<path fill="none" stroke="black" d="M2095.66,-643.12C2139.16,-627.73 2218.67,-599.6 2268.45,-581.98"/>
</g>
<!-- node0x600002209440 -->
<g id="node60" class="node">
<title>node0x600002209440</title>
<ellipse fill="none" stroke="black" cx="2528.75" cy="-475.57" rx="69.09" ry="26.74"/>
<text text-anchor="middle" x="2528.75" y="-479.37" font-family="Times,serif" font-size="14.00">EXPRESSION</text>
<text text-anchor="middle" x="2528.75" y="-464.37" font-family="Times,serif" font-size="14.00">+</text>
</g>
<!-- node0x600002209470&#45;&#45;node0x600002209440 -->
<g id="edge59" class="edge">
<title>node0x600002209470&#45;&#45;node0x600002209440</title>
<path fill="none" stroke="black" d="M2351.87,-548.42C2388.46,-533.56 2443.16,-511.34 2482.03,-495.55"/>
</g>
<!-- node0x600002209380 -->
<g id="node61" class="node">
<title>node0x600002209380</title>
<ellipse fill="none" stroke="black" cx="2528.75" cy="-385.83" rx="94.51" ry="26.74"/>
<text text-anchor="middle" x="2528.75" y="-389.63" font-family="Times,serif" font-size="14.00">IDENTIFIER_DATA</text>
<text text-anchor="middle" x="2528.75" y="-374.63" font-family="Times,serif" font-size="14.00">x</text>
</g>
<!-- node0x600002209440&#45;&#45;node0x600002209380 -->
<g id="edge60" class="edge">
<title>node0x600002209440&#45;&#45;node0x600002209380</title>
<path fill="none" stroke="black" d="M2528.75,-448.72C2528.75,-437.4 2528.75,-424.14 2528.75,-412.8"/>
</g>
<!-- node0x6000022093e0 -->
<g id="node62" class="node">
<title>node0x6000022093e0</title>
<ellipse fill="none" stroke="black" cx="2736.75" cy="-385.83" rx="94.51" ry="26.74"/>
<text text-anchor="middle" x="2736.75" y="-389.63" font-family="Times,serif" font-size="14.00">IDENTIFIER_DATA</text>
<text text-anchor="middle" x="2736.75" y="-374.63" font-family="Times,serif" font-size="14.00">y</text>
</g>
<!-- node0x600002209440&#45;&#45;node0x6000022093e0 -->
<g id="edge61" class="edge">
<title>node0x600002209440&#45;&#45;node0x6000022093e0</title>
<path fill="none" stroke="black" d="M2574.66,-455.21C2607.32,-441.43 2651.23,-422.9 2685.12,-408.61"/>
</g>
</g>
</svg>
