<?xml version="1.0" encoding="UTF-8" standalone="no"?>
<!DOCTYPE svg PUBLIC "-//W3C//DTD SVG 1.1//EN"
 "http://www.w3.org/Graphics/SVG/1.1/DTD/svg11.dtd">
<!-- Generated by graphviz version 7.1.0 (20230121.1956)
 -->
<!-- Pages: 1 -->
<svg width="1832pt" height="1068pt"
 viewBox="0.00 0.00 1831.50 1067.66" xmlns="http://www.w3.org/2000/svg" xmlns:xlink="http://www.w3.org/1999/xlink">
<g id="graph0" class="graph" transform="scale(1 1) rotate(0) translate(4 1063.66)">
<polygon fill="white" stroke="none" points="-4,4 -4,-1063.66 1827.5,-1063.66 1827.5,4 -4,4"/>
<!-- node0x60000391d5c0 -->
<g id="node1" class="node">
<title>node0x60000391d5c0</title>
<ellipse fill="none" stroke="black" cx="808.75" cy="-1041.66" rx="69.59" ry="18"/>
<text text-anchor="middle" x="808.75" y="-1037.96" font-family="Times,serif" font-size="14.00">GLOBAL_LIST</text>
</g>
<!-- node0x60000391d230 -->
<g id="node2" class="node">
<title>node0x60000391d230</title>
<ellipse fill="none" stroke="black" cx="724.75" cy="-969.66" rx="69.59" ry="18"/>
<text text-anchor="middle" x="724.75" y="-965.96" font-family="Times,serif" font-size="14.00">GLOBAL_LIST</text>
</g>
<!-- node0x60000391d5c0&#45;&#45;node0x60000391d230 -->
<g id="edge1" class="edge">
<title>node0x60000391d5c0&#45;&#45;node0x60000391d230</title>
<path fill="none" stroke="black" d="M788.85,-1024.07C775.55,-1012.99 758.13,-998.48 744.81,-987.37"/>
</g>
<!-- node0x60000391d560 -->
<g id="node56" class="node">
<title>node0x60000391d560</title>
<ellipse fill="none" stroke="black" cx="1125.75" cy="-969.66" rx="55.49" ry="18"/>
<text text-anchor="middle" x="1125.75" y="-965.96" font-family="Times,serif" font-size="14.00">FUNCTION</text>
</g>
<!-- node0x60000391d5c0&#45;&#45;node0x60000391d560 -->
<g id="edge55" class="edge">
<title>node0x60000391d5c0&#45;&#45;node0x60000391d560</title>
<path fill="none" stroke="black" d="M860.39,-1029.26C921.62,-1015.74 1022.67,-993.42 1080.81,-980.59"/>
</g>
<!-- node0x60000391c480 -->
<g id="node3" class="node">
<title>node0x60000391c480</title>
<ellipse fill="none" stroke="black" cx="303.75" cy="-888.79" rx="69.59" ry="18"/>
<text text-anchor="middle" x="303.75" y="-885.09" font-family="Times,serif" font-size="14.00">GLOBAL_LIST</text>
</g>
<!-- node0x60000391d230&#45;&#45;node0x60000391c480 -->
<g id="edge2" class="edge">
<title>node0x60000391d230&#45;&#45;node0x60000391c480</title>
<path fill="none" stroke="black" d="M669.71,-958.35C589.03,-943.23 439.5,-915.22 358.8,-900.1"/>
</g>
<!-- node0x60000391d1d0 -->
<g id="node11" class="node">
<title>node0x60000391d1d0</title>
<ellipse fill="none" stroke="black" cx="724.75" cy="-888.79" rx="55.49" ry="18"/>
<text text-anchor="middle" x="724.75" y="-885.09" font-family="Times,serif" font-size="14.00">FUNCTION</text>
</g>
<!-- node0x60000391d230&#45;&#45;node0x60000391d1d0 -->
<g id="edge10" class="edge">
<title>node0x60000391d230&#45;&#45;node0x60000391d1d0</title>
<path fill="none" stroke="black" d="M724.75,-951.55C724.75,-938.41 724.75,-920.34 724.75,-907.14"/>
</g>
<!-- node0x60000391c330 -->
<g id="node4" class="node">
<title>node0x60000391c330</title>
<ellipse fill="none" stroke="black" cx="105.75" cy="-799.05" rx="69.59" ry="18"/>
<text text-anchor="middle" x="105.75" y="-795.35" font-family="Times,serif" font-size="14.00">GLOBAL_LIST</text>
</g>
<!-- node0x60000391c480&#45;&#45;node0x60000391c330 -->
<g id="edge3" class="edge">
<title>node0x60000391c480&#45;&#45;node0x60000391c330</title>
<path fill="none" stroke="black" d="M269.71,-872.71C233.34,-856.59 176.01,-831.18 139.68,-815.08"/>
</g>
<!-- node0x60000391c420 -->
<g id="node7" class="node">
<title>node0x60000391c420</title>
<ellipse fill="none" stroke="black" cx="303.75" cy="-799.05" rx="107.48" ry="18"/>
<text text-anchor="middle" x="303.75" y="-795.35" font-family="Times,serif" font-size="14.00">ARRAY_DECLARATION</text>
</g>
<!-- node0x60000391c480&#45;&#45;node0x60000391c420 -->
<g id="edge6" class="edge">
<title>node0x60000391c480&#45;&#45;node0x60000391c420</title>
<path fill="none" stroke="black" d="M303.75,-870.46C303.75,-855.07 303.75,-832.72 303.75,-817.35"/>
</g>
<!-- node0x60000391c2d0 -->
<g id="node5" class="node">
<title>node0x60000391c2d0</title>
<ellipse fill="none" stroke="black" cx="99.75" cy="-718.18" rx="72.29" ry="18"/>
<text text-anchor="middle" x="99.75" y="-714.48" font-family="Times,serif" font-size="14.00">DECLARATION</text>
</g>
<!-- node0x60000391c330&#45;&#45;node0x60000391c2d0 -->
<g id="edge4" class="edge">
<title>node0x60000391c330&#45;&#45;node0x60000391c2d0</title>
<path fill="none" stroke="black" d="M104.45,-780.94C103.45,-767.8 102.08,-749.73 101.07,-736.53"/>
</g>
<!-- node0x60000391c270 -->
<g id="node6" class="node">
<title>node0x60000391c270</title>
<ellipse fill="none" stroke="black" cx="94.75" cy="-637.31" rx="94.51" ry="26.74"/>
<text text-anchor="middle" x="94.75" y="-641.11" font-family="Times,serif" font-size="14.00">IDENTIFIER_DATA</text>
<text text-anchor="middle" x="94.75" y="-626.11" font-family="Times,serif" font-size="14.00">b</text>
</g>
<!-- node0x60000391c2d0&#45;&#45;node0x60000391c270 -->
<g id="edge5" class="edge">
<title>node0x60000391c2d0&#45;&#45;node0x60000391c270</title>
<path fill="none" stroke="black" d="M98.67,-700.07C98.01,-689.65 97.15,-676.13 96.41,-664.39"/>
</g>
<!-- node0x60000391c3f0 -->
<g id="node8" class="node">
<title>node0x60000391c3f0</title>
<ellipse fill="none" stroke="black" cx="303.75" cy="-718.18" rx="89.08" ry="18"/>
<text text-anchor="middle" x="303.75" y="-714.48" font-family="Times,serif" font-size="14.00">ARRAY_INDEXING</text>
</g>
<!-- node0x60000391c420&#45;&#45;node0x60000391c3f0 -->
<g id="edge7" class="edge">
<title>node0x60000391c420&#45;&#45;node0x60000391c3f0</title>
<path fill="none" stroke="black" d="M303.75,-780.94C303.75,-767.8 303.75,-749.73 303.75,-736.53"/>
</g>
<!-- node0x60000391c360 -->
<g id="node9" class="node">
<title>node0x60000391c360</title>
<ellipse fill="none" stroke="black" cx="302.75" cy="-637.31" rx="94.51" ry="26.74"/>
<text text-anchor="middle" x="302.75" y="-641.11" font-family="Times,serif" font-size="14.00">IDENTIFIER_DATA</text>
<text text-anchor="middle" x="302.75" y="-626.11" font-family="Times,serif" font-size="14.00">arr</text>
</g>
<!-- node0x60000391c3f0&#45;&#45;node0x60000391c360 -->
<g id="edge8" class="edge">
<title>node0x60000391c3f0&#45;&#45;node0x60000391c360</title>
<path fill="none" stroke="black" d="M303.54,-700.07C303.4,-689.65 303.23,-676.13 303.08,-664.39"/>
</g>
<!-- node0x60000391c390 -->
<g id="node10" class="node">
<title>node0x60000391c390</title>
<ellipse fill="none" stroke="black" cx="498.75" cy="-637.31" rx="83.38" ry="26.74"/>
<text text-anchor="middle" x="498.75" y="-641.11" font-family="Times,serif" font-size="14.00">NUMBER_DATA</text>
<text text-anchor="middle" x="498.75" y="-626.11" font-family="Times,serif" font-size="14.00">10</text>
</g>
<!-- node0x60000391c3f0&#45;&#45;node0x60000391c390 -->
<g id="edge9" class="edge">
<title>node0x60000391c3f0&#45;&#45;node0x60000391c390</title>
<path fill="none" stroke="black" d="M342.28,-701.6C372.58,-689.34 415.05,-672.16 448.1,-658.8"/>
</g>
<!-- node0x60000391c4b0 -->
<g id="node12" class="node">
<title>node0x60000391c4b0</title>
<ellipse fill="none" stroke="black" cx="524.75" cy="-799.05" rx="94.51" ry="26.74"/>
<text text-anchor="middle" x="524.75" y="-802.85" font-family="Times,serif" font-size="14.00">IDENTIFIER_DATA</text>
<text text-anchor="middle" x="524.75" y="-787.85" font-family="Times,serif" font-size="14.00">main</text>
</g>
<!-- node0x60000391d1d0&#45;&#45;node0x60000391c4b0 -->
<g id="edge11" class="edge">
<title>node0x60000391d1d0&#45;&#45;node0x60000391c4b0</title>
<path fill="none" stroke="black" d="M692.62,-873.69C660.82,-859.74 611.68,-838.19 574.77,-821.99"/>
</g>
<!-- node0x60000391c4e0 -->
<g id="node13" class="node">
<title>node0x60000391c4e0</title>
<ellipse fill="none" stroke="black" cx="724.75" cy="-799.05" rx="87.18" ry="18"/>
<text text-anchor="middle" x="724.75" y="-795.35" font-family="Times,serif" font-size="14.00">PARAMETER_LIST</text>
</g>
<!-- node0x60000391d1d0&#45;&#45;node0x60000391c4e0 -->
<g id="edge12" class="edge">
<title>node0x60000391d1d0&#45;&#45;node0x60000391c4e0</title>
<path fill="none" stroke="black" d="M724.75,-870.46C724.75,-855.07 724.75,-832.72 724.75,-817.35"/>
</g>
<!-- node0x60000391d1a0 -->
<g id="node14" class="node">
<title>node0x60000391d1a0</title>
<ellipse fill="none" stroke="black" cx="891.75" cy="-799.05" rx="62.29" ry="18"/>
<text text-anchor="middle" x="891.75" y="-795.35" font-family="Times,serif" font-size="14.00">STATEMENT</text>
</g>
<!-- node0x60000391d1d0&#45;&#45;node0x60000391d1a0 -->
<g id="edge13" class="edge">
<title>node0x60000391d1d0&#45;&#45;node0x60000391d1a0</title>
<path fill="none" stroke="black" d="M753.08,-872.91C783.6,-856.87 831.93,-831.48 862.72,-815.3"/>
</g>
<!-- node0x60000391d170 -->
<g id="node15" class="node">
<title>node0x60000391d170</title>
<ellipse fill="none" stroke="black" cx="891.75" cy="-718.18" rx="40.09" ry="18"/>
<text text-anchor="middle" x="891.75" y="-714.48" font-family="Times,serif" font-size="14.00">BLOCK</text>
</g>
<!-- node0x60000391d1a0&#45;&#45;node0x60000391d170 -->
<g id="edge14" class="edge">
<title>node0x60000391d1a0&#45;&#45;node0x60000391d170</title>
<path fill="none" stroke="black" d="M891.75,-780.94C891.75,-767.8 891.75,-749.73 891.75,-736.53"/>
</g>
<!-- node0x60000391c7e0 -->
<g id="node16" class="node">
<title>node0x60000391c7e0</title>
<ellipse fill="none" stroke="black" cx="694.75" cy="-637.31" rx="94.78" ry="18"/>
<text text-anchor="middle" x="694.75" y="-633.61" font-family="Times,serif" font-size="14.00">DECLARATION_LIST</text>
</g>
<!-- node0x60000391d170&#45;&#45;node0x60000391c7e0 -->
<g id="edge15" class="edge">
<title>node0x60000391d170&#45;&#45;node0x60000391c7e0</title>
<path fill="none" stroke="black" d="M862.68,-705.54C828.65,-691.92 772.11,-669.28 734.15,-654.08"/>
</g>
<!-- node0x60000391d140 -->
<g id="node22" class="node">
<title>node0x60000391d140</title>
<ellipse fill="none" stroke="black" cx="909.75" cy="-637.31" rx="85.29" ry="18"/>
<text text-anchor="middle" x="909.75" y="-633.61" font-family="Times,serif" font-size="14.00">STATEMENT_LIST</text>
</g>
<!-- node0x60000391d170&#45;&#45;node0x60000391d140 -->
<g id="edge21" class="edge">
<title>node0x60000391d170&#45;&#45;node0x60000391d140</title>
<path fill="none" stroke="black" d="M895.66,-700.07C898.66,-686.93 902.78,-668.86 905.79,-655.66"/>
</g>
<!-- node0x60000391c6c0 -->
<g id="node17" class="node">
<title>node0x60000391c6c0</title>
<ellipse fill="none" stroke="black" cx="418.75" cy="-556.44" rx="94.78" ry="18"/>
<text text-anchor="middle" x="418.75" y="-552.74" font-family="Times,serif" font-size="14.00">DECLARATION_LIST</text>
</g>
<!-- node0x60000391c7e0&#45;&#45;node0x60000391c6c0 -->
<g id="edge16" class="edge">
<title>node0x60000391c7e0&#45;&#45;node0x60000391c6c0</title>
<path fill="none" stroke="black" d="M643.81,-621.75C594.28,-607.6 519.46,-586.22 469.87,-572.05"/>
</g>
<!-- node0x60000391c7b0 -->
<g id="node20" class="node">
<title>node0x60000391c7b0</title>
<ellipse fill="none" stroke="black" cx="686.75" cy="-556.44" rx="72.29" ry="18"/>
<text text-anchor="middle" x="686.75" y="-552.74" font-family="Times,serif" font-size="14.00">DECLARATION</text>
</g>
<!-- node0x60000391c7e0&#45;&#45;node0x60000391c7b0 -->
<g id="edge19" class="edge">
<title>node0x60000391c7e0&#45;&#45;node0x60000391c7b0</title>
<path fill="none" stroke="black" d="M693.02,-619.2C691.68,-606.06 689.85,-587.99 688.51,-574.79"/>
</g>
<!-- node0x60000391c690 -->
<g id="node18" class="node">
<title>node0x60000391c690</title>
<ellipse fill="none" stroke="black" cx="377.75" cy="-475.57" rx="72.29" ry="18"/>
<text text-anchor="middle" x="377.75" y="-471.87" font-family="Times,serif" font-size="14.00">DECLARATION</text>
</g>
<!-- node0x60000391c6c0&#45;&#45;node0x60000391c690 -->
<g id="edge17" class="edge">
<title>node0x60000391c6c0&#45;&#45;node0x60000391c690</title>
<path fill="none" stroke="black" d="M409.86,-538.33C403.03,-525.19 393.63,-507.12 386.77,-493.92"/>
</g>
<!-- node0x60000391c630 -->
<g id="node19" class="node">
<title>node0x60000391c630</title>
<ellipse fill="none" stroke="black" cx="377.75" cy="-385.83" rx="94.51" ry="26.74"/>
<text text-anchor="middle" x="377.75" y="-389.63" font-family="Times,serif" font-size="14.00">IDENTIFIER_DATA</text>
<text text-anchor="middle" x="377.75" y="-374.63" font-family="Times,serif" font-size="14.00">D</text>
</g>
<!-- node0x60000391c690&#45;&#45;node0x60000391c630 -->
<g id="edge18" class="edge">
<title>node0x60000391c690&#45;&#45;node0x60000391c630</title>
<path fill="none" stroke="black" d="M377.75,-457.24C377.75,-444.55 377.75,-427.12 377.75,-412.78"/>
</g>
<!-- node0x60000391c750 -->
<g id="node21" class="node">
<title>node0x60000391c750</title>
<ellipse fill="none" stroke="black" cx="562.75" cy="-475.57" rx="94.51" ry="26.74"/>
<text text-anchor="middle" x="562.75" y="-479.37" font-family="Times,serif" font-size="14.00">IDENTIFIER_DATA</text>
<text text-anchor="middle" x="562.75" y="-464.37" font-family="Times,serif" font-size="14.00">Y</text>
</g>
<!-- node0x60000391c7b0&#45;&#45;node0x60000391c750 -->
<g id="edge20" class="edge">
<title>node0x60000391c7b0&#45;&#45;node0x60000391c750</title>
<path fill="none" stroke="black" d="M661.36,-539.29C643.79,-528.11 620.1,-513.05 600.35,-500.49"/>
</g>
<!-- node0x60000391ced0 -->
<g id="node23" class="node">
<title>node0x60000391ced0</title>
<ellipse fill="none" stroke="black" cx="909.75" cy="-556.44" rx="85.29" ry="18"/>
<text text-anchor="middle" x="909.75" y="-552.74" font-family="Times,serif" font-size="14.00">STATEMENT_LIST</text>
</g>
<!-- node0x60000391d140&#45;&#45;node0x60000391ced0 -->
<g id="edge22" class="edge">
<title>node0x60000391d140&#45;&#45;node0x60000391ced0</title>
<path fill="none" stroke="black" d="M909.75,-619.2C909.75,-606.06 909.75,-587.99 909.75,-574.79"/>
</g>
<!-- node0x60000391d110 -->
<g id="node48" class="node">
<title>node0x60000391d110</title>
<ellipse fill="none" stroke="black" cx="1083.75" cy="-556.44" rx="62.29" ry="18"/>
<text text-anchor="middle" x="1083.75" y="-552.74" font-family="Times,serif" font-size="14.00">STATEMENT</text>
</g>
<!-- node0x60000391d140&#45;&#45;node0x60000391d110 -->
<g id="edge47" class="edge">
<title>node0x60000391d140&#45;&#45;node0x60000391d110</title>
<path fill="none" stroke="black" d="M944.55,-620.54C975.69,-606.42 1020.99,-585.89 1051.37,-572.12"/>
</g>
<!-- node0x60000391cbd0 -->
<g id="node24" class="node">
<title>node0x60000391cbd0</title>
<ellipse fill="none" stroke="black" cx="760.75" cy="-475.57" rx="85.29" ry="18"/>
<text text-anchor="middle" x="760.75" y="-471.87" font-family="Times,serif" font-size="14.00">STATEMENT_LIST</text>
</g>
<!-- node0x60000391ced0&#45;&#45;node0x60000391cbd0 -->
<g id="edge23" class="edge">
<title>node0x60000391ced0&#45;&#45;node0x60000391cbd0</title>
<path fill="none" stroke="black" d="M879.24,-539.29C853.61,-525.72 817.17,-506.43 791.48,-492.84"/>
</g>
<!-- node0x60000391cea0 -->
<g id="node37" class="node">
<title>node0x60000391cea0</title>
<ellipse fill="none" stroke="black" cx="926.75" cy="-475.57" rx="62.29" ry="18"/>
<text text-anchor="middle" x="926.75" y="-471.87" font-family="Times,serif" font-size="14.00">STATEMENT</text>
</g>
<!-- node0x60000391ced0&#45;&#45;node0x60000391cea0 -->
<g id="edge36" class="edge">
<title>node0x60000391ced0&#45;&#45;node0x60000391cea0</title>
<path fill="none" stroke="black" d="M913.44,-538.33C916.27,-525.19 920.17,-507.12 923.01,-493.92"/>
</g>
<!-- node0x60000391c990 -->
<g id="node25" class="node">
<title>node0x60000391c990</title>
<ellipse fill="none" stroke="black" cx="580.75" cy="-385.83" rx="85.29" ry="18"/>
<text text-anchor="middle" x="580.75" y="-382.13" font-family="Times,serif" font-size="14.00">STATEMENT_LIST</text>
</g>
<!-- node0x60000391cbd0&#45;&#45;node0x60000391c990 -->
<g id="edge24" class="edge">
<title>node0x60000391cbd0&#45;&#45;node0x60000391c990</title>
<path fill="none" stroke="black" d="M728.16,-458.68C695.74,-442.88 646.26,-418.76 613.71,-402.9"/>
</g>
<!-- node0x60000391cba0 -->
<g id="node29" class="node">
<title>node0x60000391cba0</title>
<ellipse fill="none" stroke="black" cx="751.75" cy="-385.83" rx="62.29" ry="18"/>
<text text-anchor="middle" x="751.75" y="-382.13" font-family="Times,serif" font-size="14.00">STATEMENT</text>
</g>
<!-- node0x60000391cbd0&#45;&#45;node0x60000391cba0 -->
<g id="edge28" class="edge">
<title>node0x60000391cbd0&#45;&#45;node0x60000391cba0</title>
<path fill="none" stroke="black" d="M758.97,-457.24C757.4,-441.85 755.1,-419.5 753.53,-404.13"/>
</g>
<!-- node0x60000391c960 -->
<g id="node26" class="node">
<title>node0x60000391c960</title>
<ellipse fill="none" stroke="black" cx="338.75" cy="-296.09" rx="62.29" ry="18"/>
<text text-anchor="middle" x="338.75" y="-292.39" font-family="Times,serif" font-size="14.00">STATEMENT</text>
</g>
<!-- node0x60000391c990&#45;&#45;node0x60000391c960 -->
<g id="edge25" class="edge">
<title>node0x60000391c990&#45;&#45;node0x60000391c960</title>
<path fill="none" stroke="black" d="M539.15,-369.75C493.47,-353.19 420.77,-326.83 376.63,-310.82"/>
</g>
<!-- node0x60000391c930 -->
<g id="node27" class="node">
<title>node0x60000391c930</title>
<ellipse fill="none" stroke="black" cx="247.75" cy="-206.35" rx="92.08" ry="18"/>
<text text-anchor="middle" x="247.75" y="-202.65" font-family="Times,serif" font-size="14.00">PRINT_STATEMENT</text>
</g>
<!-- node0x60000391c960&#45;&#45;node0x60000391c930 -->
<g id="edge26" class="edge">
<title>node0x60000391c960&#45;&#45;node0x60000391c930</title>
<path fill="none" stroke="black" d="M321.64,-278.59C305.57,-263.1 281.65,-240.03 265.41,-224.38"/>
</g>
<!-- node0x60000391c8a0 -->
<g id="node28" class="node">
<title>node0x60000391c8a0</title>
<ellipse fill="none" stroke="black" cx="247.75" cy="-116.61" rx="76.24" ry="26.74"/>
<text text-anchor="middle" x="247.75" y="-120.41" font-family="Times,serif" font-size="14.00">STRING_DATA</text>
<text text-anchor="middle" x="247.75" y="-105.41" font-family="Times,serif" font-size="14.00">&quot;World&quot;</text>
</g>
<!-- node0x60000391c930&#45;&#45;node0x60000391c8a0 -->
<g id="edge27" class="edge">
<title>node0x60000391c930&#45;&#45;node0x60000391c8a0</title>
<path fill="none" stroke="black" d="M247.75,-188.02C247.75,-175.33 247.75,-157.9 247.75,-143.56"/>
</g>
<!-- node0x60000391cb70 -->
<g id="node30" class="node">
<title>node0x60000391cb70</title>
<ellipse fill="none" stroke="black" cx="634.75" cy="-296.09" rx="124.28" ry="18"/>
<text text-anchor="middle" x="634.75" y="-292.39" font-family="Times,serif" font-size="14.00">ASSIGNMENT_STATEMENT</text>
</g>
<!-- node0x60000391cba0&#45;&#45;node0x60000391cb70 -->
<g id="edge29" class="edge">
<title>node0x60000391cba0&#45;&#45;node0x60000391cb70</title>
<path fill="none" stroke="black" d="M730.02,-368.53C709.4,-353.07 678.54,-329.92 657.57,-314.2"/>
</g>
<!-- node0x60000391c9c0 -->
<g id="node31" class="node">
<title>node0x60000391c9c0</title>
<ellipse fill="none" stroke="black" cx="452.75" cy="-206.35" rx="94.51" ry="26.74"/>
<text text-anchor="middle" x="452.75" y="-210.15" font-family="Times,serif" font-size="14.00">IDENTIFIER_DATA</text>
<text text-anchor="middle" x="452.75" y="-195.15" font-family="Times,serif" font-size="14.00">A</text>
</g>
<!-- node0x60000391cb70&#45;&#45;node0x60000391c9c0 -->
<g id="edge30" class="edge">
<title>node0x60000391cb70&#45;&#45;node0x60000391c9c0</title>
<path fill="none" stroke="black" d="M600.09,-278.38C571.63,-264.66 531.03,-245.09 499.66,-229.97"/>
</g>
<!-- node0x60000391cb40 -->
<g id="node32" class="node">
<title>node0x60000391cb40</title>
<ellipse fill="none" stroke="black" cx="634.75" cy="-206.35" rx="69.09" ry="26.74"/>
<text text-anchor="middle" x="634.75" y="-210.15" font-family="Times,serif" font-size="14.00">EXPRESSION</text>
<text text-anchor="middle" x="634.75" y="-195.15" font-family="Times,serif" font-size="14.00">+</text>
</g>
<!-- node0x60000391cb70&#45;&#45;node0x60000391cb40 -->
<g id="edge31" class="edge">
<title>node0x60000391cb70&#45;&#45;node0x60000391cb40</title>
<path fill="none" stroke="black" d="M634.75,-277.76C634.75,-265.07 634.75,-247.64 634.75,-233.3"/>
</g>
<!-- node0x60000391cab0 -->
<g id="node33" class="node">
<title>node0x60000391cab0</title>
<ellipse fill="none" stroke="black" cx="543.75" cy="-116.61" rx="69.09" ry="26.74"/>
<text text-anchor="middle" x="543.75" y="-120.41" font-family="Times,serif" font-size="14.00">EXPRESSION</text>
<text text-anchor="middle" x="543.75" y="-105.41" font-family="Times,serif" font-size="14.00">+</text>
</g>
<!-- node0x60000391cb40&#45;&#45;node0x60000391cab0 -->
<g id="edge32" class="edge">
<title>node0x60000391cb40&#45;&#45;node0x60000391cab0</title>
<path fill="none" stroke="black" d="M609.89,-181.37C597.15,-169.1 581.68,-154.18 568.9,-141.86"/>
</g>
<!-- node0x60000391cae0 -->
<g id="node36" class="node">
<title>node0x60000391cae0</title>
<ellipse fill="none" stroke="black" cx="725.75" cy="-116.61" rx="94.51" ry="26.74"/>
<text text-anchor="middle" x="725.75" y="-120.41" font-family="Times,serif" font-size="14.00">IDENTIFIER_DATA</text>
<text text-anchor="middle" x="725.75" y="-105.41" font-family="Times,serif" font-size="14.00">D</text>
</g>
<!-- node0x60000391cb40&#45;&#45;node0x60000391cae0 -->
<g id="edge35" class="edge">
<title>node0x60000391cb40&#45;&#45;node0x60000391cae0</title>
<path fill="none" stroke="black" d="M659.62,-181.37C672.04,-169.4 687.06,-154.92 699.64,-142.78"/>
</g>
<!-- node0x60000391c9f0 -->
<g id="node34" class="node">
<title>node0x60000391c9f0</title>
<ellipse fill="none" stroke="black" cx="439.75" cy="-26.87" rx="94.51" ry="26.74"/>
<text text-anchor="middle" x="439.75" y="-30.67" font-family="Times,serif" font-size="14.00">IDENTIFIER_DATA</text>
<text text-anchor="middle" x="439.75" y="-15.67" font-family="Times,serif" font-size="14.00">B</text>
</g>
<!-- node0x60000391cab0&#45;&#45;node0x60000391c9f0 -->
<g id="edge33" class="edge">
<title>node0x60000391cab0&#45;&#45;node0x60000391c9f0</title>
<path fill="none" stroke="black" d="M515.61,-91.87C501.17,-79.69 483.6,-64.86 469.01,-52.55"/>
</g>
<!-- node0x60000391ca50 -->
<g id="node35" class="node">
<title>node0x60000391ca50</title>
<ellipse fill="none" stroke="black" cx="647.75" cy="-26.87" rx="94.51" ry="26.74"/>
<text text-anchor="middle" x="647.75" y="-30.67" font-family="Times,serif" font-size="14.00">IDENTIFIER_DATA</text>
<text text-anchor="middle" x="647.75" y="-15.67" font-family="Times,serif" font-size="14.00">C</text>
</g>
<!-- node0x60000391cab0&#45;&#45;node0x60000391ca50 -->
<g id="edge34" class="edge">
<title>node0x60000391cab0&#45;&#45;node0x60000391ca50</title>
<path fill="none" stroke="black" d="M571.9,-91.87C586.33,-79.69 603.9,-64.86 618.5,-52.55"/>
</g>
<!-- node0x60000391ce70 -->
<g id="node38" class="node">
<title>node0x60000391ce70</title>
<ellipse fill="none" stroke="black" cx="930.75" cy="-385.83" rx="74.99" ry="18"/>
<text text-anchor="middle" x="930.75" y="-382.13" font-family="Times,serif" font-size="14.00">IF_STATEMENT</text>
</g>
<!-- node0x60000391cea0&#45;&#45;node0x60000391ce70 -->
<g id="edge37" class="edge">
<title>node0x60000391cea0&#45;&#45;node0x60000391ce70</title>
<path fill="none" stroke="black" d="M927.54,-457.24C928.24,-441.85 929.26,-419.5 929.96,-404.13"/>
</g>
<!-- node0x60000391ccc0 -->
<g id="node39" class="node">
<title>node0x60000391ccc0</title>
<ellipse fill="none" stroke="black" cx="930.75" cy="-296.09" rx="58.88" ry="26.74"/>
<text text-anchor="middle" x="930.75" y="-299.89" font-family="Times,serif" font-size="14.00">RELATION</text>
<text text-anchor="middle" x="930.75" y="-284.89" font-family="Times,serif" font-size="14.00">NULL</text>
</g>
<!-- node0x60000391ce70&#45;&#45;node0x60000391ccc0 -->
<g id="edge38" class="edge">
<title>node0x60000391ce70&#45;&#45;node0x60000391ccc0</title>
<path fill="none" stroke="black" d="M930.75,-367.5C930.75,-354.81 930.75,-337.38 930.75,-323.04"/>
</g>
<!-- node0x60000391ce40 -->
<g id="node42" class="node">
<title>node0x60000391ce40</title>
<ellipse fill="none" stroke="black" cx="1165.75" cy="-296.09" rx="62.29" ry="18"/>
<text text-anchor="middle" x="1165.75" y="-292.39" font-family="Times,serif" font-size="14.00">STATEMENT</text>
</g>
<!-- node0x60000391ce70&#45;&#45;node0x60000391ce40 -->
<g id="edge41" class="edge">
<title>node0x60000391ce70&#45;&#45;node0x60000391ce40</title>
<path fill="none" stroke="black" d="M970.09,-370.14C1014.25,-353.66 1085.38,-327.1 1128.62,-310.95"/>
</g>
<!-- node0x60000391cc00 -->
<g id="node40" class="node">
<title>node0x60000391cc00</title>
<ellipse fill="none" stroke="black" cx="816.75" cy="-206.35" rx="94.51" ry="26.74"/>
<text text-anchor="middle" x="816.75" y="-210.15" font-family="Times,serif" font-size="14.00">IDENTIFIER_DATA</text>
<text text-anchor="middle" x="816.75" y="-195.15" font-family="Times,serif" font-size="14.00">A</text>
</g>
<!-- node0x60000391ccc0&#45;&#45;node0x60000391cc00 -->
<g id="edge39" class="edge">
<title>node0x60000391ccc0&#45;&#45;node0x60000391cc00</title>
<path fill="none" stroke="black" d="M901.39,-272.5C885.17,-260 864.99,-244.48 848.41,-231.72"/>
</g>
<!-- node0x60000391cc60 -->
<g id="node41" class="node">
<title>node0x60000391cc60</title>
<ellipse fill="none" stroke="black" cx="1024.75" cy="-206.35" rx="94.51" ry="26.74"/>
<text text-anchor="middle" x="1024.75" y="-210.15" font-family="Times,serif" font-size="14.00">IDENTIFIER_DATA</text>
<text text-anchor="middle" x="1024.75" y="-195.15" font-family="Times,serif" font-size="14.00">B</text>
</g>
<!-- node0x60000391ccc0&#45;&#45;node0x60000391cc60 -->
<g id="edge40" class="edge">
<title>node0x60000391ccc0&#45;&#45;node0x60000391cc60</title>
<path fill="none" stroke="black" d="M955.94,-271.58C968.89,-259.5 984.66,-244.77 997.85,-232.47"/>
</g>
<!-- node0x60000391ce10 -->
<g id="node43" class="node">
<title>node0x60000391ce10</title>
<ellipse fill="none" stroke="black" cx="1261.75" cy="-206.35" rx="124.28" ry="18"/>
<text text-anchor="middle" x="1261.75" y="-202.65" font-family="Times,serif" font-size="14.00">ASSIGNMENT_STATEMENT</text>
</g>
<!-- node0x60000391ce40&#45;&#45;node0x60000391ce10 -->
<g id="edge42" class="edge">
<title>node0x60000391ce40&#45;&#45;node0x60000391ce10</title>
<path fill="none" stroke="black" d="M1183.81,-278.59C1200.76,-263.1 1225.99,-240.03 1243.12,-224.38"/>
</g>
<!-- node0x60000391ccf0 -->
<g id="node44" class="node">
<title>node0x60000391ccf0</title>
<ellipse fill="none" stroke="black" cx="1103.75" cy="-116.61" rx="94.51" ry="26.74"/>
<text text-anchor="middle" x="1103.75" y="-120.41" font-family="Times,serif" font-size="14.00">IDENTIFIER_DATA</text>
<text text-anchor="middle" x="1103.75" y="-105.41" font-family="Times,serif" font-size="14.00">A</text>
</g>
<!-- node0x60000391ce10&#45;&#45;node0x60000391ccf0 -->
<g id="edge43" class="edge">
<title>node0x60000391ce10&#45;&#45;node0x60000391ccf0</title>
<path fill="none" stroke="black" d="M1231.29,-188.43C1206.99,-174.94 1172.68,-155.89 1145.77,-140.94"/>
</g>
<!-- node0x60000391cde0 -->
<g id="node45" class="node">
<title>node0x60000391cde0</title>
<ellipse fill="none" stroke="black" cx="1285.75" cy="-116.61" rx="69.09" ry="26.74"/>
<text text-anchor="middle" x="1285.75" y="-120.41" font-family="Times,serif" font-size="14.00">EXPRESSION</text>
<text text-anchor="middle" x="1285.75" y="-105.41" font-family="Times,serif" font-size="14.00">+</text>
</g>
<!-- node0x60000391ce10&#45;&#45;node0x60000391cde0 -->
<g id="edge44" class="edge">
<title>node0x60000391ce10&#45;&#45;node0x60000391cde0</title>
<path fill="none" stroke="black" d="M1266.49,-188.02C1269.96,-175.33 1274.73,-157.9 1278.65,-143.56"/>
</g>
<!-- node0x60000391cd20 -->
<g id="node46" class="node">
<title>node0x60000391cd20</title>
<ellipse fill="none" stroke="black" cx="1187.75" cy="-26.87" rx="94.51" ry="26.74"/>
<text text-anchor="middle" x="1187.75" y="-30.67" font-family="Times,serif" font-size="14.00">IDENTIFIER_DATA</text>
<text text-anchor="middle" x="1187.75" y="-15.67" font-family="Times,serif" font-size="14.00">A</text>
</g>
<!-- node0x60000391cde0&#45;&#45;node0x60000391cd20 -->
<g id="edge45" class="edge">
<title>node0x60000391cde0&#45;&#45;node0x60000391cd20</title>
<path fill="none" stroke="black" d="M1258.97,-91.63C1245.49,-79.56 1229.15,-64.93 1215.52,-52.73"/>
</g>
<!-- node0x60000391cd80 -->
<g id="node47" class="node">
<title>node0x60000391cd80</title>
<ellipse fill="none" stroke="black" cx="1383.75" cy="-26.87" rx="83.38" ry="26.74"/>
<text text-anchor="middle" x="1383.75" y="-30.67" font-family="Times,serif" font-size="14.00">NUMBER_DATA</text>
<text text-anchor="middle" x="1383.75" y="-15.67" font-family="Times,serif" font-size="14.00">1</text>
</g>
<!-- node0x60000391cde0&#45;&#45;node0x60000391cd80 -->
<g id="edge46" class="edge">
<title>node0x60000391cde0&#45;&#45;node0x60000391cd80</title>
<path fill="none" stroke="black" d="M1312.53,-91.63C1326.13,-79.46 1342.63,-64.69 1356.32,-52.43"/>
</g>
<!-- node0x60000391d0e0 -->
<g id="node49" class="node">
<title>node0x60000391d0e0</title>
<ellipse fill="none" stroke="black" cx="1131.75" cy="-475.57" rx="124.28" ry="18"/>
<text text-anchor="middle" x="1131.75" y="-471.87" font-family="Times,serif" font-size="14.00">ASSIGNMENT_STATEMENT</text>
</g>
<!-- node0x60000391d110&#45;&#45;node0x60000391d0e0 -->
<g id="edge48" class="edge">
<title>node0x60000391d110&#45;&#45;node0x60000391d0e0</title>
<path fill="none" stroke="black" d="M1094.17,-538.33C1102.16,-525.19 1113.16,-507.12 1121.19,-493.92"/>
</g>
<!-- node0x60000391cf00 -->
<g id="node50" class="node">
<title>node0x60000391cf00</title>
<ellipse fill="none" stroke="black" cx="1126.75" cy="-385.83" rx="94.51" ry="26.74"/>
<text text-anchor="middle" x="1126.75" y="-389.63" font-family="Times,serif" font-size="14.00">IDENTIFIER_DATA</text>
<text text-anchor="middle" x="1126.75" y="-374.63" font-family="Times,serif" font-size="14.00">A</text>
</g>
<!-- node0x60000391d0e0&#45;&#45;node0x60000391cf00 -->
<g id="edge49" class="edge">
<title>node0x60000391d0e0&#45;&#45;node0x60000391cf00</title>
<path fill="none" stroke="black" d="M1130.76,-457.24C1130.04,-444.55 1129.05,-427.12 1128.23,-412.78"/>
</g>
<!-- node0x60000391d080 -->
<g id="node51" class="node">
<title>node0x60000391d080</title>
<ellipse fill="none" stroke="black" cx="1323.75" cy="-385.83" rx="83.69" ry="18"/>
<text text-anchor="middle" x="1323.75" y="-382.13" font-family="Times,serif" font-size="14.00">ARGUMENT_LIST</text>
</g>
<!-- node0x60000391d0e0&#45;&#45;node0x60000391d080 -->
<g id="edge50" class="edge">
<title>node0x60000391d0e0&#45;&#45;node0x60000391d080</title>
<path fill="none" stroke="black" d="M1167.87,-458.07C1202.63,-442.18 1254.83,-418.33 1289.09,-402.67"/>
</g>
<!-- node0x60000391d050 -->
<g id="node52" class="node">
<title>node0x60000391d050</title>
<ellipse fill="none" stroke="black" cx="1490.75" cy="-296.09" rx="87.18" ry="18"/>
<text text-anchor="middle" x="1490.75" y="-292.39" font-family="Times,serif" font-size="14.00">EXPRESSION_LIST</text>
</g>
<!-- node0x60000391d080&#45;&#45;node0x60000391d050 -->
<g id="edge51" class="edge">
<title>node0x60000391d080&#45;&#45;node0x60000391d050</title>
<path fill="none" stroke="black" d="M1354.38,-368.74C1384.33,-353.01 1429.68,-329.18 1459.75,-313.38"/>
</g>
<!-- node0x60000391cfc0 -->
<g id="node53" class="node">
<title>node0x60000391cfc0</title>
<ellipse fill="none" stroke="black" cx="1490.75" cy="-206.35" rx="87.18" ry="18"/>
<text text-anchor="middle" x="1490.75" y="-202.65" font-family="Times,serif" font-size="14.00">EXPRESSION_LIST</text>
</g>
<!-- node0x60000391d050&#45;&#45;node0x60000391cfc0 -->
<g id="edge52" class="edge">
<title>node0x60000391d050&#45;&#45;node0x60000391cfc0</title>
<path fill="none" stroke="black" d="M1490.75,-277.76C1490.75,-262.37 1490.75,-240.02 1490.75,-224.65"/>
</g>
<!-- node0x60000391cff0 -->
<g id="node55" class="node">
<title>node0x60000391cff0</title>
<ellipse fill="none" stroke="black" cx="1690.75" cy="-206.35" rx="94.51" ry="26.74"/>
<text text-anchor="middle" x="1690.75" y="-210.15" font-family="Times,serif" font-size="14.00">IDENTIFIER_DATA</text>
<text text-anchor="middle" x="1690.75" y="-195.15" font-family="Times,serif" font-size="14.00">B</text>
</g>
<!-- node0x60000391d050&#45;&#45;node0x60000391cff0 -->
<g id="edge54" class="edge">
<title>node0x60000391d050&#45;&#45;node0x60000391cff0</title>
<path fill="none" stroke="black" d="M1526.51,-279.4C1558.31,-265.45 1605.13,-244.91 1640.66,-229.33"/>
</g>
<!-- node0x60000391cf60 -->
<g id="node54" class="node">
<title>node0x60000391cf60</title>
<ellipse fill="none" stroke="black" cx="1490.75" cy="-116.61" rx="94.51" ry="26.74"/>
<text text-anchor="middle" x="1490.75" y="-120.41" font-family="Times,serif" font-size="14.00">IDENTIFIER_DATA</text>
<text text-anchor="middle" x="1490.75" y="-105.41" font-family="Times,serif" font-size="14.00">A</text>
</g>
<!-- node0x60000391cfc0&#45;&#45;node0x60000391cf60 -->
<g id="edge53" class="edge">
<title>node0x60000391cfc0&#45;&#45;node0x60000391cf60</title>
<path fill="none" stroke="black" d="M1490.75,-188.02C1490.75,-175.33 1490.75,-157.9 1490.75,-143.56"/>
</g>
<!-- node0x60000391d260 -->
<g id="node57" class="node">
<title>node0x60000391d260</title>
<ellipse fill="none" stroke="black" cx="1025.75" cy="-888.79" rx="94.51" ry="26.74"/>
<text text-anchor="middle" x="1025.75" y="-892.59" font-family="Times,serif" font-size="14.00">IDENTIFIER_DATA</text>
<text text-anchor="middle" x="1025.75" y="-877.59" font-family="Times,serif" font-size="14.00">another</text>
</g>
<!-- node0x60000391d560&#45;&#45;node0x60000391d260 -->
<g id="edge56" class="edge">
<title>node0x60000391d560&#45;&#45;node0x60000391d260</title>
<path fill="none" stroke="black" d="M1105.52,-952.7C1091.59,-941.72 1072.82,-926.92 1056.99,-914.43"/>
</g>
<!-- node0x60000391d350 -->
<g id="node58" class="node">
<title>node0x60000391d350</title>
<ellipse fill="none" stroke="black" cx="1225.75" cy="-888.79" rx="87.18" ry="18"/>
<text text-anchor="middle" x="1225.75" y="-885.09" font-family="Times,serif" font-size="14.00">PARAMETER_LIST</text>
</g>
<!-- node0x60000391d560&#45;&#45;node0x60000391d350 -->
<g id="edge57" class="edge">
<title>node0x60000391d560&#45;&#45;node0x60000391d350</title>
<path fill="none" stroke="black" d="M1145.99,-952.7C1163,-939.29 1187.23,-920.18 1204.51,-906.54"/>
</g>
<!-- node0x60000391d530 -->
<g id="node60" class="node">
<title>node0x60000391d530</title>
<ellipse fill="none" stroke="black" cx="1459.75" cy="-888.79" rx="62.29" ry="18"/>
<text text-anchor="middle" x="1459.75" y="-885.09" font-family="Times,serif" font-size="14.00">STATEMENT</text>
</g>
<!-- node0x60000391d560&#45;&#45;node0x60000391d530 -->
<g id="edge59" class="edge">
<title>node0x60000391d560&#45;&#45;node0x60000391d530</title>
<path fill="none" stroke="black" d="M1169.76,-958.27C1232.73,-943.4 1348.06,-916.16 1412.68,-900.91"/>
</g>
<!-- node0x60000391d2f0 -->
<g id="node59" class="node">
<title>node0x60000391d2f0</title>
<ellipse fill="none" stroke="black" cx="1225.75" cy="-799.05" rx="94.51" ry="26.74"/>
<text text-anchor="middle" x="1225.75" y="-802.85" font-family="Times,serif" font-size="14.00">IDENTIFIER_DATA</text>
<text text-anchor="middle" x="1225.75" y="-787.85" font-family="Times,serif" font-size="14.00">y</text>
</g>
<!-- node0x60000391d350&#45;&#45;node0x60000391d2f0 -->
<g id="edge58" class="edge">
<title>node0x60000391d350&#45;&#45;node0x60000391d2f0</title>
<path fill="none" stroke="black" d="M1225.75,-870.46C1225.75,-857.77 1225.75,-840.34 1225.75,-826"/>
</g>
<!-- node0x60000391d500 -->
<g id="node61" class="node">
<title>node0x60000391d500</title>
<ellipse fill="none" stroke="black" cx="1463.75" cy="-799.05" rx="40.09" ry="18"/>
<text text-anchor="middle" x="1463.75" y="-795.35" font-family="Times,serif" font-size="14.00">BLOCK</text>
</g>
<!-- node0x60000391d530&#45;&#45;node0x60000391d500 -->
<g id="edge60" class="edge">
<title>node0x60000391d530&#45;&#45;node0x60000391d500</title>
<path fill="none" stroke="black" d="M1460.54,-870.46C1461.24,-855.07 1462.26,-832.72 1462.96,-817.35"/>
</g>
<!-- node0x60000391d4d0 -->
<g id="node62" class="node">
<title>node0x60000391d4d0</title>
<ellipse fill="none" stroke="black" cx="1467.75" cy="-718.18" rx="85.29" ry="18"/>
<text text-anchor="middle" x="1467.75" y="-714.48" font-family="Times,serif" font-size="14.00">STATEMENT_LIST</text>
</g>
<!-- node0x60000391d500&#45;&#45;node0x60000391d4d0 -->
<g id="edge61" class="edge">
<title>node0x60000391d500&#45;&#45;node0x60000391d4d0</title>
<path fill="none" stroke="black" d="M1464.62,-780.94C1465.29,-767.8 1466.2,-749.73 1466.87,-736.53"/>
</g>
<!-- node0x60000391d4a0 -->
<g id="node63" class="node">
<title>node0x60000391d4a0</title>
<ellipse fill="none" stroke="black" cx="1483.75" cy="-637.31" rx="62.29" ry="18"/>
<text text-anchor="middle" x="1483.75" y="-633.61" font-family="Times,serif" font-size="14.00">STATEMENT</text>
</g>
<!-- node0x60000391d4d0&#45;&#45;node0x60000391d4a0 -->
<g id="edge62" class="edge">
<title>node0x60000391d4d0&#45;&#45;node0x60000391d4a0</title>
<path fill="none" stroke="black" d="M1471.22,-700.07C1473.89,-686.93 1477.55,-668.86 1480.23,-655.66"/>
</g>
<!-- node0x60000391d470 -->
<g id="node64" class="node">
<title>node0x60000391d470</title>
<ellipse fill="none" stroke="black" cx="1516.75" cy="-556.44" rx="102.08" ry="18"/>
<text text-anchor="middle" x="1516.75" y="-552.74" font-family="Times,serif" font-size="14.00">RETURN_STATEMENT</text>
</g>
<!-- node0x60000391d4a0&#45;&#45;node0x60000391d470 -->
<g id="edge63" class="edge">
<title>node0x60000391d4a0&#45;&#45;node0x60000391d470</title>
<path fill="none" stroke="black" d="M1490.91,-619.2C1496.41,-606.06 1503.97,-587.99 1509.49,-574.79"/>
</g>
<!-- node0x60000391d440 -->
<g id="node65" class="node">
<title>node0x60000391d440</title>
<ellipse fill="none" stroke="black" cx="1520.75" cy="-475.57" rx="69.09" ry="26.74"/>
<text text-anchor="middle" x="1520.75" y="-479.37" font-family="Times,serif" font-size="14.00">EXPRESSION</text>
<text text-anchor="middle" x="1520.75" y="-464.37" font-family="Times,serif" font-size="14.00">+</text>
</g>
<!-- node0x60000391d470&#45;&#45;node0x60000391d440 -->
<g id="edge64" class="edge">
<title>node0x60000391d470&#45;&#45;node0x60000391d440</title>
<path fill="none" stroke="black" d="M1517.62,-538.33C1518.15,-527.91 1518.83,-514.39 1519.43,-502.65"/>
</g>
<!-- node0x60000391d380 -->
<g id="node66" class="node">
<title>node0x60000391d380</title>
<ellipse fill="none" stroke="black" cx="1520.75" cy="-385.83" rx="94.51" ry="26.74"/>
<text text-anchor="middle" x="1520.75" y="-389.63" font-family="Times,serif" font-size="14.00">IDENTIFIER_DATA</text>
<text text-anchor="middle" x="1520.75" y="-374.63" font-family="Times,serif" font-size="14.00">x</text>
</g>
<!-- node0x60000391d440&#45;&#45;node0x60000391d380 -->
<g id="edge65" class="edge">
<title>node0x60000391d440&#45;&#45;node0x60000391d380</title>
<path fill="none" stroke="black" d="M1520.75,-448.72C1520.75,-437.4 1520.75,-424.14 1520.75,-412.8"/>
</g>
<!-- node0x60000391d3e0 -->
<g id="node67" class="node">
<title>node0x60000391d3e0</title>
<ellipse fill="none" stroke="black" cx="1728.75" cy="-385.83" rx="94.51" ry="26.74"/>
<text text-anchor="middle" x="1728.75" y="-389.63" font-family="Times,serif" font-size="14.00">IDENTIFIER_DATA</text>
<text text-anchor="middle" x="1728.75" y="-374.63" font-family="Times,serif" font-size="14.00">y</text>
</g>
<!-- node0x60000391d440&#45;&#45;node0x60000391d3e0 -->
<g id="edge66" class="edge">
<title>node0x60000391d440&#45;&#45;node0x60000391d3e0</title>
<path fill="none" stroke="black" d="M1566.66,-455.21C1599.32,-441.43 1643.23,-422.9 1677.12,-408.61"/>
</g>
</g>
</svg>
