<?xml version="1.0" encoding="UTF-8" standalone="no"?>
<!DOCTYPE svg PUBLIC "-//W3C//DTD SVG 1.1//EN"
 "http://www.w3.org/Graphics/SVG/1.1/DTD/svg11.dtd">
<!-- Generated by graphviz version 7.1.0 (20230121.1956)
 -->
<!-- Pages: 1 -->
<svg width="3324pt" height="637pt"
 viewBox="0.00 0.00 3323.50 636.70" xmlns="http://www.w3.org/2000/svg" xmlns:xlink="http://www.w3.org/1999/xlink">
<g id="graph0" class="graph" transform="scale(1 1) rotate(0) translate(4 632.7)">
<polygon fill="white" stroke="none" points="-4,4 -4,-632.7 3319.5,-632.7 3319.5,4 -4,4"/>
<!-- node0x600001c255c0 -->
<g id="node1" class="node">
<title>node0x600001c255c0</title>
<ellipse fill="none" stroke="black" cx="1512.75" cy="-610.7" rx="69.59" ry="18"/>
<text text-anchor="middle" x="1512.75" y="-607" font-family="Times,serif" font-size="14.00">GLOBAL_LIST</text>
</g>
<!-- node0x600001c242d0 -->
<g id="node2" class="node">
<title>node0x600001c242d0</title>
<ellipse fill="none" stroke="black" cx="1010.75" cy="-538.7" rx="72.29" ry="18"/>
<text text-anchor="middle" x="1010.75" y="-535" font-family="Times,serif" font-size="14.00">DECLARATION</text>
</g>
<!-- node0x600001c255c0&#45;&#45;node0x600001c242d0 -->
<g id="edge1" class="edge">
<title>node0x600001c255c0&#45;&#45;node0x600001c242d0</title>
<path fill="none" stroke="black" d="M1452.7,-601.33C1356.67,-587.94 1169.5,-561.84 1072.45,-548.3"/>
</g>
<!-- node0x600001c24420 -->
<g id="node5" class="node">
<title>node0x600001c24420</title>
<ellipse fill="none" stroke="black" cx="1414.75" cy="-538.7" rx="107.48" ry="18"/>
<text text-anchor="middle" x="1414.75" y="-535" font-family="Times,serif" font-size="14.00">ARRAY_DECLARATION</text>
</g>
<!-- node0x600001c255c0&#45;&#45;node0x600001c24420 -->
<g id="edge4" class="edge">
<title>node0x600001c255c0&#45;&#45;node0x600001c24420</title>
<path fill="none" stroke="black" d="M1490.02,-593.47C1474.53,-582.4 1454.06,-567.78 1438.38,-556.58"/>
</g>
<!-- node0x600001c251d0 -->
<g id="node8" class="node">
<title>node0x600001c251d0</title>
<ellipse fill="none" stroke="black" cx="1710.75" cy="-538.7" rx="55.49" ry="18"/>
<text text-anchor="middle" x="1710.75" y="-535" font-family="Times,serif" font-size="14.00">FUNCTION</text>
</g>
<!-- node0x600001c255c0&#45;&#45;node0x600001c251d0 -->
<g id="edge7" class="edge">
<title>node0x600001c255c0&#45;&#45;node0x600001c251d0</title>
<path fill="none" stroke="black" d="M1552.82,-595.54C1588.3,-582.99 1639.66,-564.83 1674.08,-552.66"/>
</g>
<!-- node0x600001c25560 -->
<g id="node48" class="node">
<title>node0x600001c25560</title>
<ellipse fill="none" stroke="black" cx="2273.75" cy="-538.7" rx="55.49" ry="18"/>
<text text-anchor="middle" x="2273.75" y="-535" font-family="Times,serif" font-size="14.00">FUNCTION</text>
</g>
<!-- node0x600001c255c0&#45;&#45;node0x600001c25560 -->
<g id="edge47" class="edge">
<title>node0x600001c255c0&#45;&#45;node0x600001c25560</title>
<path fill="none" stroke="black" d="M1577.63,-603.73C1725.54,-590.13 2085.36,-557.03 2220.92,-544.56"/>
</g>
<!-- node0x600001c24210 -->
<g id="node3" class="node">
<title>node0x600001c24210</title>
<ellipse fill="none" stroke="black" cx="802.75" cy="-457.83" rx="94.51" ry="26.74"/>
<text text-anchor="middle" x="802.75" y="-461.63" font-family="Times,serif" font-size="14.00">IDENTIFIER_DATA</text>
<text text-anchor="middle" x="802.75" y="-446.63" font-family="Times,serif" font-size="14.00">a</text>
</g>
<!-- node0x600001c242d0&#45;&#45;node0x600001c24210 -->
<g id="edge2" class="edge">
<title>node0x600001c242d0&#45;&#45;node0x600001c24210</title>
<path fill="none" stroke="black" d="M972.12,-523.05C940.04,-510.89 894.02,-493.44 858.05,-479.8"/>
</g>
<!-- node0x600001c24270 -->
<g id="node4" class="node">
<title>node0x600001c24270</title>
<ellipse fill="none" stroke="black" cx="1010.75" cy="-457.83" rx="94.51" ry="26.74"/>
<text text-anchor="middle" x="1010.75" y="-461.63" font-family="Times,serif" font-size="14.00">IDENTIFIER_DATA</text>
<text text-anchor="middle" x="1010.75" y="-446.63" font-family="Times,serif" font-size="14.00">b</text>
</g>
<!-- node0x600001c242d0&#45;&#45;node0x600001c24270 -->
<g id="edge3" class="edge">
<title>node0x600001c242d0&#45;&#45;node0x600001c24270</title>
<path fill="none" stroke="black" d="M1010.75,-520.59C1010.75,-510.17 1010.75,-496.65 1010.75,-484.91"/>
</g>
<!-- node0x600001c24360 -->
<g id="node6" class="node">
<title>node0x600001c24360</title>
<ellipse fill="none" stroke="black" cx="1218.75" cy="-457.83" rx="94.51" ry="26.74"/>
<text text-anchor="middle" x="1218.75" y="-461.63" font-family="Times,serif" font-size="14.00">IDENTIFIER_DATA</text>
<text text-anchor="middle" x="1218.75" y="-446.63" font-family="Times,serif" font-size="14.00">arr</text>
</g>
<!-- node0x600001c24420&#45;&#45;node0x600001c24360 -->
<g id="edge5" class="edge">
<title>node0x600001c24420&#45;&#45;node0x600001c24360</title>
<path fill="none" stroke="black" d="M1374.62,-521.55C1344.94,-509.61 1304.23,-493.23 1271.85,-480.2"/>
</g>
<!-- node0x600001c24390 -->
<g id="node7" class="node">
<title>node0x600001c24390</title>
<ellipse fill="none" stroke="black" cx="1414.75" cy="-457.83" rx="83.38" ry="26.74"/>
<text text-anchor="middle" x="1414.75" y="-461.63" font-family="Times,serif" font-size="14.00">NUMBER_DATA</text>
<text text-anchor="middle" x="1414.75" y="-446.63" font-family="Times,serif" font-size="14.00">10</text>
</g>
<!-- node0x600001c24420&#45;&#45;node0x600001c24390 -->
<g id="edge6" class="edge">
<title>node0x600001c24420&#45;&#45;node0x600001c24390</title>
<path fill="none" stroke="black" d="M1414.75,-520.59C1414.75,-510.17 1414.75,-496.65 1414.75,-484.91"/>
</g>
<!-- node0x600001c244b0 -->
<g id="node9" class="node">
<title>node0x600001c244b0</title>
<ellipse fill="none" stroke="black" cx="1610.75" cy="-457.83" rx="94.51" ry="26.74"/>
<text text-anchor="middle" x="1610.75" y="-461.63" font-family="Times,serif" font-size="14.00">IDENTIFIER_DATA</text>
<text text-anchor="middle" x="1610.75" y="-446.63" font-family="Times,serif" font-size="14.00">main</text>
</g>
<!-- node0x600001c251d0&#45;&#45;node0x600001c244b0 -->
<g id="edge8" class="edge">
<title>node0x600001c251d0&#45;&#45;node0x600001c244b0</title>
<path fill="none" stroke="black" d="M1690.52,-521.74C1676.59,-510.76 1657.82,-495.95 1641.99,-483.47"/>
</g>
<!-- node0x600001c244e0 -->
<g id="node10" class="node">
<title>node0x600001c244e0</title>
<ellipse fill="none" stroke="black" cx="1810.75" cy="-457.83" rx="87.18" ry="18"/>
<text text-anchor="middle" x="1810.75" y="-454.13" font-family="Times,serif" font-size="14.00">PARAMETER_LIST</text>
</g>
<!-- node0x600001c251d0&#45;&#45;node0x600001c244e0 -->
<g id="edge9" class="edge">
<title>node0x600001c251d0&#45;&#45;node0x600001c244e0</title>
<path fill="none" stroke="black" d="M1730.99,-521.74C1748,-508.33 1772.23,-489.22 1789.51,-475.58"/>
</g>
<!-- node0x600001c25170 -->
<g id="node11" class="node">
<title>node0x600001c25170</title>
<ellipse fill="none" stroke="black" cx="1955.75" cy="-457.83" rx="40.09" ry="18"/>
<text text-anchor="middle" x="1955.75" y="-454.13" font-family="Times,serif" font-size="14.00">BLOCK</text>
</g>
<!-- node0x600001c251d0&#45;&#45;node0x600001c25170 -->
<g id="edge10" class="edge">
<title>node0x600001c251d0&#45;&#45;node0x600001c25170</title>
<path fill="none" stroke="black" d="M1756.83,-528.28C1797.15,-519.33 1856.89,-504.32 1906.75,-484.7 1915.26,-481.35 1924.2,-476.93 1932.08,-472.69"/>
</g>
<!-- node0x600001c247e0 -->
<g id="node12" class="node">
<title>node0x600001c247e0</title>
<ellipse fill="none" stroke="black" cx="1030.75" cy="-368.09" rx="94.78" ry="18"/>
<text text-anchor="middle" x="1030.75" y="-364.39" font-family="Times,serif" font-size="14.00">DECLARATION_LIST</text>
</g>
<!-- node0x600001c25170&#45;&#45;node0x600001c247e0 -->
<g id="edge11" class="edge">
<title>node0x600001c25170&#45;&#45;node0x600001c247e0</title>
<path fill="none" stroke="black" d="M1933.65,-442.66C1925.5,-438.13 1916,-433.6 1906.75,-430.96 1762.07,-389.65 1319.76,-375.26 1124.77,-370.84"/>
</g>
<!-- node0x600001c25140 -->
<g id="node21" class="node">
<title>node0x600001c25140</title>
<ellipse fill="none" stroke="black" cx="1955.75" cy="-368.09" rx="85.29" ry="18"/>
<text text-anchor="middle" x="1955.75" y="-364.39" font-family="Times,serif" font-size="14.00">STATEMENT_LIST</text>
</g>
<!-- node0x600001c25170&#45;&#45;node0x600001c25140 -->
<g id="edge20" class="edge">
<title>node0x600001c25170&#45;&#45;node0x600001c25140</title>
<path fill="none" stroke="black" d="M1955.75,-439.5C1955.75,-424.11 1955.75,-401.76 1955.75,-386.39"/>
</g>
<!-- node0x600001c24690 -->
<g id="node13" class="node">
<title>node0x600001c24690</title>
<ellipse fill="none" stroke="black" cx="510.75" cy="-287.22" rx="72.29" ry="18"/>
<text text-anchor="middle" x="510.75" y="-283.52" font-family="Times,serif" font-size="14.00">DECLARATION</text>
</g>
<!-- node0x600001c247e0&#45;&#45;node0x600001c24690 -->
<g id="edge12" class="edge">
<title>node0x600001c247e0&#45;&#45;node0x600001c24690</title>
<path fill="none" stroke="black" d="M958.45,-356.12C855.19,-340.46 667.37,-311.98 571.13,-297.38"/>
</g>
<!-- node0x600001c247b0 -->
<g id="node18" class="node">
<title>node0x600001c247b0</title>
<ellipse fill="none" stroke="black" cx="1030.75" cy="-287.22" rx="72.29" ry="18"/>
<text text-anchor="middle" x="1030.75" y="-283.52" font-family="Times,serif" font-size="14.00">DECLARATION</text>
</g>
<!-- node0x600001c247e0&#45;&#45;node0x600001c247b0 -->
<g id="edge17" class="edge">
<title>node0x600001c247e0&#45;&#45;node0x600001c247b0</title>
<path fill="none" stroke="black" d="M1030.75,-349.98C1030.75,-336.84 1030.75,-318.77 1030.75,-305.57"/>
</g>
<!-- node0x600001c24510 -->
<g id="node14" class="node">
<title>node0x600001c24510</title>
<ellipse fill="none" stroke="black" cx="94.75" cy="-206.35" rx="94.51" ry="26.74"/>
<text text-anchor="middle" x="94.75" y="-210.15" font-family="Times,serif" font-size="14.00">IDENTIFIER_DATA</text>
<text text-anchor="middle" x="94.75" y="-195.15" font-family="Times,serif" font-size="14.00">A</text>
</g>
<!-- node0x600001c24690&#45;&#45;node0x600001c24510 -->
<g id="edge13" class="edge">
<title>node0x600001c24690&#45;&#45;node0x600001c24510</title>
<path fill="none" stroke="black" d="M449.81,-277.26C386.73,-267.66 285.47,-251.35 198.75,-233.22 187.19,-230.8 174.96,-227.99 163.11,-225.13"/>
</g>
<!-- node0x600001c24570 -->
<g id="node15" class="node">
<title>node0x600001c24570</title>
<ellipse fill="none" stroke="black" cx="302.75" cy="-206.35" rx="94.51" ry="26.74"/>
<text text-anchor="middle" x="302.75" y="-210.15" font-family="Times,serif" font-size="14.00">IDENTIFIER_DATA</text>
<text text-anchor="middle" x="302.75" y="-195.15" font-family="Times,serif" font-size="14.00">B</text>
</g>
<!-- node0x600001c24690&#45;&#45;node0x600001c24570 -->
<g id="edge14" class="edge">
<title>node0x600001c24690&#45;&#45;node0x600001c24570</title>
<path fill="none" stroke="black" d="M472.12,-271.57C440.04,-259.41 394.02,-241.96 358.05,-228.32"/>
</g>
<!-- node0x600001c245d0 -->
<g id="node16" class="node">
<title>node0x600001c245d0</title>
<ellipse fill="none" stroke="black" cx="510.75" cy="-206.35" rx="94.51" ry="26.74"/>
<text text-anchor="middle" x="510.75" y="-210.15" font-family="Times,serif" font-size="14.00">IDENTIFIER_DATA</text>
<text text-anchor="middle" x="510.75" y="-195.15" font-family="Times,serif" font-size="14.00">C</text>
</g>
<!-- node0x600001c24690&#45;&#45;node0x600001c245d0 -->
<g id="edge15" class="edge">
<title>node0x600001c24690&#45;&#45;node0x600001c245d0</title>
<path fill="none" stroke="black" d="M510.75,-269.11C510.75,-258.69 510.75,-245.17 510.75,-233.43"/>
</g>
<!-- node0x600001c24630 -->
<g id="node17" class="node">
<title>node0x600001c24630</title>
<ellipse fill="none" stroke="black" cx="718.75" cy="-206.35" rx="94.51" ry="26.74"/>
<text text-anchor="middle" x="718.75" y="-210.15" font-family="Times,serif" font-size="14.00">IDENTIFIER_DATA</text>
<text text-anchor="middle" x="718.75" y="-195.15" font-family="Times,serif" font-size="14.00">D</text>
</g>
<!-- node0x600001c24690&#45;&#45;node0x600001c24630 -->
<g id="edge16" class="edge">
<title>node0x600001c24690&#45;&#45;node0x600001c24630</title>
<path fill="none" stroke="black" d="M549.39,-271.57C581.46,-259.41 627.48,-241.96 663.46,-228.32"/>
</g>
<!-- node0x600001c246f0 -->
<g id="node19" class="node">
<title>node0x600001c246f0</title>
<ellipse fill="none" stroke="black" cx="926.75" cy="-206.35" rx="94.51" ry="26.74"/>
<text text-anchor="middle" x="926.75" y="-210.15" font-family="Times,serif" font-size="14.00">IDENTIFIER_DATA</text>
<text text-anchor="middle" x="926.75" y="-195.15" font-family="Times,serif" font-size="14.00">X</text>
</g>
<!-- node0x600001c247b0&#45;&#45;node0x600001c246f0 -->
<g id="edge18" class="edge">
<title>node0x600001c247b0&#45;&#45;node0x600001c246f0</title>
<path fill="none" stroke="black" d="M1008.95,-269.69C994.42,-258.67 975.07,-243.99 958.79,-231.65"/>
</g>
<!-- node0x600001c24750 -->
<g id="node20" class="node">
<title>node0x600001c24750</title>
<ellipse fill="none" stroke="black" cx="1134.75" cy="-206.35" rx="94.51" ry="26.74"/>
<text text-anchor="middle" x="1134.75" y="-210.15" font-family="Times,serif" font-size="14.00">IDENTIFIER_DATA</text>
<text text-anchor="middle" x="1134.75" y="-195.15" font-family="Times,serif" font-size="14.00">Y</text>
</g>
<!-- node0x600001c247b0&#45;&#45;node0x600001c24750 -->
<g id="edge19" class="edge">
<title>node0x600001c247b0&#45;&#45;node0x600001c24750</title>
<path fill="none" stroke="black" d="M1052.55,-269.69C1067.09,-258.67 1086.44,-243.99 1102.71,-231.65"/>
</g>
<!-- node0x600001c24930 -->
<g id="node22" class="node">
<title>node0x600001c24930</title>
<ellipse fill="none" stroke="black" cx="1494.75" cy="-287.22" rx="92.08" ry="18"/>
<text text-anchor="middle" x="1494.75" y="-283.52" font-family="Times,serif" font-size="14.00">PRINT_STATEMENT</text>
</g>
<!-- node0x600001c25140&#45;&#45;node0x600001c24930 -->
<g id="edge21" class="edge">
<title>node0x600001c25140&#45;&#45;node0x600001c24930</title>
<path fill="none" stroke="black" d="M1891.17,-356.04C1804.31,-341.18 1650.6,-314.88 1562.27,-299.77"/>
</g>
<!-- node0x600001c24b70 -->
<g id="node25" class="node">
<title>node0x600001c24b70</title>
<ellipse fill="none" stroke="black" cx="1847.75" cy="-287.22" rx="124.28" ry="18"/>
<text text-anchor="middle" x="1847.75" y="-283.52" font-family="Times,serif" font-size="14.00">ASSIGNMENT_STATEMENT</text>
</g>
<!-- node0x600001c25140&#45;&#45;node0x600001c24b70 -->
<g id="edge24" class="edge">
<title>node0x600001c25140&#45;&#45;node0x600001c24b70</title>
<path fill="none" stroke="black" d="M1932.85,-350.36C1914.64,-337.07 1889.29,-318.55 1871,-305.19"/>
</g>
<!-- node0x600001c24e70 -->
<g id="node32" class="node">
<title>node0x600001c24e70</title>
<ellipse fill="none" stroke="black" cx="2064.75" cy="-287.22" rx="74.99" ry="18"/>
<text text-anchor="middle" x="2064.75" y="-283.52" font-family="Times,serif" font-size="14.00">IF_STATEMENT</text>
</g>
<!-- node0x600001c25140&#45;&#45;node0x600001c24e70 -->
<g id="edge31" class="edge">
<title>node0x600001c25140&#45;&#45;node0x600001c24e70</title>
<path fill="none" stroke="black" d="M1978.87,-350.36C1997.49,-336.89 2023.53,-318.05 2042.04,-304.65"/>
</g>
<!-- node0x600001c250e0 -->
<g id="node41" class="node">
<title>node0x600001c250e0</title>
<ellipse fill="none" stroke="black" cx="2488.75" cy="-287.22" rx="124.28" ry="18"/>
<text text-anchor="middle" x="2488.75" y="-283.52" font-family="Times,serif" font-size="14.00">ASSIGNMENT_STATEMENT</text>
</g>
<!-- node0x600001c25140&#45;&#45;node0x600001c250e0 -->
<g id="edge40" class="edge">
<title>node0x600001c25140&#45;&#45;node0x600001c250e0</title>
<path fill="none" stroke="black" d="M2023.15,-356.82C2054.62,-352.04 2092.6,-346.3 2126.75,-341.22 2221.3,-327.15 2329.8,-311.3 2403.16,-300.63"/>
</g>
<!-- node0x600001c24810 -->
<g id="node23" class="node">
<title>node0x600001c24810</title>
<ellipse fill="none" stroke="black" cx="1323.75" cy="-206.35" rx="76.24" ry="26.74"/>
<text text-anchor="middle" x="1323.75" y="-210.15" font-family="Times,serif" font-size="14.00">STRING_DATA</text>
<text text-anchor="middle" x="1323.75" y="-195.15" font-family="Times,serif" font-size="14.00">&quot;Hello&quot;</text>
</g>
<!-- node0x600001c24930&#45;&#45;node0x600001c24810 -->
<g id="edge22" class="edge">
<title>node0x600001c24930&#45;&#45;node0x600001c24810</title>
<path fill="none" stroke="black" d="M1460.15,-270.26C1433.9,-258.15 1397.58,-241.4 1369.02,-228.23"/>
</g>
<!-- node0x600001c248a0 -->
<g id="node24" class="node">
<title>node0x600001c248a0</title>
<ellipse fill="none" stroke="black" cx="1494.75" cy="-206.35" rx="76.24" ry="26.74"/>
<text text-anchor="middle" x="1494.75" y="-210.15" font-family="Times,serif" font-size="14.00">STRING_DATA</text>
<text text-anchor="middle" x="1494.75" y="-195.15" font-family="Times,serif" font-size="14.00">&quot;World&quot;</text>
</g>
<!-- node0x600001c24930&#45;&#45;node0x600001c248a0 -->
<g id="edge23" class="edge">
<title>node0x600001c24930&#45;&#45;node0x600001c248a0</title>
<path fill="none" stroke="black" d="M1494.75,-269.11C1494.75,-258.69 1494.75,-245.17 1494.75,-233.43"/>
</g>
<!-- node0x600001c249c0 -->
<g id="node26" class="node">
<title>node0x600001c249c0</title>
<ellipse fill="none" stroke="black" cx="1683.75" cy="-206.35" rx="94.51" ry="26.74"/>
<text text-anchor="middle" x="1683.75" y="-210.15" font-family="Times,serif" font-size="14.00">IDENTIFIER_DATA</text>
<text text-anchor="middle" x="1683.75" y="-195.15" font-family="Times,serif" font-size="14.00">A</text>
</g>
<!-- node0x600001c24b70&#45;&#45;node0x600001c249c0 -->
<g id="edge25" class="edge">
<title>node0x600001c24b70&#45;&#45;node0x600001c249c0</title>
<path fill="none" stroke="black" d="M1812.97,-269.49C1789,-257.96 1756.85,-242.5 1730.62,-229.89"/>
</g>
<!-- node0x600001c24b40 -->
<g id="node27" class="node">
<title>node0x600001c24b40</title>
<ellipse fill="none" stroke="black" cx="1865.75" cy="-206.35" rx="69.09" ry="26.74"/>
<text text-anchor="middle" x="1865.75" y="-210.15" font-family="Times,serif" font-size="14.00">EXPRESSION</text>
<text text-anchor="middle" x="1865.75" y="-195.15" font-family="Times,serif" font-size="14.00">+</text>
</g>
<!-- node0x600001c24b70&#45;&#45;node0x600001c24b40 -->
<g id="edge26" class="edge">
<title>node0x600001c24b70&#45;&#45;node0x600001c24b40</title>
<path fill="none" stroke="black" d="M1851.66,-269.11C1854.04,-258.69 1857.12,-245.17 1859.8,-233.43"/>
</g>
<!-- node0x600001c24ab0 -->
<g id="node28" class="node">
<title>node0x600001c24ab0</title>
<ellipse fill="none" stroke="black" cx="1448.75" cy="-116.61" rx="69.09" ry="26.74"/>
<text text-anchor="middle" x="1448.75" y="-120.41" font-family="Times,serif" font-size="14.00">EXPRESSION</text>
<text text-anchor="middle" x="1448.75" y="-105.41" font-family="Times,serif" font-size="14.00">+</text>
</g>
<!-- node0x600001c24b40&#45;&#45;node0x600001c24ab0 -->
<g id="edge27" class="edge">
<title>node0x600001c24b40&#45;&#45;node0x600001c24ab0</title>
<path fill="none" stroke="black" d="M1816.21,-187.41C1806.84,-184.45 1797.06,-181.65 1787.75,-179.48 1673.7,-152.94 1640.8,-170.02 1526.75,-143.48 1517.44,-141.31 1507.66,-138.51 1498.3,-135.55"/>
</g>
<!-- node0x600001c24ae0 -->
<g id="node31" class="node">
<title>node0x600001c24ae0</title>
<ellipse fill="none" stroke="black" cx="1630.75" cy="-116.61" rx="94.51" ry="26.74"/>
<text text-anchor="middle" x="1630.75" y="-120.41" font-family="Times,serif" font-size="14.00">IDENTIFIER_DATA</text>
<text text-anchor="middle" x="1630.75" y="-105.41" font-family="Times,serif" font-size="14.00">D</text>
</g>
<!-- node0x600001c24b40&#45;&#45;node0x600001c24ae0 -->
<g id="edge30" class="edge">
<title>node0x600001c24b40&#45;&#45;node0x600001c24ae0</title>
<path fill="none" stroke="black" d="M1816.77,-187.06C1778.84,-172.9 1726.26,-153.27 1686.68,-138.49"/>
</g>
<!-- node0x600001c249f0 -->
<g id="node29" class="node">
<title>node0x600001c249f0</title>
<ellipse fill="none" stroke="black" cx="1344.75" cy="-26.87" rx="94.51" ry="26.74"/>
<text text-anchor="middle" x="1344.75" y="-30.67" font-family="Times,serif" font-size="14.00">IDENTIFIER_DATA</text>
<text text-anchor="middle" x="1344.75" y="-15.67" font-family="Times,serif" font-size="14.00">B</text>
</g>
<!-- node0x600001c24ab0&#45;&#45;node0x600001c249f0 -->
<g id="edge28" class="edge">
<title>node0x600001c24ab0&#45;&#45;node0x600001c249f0</title>
<path fill="none" stroke="black" d="M1420.61,-91.87C1406.17,-79.69 1388.6,-64.86 1374.01,-52.55"/>
</g>
<!-- node0x600001c24a50 -->
<g id="node30" class="node">
<title>node0x600001c24a50</title>
<ellipse fill="none" stroke="black" cx="1552.75" cy="-26.87" rx="94.51" ry="26.74"/>
<text text-anchor="middle" x="1552.75" y="-30.67" font-family="Times,serif" font-size="14.00">IDENTIFIER_DATA</text>
<text text-anchor="middle" x="1552.75" y="-15.67" font-family="Times,serif" font-size="14.00">C</text>
</g>
<!-- node0x600001c24ab0&#45;&#45;node0x600001c24a50 -->
<g id="edge29" class="edge">
<title>node0x600001c24ab0&#45;&#45;node0x600001c24a50</title>
<path fill="none" stroke="black" d="M1476.9,-91.87C1491.33,-79.69 1508.9,-64.86 1523.5,-52.55"/>
</g>
<!-- node0x600001c24cc0 -->
<g id="node33" class="node">
<title>node0x600001c24cc0</title>
<ellipse fill="none" stroke="black" cx="2046.75" cy="-206.35" rx="58.88" ry="26.74"/>
<text text-anchor="middle" x="2046.75" y="-210.15" font-family="Times,serif" font-size="14.00">RELATION</text>
<text text-anchor="middle" x="2046.75" y="-195.15" font-family="Times,serif" font-size="14.00">&lt;</text>
</g>
<!-- node0x600001c24e70&#45;&#45;node0x600001c24cc0 -->
<g id="edge32" class="edge">
<title>node0x600001c24e70&#45;&#45;node0x600001c24cc0</title>
<path fill="none" stroke="black" d="M2060.85,-269.11C2058.47,-258.69 2055.38,-245.17 2052.71,-233.43"/>
</g>
<!-- node0x600001c24e10 -->
<g id="node36" class="node">
<title>node0x600001c24e10</title>
<ellipse fill="none" stroke="black" cx="2251.75" cy="-206.35" rx="124.28" ry="18"/>
<text text-anchor="middle" x="2251.75" y="-202.65" font-family="Times,serif" font-size="14.00">ASSIGNMENT_STATEMENT</text>
</g>
<!-- node0x600001c24e70&#45;&#45;node0x600001c24e10 -->
<g id="edge35" class="edge">
<title>node0x600001c24e70&#45;&#45;node0x600001c24e10</title>
<path fill="none" stroke="black" d="M2100.81,-271.01C2132.86,-257.49 2179.62,-237.77 2212.58,-223.87"/>
</g>
<!-- node0x600001c24c00 -->
<g id="node34" class="node">
<title>node0x600001c24c00</title>
<ellipse fill="none" stroke="black" cx="1838.75" cy="-116.61" rx="94.51" ry="26.74"/>
<text text-anchor="middle" x="1838.75" y="-120.41" font-family="Times,serif" font-size="14.00">IDENTIFIER_DATA</text>
<text text-anchor="middle" x="1838.75" y="-105.41" font-family="Times,serif" font-size="14.00">A</text>
</g>
<!-- node0x600001c24cc0&#45;&#45;node0x600001c24c00 -->
<g id="edge33" class="edge">
<title>node0x600001c24cc0&#45;&#45;node0x600001c24c00</title>
<path fill="none" stroke="black" d="M2004.16,-187.38C1971.24,-173.5 1925.52,-154.21 1890.49,-139.44"/>
</g>
<!-- node0x600001c24c60 -->
<g id="node35" class="node">
<title>node0x600001c24c60</title>
<ellipse fill="none" stroke="black" cx="2046.75" cy="-116.61" rx="94.51" ry="26.74"/>
<text text-anchor="middle" x="2046.75" y="-120.41" font-family="Times,serif" font-size="14.00">IDENTIFIER_DATA</text>
<text text-anchor="middle" x="2046.75" y="-105.41" font-family="Times,serif" font-size="14.00">B</text>
</g>
<!-- node0x600001c24cc0&#45;&#45;node0x600001c24c60 -->
<g id="edge34" class="edge">
<title>node0x600001c24cc0&#45;&#45;node0x600001c24c60</title>
<path fill="none" stroke="black" d="M2046.75,-179.5C2046.75,-168.18 2046.75,-154.92 2046.75,-143.58"/>
</g>
<!-- node0x600001c24cf0 -->
<g id="node37" class="node">
<title>node0x600001c24cf0</title>
<ellipse fill="none" stroke="black" cx="2254.75" cy="-116.61" rx="94.51" ry="26.74"/>
<text text-anchor="middle" x="2254.75" y="-120.41" font-family="Times,serif" font-size="14.00">IDENTIFIER_DATA</text>
<text text-anchor="middle" x="2254.75" y="-105.41" font-family="Times,serif" font-size="14.00">A</text>
</g>
<!-- node0x600001c24e10&#45;&#45;node0x600001c24cf0 -->
<g id="edge36" class="edge">
<title>node0x600001c24e10&#45;&#45;node0x600001c24cf0</title>
<path fill="none" stroke="black" d="M2252.35,-188.02C2252.78,-175.33 2253.37,-157.9 2253.86,-143.56"/>
</g>
<!-- node0x600001c24de0 -->
<g id="node38" class="node">
<title>node0x600001c24de0</title>
<ellipse fill="none" stroke="black" cx="2436.75" cy="-116.61" rx="69.09" ry="26.74"/>
<text text-anchor="middle" x="2436.75" y="-120.41" font-family="Times,serif" font-size="14.00">EXPRESSION</text>
<text text-anchor="middle" x="2436.75" y="-105.41" font-family="Times,serif" font-size="14.00">+</text>
</g>
<!-- node0x600001c24e10&#45;&#45;node0x600001c24de0 -->
<g id="edge37" class="edge">
<title>node0x600001c24e10&#45;&#45;node0x600001c24de0</title>
<path fill="none" stroke="black" d="M2286.98,-188.64C2317.39,-174.22 2361.4,-153.35 2393.85,-137.96"/>
</g>
<!-- node0x600001c24d20 -->
<g id="node39" class="node">
<title>node0x600001c24d20</title>
<ellipse fill="none" stroke="black" cx="2286.75" cy="-26.87" rx="94.51" ry="26.74"/>
<text text-anchor="middle" x="2286.75" y="-30.67" font-family="Times,serif" font-size="14.00">IDENTIFIER_DATA</text>
<text text-anchor="middle" x="2286.75" y="-15.67" font-family="Times,serif" font-size="14.00">A</text>
</g>
<!-- node0x600001c24de0&#45;&#45;node0x600001c24d20 -->
<g id="edge38" class="edge">
<title>node0x600001c24de0&#45;&#45;node0x600001c24d20</title>
<path fill="none" stroke="black" d="M2399.29,-93.7C2377.33,-80.85 2349.6,-64.63 2327.16,-51.5"/>
</g>
<!-- node0x600001c24d80 -->
<g id="node40" class="node">
<title>node0x600001c24d80</title>
<ellipse fill="none" stroke="black" cx="2482.75" cy="-26.87" rx="83.38" ry="26.74"/>
<text text-anchor="middle" x="2482.75" y="-30.67" font-family="Times,serif" font-size="14.00">NUMBER_DATA</text>
<text text-anchor="middle" x="2482.75" y="-15.67" font-family="Times,serif" font-size="14.00">1</text>
</g>
<!-- node0x600001c24de0&#45;&#45;node0x600001c24d80 -->
<g id="edge39" class="edge">
<title>node0x600001c24de0&#45;&#45;node0x600001c24d80</title>
<path fill="none" stroke="black" d="M2450.06,-90.23C2456.11,-78.69 2463.25,-65.06 2469.32,-53.5"/>
</g>
<!-- node0x600001c24f00 -->
<g id="node42" class="node">
<title>node0x600001c24f00</title>
<ellipse fill="none" stroke="black" cx="2488.75" cy="-206.35" rx="94.51" ry="26.74"/>
<text text-anchor="middle" x="2488.75" y="-210.15" font-family="Times,serif" font-size="14.00">IDENTIFIER_DATA</text>
<text text-anchor="middle" x="2488.75" y="-195.15" font-family="Times,serif" font-size="14.00">A</text>
</g>
<!-- node0x600001c250e0&#45;&#45;node0x600001c24f00 -->
<g id="edge41" class="edge">
<title>node0x600001c250e0&#45;&#45;node0x600001c24f00</title>
<path fill="none" stroke="black" d="M2488.75,-269.11C2488.75,-258.69 2488.75,-245.17 2488.75,-233.43"/>
</g>
<!-- node0x600001c250b0 -->
<g id="node43" class="node">
<title>node0x600001c250b0</title>
<ellipse fill="none" stroke="black" cx="2670.75" cy="-206.35" rx="69.09" ry="26.74"/>
<text text-anchor="middle" x="2670.75" y="-210.15" font-family="Times,serif" font-size="14.00">EXPRESSION</text>
<text text-anchor="middle" x="2670.75" y="-195.15" font-family="Times,serif" font-size="14.00">call</text>
</g>
<!-- node0x600001c250e0&#45;&#45;node0x600001c250b0 -->
<g id="edge42" class="edge">
<title>node0x600001c250e0&#45;&#45;node0x600001c250b0</title>
<path fill="none" stroke="black" d="M2526.91,-269.69C2555.67,-257.22 2595.23,-240.08 2625.58,-226.93"/>
</g>
<!-- node0x600001c24f30 -->
<g id="node44" class="node">
<title>node0x600001c24f30</title>
<ellipse fill="none" stroke="black" cx="2618.75" cy="-116.61" rx="94.51" ry="26.74"/>
<text text-anchor="middle" x="2618.75" y="-120.41" font-family="Times,serif" font-size="14.00">IDENTIFIER_DATA</text>
<text text-anchor="middle" x="2618.75" y="-105.41" font-family="Times,serif" font-size="14.00">another</text>
</g>
<!-- node0x600001c250b0&#45;&#45;node0x600001c24f30 -->
<g id="edge43" class="edge">
<title>node0x600001c250b0&#45;&#45;node0x600001c24f30</title>
<path fill="none" stroke="black" d="M2655.71,-179.97C2648.87,-168.43 2640.8,-154.8 2633.94,-143.24"/>
</g>
<!-- node0x600001c25080 -->
<g id="node45" class="node">
<title>node0x600001c25080</title>
<ellipse fill="none" stroke="black" cx="2815.75" cy="-116.61" rx="83.69" ry="18"/>
<text text-anchor="middle" x="2815.75" y="-112.91" font-family="Times,serif" font-size="14.00">ARGUMENT_LIST</text>
</g>
<!-- node0x600001c250b0&#45;&#45;node0x600001c25080 -->
<g id="edge44" class="edge">
<title>node0x600001c250b0&#45;&#45;node0x600001c25080</title>
<path fill="none" stroke="black" d="M2707.34,-183.21C2732.68,-167.88 2765.84,-147.81 2788.79,-133.93"/>
</g>
<!-- node0x600001c24f60 -->
<g id="node46" class="node">
<title>node0x600001c24f60</title>
<ellipse fill="none" stroke="black" cx="2769.75" cy="-26.87" rx="94.51" ry="26.74"/>
<text text-anchor="middle" x="2769.75" y="-30.67" font-family="Times,serif" font-size="14.00">IDENTIFIER_DATA</text>
<text text-anchor="middle" x="2769.75" y="-15.67" font-family="Times,serif" font-size="14.00">A</text>
</g>
<!-- node0x600001c25080&#45;&#45;node0x600001c24f60 -->
<g id="edge45" class="edge">
<title>node0x600001c25080&#45;&#45;node0x600001c24f60</title>
<path fill="none" stroke="black" d="M2806.66,-98.28C2800.01,-85.59 2790.88,-68.16 2783.36,-53.82"/>
</g>
<!-- node0x600001c24ff0 -->
<g id="node47" class="node">
<title>node0x600001c24ff0</title>
<ellipse fill="none" stroke="black" cx="2977.75" cy="-26.87" rx="94.51" ry="26.74"/>
<text text-anchor="middle" x="2977.75" y="-30.67" font-family="Times,serif" font-size="14.00">IDENTIFIER_DATA</text>
<text text-anchor="middle" x="2977.75" y="-15.67" font-family="Times,serif" font-size="14.00">B</text>
</g>
<!-- node0x600001c25080&#45;&#45;node0x600001c24ff0 -->
<g id="edge46" class="edge">
<title>node0x600001c25080&#45;&#45;node0x600001c24ff0</title>
<path fill="none" stroke="black" d="M2845.47,-99.52C2870.49,-85.96 2906.62,-66.4 2934.8,-51.13"/>
</g>
<!-- node0x600001c25260 -->
<g id="node49" class="node">
<title>node0x600001c25260</title>
<ellipse fill="none" stroke="black" cx="2173.75" cy="-457.83" rx="94.51" ry="26.74"/>
<text text-anchor="middle" x="2173.75" y="-461.63" font-family="Times,serif" font-size="14.00">IDENTIFIER_DATA</text>
<text text-anchor="middle" x="2173.75" y="-446.63" font-family="Times,serif" font-size="14.00">another</text>
</g>
<!-- node0x600001c25560&#45;&#45;node0x600001c25260 -->
<g id="edge48" class="edge">
<title>node0x600001c25560&#45;&#45;node0x600001c25260</title>
<path fill="none" stroke="black" d="M2253.52,-521.74C2239.59,-510.76 2220.82,-495.95 2204.99,-483.47"/>
</g>
<!-- node0x600001c25350 -->
<g id="node50" class="node">
<title>node0x600001c25350</title>
<ellipse fill="none" stroke="black" cx="2373.75" cy="-457.83" rx="87.18" ry="18"/>
<text text-anchor="middle" x="2373.75" y="-454.13" font-family="Times,serif" font-size="14.00">PARAMETER_LIST</text>
</g>
<!-- node0x600001c25560&#45;&#45;node0x600001c25350 -->
<g id="edge49" class="edge">
<title>node0x600001c25560&#45;&#45;node0x600001c25350</title>
<path fill="none" stroke="black" d="M2293.99,-521.74C2311,-508.33 2335.23,-489.22 2352.51,-475.58"/>
</g>
<!-- node0x600001c25500 -->
<g id="node53" class="node">
<title>node0x600001c25500</title>
<ellipse fill="none" stroke="black" cx="2633.75" cy="-457.83" rx="40.09" ry="18"/>
<text text-anchor="middle" x="2633.75" y="-454.13" font-family="Times,serif" font-size="14.00">BLOCK</text>
</g>
<!-- node0x600001c25560&#45;&#45;node0x600001c25500 -->
<g id="edge52" class="edge">
<title>node0x600001c25560&#45;&#45;node0x600001c25500</title>
<path fill="none" stroke="black" d="M2318.62,-527.87C2391,-512.01 2532.07,-481.11 2598.08,-466.64"/>
</g>
<!-- node0x600001c25290 -->
<g id="node51" class="node">
<title>node0x600001c25290</title>
<ellipse fill="none" stroke="black" cx="2230.75" cy="-368.09" rx="94.51" ry="26.74"/>
<text text-anchor="middle" x="2230.75" y="-371.89" font-family="Times,serif" font-size="14.00">IDENTIFIER_DATA</text>
<text text-anchor="middle" x="2230.75" y="-356.89" font-family="Times,serif" font-size="14.00">x</text>
</g>
<!-- node0x600001c25350&#45;&#45;node0x600001c25290 -->
<g id="edge50" class="edge">
<title>node0x600001c25350&#45;&#45;node0x600001c25290</title>
<path fill="none" stroke="black" d="M2346.86,-440.33C2325.01,-426.92 2293.92,-407.85 2269.41,-392.81"/>
</g>
<!-- node0x600001c252f0 -->
<g id="node52" class="node">
<title>node0x600001c252f0</title>
<ellipse fill="none" stroke="black" cx="2438.75" cy="-368.09" rx="94.51" ry="26.74"/>
<text text-anchor="middle" x="2438.75" y="-371.89" font-family="Times,serif" font-size="14.00">IDENTIFIER_DATA</text>
<text text-anchor="middle" x="2438.75" y="-356.89" font-family="Times,serif" font-size="14.00">y</text>
</g>
<!-- node0x600001c25350&#45;&#45;node0x600001c252f0 -->
<g id="edge51" class="edge">
<title>node0x600001c25350&#45;&#45;node0x600001c252f0</title>
<path fill="none" stroke="black" d="M2386.28,-439.91C2395.8,-427.07 2409.05,-409.18 2419.85,-394.6"/>
</g>
<!-- node0x600001c254d0 -->
<g id="node54" class="node">
<title>node0x600001c254d0</title>
<ellipse fill="none" stroke="black" cx="2748.75" cy="-368.09" rx="85.29" ry="18"/>
<text text-anchor="middle" x="2748.75" y="-364.39" font-family="Times,serif" font-size="14.00">STATEMENT_LIST</text>
</g>
<!-- node0x600001c25500&#45;&#45;node0x600001c254d0 -->
<g id="edge53" class="edge">
<title>node0x600001c25500&#45;&#45;node0x600001c254d0</title>
<path fill="none" stroke="black" d="M2653.52,-441.75C2673.94,-426.17 2705.73,-401.91 2726.89,-385.77"/>
</g>
<!-- node0x600001c25470 -->
<g id="node55" class="node">
<title>node0x600001c25470</title>
<ellipse fill="none" stroke="black" cx="2870.75" cy="-287.22" rx="102.08" ry="18"/>
<text text-anchor="middle" x="2870.75" y="-283.52" font-family="Times,serif" font-size="14.00">RETURN_STATEMENT</text>
</g>
<!-- node0x600001c254d0&#45;&#45;node0x600001c25470 -->
<g id="edge54" class="edge">
<title>node0x600001c254d0&#45;&#45;node0x600001c25470</title>
<path fill="none" stroke="black" d="M2774.33,-350.56C2795.01,-337.19 2824.01,-318.44 2844.79,-305"/>
</g>
<!-- node0x600001c25440 -->
<g id="node56" class="node">
<title>node0x600001c25440</title>
<ellipse fill="none" stroke="black" cx="3012.75" cy="-206.35" rx="69.09" ry="26.74"/>
<text text-anchor="middle" x="3012.75" y="-210.15" font-family="Times,serif" font-size="14.00">EXPRESSION</text>
<text text-anchor="middle" x="3012.75" y="-195.15" font-family="Times,serif" font-size="14.00">+</text>
</g>
<!-- node0x600001c25470&#45;&#45;node0x600001c25440 -->
<g id="edge55" class="edge">
<title>node0x600001c25470&#45;&#45;node0x600001c25440</title>
<path fill="none" stroke="black" d="M2900.52,-269.69C2921.91,-257.81 2950.94,-241.68 2974.11,-228.81"/>
</g>
<!-- node0x600001c25380 -->
<g id="node57" class="node">
<title>node0x600001c25380</title>
<ellipse fill="none" stroke="black" cx="3012.75" cy="-116.61" rx="94.51" ry="26.74"/>
<text text-anchor="middle" x="3012.75" y="-120.41" font-family="Times,serif" font-size="14.00">IDENTIFIER_DATA</text>
<text text-anchor="middle" x="3012.75" y="-105.41" font-family="Times,serif" font-size="14.00">x</text>
</g>
<!-- node0x600001c25440&#45;&#45;node0x600001c25380 -->
<g id="edge56" class="edge">
<title>node0x600001c25440&#45;&#45;node0x600001c25380</title>
<path fill="none" stroke="black" d="M3012.75,-179.5C3012.75,-168.18 3012.75,-154.92 3012.75,-143.58"/>
</g>
<!-- node0x600001c253e0 -->
<g id="node58" class="node">
<title>node0x600001c253e0</title>
<ellipse fill="none" stroke="black" cx="3220.75" cy="-116.61" rx="94.51" ry="26.74"/>
<text text-anchor="middle" x="3220.75" y="-120.41" font-family="Times,serif" font-size="14.00">IDENTIFIER_DATA</text>
<text text-anchor="middle" x="3220.75" y="-105.41" font-family="Times,serif" font-size="14.00">y</text>
</g>
<!-- node0x600001c25440&#45;&#45;node0x600001c253e0 -->
<g id="edge57" class="edge">
<title>node0x600001c25440&#45;&#45;node0x600001c253e0</title>
<path fill="none" stroke="black" d="M3058.66,-185.99C3091.32,-172.21 3135.23,-153.68 3169.12,-139.39"/>
</g>
</g>
</svg>
