<?xml version="1.0" encoding="UTF-8" standalone="no"?>
<!DOCTYPE svg PUBLIC "-//W3C//DTD SVG 1.1//EN"
 "http://www.w3.org/Graphics/SVG/1.1/DTD/svg11.dtd">
<!-- Generated by graphviz version 7.1.0 (20230121.1956)
 -->
<!-- Pages: 1 -->
<svg width="1836pt" height="1068pt"
 viewBox="0.00 0.00 1835.50 1067.66" xmlns="http://www.w3.org/2000/svg" xmlns:xlink="http://www.w3.org/1999/xlink">
<g id="graph0" class="graph" transform="scale(1 1) rotate(0) translate(4 1063.66)">
<polygon fill="white" stroke="none" points="-4,4 -4,-1063.66 1831.5,-1063.66 1831.5,4 -4,4"/>
<!-- node0x6000013955c0 -->
<g id="node1" class="node">
<title>node0x6000013955c0</title>
<ellipse fill="none" stroke="black" cx="808.75" cy="-1041.66" rx="69.59" ry="18"/>
<text text-anchor="middle" x="808.75" y="-1037.96" font-family="Times,serif" font-size="14.00">GLOBAL_LIST</text>
</g>
<!-- node0x600001395230 -->
<g id="node2" class="node">
<title>node0x600001395230</title>
<ellipse fill="none" stroke="black" cx="724.75" cy="-969.66" rx="69.59" ry="18"/>
<text text-anchor="middle" x="724.75" y="-965.96" font-family="Times,serif" font-size="14.00">GLOBAL_LIST</text>
</g>
<!-- node0x6000013955c0&#45;&#45;node0x600001395230 -->
<g id="edge1" class="edge">
<title>node0x6000013955c0&#45;&#45;node0x600001395230</title>
<path fill="none" stroke="black" d="M788.85,-1024.07C775.55,-1012.99 758.13,-998.48 744.81,-987.37"/>
</g>
<!-- node0x600001395560 -->
<g id="node56" class="node">
<title>node0x600001395560</title>
<ellipse fill="none" stroke="black" cx="1082.75" cy="-969.66" rx="55.49" ry="18"/>
<text text-anchor="middle" x="1082.75" y="-965.96" font-family="Times,serif" font-size="14.00">FUNCTION</text>
</g>
<!-- node0x6000013955c0&#45;&#45;node0x600001395560 -->
<g id="edge55" class="edge">
<title>node0x6000013955c0&#45;&#45;node0x600001395560</title>
<path fill="none" stroke="black" d="M857.11,-1028.31C909.04,-1015.04 990.74,-994.17 1040.28,-981.51"/>
</g>
<!-- node0x600001394480 -->
<g id="node3" class="node">
<title>node0x600001394480</title>
<ellipse fill="none" stroke="black" cx="303.75" cy="-888.79" rx="69.59" ry="18"/>
<text text-anchor="middle" x="303.75" y="-885.09" font-family="Times,serif" font-size="14.00">GLOBAL_LIST</text>
</g>
<!-- node0x600001395230&#45;&#45;node0x600001394480 -->
<g id="edge2" class="edge">
<title>node0x600001395230&#45;&#45;node0x600001394480</title>
<path fill="none" stroke="black" d="M669.71,-958.35C589.03,-943.23 439.5,-915.22 358.8,-900.1"/>
</g>
<!-- node0x6000013951d0 -->
<g id="node11" class="node">
<title>node0x6000013951d0</title>
<ellipse fill="none" stroke="black" cx="724.75" cy="-888.79" rx="55.49" ry="18"/>
<text text-anchor="middle" x="724.75" y="-885.09" font-family="Times,serif" font-size="14.00">FUNCTION</text>
</g>
<!-- node0x600001395230&#45;&#45;node0x6000013951d0 -->
<g id="edge10" class="edge">
<title>node0x600001395230&#45;&#45;node0x6000013951d0</title>
<path fill="none" stroke="black" d="M724.75,-951.55C724.75,-938.41 724.75,-920.34 724.75,-907.14"/>
</g>
<!-- node0x600001394330 -->
<g id="node4" class="node">
<title>node0x600001394330</title>
<ellipse fill="none" stroke="black" cx="105.75" cy="-799.05" rx="69.59" ry="18"/>
<text text-anchor="middle" x="105.75" y="-795.35" font-family="Times,serif" font-size="14.00">GLOBAL_LIST</text>
</g>
<!-- node0x600001394480&#45;&#45;node0x600001394330 -->
<g id="edge3" class="edge">
<title>node0x600001394480&#45;&#45;node0x600001394330</title>
<path fill="none" stroke="black" d="M269.71,-872.71C233.34,-856.59 176.01,-831.18 139.68,-815.08"/>
</g>
<!-- node0x600001394420 -->
<g id="node7" class="node">
<title>node0x600001394420</title>
<ellipse fill="none" stroke="black" cx="303.75" cy="-799.05" rx="107.48" ry="18"/>
<text text-anchor="middle" x="303.75" y="-795.35" font-family="Times,serif" font-size="14.00">ARRAY_DECLARATION</text>
</g>
<!-- node0x600001394480&#45;&#45;node0x600001394420 -->
<g id="edge6" class="edge">
<title>node0x600001394480&#45;&#45;node0x600001394420</title>
<path fill="none" stroke="black" d="M303.75,-870.46C303.75,-855.07 303.75,-832.72 303.75,-817.35"/>
</g>
<!-- node0x6000013942a0 -->
<g id="node5" class="node">
<title>node0x6000013942a0</title>
<ellipse fill="none" stroke="black" cx="99.75" cy="-718.18" rx="77.19" ry="18"/>
<text text-anchor="middle" x="99.75" y="-714.48" font-family="Times,serif" font-size="14.00">VARIABLE_LIST</text>
</g>
<!-- node0x600001394330&#45;&#45;node0x6000013942a0 -->
<g id="edge4" class="edge">
<title>node0x600001394330&#45;&#45;node0x6000013942a0</title>
<path fill="none" stroke="black" d="M104.45,-780.94C103.45,-767.8 102.08,-749.73 101.07,-736.53"/>
</g>
<!-- node0x600001394270 -->
<g id="node6" class="node">
<title>node0x600001394270</title>
<ellipse fill="none" stroke="black" cx="94.75" cy="-637.31" rx="94.51" ry="26.74"/>
<text text-anchor="middle" x="94.75" y="-641.11" font-family="Times,serif" font-size="14.00">IDENTIFIER_DATA</text>
<text text-anchor="middle" x="94.75" y="-626.11" font-family="Times,serif" font-size="14.00">b</text>
</g>
<!-- node0x6000013942a0&#45;&#45;node0x600001394270 -->
<g id="edge5" class="edge">
<title>node0x6000013942a0&#45;&#45;node0x600001394270</title>
<path fill="none" stroke="black" d="M98.67,-700.07C98.01,-689.65 97.15,-676.13 96.41,-664.39"/>
</g>
<!-- node0x6000013943f0 -->
<g id="node8" class="node">
<title>node0x6000013943f0</title>
<ellipse fill="none" stroke="black" cx="303.75" cy="-718.18" rx="89.08" ry="18"/>
<text text-anchor="middle" x="303.75" y="-714.48" font-family="Times,serif" font-size="14.00">ARRAY_INDEXING</text>
</g>
<!-- node0x600001394420&#45;&#45;node0x6000013943f0 -->
<g id="edge7" class="edge">
<title>node0x600001394420&#45;&#45;node0x6000013943f0</title>
<path fill="none" stroke="black" d="M303.75,-780.94C303.75,-767.8 303.75,-749.73 303.75,-736.53"/>
</g>
<!-- node0x600001394360 -->
<g id="node9" class="node">
<title>node0x600001394360</title>
<ellipse fill="none" stroke="black" cx="302.75" cy="-637.31" rx="94.51" ry="26.74"/>
<text text-anchor="middle" x="302.75" y="-641.11" font-family="Times,serif" font-size="14.00">IDENTIFIER_DATA</text>
<text text-anchor="middle" x="302.75" y="-626.11" font-family="Times,serif" font-size="14.00">arr</text>
</g>
<!-- node0x6000013943f0&#45;&#45;node0x600001394360 -->
<g id="edge8" class="edge">
<title>node0x6000013943f0&#45;&#45;node0x600001394360</title>
<path fill="none" stroke="black" d="M303.54,-700.07C303.4,-689.65 303.23,-676.13 303.08,-664.39"/>
</g>
<!-- node0x600001394390 -->
<g id="node10" class="node">
<title>node0x600001394390</title>
<ellipse fill="none" stroke="black" cx="498.75" cy="-637.31" rx="83.38" ry="26.74"/>
<text text-anchor="middle" x="498.75" y="-641.11" font-family="Times,serif" font-size="14.00">NUMBER_DATA</text>
<text text-anchor="middle" x="498.75" y="-626.11" font-family="Times,serif" font-size="14.00">10</text>
</g>
<!-- node0x6000013943f0&#45;&#45;node0x600001394390 -->
<g id="edge9" class="edge">
<title>node0x6000013943f0&#45;&#45;node0x600001394390</title>
<path fill="none" stroke="black" d="M342.28,-701.6C372.58,-689.34 415.05,-672.16 448.1,-658.8"/>
</g>
<!-- node0x6000013944b0 -->
<g id="node12" class="node">
<title>node0x6000013944b0</title>
<ellipse fill="none" stroke="black" cx="524.75" cy="-799.05" rx="94.51" ry="26.74"/>
<text text-anchor="middle" x="524.75" y="-802.85" font-family="Times,serif" font-size="14.00">IDENTIFIER_DATA</text>
<text text-anchor="middle" x="524.75" y="-787.85" font-family="Times,serif" font-size="14.00">main</text>
</g>
<!-- node0x6000013951d0&#45;&#45;node0x6000013944b0 -->
<g id="edge11" class="edge">
<title>node0x6000013951d0&#45;&#45;node0x6000013944b0</title>
<path fill="none" stroke="black" d="M692.62,-873.69C660.82,-859.74 611.68,-838.19 574.77,-821.99"/>
</g>
<!-- node0x6000013944e0 -->
<g id="node13" class="node">
<title>node0x6000013944e0</title>
<ellipse fill="none" stroke="black" cx="724.75" cy="-799.05" rx="87.18" ry="18"/>
<text text-anchor="middle" x="724.75" y="-795.35" font-family="Times,serif" font-size="14.00">PARAMETER_LIST</text>
</g>
<!-- node0x6000013951d0&#45;&#45;node0x6000013944e0 -->
<g id="edge12" class="edge">
<title>node0x6000013951d0&#45;&#45;node0x6000013944e0</title>
<path fill="none" stroke="black" d="M724.75,-870.46C724.75,-855.07 724.75,-832.72 724.75,-817.35"/>
</g>
<!-- node0x6000013951a0 -->
<g id="node14" class="node">
<title>node0x6000013951a0</title>
<ellipse fill="none" stroke="black" cx="891.75" cy="-799.05" rx="62.29" ry="18"/>
<text text-anchor="middle" x="891.75" y="-795.35" font-family="Times,serif" font-size="14.00">STATEMENT</text>
</g>
<!-- node0x6000013951d0&#45;&#45;node0x6000013951a0 -->
<g id="edge13" class="edge">
<title>node0x6000013951d0&#45;&#45;node0x6000013951a0</title>
<path fill="none" stroke="black" d="M753.08,-872.91C783.6,-856.87 831.93,-831.48 862.72,-815.3"/>
</g>
<!-- node0x600001395170 -->
<g id="node15" class="node">
<title>node0x600001395170</title>
<ellipse fill="none" stroke="black" cx="891.75" cy="-718.18" rx="40.09" ry="18"/>
<text text-anchor="middle" x="891.75" y="-714.48" font-family="Times,serif" font-size="14.00">BLOCK</text>
</g>
<!-- node0x6000013951a0&#45;&#45;node0x600001395170 -->
<g id="edge14" class="edge">
<title>node0x6000013951a0&#45;&#45;node0x600001395170</title>
<path fill="none" stroke="black" d="M891.75,-780.94C891.75,-767.8 891.75,-749.73 891.75,-736.53"/>
</g>
<!-- node0x6000013947e0 -->
<g id="node16" class="node">
<title>node0x6000013947e0</title>
<ellipse fill="none" stroke="black" cx="694.75" cy="-637.31" rx="94.78" ry="18"/>
<text text-anchor="middle" x="694.75" y="-633.61" font-family="Times,serif" font-size="14.00">DECLARATION_LIST</text>
</g>
<!-- node0x600001395170&#45;&#45;node0x6000013947e0 -->
<g id="edge15" class="edge">
<title>node0x600001395170&#45;&#45;node0x6000013947e0</title>
<path fill="none" stroke="black" d="M862.68,-705.54C828.65,-691.92 772.11,-669.28 734.15,-654.08"/>
</g>
<!-- node0x600001395140 -->
<g id="node22" class="node">
<title>node0x600001395140</title>
<ellipse fill="none" stroke="black" cx="900.75" cy="-637.31" rx="85.29" ry="18"/>
<text text-anchor="middle" x="900.75" y="-633.61" font-family="Times,serif" font-size="14.00">STATEMENT_LIST</text>
</g>
<!-- node0x600001395170&#45;&#45;node0x600001395140 -->
<g id="edge21" class="edge">
<title>node0x600001395170&#45;&#45;node0x600001395140</title>
<path fill="none" stroke="black" d="M893.71,-700.07C895.2,-686.93 897.27,-668.86 898.77,-655.66"/>
</g>
<!-- node0x6000013946c0 -->
<g id="node17" class="node">
<title>node0x6000013946c0</title>
<ellipse fill="none" stroke="black" cx="406.75" cy="-556.44" rx="94.78" ry="18"/>
<text text-anchor="middle" x="406.75" y="-552.74" font-family="Times,serif" font-size="14.00">DECLARATION_LIST</text>
</g>
<!-- node0x6000013947e0&#45;&#45;node0x6000013946c0 -->
<g id="edge16" class="edge">
<title>node0x6000013947e0&#45;&#45;node0x6000013946c0</title>
<path fill="none" stroke="black" d="M642.26,-621.94C590.35,-607.72 511.33,-586.08 459.37,-571.85"/>
</g>
<!-- node0x600001394780 -->
<g id="node20" class="node">
<title>node0x600001394780</title>
<ellipse fill="none" stroke="black" cx="679.75" cy="-556.44" rx="77.19" ry="18"/>
<text text-anchor="middle" x="679.75" y="-552.74" font-family="Times,serif" font-size="14.00">VARIABLE_LIST</text>
</g>
<!-- node0x6000013947e0&#45;&#45;node0x600001394780 -->
<g id="edge19" class="edge">
<title>node0x6000013947e0&#45;&#45;node0x600001394780</title>
<path fill="none" stroke="black" d="M691.5,-619.2C689,-606.06 685.56,-587.99 683.05,-574.79"/>
</g>
<!-- node0x600001394660 -->
<g id="node18" class="node">
<title>node0x600001394660</title>
<ellipse fill="none" stroke="black" cx="376.75" cy="-475.57" rx="77.19" ry="18"/>
<text text-anchor="middle" x="376.75" y="-471.87" font-family="Times,serif" font-size="14.00">VARIABLE_LIST</text>
</g>
<!-- node0x6000013946c0&#45;&#45;node0x600001394660 -->
<g id="edge17" class="edge">
<title>node0x6000013946c0&#45;&#45;node0x600001394660</title>
<path fill="none" stroke="black" d="M400.24,-538.33C395.25,-525.19 388.37,-507.12 383.35,-493.92"/>
</g>
<!-- node0x600001394630 -->
<g id="node19" class="node">
<title>node0x600001394630</title>
<ellipse fill="none" stroke="black" cx="376.75" cy="-385.83" rx="94.51" ry="26.74"/>
<text text-anchor="middle" x="376.75" y="-389.63" font-family="Times,serif" font-size="14.00">IDENTIFIER_DATA</text>
<text text-anchor="middle" x="376.75" y="-374.63" font-family="Times,serif" font-size="14.00">D</text>
</g>
<!-- node0x600001394660&#45;&#45;node0x600001394630 -->
<g id="edge18" class="edge">
<title>node0x600001394660&#45;&#45;node0x600001394630</title>
<path fill="none" stroke="black" d="M376.75,-457.24C376.75,-444.55 376.75,-427.12 376.75,-412.78"/>
</g>
<!-- node0x600001394750 -->
<g id="node21" class="node">
<title>node0x600001394750</title>
<ellipse fill="none" stroke="black" cx="566.75" cy="-475.57" rx="94.51" ry="26.74"/>
<text text-anchor="middle" x="566.75" y="-479.37" font-family="Times,serif" font-size="14.00">IDENTIFIER_DATA</text>
<text text-anchor="middle" x="566.75" y="-464.37" font-family="Times,serif" font-size="14.00">Y</text>
</g>
<!-- node0x600001394780&#45;&#45;node0x600001394750 -->
<g id="edge20" class="edge">
<title>node0x600001394780&#45;&#45;node0x600001394750</title>
<path fill="none" stroke="black" d="M656.06,-538.91C640.27,-527.89 619.25,-513.21 601.57,-500.87"/>
</g>
<!-- node0x600001394ed0 -->
<g id="node23" class="node">
<title>node0x600001394ed0</title>
<ellipse fill="none" stroke="black" cx="900.75" cy="-556.44" rx="85.29" ry="18"/>
<text text-anchor="middle" x="900.75" y="-552.74" font-family="Times,serif" font-size="14.00">STATEMENT_LIST</text>
</g>
<!-- node0x600001395140&#45;&#45;node0x600001394ed0 -->
<g id="edge22" class="edge">
<title>node0x600001395140&#45;&#45;node0x600001394ed0</title>
<path fill="none" stroke="black" d="M900.75,-619.2C900.75,-606.06 900.75,-587.99 900.75,-574.79"/>
</g>
<!-- node0x600001395110 -->
<g id="node48" class="node">
<title>node0x600001395110</title>
<ellipse fill="none" stroke="black" cx="1127.75" cy="-556.44" rx="62.29" ry="18"/>
<text text-anchor="middle" x="1127.75" y="-552.74" font-family="Times,serif" font-size="14.00">STATEMENT</text>
</g>
<!-- node0x600001395140&#45;&#45;node0x600001395110 -->
<g id="edge47" class="edge">
<title>node0x600001395140&#45;&#45;node0x600001395110</title>
<path fill="none" stroke="black" d="M943.72,-621.38C985.62,-606.82 1048.77,-584.88 1089.13,-570.86"/>
</g>
<!-- node0x600001394bd0 -->
<g id="node24" class="node">
<title>node0x600001394bd0</title>
<ellipse fill="none" stroke="black" cx="764.75" cy="-475.57" rx="85.29" ry="18"/>
<text text-anchor="middle" x="764.75" y="-471.87" font-family="Times,serif" font-size="14.00">STATEMENT_LIST</text>
</g>
<!-- node0x600001394ed0&#45;&#45;node0x600001394bd0 -->
<g id="edge23" class="edge">
<title>node0x600001394ed0&#45;&#45;node0x600001394bd0</title>
<path fill="none" stroke="black" d="M872.57,-539.1C849.23,-525.56 816.23,-506.42 792.9,-492.89"/>
</g>
<!-- node0x600001394ea0 -->
<g id="node37" class="node">
<title>node0x600001394ea0</title>
<ellipse fill="none" stroke="black" cx="930.75" cy="-475.57" rx="62.29" ry="18"/>
<text text-anchor="middle" x="930.75" y="-471.87" font-family="Times,serif" font-size="14.00">STATEMENT</text>
</g>
<!-- node0x600001394ed0&#45;&#45;node0x600001394ea0 -->
<g id="edge36" class="edge">
<title>node0x600001394ed0&#45;&#45;node0x600001394ea0</title>
<path fill="none" stroke="black" d="M907.26,-538.33C912.26,-525.19 919.13,-507.12 924.15,-493.92"/>
</g>
<!-- node0x600001394990 -->
<g id="node25" class="node">
<title>node0x600001394990</title>
<ellipse fill="none" stroke="black" cx="580.75" cy="-385.83" rx="85.29" ry="18"/>
<text text-anchor="middle" x="580.75" y="-382.13" font-family="Times,serif" font-size="14.00">STATEMENT_LIST</text>
</g>
<!-- node0x600001394bd0&#45;&#45;node0x600001394990 -->
<g id="edge24" class="edge">
<title>node0x600001394bd0&#45;&#45;node0x600001394990</title>
<path fill="none" stroke="black" d="M731.43,-458.68C698.19,-442.83 647.4,-418.61 614.14,-402.75"/>
</g>
<!-- node0x600001394ba0 -->
<g id="node29" class="node">
<title>node0x600001394ba0</title>
<ellipse fill="none" stroke="black" cx="752.75" cy="-385.83" rx="62.29" ry="18"/>
<text text-anchor="middle" x="752.75" y="-382.13" font-family="Times,serif" font-size="14.00">STATEMENT</text>
</g>
<!-- node0x600001394bd0&#45;&#45;node0x600001394ba0 -->
<g id="edge28" class="edge">
<title>node0x600001394bd0&#45;&#45;node0x600001394ba0</title>
<path fill="none" stroke="black" d="M762.38,-457.24C760.28,-441.85 757.22,-419.5 755.12,-404.13"/>
</g>
<!-- node0x600001394960 -->
<g id="node26" class="node">
<title>node0x600001394960</title>
<ellipse fill="none" stroke="black" cx="359.75" cy="-296.09" rx="62.29" ry="18"/>
<text text-anchor="middle" x="359.75" y="-292.39" font-family="Times,serif" font-size="14.00">STATEMENT</text>
</g>
<!-- node0x600001394990&#45;&#45;node0x600001394960 -->
<g id="edge25" class="edge">
<title>node0x600001394990&#45;&#45;node0x600001394960</title>
<path fill="none" stroke="black" d="M542,-369.45C500.66,-353.03 435.7,-327.24 395.53,-311.29"/>
</g>
<!-- node0x600001394900 -->
<g id="node27" class="node">
<title>node0x600001394900</title>
<ellipse fill="none" stroke="black" cx="284.75" cy="-206.35" rx="59.29" ry="18"/>
<text text-anchor="middle" x="284.75" y="-202.65" font-family="Times,serif" font-size="14.00">PRINT_LIST</text>
</g>
<!-- node0x600001394960&#45;&#45;node0x600001394900 -->
<g id="edge26" class="edge">
<title>node0x600001394960&#45;&#45;node0x600001394900</title>
<path fill="none" stroke="black" d="M345.29,-278.17C332.01,-262.64 312.44,-239.74 299.17,-224.22"/>
</g>
<!-- node0x6000013948a0 -->
<g id="node28" class="node">
<title>node0x6000013948a0</title>
<ellipse fill="none" stroke="black" cx="284.75" cy="-116.61" rx="76.24" ry="26.74"/>
<text text-anchor="middle" x="284.75" y="-120.41" font-family="Times,serif" font-size="14.00">STRING_DATA</text>
<text text-anchor="middle" x="284.75" y="-105.41" font-family="Times,serif" font-size="14.00">&quot;World&quot;</text>
</g>
<!-- node0x600001394900&#45;&#45;node0x6000013948a0 -->
<g id="edge27" class="edge">
<title>node0x600001394900&#45;&#45;node0x6000013948a0</title>
<path fill="none" stroke="black" d="M284.75,-188.02C284.75,-175.33 284.75,-157.9 284.75,-143.56"/>
</g>
<!-- node0x600001394b70 -->
<g id="node30" class="node">
<title>node0x600001394b70</title>
<ellipse fill="none" stroke="black" cx="638.75" cy="-296.09" rx="124.28" ry="18"/>
<text text-anchor="middle" x="638.75" y="-292.39" font-family="Times,serif" font-size="14.00">ASSIGNMENT_STATEMENT</text>
</g>
<!-- node0x600001394ba0&#45;&#45;node0x600001394b70 -->
<g id="edge29" class="edge">
<title>node0x600001394ba0&#45;&#45;node0x600001394b70</title>
<path fill="none" stroke="black" d="M731.58,-368.53C711.49,-353.07 681.41,-329.92 660.98,-314.2"/>
</g>
<!-- node0x6000013949c0 -->
<g id="node31" class="node">
<title>node0x6000013949c0</title>
<ellipse fill="none" stroke="black" cx="456.75" cy="-206.35" rx="94.51" ry="26.74"/>
<text text-anchor="middle" x="456.75" y="-210.15" font-family="Times,serif" font-size="14.00">IDENTIFIER_DATA</text>
<text text-anchor="middle" x="456.75" y="-195.15" font-family="Times,serif" font-size="14.00">A</text>
</g>
<!-- node0x600001394b70&#45;&#45;node0x6000013949c0 -->
<g id="edge30" class="edge">
<title>node0x600001394b70&#45;&#45;node0x6000013949c0</title>
<path fill="none" stroke="black" d="M604.09,-278.38C575.63,-264.66 535.03,-245.09 503.66,-229.97"/>
</g>
<!-- node0x600001394b40 -->
<g id="node32" class="node">
<title>node0x600001394b40</title>
<ellipse fill="none" stroke="black" cx="638.75" cy="-206.35" rx="69.09" ry="26.74"/>
<text text-anchor="middle" x="638.75" y="-210.15" font-family="Times,serif" font-size="14.00">EXPRESSION</text>
<text text-anchor="middle" x="638.75" y="-195.15" font-family="Times,serif" font-size="14.00">+</text>
</g>
<!-- node0x600001394b70&#45;&#45;node0x600001394b40 -->
<g id="edge31" class="edge">
<title>node0x600001394b70&#45;&#45;node0x600001394b40</title>
<path fill="none" stroke="black" d="M638.75,-277.76C638.75,-265.07 638.75,-247.64 638.75,-233.3"/>
</g>
<!-- node0x600001394ab0 -->
<g id="node33" class="node">
<title>node0x600001394ab0</title>
<ellipse fill="none" stroke="black" cx="547.75" cy="-116.61" rx="69.09" ry="26.74"/>
<text text-anchor="middle" x="547.75" y="-120.41" font-family="Times,serif" font-size="14.00">EXPRESSION</text>
<text text-anchor="middle" x="547.75" y="-105.41" font-family="Times,serif" font-size="14.00">+</text>
</g>
<!-- node0x600001394b40&#45;&#45;node0x600001394ab0 -->
<g id="edge32" class="edge">
<title>node0x600001394b40&#45;&#45;node0x600001394ab0</title>
<path fill="none" stroke="black" d="M613.89,-181.37C601.15,-169.1 585.68,-154.18 572.9,-141.86"/>
</g>
<!-- node0x600001394ae0 -->
<g id="node36" class="node">
<title>node0x600001394ae0</title>
<ellipse fill="none" stroke="black" cx="729.75" cy="-116.61" rx="94.51" ry="26.74"/>
<text text-anchor="middle" x="729.75" y="-120.41" font-family="Times,serif" font-size="14.00">IDENTIFIER_DATA</text>
<text text-anchor="middle" x="729.75" y="-105.41" font-family="Times,serif" font-size="14.00">D</text>
</g>
<!-- node0x600001394b40&#45;&#45;node0x600001394ae0 -->
<g id="edge35" class="edge">
<title>node0x600001394b40&#45;&#45;node0x600001394ae0</title>
<path fill="none" stroke="black" d="M663.62,-181.37C676.04,-169.4 691.06,-154.92 703.64,-142.78"/>
</g>
<!-- node0x6000013949f0 -->
<g id="node34" class="node">
<title>node0x6000013949f0</title>
<ellipse fill="none" stroke="black" cx="443.75" cy="-26.87" rx="94.51" ry="26.74"/>
<text text-anchor="middle" x="443.75" y="-30.67" font-family="Times,serif" font-size="14.00">IDENTIFIER_DATA</text>
<text text-anchor="middle" x="443.75" y="-15.67" font-family="Times,serif" font-size="14.00">B</text>
</g>
<!-- node0x600001394ab0&#45;&#45;node0x6000013949f0 -->
<g id="edge33" class="edge">
<title>node0x600001394ab0&#45;&#45;node0x6000013949f0</title>
<path fill="none" stroke="black" d="M519.61,-91.87C505.17,-79.69 487.6,-64.86 473.01,-52.55"/>
</g>
<!-- node0x600001394a50 -->
<g id="node35" class="node">
<title>node0x600001394a50</title>
<ellipse fill="none" stroke="black" cx="651.75" cy="-26.87" rx="94.51" ry="26.74"/>
<text text-anchor="middle" x="651.75" y="-30.67" font-family="Times,serif" font-size="14.00">IDENTIFIER_DATA</text>
<text text-anchor="middle" x="651.75" y="-15.67" font-family="Times,serif" font-size="14.00">C</text>
</g>
<!-- node0x600001394ab0&#45;&#45;node0x600001394a50 -->
<g id="edge34" class="edge">
<title>node0x600001394ab0&#45;&#45;node0x600001394a50</title>
<path fill="none" stroke="black" d="M575.9,-91.87C590.33,-79.69 607.9,-64.86 622.5,-52.55"/>
</g>
<!-- node0x600001394e70 -->
<g id="node38" class="node">
<title>node0x600001394e70</title>
<ellipse fill="none" stroke="black" cx="934.75" cy="-385.83" rx="74.99" ry="18"/>
<text text-anchor="middle" x="934.75" y="-382.13" font-family="Times,serif" font-size="14.00">IF_STATEMENT</text>
</g>
<!-- node0x600001394ea0&#45;&#45;node0x600001394e70 -->
<g id="edge37" class="edge">
<title>node0x600001394ea0&#45;&#45;node0x600001394e70</title>
<path fill="none" stroke="black" d="M931.54,-457.24C932.24,-441.85 933.26,-419.5 933.96,-404.13"/>
</g>
<!-- node0x600001394cc0 -->
<g id="node39" class="node">
<title>node0x600001394cc0</title>
<ellipse fill="none" stroke="black" cx="934.75" cy="-296.09" rx="58.88" ry="26.74"/>
<text text-anchor="middle" x="934.75" y="-299.89" font-family="Times,serif" font-size="14.00">RELATION</text>
<text text-anchor="middle" x="934.75" y="-284.89" font-family="Times,serif" font-size="14.00">NULL</text>
</g>
<!-- node0x600001394e70&#45;&#45;node0x600001394cc0 -->
<g id="edge38" class="edge">
<title>node0x600001394e70&#45;&#45;node0x600001394cc0</title>
<path fill="none" stroke="black" d="M934.75,-367.5C934.75,-354.81 934.75,-337.38 934.75,-323.04"/>
</g>
<!-- node0x600001394e40 -->
<g id="node42" class="node">
<title>node0x600001394e40</title>
<ellipse fill="none" stroke="black" cx="1169.75" cy="-296.09" rx="62.29" ry="18"/>
<text text-anchor="middle" x="1169.75" y="-292.39" font-family="Times,serif" font-size="14.00">STATEMENT</text>
</g>
<!-- node0x600001394e70&#45;&#45;node0x600001394e40 -->
<g id="edge41" class="edge">
<title>node0x600001394e70&#45;&#45;node0x600001394e40</title>
<path fill="none" stroke="black" d="M974.09,-370.14C1018.25,-353.66 1089.38,-327.1 1132.62,-310.95"/>
</g>
<!-- node0x600001394c00 -->
<g id="node40" class="node">
<title>node0x600001394c00</title>
<ellipse fill="none" stroke="black" cx="820.75" cy="-206.35" rx="94.51" ry="26.74"/>
<text text-anchor="middle" x="820.75" y="-210.15" font-family="Times,serif" font-size="14.00">IDENTIFIER_DATA</text>
<text text-anchor="middle" x="820.75" y="-195.15" font-family="Times,serif" font-size="14.00">A</text>
</g>
<!-- node0x600001394cc0&#45;&#45;node0x600001394c00 -->
<g id="edge39" class="edge">
<title>node0x600001394cc0&#45;&#45;node0x600001394c00</title>
<path fill="none" stroke="black" d="M905.39,-272.5C889.17,-260 868.99,-244.48 852.41,-231.72"/>
</g>
<!-- node0x600001394c60 -->
<g id="node41" class="node">
<title>node0x600001394c60</title>
<ellipse fill="none" stroke="black" cx="1028.75" cy="-206.35" rx="94.51" ry="26.74"/>
<text text-anchor="middle" x="1028.75" y="-210.15" font-family="Times,serif" font-size="14.00">IDENTIFIER_DATA</text>
<text text-anchor="middle" x="1028.75" y="-195.15" font-family="Times,serif" font-size="14.00">B</text>
</g>
<!-- node0x600001394cc0&#45;&#45;node0x600001394c60 -->
<g id="edge40" class="edge">
<title>node0x600001394cc0&#45;&#45;node0x600001394c60</title>
<path fill="none" stroke="black" d="M959.94,-271.58C972.89,-259.5 988.66,-244.77 1001.85,-232.47"/>
</g>
<!-- node0x600001394e10 -->
<g id="node43" class="node">
<title>node0x600001394e10</title>
<ellipse fill="none" stroke="black" cx="1265.75" cy="-206.35" rx="124.28" ry="18"/>
<text text-anchor="middle" x="1265.75" y="-202.65" font-family="Times,serif" font-size="14.00">ASSIGNMENT_STATEMENT</text>
</g>
<!-- node0x600001394e40&#45;&#45;node0x600001394e10 -->
<g id="edge42" class="edge">
<title>node0x600001394e40&#45;&#45;node0x600001394e10</title>
<path fill="none" stroke="black" d="M1187.81,-278.59C1204.76,-263.1 1229.99,-240.03 1247.12,-224.38"/>
</g>
<!-- node0x600001394cf0 -->
<g id="node44" class="node">
<title>node0x600001394cf0</title>
<ellipse fill="none" stroke="black" cx="1107.75" cy="-116.61" rx="94.51" ry="26.74"/>
<text text-anchor="middle" x="1107.75" y="-120.41" font-family="Times,serif" font-size="14.00">IDENTIFIER_DATA</text>
<text text-anchor="middle" x="1107.75" y="-105.41" font-family="Times,serif" font-size="14.00">A</text>
</g>
<!-- node0x600001394e10&#45;&#45;node0x600001394cf0 -->
<g id="edge43" class="edge">
<title>node0x600001394e10&#45;&#45;node0x600001394cf0</title>
<path fill="none" stroke="black" d="M1235.29,-188.43C1210.99,-174.94 1176.68,-155.89 1149.77,-140.94"/>
</g>
<!-- node0x600001394de0 -->
<g id="node45" class="node">
<title>node0x600001394de0</title>
<ellipse fill="none" stroke="black" cx="1289.75" cy="-116.61" rx="69.09" ry="26.74"/>
<text text-anchor="middle" x="1289.75" y="-120.41" font-family="Times,serif" font-size="14.00">EXPRESSION</text>
<text text-anchor="middle" x="1289.75" y="-105.41" font-family="Times,serif" font-size="14.00">+</text>
</g>
<!-- node0x600001394e10&#45;&#45;node0x600001394de0 -->
<g id="edge44" class="edge">
<title>node0x600001394e10&#45;&#45;node0x600001394de0</title>
<path fill="none" stroke="black" d="M1270.49,-188.02C1273.96,-175.33 1278.73,-157.9 1282.65,-143.56"/>
</g>
<!-- node0x600001394d20 -->
<g id="node46" class="node">
<title>node0x600001394d20</title>
<ellipse fill="none" stroke="black" cx="1191.75" cy="-26.87" rx="94.51" ry="26.74"/>
<text text-anchor="middle" x="1191.75" y="-30.67" font-family="Times,serif" font-size="14.00">IDENTIFIER_DATA</text>
<text text-anchor="middle" x="1191.75" y="-15.67" font-family="Times,serif" font-size="14.00">A</text>
</g>
<!-- node0x600001394de0&#45;&#45;node0x600001394d20 -->
<g id="edge45" class="edge">
<title>node0x600001394de0&#45;&#45;node0x600001394d20</title>
<path fill="none" stroke="black" d="M1262.97,-91.63C1249.49,-79.56 1233.15,-64.93 1219.52,-52.73"/>
</g>
<!-- node0x600001394d80 -->
<g id="node47" class="node">
<title>node0x600001394d80</title>
<ellipse fill="none" stroke="black" cx="1387.75" cy="-26.87" rx="83.38" ry="26.74"/>
<text text-anchor="middle" x="1387.75" y="-30.67" font-family="Times,serif" font-size="14.00">NUMBER_DATA</text>
<text text-anchor="middle" x="1387.75" y="-15.67" font-family="Times,serif" font-size="14.00">1</text>
</g>
<!-- node0x600001394de0&#45;&#45;node0x600001394d80 -->
<g id="edge46" class="edge">
<title>node0x600001394de0&#45;&#45;node0x600001394d80</title>
<path fill="none" stroke="black" d="M1316.53,-91.63C1330.13,-79.46 1346.63,-64.69 1360.32,-52.43"/>
</g>
<!-- node0x6000013950e0 -->
<g id="node49" class="node">
<title>node0x6000013950e0</title>
<ellipse fill="none" stroke="black" cx="1135.75" cy="-475.57" rx="124.28" ry="18"/>
<text text-anchor="middle" x="1135.75" y="-471.87" font-family="Times,serif" font-size="14.00">ASSIGNMENT_STATEMENT</text>
</g>
<!-- node0x600001395110&#45;&#45;node0x6000013950e0 -->
<g id="edge48" class="edge">
<title>node0x600001395110&#45;&#45;node0x6000013950e0</title>
<path fill="none" stroke="black" d="M1129.49,-538.33C1130.82,-525.19 1132.65,-507.12 1133.99,-493.92"/>
</g>
<!-- node0x600001394f00 -->
<g id="node50" class="node">
<title>node0x600001394f00</title>
<ellipse fill="none" stroke="black" cx="1130.75" cy="-385.83" rx="94.51" ry="26.74"/>
<text text-anchor="middle" x="1130.75" y="-389.63" font-family="Times,serif" font-size="14.00">IDENTIFIER_DATA</text>
<text text-anchor="middle" x="1130.75" y="-374.63" font-family="Times,serif" font-size="14.00">A</text>
</g>
<!-- node0x6000013950e0&#45;&#45;node0x600001394f00 -->
<g id="edge49" class="edge">
<title>node0x6000013950e0&#45;&#45;node0x600001394f00</title>
<path fill="none" stroke="black" d="M1134.76,-457.24C1134.04,-444.55 1133.05,-427.12 1132.23,-412.78"/>
</g>
<!-- node0x600001395080 -->
<g id="node51" class="node">
<title>node0x600001395080</title>
<ellipse fill="none" stroke="black" cx="1327.75" cy="-385.83" rx="83.69" ry="18"/>
<text text-anchor="middle" x="1327.75" y="-382.13" font-family="Times,serif" font-size="14.00">ARGUMENT_LIST</text>
</g>
<!-- node0x6000013950e0&#45;&#45;node0x600001395080 -->
<g id="edge50" class="edge">
<title>node0x6000013950e0&#45;&#45;node0x600001395080</title>
<path fill="none" stroke="black" d="M1171.87,-458.07C1206.63,-442.18 1258.83,-418.33 1293.09,-402.67"/>
</g>
<!-- node0x600001395050 -->
<g id="node52" class="node">
<title>node0x600001395050</title>
<ellipse fill="none" stroke="black" cx="1494.75" cy="-296.09" rx="87.18" ry="18"/>
<text text-anchor="middle" x="1494.75" y="-292.39" font-family="Times,serif" font-size="14.00">EXPRESSION_LIST</text>
</g>
<!-- node0x600001395080&#45;&#45;node0x600001395050 -->
<g id="edge51" class="edge">
<title>node0x600001395080&#45;&#45;node0x600001395050</title>
<path fill="none" stroke="black" d="M1358.38,-368.74C1388.33,-353.01 1433.68,-329.18 1463.75,-313.38"/>
</g>
<!-- node0x600001394fc0 -->
<g id="node53" class="node">
<title>node0x600001394fc0</title>
<ellipse fill="none" stroke="black" cx="1494.75" cy="-206.35" rx="87.18" ry="18"/>
<text text-anchor="middle" x="1494.75" y="-202.65" font-family="Times,serif" font-size="14.00">EXPRESSION_LIST</text>
</g>
<!-- node0x600001395050&#45;&#45;node0x600001394fc0 -->
<g id="edge52" class="edge">
<title>node0x600001395050&#45;&#45;node0x600001394fc0</title>
<path fill="none" stroke="black" d="M1494.75,-277.76C1494.75,-262.37 1494.75,-240.02 1494.75,-224.65"/>
</g>
<!-- node0x600001394ff0 -->
<g id="node55" class="node">
<title>node0x600001394ff0</title>
<ellipse fill="none" stroke="black" cx="1694.75" cy="-206.35" rx="94.51" ry="26.74"/>
<text text-anchor="middle" x="1694.75" y="-210.15" font-family="Times,serif" font-size="14.00">IDENTIFIER_DATA</text>
<text text-anchor="middle" x="1694.75" y="-195.15" font-family="Times,serif" font-size="14.00">B</text>
</g>
<!-- node0x600001395050&#45;&#45;node0x600001394ff0 -->
<g id="edge54" class="edge">
<title>node0x600001395050&#45;&#45;node0x600001394ff0</title>
<path fill="none" stroke="black" d="M1530.51,-279.4C1562.31,-265.45 1609.13,-244.91 1644.66,-229.33"/>
</g>
<!-- node0x600001394f60 -->
<g id="node54" class="node">
<title>node0x600001394f60</title>
<ellipse fill="none" stroke="black" cx="1494.75" cy="-116.61" rx="94.51" ry="26.74"/>
<text text-anchor="middle" x="1494.75" y="-120.41" font-family="Times,serif" font-size="14.00">IDENTIFIER_DATA</text>
<text text-anchor="middle" x="1494.75" y="-105.41" font-family="Times,serif" font-size="14.00">A</text>
</g>
<!-- node0x600001394fc0&#45;&#45;node0x600001394f60 -->
<g id="edge53" class="edge">
<title>node0x600001394fc0&#45;&#45;node0x600001394f60</title>
<path fill="none" stroke="black" d="M1494.75,-188.02C1494.75,-175.33 1494.75,-157.9 1494.75,-143.56"/>
</g>
<!-- node0x600001395260 -->
<g id="node57" class="node">
<title>node0x600001395260</title>
<ellipse fill="none" stroke="black" cx="987.75" cy="-888.79" rx="94.51" ry="26.74"/>
<text text-anchor="middle" x="987.75" y="-892.59" font-family="Times,serif" font-size="14.00">IDENTIFIER_DATA</text>
<text text-anchor="middle" x="987.75" y="-877.59" font-family="Times,serif" font-size="14.00">another</text>
</g>
<!-- node0x600001395560&#45;&#45;node0x600001395260 -->
<g id="edge56" class="edge">
<title>node0x600001395560&#45;&#45;node0x600001395260</title>
<path fill="none" stroke="black" d="M1063.53,-952.7C1050.3,-941.72 1032.47,-926.92 1017.43,-914.43"/>
</g>
<!-- node0x600001395320 -->
<g id="node58" class="node">
<title>node0x600001395320</title>
<ellipse fill="none" stroke="black" cx="1177.75" cy="-888.79" rx="77.19" ry="18"/>
<text text-anchor="middle" x="1177.75" y="-885.09" font-family="Times,serif" font-size="14.00">VARIABLE_LIST</text>
</g>
<!-- node0x600001395560&#45;&#45;node0x600001395320 -->
<g id="edge57" class="edge">
<title>node0x600001395560&#45;&#45;node0x600001395320</title>
<path fill="none" stroke="black" d="M1101.98,-952.7C1118.13,-939.29 1141.15,-920.18 1157.57,-906.54"/>
</g>
<!-- node0x600001395530 -->
<g id="node60" class="node">
<title>node0x600001395530</title>
<ellipse fill="none" stroke="black" cx="1382.75" cy="-888.79" rx="62.29" ry="18"/>
<text text-anchor="middle" x="1382.75" y="-885.09" font-family="Times,serif" font-size="14.00">STATEMENT</text>
</g>
<!-- node0x600001395560&#45;&#45;node0x600001395530 -->
<g id="edge59" class="edge">
<title>node0x600001395560&#45;&#45;node0x600001395530</title>
<path fill="none" stroke="black" d="M1124.78,-957.61C1181.06,-942.82 1280.48,-916.68 1338.07,-901.54"/>
</g>
<!-- node0x6000013952f0 -->
<g id="node59" class="node">
<title>node0x6000013952f0</title>
<ellipse fill="none" stroke="black" cx="1177.75" cy="-799.05" rx="94.51" ry="26.74"/>
<text text-anchor="middle" x="1177.75" y="-802.85" font-family="Times,serif" font-size="14.00">IDENTIFIER_DATA</text>
<text text-anchor="middle" x="1177.75" y="-787.85" font-family="Times,serif" font-size="14.00">y</text>
</g>
<!-- node0x600001395320&#45;&#45;node0x6000013952f0 -->
<g id="edge58" class="edge">
<title>node0x600001395320&#45;&#45;node0x6000013952f0</title>
<path fill="none" stroke="black" d="M1177.75,-870.46C1177.75,-857.77 1177.75,-840.34 1177.75,-826"/>
</g>
<!-- node0x600001395500 -->
<g id="node61" class="node">
<title>node0x600001395500</title>
<ellipse fill="none" stroke="black" cx="1394.75" cy="-799.05" rx="40.09" ry="18"/>
<text text-anchor="middle" x="1394.75" y="-795.35" font-family="Times,serif" font-size="14.00">BLOCK</text>
</g>
<!-- node0x600001395530&#45;&#45;node0x600001395500 -->
<g id="edge60" class="edge">
<title>node0x600001395530&#45;&#45;node0x600001395500</title>
<path fill="none" stroke="black" d="M1385.12,-870.46C1387.23,-855.07 1390.28,-832.72 1392.39,-817.35"/>
</g>
<!-- node0x6000013954d0 -->
<g id="node62" class="node">
<title>node0x6000013954d0</title>
<ellipse fill="none" stroke="black" cx="1403.75" cy="-718.18" rx="85.29" ry="18"/>
<text text-anchor="middle" x="1403.75" y="-714.48" font-family="Times,serif" font-size="14.00">STATEMENT_LIST</text>
</g>
<!-- node0x600001395500&#45;&#45;node0x6000013954d0 -->
<g id="edge61" class="edge">
<title>node0x600001395500&#45;&#45;node0x6000013954d0</title>
<path fill="none" stroke="black" d="M1396.71,-780.94C1398.2,-767.8 1400.27,-749.73 1401.77,-736.53"/>
</g>
<!-- node0x6000013954a0 -->
<g id="node63" class="node">
<title>node0x6000013954a0</title>
<ellipse fill="none" stroke="black" cx="1426.75" cy="-637.31" rx="62.29" ry="18"/>
<text text-anchor="middle" x="1426.75" y="-633.61" font-family="Times,serif" font-size="14.00">STATEMENT</text>
</g>
<!-- node0x6000013954d0&#45;&#45;node0x6000013954a0 -->
<g id="edge62" class="edge">
<title>node0x6000013954d0&#45;&#45;node0x6000013954a0</title>
<path fill="none" stroke="black" d="M1408.74,-700.07C1412.57,-686.93 1417.84,-668.86 1421.69,-655.66"/>
</g>
<!-- node0x600001395470 -->
<g id="node64" class="node">
<title>node0x600001395470</title>
<ellipse fill="none" stroke="black" cx="1436.75" cy="-556.44" rx="102.08" ry="18"/>
<text text-anchor="middle" x="1436.75" y="-552.74" font-family="Times,serif" font-size="14.00">RETURN_STATEMENT</text>
</g>
<!-- node0x6000013954a0&#45;&#45;node0x600001395470 -->
<g id="edge63" class="edge">
<title>node0x6000013954a0&#45;&#45;node0x600001395470</title>
<path fill="none" stroke="black" d="M1428.92,-619.2C1430.59,-606.06 1432.88,-587.99 1434.55,-574.79"/>
</g>
<!-- node0x600001395440 -->
<g id="node65" class="node">
<title>node0x600001395440</title>
<ellipse fill="none" stroke="black" cx="1524.75" cy="-475.57" rx="69.09" ry="26.74"/>
<text text-anchor="middle" x="1524.75" y="-479.37" font-family="Times,serif" font-size="14.00">EXPRESSION</text>
<text text-anchor="middle" x="1524.75" y="-464.37" font-family="Times,serif" font-size="14.00">+</text>
</g>
<!-- node0x600001395470&#45;&#45;node0x600001395440 -->
<g id="edge64" class="edge">
<title>node0x600001395470&#45;&#45;node0x600001395440</title>
<path fill="none" stroke="black" d="M1455.85,-538.33C1468.18,-527.27 1484.41,-512.73 1498.02,-500.53"/>
</g>
<!-- node0x600001395380 -->
<g id="node66" class="node">
<title>node0x600001395380</title>
<ellipse fill="none" stroke="black" cx="1524.75" cy="-385.83" rx="94.51" ry="26.74"/>
<text text-anchor="middle" x="1524.75" y="-389.63" font-family="Times,serif" font-size="14.00">IDENTIFIER_DATA</text>
<text text-anchor="middle" x="1524.75" y="-374.63" font-family="Times,serif" font-size="14.00">x</text>
</g>
<!-- node0x600001395440&#45;&#45;node0x600001395380 -->
<g id="edge65" class="edge">
<title>node0x600001395440&#45;&#45;node0x600001395380</title>
<path fill="none" stroke="black" d="M1524.75,-448.72C1524.75,-437.4 1524.75,-424.14 1524.75,-412.8"/>
</g>
<!-- node0x6000013953e0 -->
<g id="node67" class="node">
<title>node0x6000013953e0</title>
<ellipse fill="none" stroke="black" cx="1732.75" cy="-385.83" rx="94.51" ry="26.74"/>
<text text-anchor="middle" x="1732.75" y="-389.63" font-family="Times,serif" font-size="14.00">IDENTIFIER_DATA</text>
<text text-anchor="middle" x="1732.75" y="-374.63" font-family="Times,serif" font-size="14.00">y</text>
</g>
<!-- node0x600001395440&#45;&#45;node0x6000013953e0 -->
<g id="edge66" class="edge">
<title>node0x600001395440&#45;&#45;node0x6000013953e0</title>
<path fill="none" stroke="black" d="M1570.66,-455.21C1603.32,-441.43 1647.23,-422.9 1681.12,-408.61"/>
</g>
</g>
</svg>
