<?xml version="1.0" encoding="UTF-8" standalone="no"?>
<!DOCTYPE svg PUBLIC "-//W3C//DTD SVG 1.1//EN"
 "http://www.w3.org/Graphics/SVG/1.1/DTD/svg11.dtd">
<!-- Generated by graphviz version 7.1.0 (20230121.1956)
 -->
<!-- Pages: 1 -->
<svg width="2952pt" height="744pt"
 viewBox="0.00 0.00 2951.50 744.18" xmlns="http://www.w3.org/2000/svg" xmlns:xlink="http://www.w3.org/1999/xlink">
<g id="graph0" class="graph" transform="scale(1 1) rotate(0) translate(4 740.18)">
<polygon fill="white" stroke="none" points="-4,4 -4,-740.18 2947.5,-740.18 2947.5,4 -4,4"/>
<!-- node0x600002a815c0 -->
<g id="node1" class="node">
<title>node0x600002a815c0</title>
<ellipse fill="none" stroke="black" cx="1567.75" cy="-718.18" rx="69.59" ry="18"/>
<text text-anchor="middle" x="1567.75" y="-714.48" font-family="Times,serif" font-size="14.00">GLOBAL_LIST</text>
</g>
<!-- node0x600002a81230 -->
<g id="node2" class="node">
<title>node0x600002a81230</title>
<ellipse fill="none" stroke="black" cx="1471.75" cy="-646.18" rx="69.59" ry="18"/>
<text text-anchor="middle" x="1471.75" y="-642.48" font-family="Times,serif" font-size="14.00">GLOBAL_LIST</text>
</g>
<!-- node0x600002a815c0&#45;&#45;node0x600002a81230 -->
<g id="edge1" class="edge">
<title>node0x600002a815c0&#45;&#45;node0x600002a81230</title>
<path fill="none" stroke="black" d="M1545.49,-700.95C1530.09,-689.72 1509.67,-674.83 1494.23,-663.57"/>
</g>
<!-- node0x600002a81560 -->
<g id="node51" class="node">
<title>node0x600002a81560</title>
<ellipse fill="none" stroke="black" cx="1922.75" cy="-646.18" rx="55.49" ry="18"/>
<text text-anchor="middle" x="1922.75" y="-642.48" font-family="Times,serif" font-size="14.00">FUNCTION</text>
</g>
<!-- node0x600002a815c0&#45;&#45;node0x600002a81560 -->
<g id="edge50" class="edge">
<title>node0x600002a815c0&#45;&#45;node0x600002a81560</title>
<path fill="none" stroke="black" d="M1621.67,-706.55C1691.11,-692.86 1810.64,-669.29 1876.27,-656.35"/>
</g>
<!-- node0x600002a80480 -->
<g id="node3" class="node">
<title>node0x600002a80480</title>
<ellipse fill="none" stroke="black" cx="822.75" cy="-565.31" rx="69.59" ry="18"/>
<text text-anchor="middle" x="822.75" y="-561.61" font-family="Times,serif" font-size="14.00">GLOBAL_LIST</text>
</g>
<!-- node0x600002a81230&#45;&#45;node0x600002a80480 -->
<g id="edge2" class="edge">
<title>node0x600002a81230&#45;&#45;node0x600002a80480</title>
<path fill="none" stroke="black" d="M1409.82,-637.65C1285.93,-622.6 1008.89,-588.93 884.86,-573.86"/>
</g>
<!-- node0x600002a811d0 -->
<g id="node11" class="node">
<title>node0x600002a811d0</title>
<ellipse fill="none" stroke="black" cx="1471.75" cy="-565.31" rx="55.49" ry="18"/>
<text text-anchor="middle" x="1471.75" y="-561.61" font-family="Times,serif" font-size="14.00">FUNCTION</text>
</g>
<!-- node0x600002a81230&#45;&#45;node0x600002a811d0 -->
<g id="edge10" class="edge">
<title>node0x600002a81230&#45;&#45;node0x600002a811d0</title>
<path fill="none" stroke="black" d="M1471.75,-628.07C1471.75,-614.93 1471.75,-596.86 1471.75,-583.66"/>
</g>
<!-- node0x600002a80330 -->
<g id="node4" class="node">
<title>node0x600002a80330</title>
<ellipse fill="none" stroke="black" cx="522.75" cy="-475.57" rx="69.59" ry="18"/>
<text text-anchor="middle" x="522.75" y="-471.87" font-family="Times,serif" font-size="14.00">GLOBAL_LIST</text>
</g>
<!-- node0x600002a80480&#45;&#45;node0x600002a80330 -->
<g id="edge3" class="edge">
<title>node0x600002a80480&#45;&#45;node0x600002a80330</title>
<path fill="none" stroke="black" d="M777.84,-551.18C721.12,-534.59 624.11,-506.22 567.48,-489.65"/>
</g>
<!-- node0x600002a80420 -->
<g id="node8" class="node">
<title>node0x600002a80420</title>
<ellipse fill="none" stroke="black" cx="822.75" cy="-475.57" rx="107.48" ry="18"/>
<text text-anchor="middle" x="822.75" y="-471.87" font-family="Times,serif" font-size="14.00">ARRAY_DECLARATION</text>
</g>
<!-- node0x600002a80480&#45;&#45;node0x600002a80420 -->
<g id="edge7" class="edge">
<title>node0x600002a80480&#45;&#45;node0x600002a80420</title>
<path fill="none" stroke="black" d="M822.75,-546.98C822.75,-531.59 822.75,-509.24 822.75,-493.87"/>
</g>
<!-- node0x600002a802d0 -->
<g id="node5" class="node">
<title>node0x600002a802d0</title>
<ellipse fill="none" stroke="black" cx="429.75" cy="-385.83" rx="72.29" ry="18"/>
<text text-anchor="middle" x="429.75" y="-382.13" font-family="Times,serif" font-size="14.00">DECLARATION</text>
</g>
<!-- node0x600002a80330&#45;&#45;node0x600002a802d0 -->
<g id="edge4" class="edge">
<title>node0x600002a80330&#45;&#45;node0x600002a802d0</title>
<path fill="none" stroke="black" d="M505.26,-458.07C488.74,-442.48 464.08,-419.22 447.48,-403.56"/>
</g>
<!-- node0x600002a80210 -->
<g id="node6" class="node">
<title>node0x600002a80210</title>
<ellipse fill="none" stroke="black" cx="221.75" cy="-296.09" rx="94.51" ry="26.74"/>
<text text-anchor="middle" x="221.75" y="-299.89" font-family="Times,serif" font-size="14.00">IDENTIFIER_DATA</text>
<text text-anchor="middle" x="221.75" y="-284.89" font-family="Times,serif" font-size="14.00">a</text>
</g>
<!-- node0x600002a802d0&#45;&#45;node0x600002a80210 -->
<g id="edge5" class="edge">
<title>node0x600002a802d0&#45;&#45;node0x600002a80210</title>
<path fill="none" stroke="black" d="M394,-369.75C360.78,-355.73 310.92,-334.71 273.39,-318.87"/>
</g>
<!-- node0x600002a80270 -->
<g id="node7" class="node">
<title>node0x600002a80270</title>
<ellipse fill="none" stroke="black" cx="429.75" cy="-296.09" rx="94.51" ry="26.74"/>
<text text-anchor="middle" x="429.75" y="-299.89" font-family="Times,serif" font-size="14.00">IDENTIFIER_DATA</text>
<text text-anchor="middle" x="429.75" y="-284.89" font-family="Times,serif" font-size="14.00">b</text>
</g>
<!-- node0x600002a802d0&#45;&#45;node0x600002a80270 -->
<g id="edge6" class="edge">
<title>node0x600002a802d0&#45;&#45;node0x600002a80270</title>
<path fill="none" stroke="black" d="M429.75,-367.5C429.75,-354.81 429.75,-337.38 429.75,-323.04"/>
</g>
<!-- node0x600002a80360 -->
<g id="node9" class="node">
<title>node0x600002a80360</title>
<ellipse fill="none" stroke="black" cx="672.75" cy="-385.83" rx="94.51" ry="26.74"/>
<text text-anchor="middle" x="672.75" y="-389.63" font-family="Times,serif" font-size="14.00">IDENTIFIER_DATA</text>
<text text-anchor="middle" x="672.75" y="-374.63" font-family="Times,serif" font-size="14.00">arr</text>
</g>
<!-- node0x600002a80420&#45;&#45;node0x600002a80360 -->
<g id="edge8" class="edge">
<title>node0x600002a80420&#45;&#45;node0x600002a80360</title>
<path fill="none" stroke="black" d="M794.19,-457.86C771.23,-444.44 738.72,-425.42 713.11,-410.44"/>
</g>
<!-- node0x600002a80390 -->
<g id="node10" class="node">
<title>node0x600002a80390</title>
<ellipse fill="none" stroke="black" cx="868.75" cy="-385.83" rx="83.38" ry="26.74"/>
<text text-anchor="middle" x="868.75" y="-389.63" font-family="Times,serif" font-size="14.00">NUMBER_DATA</text>
<text text-anchor="middle" x="868.75" y="-374.63" font-family="Times,serif" font-size="14.00">10</text>
</g>
<!-- node0x600002a80420&#45;&#45;node0x600002a80390 -->
<g id="edge9" class="edge">
<title>node0x600002a80420&#45;&#45;node0x600002a80390</title>
<path fill="none" stroke="black" d="M831.84,-457.24C838.54,-444.45 847.77,-426.85 855.32,-412.44"/>
</g>
<!-- node0x600002a804b0 -->
<g id="node12" class="node">
<title>node0x600002a804b0</title>
<ellipse fill="none" stroke="black" cx="1271.75" cy="-475.57" rx="94.51" ry="26.74"/>
<text text-anchor="middle" x="1271.75" y="-479.37" font-family="Times,serif" font-size="14.00">IDENTIFIER_DATA</text>
<text text-anchor="middle" x="1271.75" y="-464.37" font-family="Times,serif" font-size="14.00">main</text>
</g>
<!-- node0x600002a811d0&#45;&#45;node0x600002a804b0 -->
<g id="edge11" class="edge">
<title>node0x600002a811d0&#45;&#45;node0x600002a804b0</title>
<path fill="none" stroke="black" d="M1439.62,-550.21C1407.82,-536.26 1358.68,-514.71 1321.77,-498.51"/>
</g>
<!-- node0x600002a804e0 -->
<g id="node13" class="node">
<title>node0x600002a804e0</title>
<ellipse fill="none" stroke="black" cx="1471.75" cy="-475.57" rx="87.18" ry="18"/>
<text text-anchor="middle" x="1471.75" y="-471.87" font-family="Times,serif" font-size="14.00">PARAMETER_LIST</text>
</g>
<!-- node0x600002a811d0&#45;&#45;node0x600002a804e0 -->
<g id="edge12" class="edge">
<title>node0x600002a811d0&#45;&#45;node0x600002a804e0</title>
<path fill="none" stroke="black" d="M1471.75,-546.98C1471.75,-531.59 1471.75,-509.24 1471.75,-493.87"/>
</g>
<!-- node0x600002a81170 -->
<g id="node14" class="node">
<title>node0x600002a81170</title>
<ellipse fill="none" stroke="black" cx="1616.75" cy="-475.57" rx="40.09" ry="18"/>
<text text-anchor="middle" x="1616.75" y="-471.87" font-family="Times,serif" font-size="14.00">BLOCK</text>
</g>
<!-- node0x600002a811d0&#45;&#45;node0x600002a81170 -->
<g id="edge13" class="edge">
<title>node0x600002a811d0&#45;&#45;node0x600002a81170</title>
<path fill="none" stroke="black" d="M1497.01,-549.03C1524.27,-532.53 1567.32,-506.48 1593.7,-490.52"/>
</g>
<!-- node0x600002a807e0 -->
<g id="node15" class="node">
<title>node0x600002a807e0</title>
<ellipse fill="none" stroke="black" cx="1076.75" cy="-385.83" rx="94.78" ry="18"/>
<text text-anchor="middle" x="1076.75" y="-382.13" font-family="Times,serif" font-size="14.00">DECLARATION_LIST</text>
</g>
<!-- node0x600002a81170&#45;&#45;node0x600002a807e0 -->
<g id="edge14" class="edge">
<title>node0x600002a81170&#45;&#45;node0x600002a807e0</title>
<path fill="none" stroke="black" d="M1594.07,-460.41C1586.03,-455.99 1576.74,-451.54 1567.75,-448.7 1433.99,-406.51 1271.16,-392.97 1170.73,-388.69"/>
</g>
<!-- node0x600002a81140 -->
<g id="node24" class="node">
<title>node0x600002a81140</title>
<ellipse fill="none" stroke="black" cx="1761.75" cy="-385.83" rx="85.29" ry="18"/>
<text text-anchor="middle" x="1761.75" y="-382.13" font-family="Times,serif" font-size="14.00">STATEMENT_LIST</text>
</g>
<!-- node0x600002a81170&#45;&#45;node0x600002a81140 -->
<g id="edge23" class="edge">
<title>node0x600002a81170&#45;&#45;node0x600002a81140</title>
<path fill="none" stroke="black" d="M1640.05,-460.47C1665.83,-444.88 1707.32,-419.77 1734.56,-403.28"/>
</g>
<!-- node0x600002a80690 -->
<g id="node16" class="node">
<title>node0x600002a80690</title>
<ellipse fill="none" stroke="black" cx="614.75" cy="-296.09" rx="72.29" ry="18"/>
<text text-anchor="middle" x="614.75" y="-292.39" font-family="Times,serif" font-size="14.00">DECLARATION</text>
</g>
<!-- node0x600002a807e0&#45;&#45;node0x600002a80690 -->
<g id="edge15" class="edge">
<title>node0x600002a807e0&#45;&#45;node0x600002a80690</title>
<path fill="none" stroke="black" d="M1018.14,-371.25C999.8,-367.14 979.46,-362.72 960.75,-358.96 860.24,-338.78 742.64,-318.44 673.67,-306.84"/>
</g>
<!-- node0x600002a807b0 -->
<g id="node21" class="node">
<title>node0x600002a807b0</title>
<ellipse fill="none" stroke="black" cx="1076.75" cy="-296.09" rx="72.29" ry="18"/>
<text text-anchor="middle" x="1076.75" y="-292.39" font-family="Times,serif" font-size="14.00">DECLARATION</text>
</g>
<!-- node0x600002a807e0&#45;&#45;node0x600002a807b0 -->
<g id="edge20" class="edge">
<title>node0x600002a807e0&#45;&#45;node0x600002a807b0</title>
<path fill="none" stroke="black" d="M1076.75,-367.5C1076.75,-352.11 1076.75,-329.76 1076.75,-314.39"/>
</g>
<!-- node0x600002a80510 -->
<g id="node17" class="node">
<title>node0x600002a80510</title>
<ellipse fill="none" stroke="black" cx="94.75" cy="-206.35" rx="94.51" ry="26.74"/>
<text text-anchor="middle" x="94.75" y="-210.15" font-family="Times,serif" font-size="14.00">IDENTIFIER_DATA</text>
<text text-anchor="middle" x="94.75" y="-195.15" font-family="Times,serif" font-size="14.00">A</text>
</g>
<!-- node0x600002a80690&#45;&#45;node0x600002a80510 -->
<g id="edge16" class="edge">
<title>node0x600002a80690&#45;&#45;node0x600002a80510</title>
<path fill="none" stroke="black" d="M575.22,-280.7C562.17,-276.43 547.47,-272.12 533.75,-269.22 387.24,-238.28 346.2,-259.36 198.75,-233.22 186.84,-231.11 174.28,-228.4 162.16,-225.54"/>
</g>
<!-- node0x600002a80570 -->
<g id="node18" class="node">
<title>node0x600002a80570</title>
<ellipse fill="none" stroke="black" cx="302.75" cy="-206.35" rx="94.51" ry="26.74"/>
<text text-anchor="middle" x="302.75" y="-210.15" font-family="Times,serif" font-size="14.00">IDENTIFIER_DATA</text>
<text text-anchor="middle" x="302.75" y="-195.15" font-family="Times,serif" font-size="14.00">B</text>
</g>
<!-- node0x600002a80690&#45;&#45;node0x600002a80570 -->
<g id="edge17" class="edge">
<title>node0x600002a80690&#45;&#45;node0x600002a80570</title>
<path fill="none" stroke="black" d="M572.41,-281.15C559.99,-277.17 546.36,-272.92 533.75,-269.22 479.67,-253.35 417.99,-236.92 371.98,-224.98"/>
</g>
<!-- node0x600002a805d0 -->
<g id="node19" class="node">
<title>node0x600002a805d0</title>
<ellipse fill="none" stroke="black" cx="510.75" cy="-206.35" rx="94.51" ry="26.74"/>
<text text-anchor="middle" x="510.75" y="-210.15" font-family="Times,serif" font-size="14.00">IDENTIFIER_DATA</text>
<text text-anchor="middle" x="510.75" y="-195.15" font-family="Times,serif" font-size="14.00">C</text>
</g>
<!-- node0x600002a80690&#45;&#45;node0x600002a805d0 -->
<g id="edge18" class="edge">
<title>node0x600002a80690&#45;&#45;node0x600002a805d0</title>
<path fill="none" stroke="black" d="M595.19,-278.59C579.66,-265.48 557.69,-246.95 540.06,-232.08"/>
</g>
<!-- node0x600002a80630 -->
<g id="node20" class="node">
<title>node0x600002a80630</title>
<ellipse fill="none" stroke="black" cx="718.75" cy="-206.35" rx="94.51" ry="26.74"/>
<text text-anchor="middle" x="718.75" y="-210.15" font-family="Times,serif" font-size="14.00">IDENTIFIER_DATA</text>
<text text-anchor="middle" x="718.75" y="-195.15" font-family="Times,serif" font-size="14.00">D</text>
</g>
<!-- node0x600002a80690&#45;&#45;node0x600002a80630 -->
<g id="edge19" class="edge">
<title>node0x600002a80690&#45;&#45;node0x600002a80630</title>
<path fill="none" stroke="black" d="M634.31,-278.59C649.85,-265.48 671.81,-246.95 689.45,-232.08"/>
</g>
<!-- node0x600002a806f0 -->
<g id="node22" class="node">
<title>node0x600002a806f0</title>
<ellipse fill="none" stroke="black" cx="926.75" cy="-206.35" rx="94.51" ry="26.74"/>
<text text-anchor="middle" x="926.75" y="-210.15" font-family="Times,serif" font-size="14.00">IDENTIFIER_DATA</text>
<text text-anchor="middle" x="926.75" y="-195.15" font-family="Times,serif" font-size="14.00">X</text>
</g>
<!-- node0x600002a807b0&#45;&#45;node0x600002a806f0 -->
<g id="edge21" class="edge">
<title>node0x600002a807b0&#45;&#45;node0x600002a806f0</title>
<path fill="none" stroke="black" d="M1049.24,-279C1026.23,-265.54 993.1,-246.16 967.1,-230.95"/>
</g>
<!-- node0x600002a80750 -->
<g id="node23" class="node">
<title>node0x600002a80750</title>
<ellipse fill="none" stroke="black" cx="1134.75" cy="-206.35" rx="94.51" ry="26.74"/>
<text text-anchor="middle" x="1134.75" y="-210.15" font-family="Times,serif" font-size="14.00">IDENTIFIER_DATA</text>
<text text-anchor="middle" x="1134.75" y="-195.15" font-family="Times,serif" font-size="14.00">Y</text>
</g>
<!-- node0x600002a807b0&#45;&#45;node0x600002a80750 -->
<g id="edge22" class="edge">
<title>node0x600002a807b0&#45;&#45;node0x600002a80750</title>
<path fill="none" stroke="black" d="M1087.94,-278.17C1096.43,-265.33 1108.25,-247.44 1117.89,-232.86"/>
</g>
<!-- node0x600002a80930 -->
<g id="node25" class="node">
<title>node0x600002a80930</title>
<ellipse fill="none" stroke="black" cx="1494.75" cy="-296.09" rx="92.08" ry="18"/>
<text text-anchor="middle" x="1494.75" y="-292.39" font-family="Times,serif" font-size="14.00">PRINT_STATEMENT</text>
</g>
<!-- node0x600002a81140&#45;&#45;node0x600002a80930 -->
<g id="edge24" class="edge">
<title>node0x600002a81140&#45;&#45;node0x600002a80930</title>
<path fill="none" stroke="black" d="M1717.06,-370.14C1668.07,-354.05 1589.88,-328.35 1540.48,-312.12"/>
</g>
<!-- node0x600002a80b70 -->
<g id="node28" class="node">
<title>node0x600002a80b70</title>
<ellipse fill="none" stroke="black" cx="1761.75" cy="-296.09" rx="124.28" ry="18"/>
<text text-anchor="middle" x="1761.75" y="-292.39" font-family="Times,serif" font-size="14.00">ASSIGNMENT_STATEMENT</text>
</g>
<!-- node0x600002a81140&#45;&#45;node0x600002a80b70 -->
<g id="edge27" class="edge">
<title>node0x600002a81140&#45;&#45;node0x600002a80b70</title>
<path fill="none" stroke="black" d="M1761.75,-367.5C1761.75,-352.11 1761.75,-329.76 1761.75,-314.39"/>
</g>
<!-- node0x600002a80e70 -->
<g id="node35" class="node">
<title>node0x600002a80e70</title>
<ellipse fill="none" stroke="black" cx="2011.75" cy="-296.09" rx="74.99" ry="18"/>
<text text-anchor="middle" x="2011.75" y="-292.39" font-family="Times,serif" font-size="14.00">IF_STATEMENT</text>
</g>
<!-- node0x600002a81140&#45;&#45;node0x600002a80e70 -->
<g id="edge34" class="edge">
<title>node0x600002a81140&#45;&#45;node0x600002a80e70</title>
<path fill="none" stroke="black" d="M1804.44,-369.85C1850.88,-353.55 1924.61,-327.67 1970.48,-311.57"/>
</g>
<!-- node0x600002a810e0 -->
<g id="node44" class="node">
<title>node0x600002a810e0</title>
<ellipse fill="none" stroke="black" cx="2338.75" cy="-296.09" rx="124.28" ry="18"/>
<text text-anchor="middle" x="2338.75" y="-292.39" font-family="Times,serif" font-size="14.00">ASSIGNMENT_STATEMENT</text>
</g>
<!-- node0x600002a81140&#45;&#45;node0x600002a810e0 -->
<g id="edge43" class="edge">
<title>node0x600002a81140&#45;&#45;node0x600002a810e0</title>
<path fill="none" stroke="black" d="M1829.35,-374.55C1935.3,-358.44 2140.19,-327.28 2255.21,-309.79"/>
</g>
<!-- node0x600002a80810 -->
<g id="node26" class="node">
<title>node0x600002a80810</title>
<ellipse fill="none" stroke="black" cx="1323.75" cy="-206.35" rx="76.24" ry="26.74"/>
<text text-anchor="middle" x="1323.75" y="-210.15" font-family="Times,serif" font-size="14.00">STRING_DATA</text>
<text text-anchor="middle" x="1323.75" y="-195.15" font-family="Times,serif" font-size="14.00">&quot;Hello&quot;</text>
</g>
<!-- node0x600002a80930&#45;&#45;node0x600002a80810 -->
<g id="edge25" class="edge">
<title>node0x600002a80930&#45;&#45;node0x600002a80810</title>
<path fill="none" stroke="black" d="M1462.99,-278.79C1435.66,-264.77 1396,-244.42 1365.99,-229.02"/>
</g>
<!-- node0x600002a808a0 -->
<g id="node27" class="node">
<title>node0x600002a808a0</title>
<ellipse fill="none" stroke="black" cx="1494.75" cy="-206.35" rx="76.24" ry="26.74"/>
<text text-anchor="middle" x="1494.75" y="-210.15" font-family="Times,serif" font-size="14.00">STRING_DATA</text>
<text text-anchor="middle" x="1494.75" y="-195.15" font-family="Times,serif" font-size="14.00">&quot;World&quot;</text>
</g>
<!-- node0x600002a80930&#45;&#45;node0x600002a808a0 -->
<g id="edge26" class="edge">
<title>node0x600002a80930&#45;&#45;node0x600002a808a0</title>
<path fill="none" stroke="black" d="M1494.75,-277.76C1494.75,-265.07 1494.75,-247.64 1494.75,-233.3"/>
</g>
<!-- node0x600002a809c0 -->
<g id="node29" class="node">
<title>node0x600002a809c0</title>
<ellipse fill="none" stroke="black" cx="1683.75" cy="-206.35" rx="94.51" ry="26.74"/>
<text text-anchor="middle" x="1683.75" y="-210.15" font-family="Times,serif" font-size="14.00">IDENTIFIER_DATA</text>
<text text-anchor="middle" x="1683.75" y="-195.15" font-family="Times,serif" font-size="14.00">A</text>
</g>
<!-- node0x600002a80b70&#45;&#45;node0x600002a809c0 -->
<g id="edge28" class="edge">
<title>node0x600002a80b70&#45;&#45;node0x600002a809c0</title>
<path fill="none" stroke="black" d="M1746.34,-277.76C1734.89,-264.87 1719.08,-247.09 1706.22,-232.63"/>
</g>
<!-- node0x600002a80b40 -->
<g id="node30" class="node">
<title>node0x600002a80b40</title>
<ellipse fill="none" stroke="black" cx="1865.75" cy="-206.35" rx="69.09" ry="26.74"/>
<text text-anchor="middle" x="1865.75" y="-210.15" font-family="Times,serif" font-size="14.00">EXPRESSION</text>
<text text-anchor="middle" x="1865.75" y="-195.15" font-family="Times,serif" font-size="14.00">+</text>
</g>
<!-- node0x600002a80b70&#45;&#45;node0x600002a80b40 -->
<g id="edge29" class="edge">
<title>node0x600002a80b70&#45;&#45;node0x600002a80b40</title>
<path fill="none" stroke="black" d="M1781.8,-278.17C1797.62,-264.83 1819.88,-246.05 1837.51,-231.18"/>
</g>
<!-- node0x600002a80ab0 -->
<g id="node31" class="node">
<title>node0x600002a80ab0</title>
<ellipse fill="none" stroke="black" cx="1437.75" cy="-116.61" rx="69.09" ry="26.74"/>
<text text-anchor="middle" x="1437.75" y="-120.41" font-family="Times,serif" font-size="14.00">EXPRESSION</text>
<text text-anchor="middle" x="1437.75" y="-105.41" font-family="Times,serif" font-size="14.00">+</text>
</g>
<!-- node0x600002a80b40&#45;&#45;node0x600002a80ab0 -->
<g id="edge30" class="edge">
<title>node0x600002a80b40&#45;&#45;node0x600002a80ab0</title>
<path fill="none" stroke="black" d="M1816.22,-187.37C1806.85,-184.41 1797.07,-181.62 1787.75,-179.48 1668.91,-152.16 1634.6,-170.8 1515.75,-143.48 1506.44,-141.34 1496.65,-138.55 1487.29,-135.59"/>
</g>
<!-- node0x600002a80ae0 -->
<g id="node34" class="node">
<title>node0x600002a80ae0</title>
<ellipse fill="none" stroke="black" cx="1619.75" cy="-116.61" rx="94.51" ry="26.74"/>
<text text-anchor="middle" x="1619.75" y="-120.41" font-family="Times,serif" font-size="14.00">IDENTIFIER_DATA</text>
<text text-anchor="middle" x="1619.75" y="-105.41" font-family="Times,serif" font-size="14.00">D</text>
</g>
<!-- node0x600002a80b40&#45;&#45;node0x600002a80ae0 -->
<g id="edge33" class="edge">
<title>node0x600002a80b40&#45;&#45;node0x600002a80ae0</title>
<path fill="none" stroke="black" d="M1815.67,-187.49C1775.64,-173.21 1719.47,-153.17 1677.53,-138.22"/>
</g>
<!-- node0x600002a809f0 -->
<g id="node32" class="node">
<title>node0x600002a809f0</title>
<ellipse fill="none" stroke="black" cx="1333.75" cy="-26.87" rx="94.51" ry="26.74"/>
<text text-anchor="middle" x="1333.75" y="-30.67" font-family="Times,serif" font-size="14.00">IDENTIFIER_DATA</text>
<text text-anchor="middle" x="1333.75" y="-15.67" font-family="Times,serif" font-size="14.00">B</text>
</g>
<!-- node0x600002a80ab0&#45;&#45;node0x600002a809f0 -->
<g id="edge31" class="edge">
<title>node0x600002a80ab0&#45;&#45;node0x600002a809f0</title>
<path fill="none" stroke="black" d="M1409.61,-91.87C1395.17,-79.69 1377.6,-64.86 1363.01,-52.55"/>
</g>
<!-- node0x600002a80a50 -->
<g id="node33" class="node">
<title>node0x600002a80a50</title>
<ellipse fill="none" stroke="black" cx="1541.75" cy="-26.87" rx="94.51" ry="26.74"/>
<text text-anchor="middle" x="1541.75" y="-30.67" font-family="Times,serif" font-size="14.00">IDENTIFIER_DATA</text>
<text text-anchor="middle" x="1541.75" y="-15.67" font-family="Times,serif" font-size="14.00">C</text>
</g>
<!-- node0x600002a80ab0&#45;&#45;node0x600002a80a50 -->
<g id="edge32" class="edge">
<title>node0x600002a80ab0&#45;&#45;node0x600002a80a50</title>
<path fill="none" stroke="black" d="M1465.9,-91.87C1480.33,-79.69 1497.9,-64.86 1512.5,-52.55"/>
</g>
<!-- node0x600002a80cc0 -->
<g id="node36" class="node">
<title>node0x600002a80cc0</title>
<ellipse fill="none" stroke="black" cx="2011.75" cy="-206.35" rx="58.88" ry="26.74"/>
<text text-anchor="middle" x="2011.75" y="-210.15" font-family="Times,serif" font-size="14.00">RELATION</text>
<text text-anchor="middle" x="2011.75" y="-195.15" font-family="Times,serif" font-size="14.00">&lt;</text>
</g>
<!-- node0x600002a80e70&#45;&#45;node0x600002a80cc0 -->
<g id="edge35" class="edge">
<title>node0x600002a80e70&#45;&#45;node0x600002a80cc0</title>
<path fill="none" stroke="black" d="M2011.75,-277.76C2011.75,-265.07 2011.75,-247.64 2011.75,-233.3"/>
</g>
<!-- node0x600002a80e10 -->
<g id="node39" class="node">
<title>node0x600002a80e10</title>
<ellipse fill="none" stroke="black" cx="2212.75" cy="-206.35" rx="124.28" ry="18"/>
<text text-anchor="middle" x="2212.75" y="-202.65" font-family="Times,serif" font-size="14.00">ASSIGNMENT_STATEMENT</text>
</g>
<!-- node0x600002a80e70&#45;&#45;node0x600002a80e10 -->
<g id="edge38" class="edge">
<title>node0x600002a80e70&#45;&#45;node0x600002a80e10</title>
<path fill="none" stroke="black" d="M2046.76,-279.81C2082.53,-264.19 2137.9,-240.02 2174.72,-223.95"/>
</g>
<!-- node0x600002a80c00 -->
<g id="node37" class="node">
<title>node0x600002a80c00</title>
<ellipse fill="none" stroke="black" cx="1827.75" cy="-116.61" rx="94.51" ry="26.74"/>
<text text-anchor="middle" x="1827.75" y="-120.41" font-family="Times,serif" font-size="14.00">IDENTIFIER_DATA</text>
<text text-anchor="middle" x="1827.75" y="-105.41" font-family="Times,serif" font-size="14.00">A</text>
</g>
<!-- node0x600002a80cc0&#45;&#45;node0x600002a80c00 -->
<g id="edge36" class="edge">
<title>node0x600002a80cc0&#45;&#45;node0x600002a80c00</title>
<path fill="none" stroke="black" d="M1971.83,-186.31C1943.4,-172.75 1905.07,-154.48 1875.09,-140.18"/>
</g>
<!-- node0x600002a80c60 -->
<g id="node38" class="node">
<title>node0x600002a80c60</title>
<ellipse fill="none" stroke="black" cx="2035.75" cy="-116.61" rx="94.51" ry="26.74"/>
<text text-anchor="middle" x="2035.75" y="-120.41" font-family="Times,serif" font-size="14.00">IDENTIFIER_DATA</text>
<text text-anchor="middle" x="2035.75" y="-105.41" font-family="Times,serif" font-size="14.00">B</text>
</g>
<!-- node0x600002a80cc0&#45;&#45;node0x600002a80c60 -->
<g id="edge37" class="edge">
<title>node0x600002a80cc0&#45;&#45;node0x600002a80c60</title>
<path fill="none" stroke="black" d="M2018.82,-179.5C2021.92,-168.18 2025.55,-154.92 2028.65,-143.58"/>
</g>
<!-- node0x600002a80cf0 -->
<g id="node40" class="node">
<title>node0x600002a80cf0</title>
<ellipse fill="none" stroke="black" cx="2243.75" cy="-116.61" rx="94.51" ry="26.74"/>
<text text-anchor="middle" x="2243.75" y="-120.41" font-family="Times,serif" font-size="14.00">IDENTIFIER_DATA</text>
<text text-anchor="middle" x="2243.75" y="-105.41" font-family="Times,serif" font-size="14.00">A</text>
</g>
<!-- node0x600002a80e10&#45;&#45;node0x600002a80cf0 -->
<g id="edge39" class="edge">
<title>node0x600002a80e10&#45;&#45;node0x600002a80cf0</title>
<path fill="none" stroke="black" d="M2218.88,-188.02C2223.36,-175.33 2229.52,-157.9 2234.58,-143.56"/>
</g>
<!-- node0x600002a80de0 -->
<g id="node41" class="node">
<title>node0x600002a80de0</title>
<ellipse fill="none" stroke="black" cx="2425.75" cy="-116.61" rx="69.09" ry="26.74"/>
<text text-anchor="middle" x="2425.75" y="-120.41" font-family="Times,serif" font-size="14.00">EXPRESSION</text>
<text text-anchor="middle" x="2425.75" y="-105.41" font-family="Times,serif" font-size="14.00">+</text>
</g>
<!-- node0x600002a80e10&#45;&#45;node0x600002a80de0 -->
<g id="edge40" class="edge">
<title>node0x600002a80e10&#45;&#45;node0x600002a80de0</title>
<path fill="none" stroke="black" d="M2252.82,-188.85C2288.73,-174.05 2341.42,-152.35 2379.19,-136.79"/>
</g>
<!-- node0x600002a80d20 -->
<g id="node42" class="node">
<title>node0x600002a80d20</title>
<ellipse fill="none" stroke="black" cx="2235.75" cy="-26.87" rx="94.51" ry="26.74"/>
<text text-anchor="middle" x="2235.75" y="-30.67" font-family="Times,serif" font-size="14.00">IDENTIFIER_DATA</text>
<text text-anchor="middle" x="2235.75" y="-15.67" font-family="Times,serif" font-size="14.00">A</text>
</g>
<!-- node0x600002a80de0&#45;&#45;node0x600002a80d20 -->
<g id="edge41" class="edge">
<title>node0x600002a80de0&#45;&#45;node0x600002a80d20</title>
<path fill="none" stroke="black" d="M2382.16,-95.48C2352.91,-81.97 2314.35,-64.17 2284.15,-50.22"/>
</g>
<!-- node0x600002a80d80 -->
<g id="node43" class="node">
<title>node0x600002a80d80</title>
<ellipse fill="none" stroke="black" cx="2431.75" cy="-26.87" rx="83.38" ry="26.74"/>
<text text-anchor="middle" x="2431.75" y="-30.67" font-family="Times,serif" font-size="14.00">NUMBER_DATA</text>
<text text-anchor="middle" x="2431.75" y="-15.67" font-family="Times,serif" font-size="14.00">1</text>
</g>
<!-- node0x600002a80de0&#45;&#45;node0x600002a80d80 -->
<g id="edge42" class="edge">
<title>node0x600002a80de0&#45;&#45;node0x600002a80d80</title>
<path fill="none" stroke="black" d="M2427.52,-89.76C2428.29,-78.44 2429.2,-65.18 2429.98,-53.84"/>
</g>
<!-- node0x600002a80f00 -->
<g id="node45" class="node">
<title>node0x600002a80f00</title>
<ellipse fill="none" stroke="black" cx="2449.75" cy="-206.35" rx="94.51" ry="26.74"/>
<text text-anchor="middle" x="2449.75" y="-210.15" font-family="Times,serif" font-size="14.00">IDENTIFIER_DATA</text>
<text text-anchor="middle" x="2449.75" y="-195.15" font-family="Times,serif" font-size="14.00">A</text>
</g>
<!-- node0x600002a810e0&#45;&#45;node0x600002a80f00 -->
<g id="edge44" class="edge">
<title>node0x600002a810e0&#45;&#45;node0x600002a80f00</title>
<path fill="none" stroke="black" d="M2360.42,-277.96C2377.07,-264.8 2400.3,-246.44 2418.9,-231.74"/>
</g>
<!-- node0x600002a810b0 -->
<g id="node46" class="node">
<title>node0x600002a810b0</title>
<ellipse fill="none" stroke="black" cx="2631.75" cy="-206.35" rx="69.09" ry="26.74"/>
<text text-anchor="middle" x="2631.75" y="-210.15" font-family="Times,serif" font-size="14.00">EXPRESSION</text>
<text text-anchor="middle" x="2631.75" y="-195.15" font-family="Times,serif" font-size="14.00">call</text>
</g>
<!-- node0x600002a810e0&#45;&#45;node0x600002a810b0 -->
<g id="edge45" class="edge">
<title>node0x600002a810e0&#45;&#45;node0x600002a810b0</title>
<path fill="none" stroke="black" d="M2394.62,-279.68C2438.12,-267.51 2499.95,-249.88 2553.75,-233.22 2562.47,-230.52 2571.71,-227.55 2580.66,-224.62"/>
</g>
<!-- node0x600002a80f30 -->
<g id="node47" class="node">
<title>node0x600002a80f30</title>
<ellipse fill="none" stroke="black" cx="2628.75" cy="-116.61" rx="94.51" ry="26.74"/>
<text text-anchor="middle" x="2628.75" y="-120.41" font-family="Times,serif" font-size="14.00">IDENTIFIER_DATA</text>
<text text-anchor="middle" x="2628.75" y="-105.41" font-family="Times,serif" font-size="14.00">another</text>
</g>
<!-- node0x600002a810b0&#45;&#45;node0x600002a80f30 -->
<g id="edge46" class="edge">
<title>node0x600002a810b0&#45;&#45;node0x600002a80f30</title>
<path fill="none" stroke="black" d="M2630.87,-179.5C2630.48,-168.18 2630.03,-154.92 2629.64,-143.58"/>
</g>
<!-- node0x600002a81050 -->
<g id="node48" class="node">
<title>node0x600002a81050</title>
<ellipse fill="none" stroke="black" cx="2828.75" cy="-116.61" rx="87.18" ry="18"/>
<text text-anchor="middle" x="2828.75" y="-112.91" font-family="Times,serif" font-size="14.00">EXPRESSION_LIST</text>
</g>
<!-- node0x600002a810b0&#45;&#45;node0x600002a81050 -->
<g id="edge47" class="edge">
<title>node0x600002a810b0&#45;&#45;node0x600002a81050</title>
<path fill="none" stroke="black" d="M2675.96,-185.66C2711.36,-169.9 2760.35,-148.07 2793.23,-133.43"/>
</g>
<!-- node0x600002a80f60 -->
<g id="node49" class="node">
<title>node0x600002a80f60</title>
<ellipse fill="none" stroke="black" cx="2640.75" cy="-26.87" rx="94.51" ry="26.74"/>
<text text-anchor="middle" x="2640.75" y="-30.67" font-family="Times,serif" font-size="14.00">IDENTIFIER_DATA</text>
<text text-anchor="middle" x="2640.75" y="-15.67" font-family="Times,serif" font-size="14.00">A</text>
</g>
<!-- node0x600002a81050&#45;&#45;node0x600002a80f60 -->
<g id="edge48" class="edge">
<title>node0x600002a81050&#45;&#45;node0x600002a80f60</title>
<path fill="none" stroke="black" d="M2794.71,-99.72C2765.08,-85.89 2721.81,-65.7 2688.69,-50.24"/>
</g>
<!-- node0x600002a80ff0 -->
<g id="node50" class="node">
<title>node0x600002a80ff0</title>
<ellipse fill="none" stroke="black" cx="2848.75" cy="-26.87" rx="94.51" ry="26.74"/>
<text text-anchor="middle" x="2848.75" y="-30.67" font-family="Times,serif" font-size="14.00">IDENTIFIER_DATA</text>
<text text-anchor="middle" x="2848.75" y="-15.67" font-family="Times,serif" font-size="14.00">B</text>
</g>
<!-- node0x600002a81050&#45;&#45;node0x600002a80ff0 -->
<g id="edge49" class="edge">
<title>node0x600002a81050&#45;&#45;node0x600002a80ff0</title>
<path fill="none" stroke="black" d="M2832.7,-98.28C2835.6,-85.59 2839.57,-68.16 2842.84,-53.82"/>
</g>
<!-- node0x600002a81260 -->
<g id="node52" class="node">
<title>node0x600002a81260</title>
<ellipse fill="none" stroke="black" cx="1822.75" cy="-565.31" rx="94.51" ry="26.74"/>
<text text-anchor="middle" x="1822.75" y="-569.11" font-family="Times,serif" font-size="14.00">IDENTIFIER_DATA</text>
<text text-anchor="middle" x="1822.75" y="-554.11" font-family="Times,serif" font-size="14.00">another</text>
</g>
<!-- node0x600002a81560&#45;&#45;node0x600002a81260 -->
<g id="edge51" class="edge">
<title>node0x600002a81560&#45;&#45;node0x600002a81260</title>
<path fill="none" stroke="black" d="M1902.52,-629.22C1888.59,-618.24 1869.82,-603.44 1853.99,-590.95"/>
</g>
<!-- node0x600002a81350 -->
<g id="node53" class="node">
<title>node0x600002a81350</title>
<ellipse fill="none" stroke="black" cx="2022.75" cy="-565.31" rx="87.18" ry="18"/>
<text text-anchor="middle" x="2022.75" y="-561.61" font-family="Times,serif" font-size="14.00">PARAMETER_LIST</text>
</g>
<!-- node0x600002a81560&#45;&#45;node0x600002a81350 -->
<g id="edge52" class="edge">
<title>node0x600002a81560&#45;&#45;node0x600002a81350</title>
<path fill="none" stroke="black" d="M1942.99,-629.22C1960,-615.81 1984.23,-596.7 2001.51,-583.06"/>
</g>
<!-- node0x600002a81500 -->
<g id="node56" class="node">
<title>node0x600002a81500</title>
<ellipse fill="none" stroke="black" cx="2306.75" cy="-565.31" rx="40.09" ry="18"/>
<text text-anchor="middle" x="2306.75" y="-561.61" font-family="Times,serif" font-size="14.00">BLOCK</text>
</g>
<!-- node0x600002a81560&#45;&#45;node0x600002a81500 -->
<g id="edge55" class="edge">
<title>node0x600002a81560&#45;&#45;node0x600002a81500</title>
<path fill="none" stroke="black" d="M1968.69,-635.75C2046.03,-619.86 2200.64,-588.1 2270.73,-573.71"/>
</g>
<!-- node0x600002a81290 -->
<g id="node54" class="node">
<title>node0x600002a81290</title>
<ellipse fill="none" stroke="black" cx="1918.75" cy="-475.57" rx="94.51" ry="26.74"/>
<text text-anchor="middle" x="1918.75" y="-479.37" font-family="Times,serif" font-size="14.00">IDENTIFIER_DATA</text>
<text text-anchor="middle" x="1918.75" y="-464.37" font-family="Times,serif" font-size="14.00">x</text>
</g>
<!-- node0x600002a81350&#45;&#45;node0x600002a81290 -->
<g id="edge53" class="edge">
<title>node0x600002a81350&#45;&#45;node0x600002a81290</title>
<path fill="none" stroke="black" d="M2002.7,-547.39C1987.24,-534.35 1965.62,-516.11 1948.19,-501.41"/>
</g>
<!-- node0x600002a812f0 -->
<g id="node55" class="node">
<title>node0x600002a812f0</title>
<ellipse fill="none" stroke="black" cx="2126.75" cy="-475.57" rx="94.51" ry="26.74"/>
<text text-anchor="middle" x="2126.75" y="-479.37" font-family="Times,serif" font-size="14.00">IDENTIFIER_DATA</text>
<text text-anchor="middle" x="2126.75" y="-464.37" font-family="Times,serif" font-size="14.00">y</text>
</g>
<!-- node0x600002a81350&#45;&#45;node0x600002a812f0 -->
<g id="edge54" class="edge">
<title>node0x600002a81350&#45;&#45;node0x600002a812f0</title>
<path fill="none" stroke="black" d="M2042.8,-547.39C2058.27,-534.35 2079.89,-516.11 2097.32,-501.41"/>
</g>
<!-- node0x600002a81470 -->
<g id="node57" class="node">
<title>node0x600002a81470</title>
<ellipse fill="none" stroke="black" cx="2426.75" cy="-475.57" rx="102.08" ry="18"/>
<text text-anchor="middle" x="2426.75" y="-471.87" font-family="Times,serif" font-size="14.00">RETURN_STATEMENT</text>
</g>
<!-- node0x600002a81500&#45;&#45;node0x600002a81470 -->
<g id="edge56" class="edge">
<title>node0x600002a81500&#45;&#45;node0x600002a81470</title>
<path fill="none" stroke="black" d="M2327.11,-549.43C2348.37,-533.88 2381.66,-509.54 2403.83,-493.33"/>
</g>
<!-- node0x600002a81440 -->
<g id="node58" class="node">
<title>node0x600002a81440</title>
<ellipse fill="none" stroke="black" cx="2575.75" cy="-385.83" rx="69.09" ry="26.74"/>
<text text-anchor="middle" x="2575.75" y="-389.63" font-family="Times,serif" font-size="14.00">EXPRESSION</text>
<text text-anchor="middle" x="2575.75" y="-374.63" font-family="Times,serif" font-size="14.00">+</text>
</g>
<!-- node0x600002a81470&#45;&#45;node0x600002a81440 -->
<g id="edge57" class="edge">
<title>node0x600002a81470&#45;&#45;node0x600002a81440</title>
<path fill="none" stroke="black" d="M2455.13,-457.86C2478.77,-443.94 2512.63,-424 2538.46,-408.79"/>
</g>
<!-- node0x600002a81380 -->
<g id="node59" class="node">
<title>node0x600002a81380</title>
<ellipse fill="none" stroke="black" cx="2575.75" cy="-296.09" rx="94.51" ry="26.74"/>
<text text-anchor="middle" x="2575.75" y="-299.89" font-family="Times,serif" font-size="14.00">IDENTIFIER_DATA</text>
<text text-anchor="middle" x="2575.75" y="-284.89" font-family="Times,serif" font-size="14.00">x</text>
</g>
<!-- node0x600002a81440&#45;&#45;node0x600002a81380 -->
<g id="edge58" class="edge">
<title>node0x600002a81440&#45;&#45;node0x600002a81380</title>
<path fill="none" stroke="black" d="M2575.75,-358.98C2575.75,-347.66 2575.75,-334.4 2575.75,-323.06"/>
</g>
<!-- node0x600002a813e0 -->
<g id="node60" class="node">
<title>node0x600002a813e0</title>
<ellipse fill="none" stroke="black" cx="2783.75" cy="-296.09" rx="94.51" ry="26.74"/>
<text text-anchor="middle" x="2783.75" y="-299.89" font-family="Times,serif" font-size="14.00">IDENTIFIER_DATA</text>
<text text-anchor="middle" x="2783.75" y="-284.89" font-family="Times,serif" font-size="14.00">y</text>
</g>
<!-- node0x600002a81440&#45;&#45;node0x600002a813e0 -->
<g id="edge59" class="edge">
<title>node0x600002a81440&#45;&#45;node0x600002a813e0</title>
<path fill="none" stroke="black" d="M2621.66,-365.47C2654.32,-351.69 2698.23,-333.16 2732.12,-318.87"/>
</g>
</g>
</svg>
