<?xml version="1.0" encoding="UTF-8" standalone="no"?>
<!DOCTYPE svg PUBLIC "-//W3C//DTD SVG 1.1//EN"
 "http://www.w3.org/Graphics/SVG/1.1/DTD/svg11.dtd">
<!-- Generated by graphviz version 7.1.0 (20230121.1956)
 -->
<!-- Pages: 1 -->
<svg width="3508pt" height="726pt"
 viewBox="0.00 0.00 3507.50 726.44" xmlns="http://www.w3.org/2000/svg" xmlns:xlink="http://www.w3.org/1999/xlink">
<g id="graph0" class="graph" transform="scale(1 1) rotate(0) translate(4 722.44)">
<polygon fill="white" stroke="none" points="-4,4 -4,-722.44 3503.5,-722.44 3503.5,4 -4,4"/>
<!-- node0x600003ef5620 -->
<g id="node1" class="node">
<title>node0x600003ef5620</title>
<ellipse fill="none" stroke="black" cx="1261.75" cy="-700.44" rx="69.59" ry="18"/>
<text text-anchor="middle" x="1261.75" y="-696.74" font-family="Times,serif" font-size="14.00">GLOBAL_LIST</text>
</g>
<!-- node0x600003ef4fc0 -->
<g id="node2" class="node">
<title>node0x600003ef4fc0</title>
<ellipse fill="none" stroke="black" cx="615.75" cy="-628.44" rx="55.49" ry="18"/>
<text text-anchor="middle" x="615.75" y="-624.74" font-family="Times,serif" font-size="14.00">FUNCTION</text>
</g>
<!-- node0x600003ef5620&#45;&#45;node0x600003ef4fc0 -->
<g id="edge1" class="edge">
<title>node0x600003ef5620&#45;&#45;node0x600003ef4fc0</title>
<path fill="none" stroke="black" d="M1198.34,-692.57C1070.7,-678.74 784.99,-647.78 667.61,-635.06"/>
</g>
<!-- node0x600003ef55c0 -->
<g id="node44" class="node">
<title>node0x600003ef55c0</title>
<ellipse fill="none" stroke="black" cx="1894.75" cy="-628.44" rx="55.49" ry="18"/>
<text text-anchor="middle" x="1894.75" y="-624.74" font-family="Times,serif" font-size="14.00">FUNCTION</text>
</g>
<!-- node0x600003ef5620&#45;&#45;node0x600003ef55c0 -->
<g id="edge43" class="edge">
<title>node0x600003ef5620&#45;&#45;node0x600003ef55c0</title>
<path fill="none" stroke="black" d="M1324.76,-692.47C1449.85,-678.64 1727.38,-647.95 1842.82,-635.18"/>
</g>
<!-- node0x600003ef4210 -->
<g id="node3" class="node">
<title>node0x600003ef4210</title>
<ellipse fill="none" stroke="black" cx="311.75" cy="-547.57" rx="94.51" ry="26.74"/>
<text text-anchor="middle" x="311.75" y="-551.37" font-family="Times,serif" font-size="14.00">IDENTIFIER_DATA</text>
<text text-anchor="middle" x="311.75" y="-536.37" font-family="Times,serif" font-size="14.00">main</text>
</g>
<!-- node0x600003ef4fc0&#45;&#45;node0x600003ef4210 -->
<g id="edge2" class="edge">
<title>node0x600003ef4fc0&#45;&#45;node0x600003ef4210</title>
<path fill="none" stroke="black" d="M573.48,-616.47C523.48,-603.5 439.55,-581.73 380.23,-566.34"/>
</g>
<!-- node0x600003ef4330 -->
<g id="node4" class="node">
<title>node0x600003ef4330</title>
<ellipse fill="none" stroke="black" cx="511.75" cy="-547.57" rx="87.18" ry="18"/>
<text text-anchor="middle" x="511.75" y="-543.87" font-family="Times,serif" font-size="14.00">PARAMETER_LIST</text>
</g>
<!-- node0x600003ef4fc0&#45;&#45;node0x600003ef4330 -->
<g id="edge3" class="edge">
<title>node0x600003ef4fc0&#45;&#45;node0x600003ef4330</title>
<path fill="none" stroke="black" d="M594.71,-611.48C577.02,-598.07 551.82,-578.96 533.84,-565.32"/>
</g>
<!-- node0x600003ef4f60 -->
<g id="node8" class="node">
<title>node0x600003ef4f60</title>
<ellipse fill="none" stroke="black" cx="719.75" cy="-547.57" rx="40.09" ry="18"/>
<text text-anchor="middle" x="719.75" y="-543.87" font-family="Times,serif" font-size="14.00">BLOCK</text>
</g>
<!-- node0x600003ef4fc0&#45;&#45;node0x600003ef4f60 -->
<g id="edge7" class="edge">
<title>node0x600003ef4fc0&#45;&#45;node0x600003ef4f60</title>
<path fill="none" stroke="black" d="M636.8,-611.48C655.32,-597.44 682.07,-577.15 700.14,-563.44"/>
</g>
<!-- node0x600003ef4240 -->
<g id="node5" class="node">
<title>node0x600003ef4240</title>
<ellipse fill="none" stroke="black" cx="95.75" cy="-457.83" rx="94.51" ry="26.74"/>
<text text-anchor="middle" x="95.75" y="-461.63" font-family="Times,serif" font-size="14.00">IDENTIFIER_DATA</text>
<text text-anchor="middle" x="95.75" y="-446.63" font-family="Times,serif" font-size="14.00">a</text>
</g>
<!-- node0x600003ef4330&#45;&#45;node0x600003ef4240 -->
<g id="edge4" class="edge">
<title>node0x600003ef4330&#45;&#45;node0x600003ef4240</title>
<path fill="none" stroke="black" d="M462.65,-532.34C447.67,-528.27 431.1,-524.04 415.75,-520.7 320.65,-500.01 295.05,-504.46 199.75,-484.7 188.18,-482.3 175.96,-479.5 164.11,-476.65"/>
</g>
<!-- node0x600003ef42a0 -->
<g id="node6" class="node">
<title>node0x600003ef42a0</title>
<ellipse fill="none" stroke="black" cx="303.75" cy="-457.83" rx="94.51" ry="26.74"/>
<text text-anchor="middle" x="303.75" y="-461.63" font-family="Times,serif" font-size="14.00">IDENTIFIER_DATA</text>
<text text-anchor="middle" x="303.75" y="-446.63" font-family="Times,serif" font-size="14.00">b</text>
</g>
<!-- node0x600003ef4330&#45;&#45;node0x600003ef42a0 -->
<g id="edge5" class="edge">
<title>node0x600003ef4330&#45;&#45;node0x600003ef42a0</title>
<path fill="none" stroke="black" d="M474.57,-530.88C441.38,-516.89 392.45,-496.25 355.46,-480.64"/>
</g>
<!-- node0x600003ef4300 -->
<g id="node7" class="node">
<title>node0x600003ef4300</title>
<ellipse fill="none" stroke="black" cx="511.75" cy="-457.83" rx="94.51" ry="26.74"/>
<text text-anchor="middle" x="511.75" y="-461.63" font-family="Times,serif" font-size="14.00">IDENTIFIER_DATA</text>
<text text-anchor="middle" x="511.75" y="-446.63" font-family="Times,serif" font-size="14.00">c</text>
</g>
<!-- node0x600003ef4330&#45;&#45;node0x600003ef4300 -->
<g id="edge6" class="edge">
<title>node0x600003ef4330&#45;&#45;node0x600003ef4300</title>
<path fill="none" stroke="black" d="M511.75,-529.24C511.75,-516.55 511.75,-499.12 511.75,-484.78"/>
</g>
<!-- node0x600003ef4540 -->
<g id="node9" class="node">
<title>node0x600003ef4540</title>
<ellipse fill="none" stroke="black" cx="719.75" cy="-457.83" rx="94.78" ry="18"/>
<text text-anchor="middle" x="719.75" y="-454.13" font-family="Times,serif" font-size="14.00">DECLARATION_LIST</text>
</g>
<!-- node0x600003ef4f60&#45;&#45;node0x600003ef4540 -->
<g id="edge8" class="edge">
<title>node0x600003ef4f60&#45;&#45;node0x600003ef4540</title>
<path fill="none" stroke="black" d="M719.75,-529.24C719.75,-513.85 719.75,-491.5 719.75,-476.13"/>
</g>
<!-- node0x600003ef4f30 -->
<g id="node15" class="node">
<title>node0x600003ef4f30</title>
<ellipse fill="none" stroke="black" cx="1104.75" cy="-457.83" rx="85.29" ry="18"/>
<text text-anchor="middle" x="1104.75" y="-454.13" font-family="Times,serif" font-size="14.00">STATEMENT_LIST</text>
</g>
<!-- node0x600003ef4f60&#45;&#45;node0x600003ef4f30 -->
<g id="edge14" class="edge">
<title>node0x600003ef4f60&#45;&#45;node0x600003ef4f30</title>
<path fill="none" stroke="black" d="M754.94,-538.55C821.77,-523.32 967.56,-490.1 1048.24,-471.71"/>
</g>
<!-- node0x600003ef4420 -->
<g id="node10" class="node">
<title>node0x600003ef4420</title>
<ellipse fill="none" stroke="black" cx="302.75" cy="-376.96" rx="72.29" ry="18"/>
<text text-anchor="middle" x="302.75" y="-373.26" font-family="Times,serif" font-size="14.00">DECLARATION</text>
</g>
<!-- node0x600003ef4540&#45;&#45;node0x600003ef4420 -->
<g id="edge9" class="edge">
<title>node0x600003ef4540&#45;&#45;node0x600003ef4420</title>
<path fill="none" stroke="black" d="M665.95,-442.62C649.86,-438.6 632.14,-434.38 615.75,-430.96 528.76,-412.8 427.17,-396.49 363.89,-386.9"/>
</g>
<!-- node0x600003ef44e0 -->
<g id="node13" class="node">
<title>node0x600003ef44e0</title>
<ellipse fill="none" stroke="black" cx="572.75" cy="-376.96" rx="72.29" ry="18"/>
<text text-anchor="middle" x="572.75" y="-373.26" font-family="Times,serif" font-size="14.00">DECLARATION</text>
</g>
<!-- node0x600003ef4540&#45;&#45;node0x600003ef44e0 -->
<g id="edge12" class="edge">
<title>node0x600003ef4540&#45;&#45;node0x600003ef44e0</title>
<path fill="none" stroke="black" d="M689.29,-440.49C663.73,-426.77 627.44,-407.3 602.17,-393.74"/>
</g>
<!-- node0x600003ef4390 -->
<g id="node11" class="node">
<title>node0x600003ef4390</title>
<ellipse fill="none" stroke="black" cx="94.75" cy="-296.09" rx="94.51" ry="26.74"/>
<text text-anchor="middle" x="94.75" y="-299.89" font-family="Times,serif" font-size="14.00">IDENTIFIER_DATA</text>
<text text-anchor="middle" x="94.75" y="-284.89" font-family="Times,serif" font-size="14.00">x</text>
</g>
<!-- node0x600003ef4420&#45;&#45;node0x600003ef4390 -->
<g id="edge10" class="edge">
<title>node0x600003ef4420&#45;&#45;node0x600003ef4390</title>
<path fill="none" stroke="black" d="M264.12,-361.31C232.04,-349.15 186.02,-331.7 150.05,-318.06"/>
</g>
<!-- node0x600003ef43f0 -->
<g id="node12" class="node">
<title>node0x600003ef43f0</title>
<ellipse fill="none" stroke="black" cx="302.75" cy="-296.09" rx="94.51" ry="26.74"/>
<text text-anchor="middle" x="302.75" y="-299.89" font-family="Times,serif" font-size="14.00">IDENTIFIER_DATA</text>
<text text-anchor="middle" x="302.75" y="-284.89" font-family="Times,serif" font-size="14.00">y</text>
</g>
<!-- node0x600003ef4420&#45;&#45;node0x600003ef43f0 -->
<g id="edge11" class="edge">
<title>node0x600003ef4420&#45;&#45;node0x600003ef43f0</title>
<path fill="none" stroke="black" d="M302.75,-358.85C302.75,-348.43 302.75,-334.91 302.75,-323.17"/>
</g>
<!-- node0x600003ef44b0 -->
<g id="node14" class="node">
<title>node0x600003ef44b0</title>
<ellipse fill="none" stroke="black" cx="510.75" cy="-296.09" rx="94.51" ry="26.74"/>
<text text-anchor="middle" x="510.75" y="-299.89" font-family="Times,serif" font-size="14.00">IDENTIFIER_DATA</text>
<text text-anchor="middle" x="510.75" y="-284.89" font-family="Times,serif" font-size="14.00">z</text>
</g>
<!-- node0x600003ef44e0&#45;&#45;node0x600003ef44b0 -->
<g id="edge13" class="edge">
<title>node0x600003ef44e0&#45;&#45;node0x600003ef44b0</title>
<path fill="none" stroke="black" d="M559.3,-358.85C550.97,-348.25 540.11,-334.43 530.78,-322.56"/>
</g>
<!-- node0x600003ef4690 -->
<g id="node16" class="node">
<title>node0x600003ef4690</title>
<ellipse fill="none" stroke="black" cx="870.75" cy="-376.96" rx="124.28" ry="18"/>
<text text-anchor="middle" x="870.75" y="-373.26" font-family="Times,serif" font-size="14.00">ASSIGNMENT_STATEMENT</text>
</g>
<!-- node0x600003ef4f30&#45;&#45;node0x600003ef4690 -->
<g id="edge15" class="edge">
<title>node0x600003ef4f30&#45;&#45;node0x600003ef4690</title>
<path fill="none" stroke="black" d="M1060.74,-442C1020.09,-428.3 959.89,-408 918.19,-393.95"/>
</g>
<!-- node0x600003ef47b0 -->
<g id="node21" class="node">
<title>node0x600003ef47b0</title>
<ellipse fill="none" stroke="black" cx="1104.75" cy="-376.96" rx="92.08" ry="18"/>
<text text-anchor="middle" x="1104.75" y="-373.26" font-family="Times,serif" font-size="14.00">PRINT_STATEMENT</text>
</g>
<!-- node0x600003ef4f30&#45;&#45;node0x600003ef47b0 -->
<g id="edge20" class="edge">
<title>node0x600003ef4f30&#45;&#45;node0x600003ef47b0</title>
<path fill="none" stroke="black" d="M1104.75,-439.72C1104.75,-426.58 1104.75,-408.51 1104.75,-395.31"/>
</g>
<!-- node0x600003ef4a50 -->
<g id="node23" class="node">
<title>node0x600003ef4a50</title>
<ellipse fill="none" stroke="black" cx="1289.75" cy="-376.96" rx="74.99" ry="18"/>
<text text-anchor="middle" x="1289.75" y="-373.26" font-family="Times,serif" font-size="14.00">IF_STATEMENT</text>
</g>
<!-- node0x600003ef4f30&#45;&#45;node0x600003ef4a50 -->
<g id="edge22" class="edge">
<title>node0x600003ef4f30&#45;&#45;node0x600003ef4a50</title>
<path fill="none" stroke="black" d="M1141.3,-441.25C1174.05,-427.29 1221.79,-406.94 1254.22,-393.11"/>
</g>
<!-- node0x600003ef4ed0 -->
<g id="node30" class="node">
<title>node0x600003ef4ed0</title>
<ellipse fill="none" stroke="black" cx="1850.75" cy="-376.96" rx="40.09" ry="18"/>
<text text-anchor="middle" x="1850.75" y="-373.26" font-family="Times,serif" font-size="14.00">BLOCK</text>
</g>
<!-- node0x600003ef4f30&#45;&#45;node0x600003ef4ed0 -->
<g id="edge29" class="edge">
<title>node0x600003ef4f30&#45;&#45;node0x600003ef4ed0</title>
<path fill="none" stroke="black" d="M1179.7,-448.91C1336.36,-432.34 1693.75,-394.56 1811.98,-382.06"/>
</g>
<!-- node0x600003ef4570 -->
<g id="node17" class="node">
<title>node0x600003ef4570</title>
<ellipse fill="none" stroke="black" cx="718.75" cy="-296.09" rx="94.51" ry="26.74"/>
<text text-anchor="middle" x="718.75" y="-299.89" font-family="Times,serif" font-size="14.00">IDENTIFIER_DATA</text>
<text text-anchor="middle" x="718.75" y="-284.89" font-family="Times,serif" font-size="14.00">a</text>
</g>
<!-- node0x600003ef4690&#45;&#45;node0x600003ef4570 -->
<g id="edge16" class="edge">
<title>node0x600003ef4690&#45;&#45;node0x600003ef4570</title>
<path fill="none" stroke="black" d="M838.52,-359.23C816.56,-347.84 787.2,-332.61 763.05,-320.08"/>
</g>
<!-- node0x600003ef4660 -->
<g id="node18" class="node">
<title>node0x600003ef4660</title>
<ellipse fill="none" stroke="black" cx="900.75" cy="-296.09" rx="69.09" ry="26.74"/>
<text text-anchor="middle" x="900.75" y="-299.89" font-family="Times,serif" font-size="14.00">EXPRESSION</text>
<text text-anchor="middle" x="900.75" y="-284.89" font-family="Times,serif" font-size="14.00">+</text>
</g>
<!-- node0x600003ef4690&#45;&#45;node0x600003ef4660 -->
<g id="edge17" class="edge">
<title>node0x600003ef4690&#45;&#45;node0x600003ef4660</title>
<path fill="none" stroke="black" d="M877.26,-358.85C881.26,-348.34 886.46,-334.67 890.95,-322.87"/>
</g>
<!-- node0x600003ef45a0 -->
<g id="node19" class="node">
<title>node0x600003ef45a0</title>
<ellipse fill="none" stroke="black" cx="672.75" cy="-206.35" rx="94.51" ry="26.74"/>
<text text-anchor="middle" x="672.75" y="-210.15" font-family="Times,serif" font-size="14.00">IDENTIFIER_DATA</text>
<text text-anchor="middle" x="672.75" y="-195.15" font-family="Times,serif" font-size="14.00">b</text>
</g>
<!-- node0x600003ef4660&#45;&#45;node0x600003ef45a0 -->
<g id="edge18" class="edge">
<title>node0x600003ef4660&#45;&#45;node0x600003ef45a0</title>
<path fill="none" stroke="black" d="M852.68,-276.59C816.1,-262.51 765.71,-243.12 727.57,-228.44"/>
</g>
<!-- node0x600003ef4600 -->
<g id="node20" class="node">
<title>node0x600003ef4600</title>
<ellipse fill="none" stroke="black" cx="880.75" cy="-206.35" rx="94.51" ry="26.74"/>
<text text-anchor="middle" x="880.75" y="-210.15" font-family="Times,serif" font-size="14.00">IDENTIFIER_DATA</text>
<text text-anchor="middle" x="880.75" y="-195.15" font-family="Times,serif" font-size="14.00">c</text>
</g>
<!-- node0x600003ef4660&#45;&#45;node0x600003ef4600 -->
<g id="edge19" class="edge">
<title>node0x600003ef4660&#45;&#45;node0x600003ef4600</title>
<path fill="none" stroke="black" d="M894.86,-269.24C892.28,-257.92 889.26,-244.66 886.67,-233.32"/>
</g>
<!-- node0x600003ef4720 -->
<g id="node22" class="node">
<title>node0x600003ef4720</title>
<ellipse fill="none" stroke="black" cx="1104.75" cy="-296.09" rx="94.51" ry="26.74"/>
<text text-anchor="middle" x="1104.75" y="-299.89" font-family="Times,serif" font-size="14.00">IDENTIFIER_DATA</text>
<text text-anchor="middle" x="1104.75" y="-284.89" font-family="Times,serif" font-size="14.00">x</text>
</g>
<!-- node0x600003ef47b0&#45;&#45;node0x600003ef4720 -->
<g id="edge21" class="edge">
<title>node0x600003ef47b0&#45;&#45;node0x600003ef4720</title>
<path fill="none" stroke="black" d="M1104.75,-358.85C1104.75,-348.43 1104.75,-334.91 1104.75,-323.17"/>
</g>
<!-- node0x600003ef4930 -->
<g id="node24" class="node">
<title>node0x600003ef4930</title>
<ellipse fill="none" stroke="black" cx="1282.75" cy="-296.09" rx="58.88" ry="26.74"/>
<text text-anchor="middle" x="1282.75" y="-299.89" font-family="Times,serif" font-size="14.00">RELATION</text>
<text text-anchor="middle" x="1282.75" y="-284.89" font-family="Times,serif" font-size="14.00">=</text>
</g>
<!-- node0x600003ef4a50&#45;&#45;node0x600003ef4930 -->
<g id="edge23" class="edge">
<title>node0x600003ef4a50&#45;&#45;node0x600003ef4930</title>
<path fill="none" stroke="black" d="M1288.23,-358.85C1287.31,-348.43 1286.11,-334.91 1285.07,-323.17"/>
</g>
<!-- node0x600003ef49f0 -->
<g id="node27" class="node">
<title>node0x600003ef49f0</title>
<ellipse fill="none" stroke="black" cx="1483.75" cy="-296.09" rx="124.28" ry="18"/>
<text text-anchor="middle" x="1483.75" y="-292.39" font-family="Times,serif" font-size="14.00">ASSIGNMENT_STATEMENT</text>
</g>
<!-- node0x600003ef4a50&#45;&#45;node0x600003ef49f0 -->
<g id="edge26" class="edge">
<title>node0x600003ef4a50&#45;&#45;node0x600003ef49f0</title>
<path fill="none" stroke="black" d="M1326.7,-360.94C1360.01,-347.4 1408.9,-327.52 1443.26,-313.55"/>
</g>
<!-- node0x600003ef4870 -->
<g id="node25" class="node">
<title>node0x600003ef4870</title>
<ellipse fill="none" stroke="black" cx="1088.75" cy="-206.35" rx="94.51" ry="26.74"/>
<text text-anchor="middle" x="1088.75" y="-210.15" font-family="Times,serif" font-size="14.00">IDENTIFIER_DATA</text>
<text text-anchor="middle" x="1088.75" y="-195.15" font-family="Times,serif" font-size="14.00">y</text>
</g>
<!-- node0x600003ef4930&#45;&#45;node0x600003ef4870 -->
<g id="edge24" class="edge">
<title>node0x600003ef4930&#45;&#45;node0x600003ef4870</title>
<path fill="none" stroke="black" d="M1241.61,-276.48C1211.25,-262.75 1169.8,-244.01 1137.73,-229.5"/>
</g>
<!-- node0x600003ef48d0 -->
<g id="node26" class="node">
<title>node0x600003ef48d0</title>
<ellipse fill="none" stroke="black" cx="1284.75" cy="-206.35" rx="83.38" ry="26.74"/>
<text text-anchor="middle" x="1284.75" y="-210.15" font-family="Times,serif" font-size="14.00">NUMBER_DATA</text>
<text text-anchor="middle" x="1284.75" y="-195.15" font-family="Times,serif" font-size="14.00">0</text>
</g>
<!-- node0x600003ef4930&#45;&#45;node0x600003ef48d0 -->
<g id="edge25" class="edge">
<title>node0x600003ef4930&#45;&#45;node0x600003ef48d0</title>
<path fill="none" stroke="black" d="M1283.34,-269.24C1283.6,-257.92 1283.9,-244.66 1284.16,-233.32"/>
</g>
<!-- node0x600003ef4960 -->
<g id="node28" class="node">
<title>node0x600003ef4960</title>
<ellipse fill="none" stroke="black" cx="1480.75" cy="-206.35" rx="94.51" ry="26.74"/>
<text text-anchor="middle" x="1480.75" y="-210.15" font-family="Times,serif" font-size="14.00">IDENTIFIER_DATA</text>
<text text-anchor="middle" x="1480.75" y="-195.15" font-family="Times,serif" font-size="14.00">c</text>
</g>
<!-- node0x600003ef49f0&#45;&#45;node0x600003ef4960 -->
<g id="edge27" class="edge">
<title>node0x600003ef49f0&#45;&#45;node0x600003ef4960</title>
<path fill="none" stroke="black" d="M1483.16,-277.76C1482.73,-265.07 1482.13,-247.64 1481.64,-233.3"/>
</g>
<!-- node0x600003ef4990 -->
<g id="node29" class="node">
<title>node0x600003ef4990</title>
<ellipse fill="none" stroke="black" cx="1676.75" cy="-206.35" rx="83.38" ry="26.74"/>
<text text-anchor="middle" x="1676.75" y="-210.15" font-family="Times,serif" font-size="14.00">NUMBER_DATA</text>
<text text-anchor="middle" x="1676.75" y="-195.15" font-family="Times,serif" font-size="14.00">6</text>
</g>
<!-- node0x600003ef49f0&#45;&#45;node0x600003ef4990 -->
<g id="edge28" class="edge">
<title>node0x600003ef49f0&#45;&#45;node0x600003ef4990</title>
<path fill="none" stroke="black" d="M1520.05,-278.59C1551.07,-264.49 1595.89,-244.11 1629.65,-228.76"/>
</g>
<!-- node0x600003ef4bd0 -->
<g id="node31" class="node">
<title>node0x600003ef4bd0</title>
<ellipse fill="none" stroke="black" cx="1850.75" cy="-296.09" rx="94.78" ry="18"/>
<text text-anchor="middle" x="1850.75" y="-292.39" font-family="Times,serif" font-size="14.00">DECLARATION_LIST</text>
</g>
<!-- node0x600003ef4ed0&#45;&#45;node0x600003ef4bd0 -->
<g id="edge30" class="edge">
<title>node0x600003ef4ed0&#45;&#45;node0x600003ef4bd0</title>
<path fill="none" stroke="black" d="M1850.75,-358.85C1850.75,-345.71 1850.75,-327.64 1850.75,-314.44"/>
</g>
<!-- node0x600003ef4ea0 -->
<g id="node35" class="node">
<title>node0x600003ef4ea0</title>
<ellipse fill="none" stroke="black" cx="2136.75" cy="-296.09" rx="85.29" ry="18"/>
<text text-anchor="middle" x="2136.75" y="-292.39" font-family="Times,serif" font-size="14.00">STATEMENT_LIST</text>
</g>
<!-- node0x600003ef4ed0&#45;&#45;node0x600003ef4ea0 -->
<g id="edge34" class="edge">
<title>node0x600003ef4ed0&#45;&#45;node0x600003ef4ea0</title>
<path fill="none" stroke="black" d="M1884.4,-366.68C1934.31,-352.92 2028.3,-327 2086.42,-310.97"/>
</g>
<!-- node0x600003ef4b70 -->
<g id="node32" class="node">
<title>node0x600003ef4b70</title>
<ellipse fill="none" stroke="black" cx="1850.75" cy="-206.35" rx="72.29" ry="18"/>
<text text-anchor="middle" x="1850.75" y="-202.65" font-family="Times,serif" font-size="14.00">DECLARATION</text>
</g>
<!-- node0x600003ef4bd0&#45;&#45;node0x600003ef4b70 -->
<g id="edge31" class="edge">
<title>node0x600003ef4bd0&#45;&#45;node0x600003ef4b70</title>
<path fill="none" stroke="black" d="M1850.75,-277.76C1850.75,-262.37 1850.75,-240.02 1850.75,-224.65"/>
</g>
<!-- node0x600003ef4ae0 -->
<g id="node33" class="node">
<title>node0x600003ef4ae0</title>
<ellipse fill="none" stroke="black" cx="1606.75" cy="-116.61" rx="94.51" ry="26.74"/>
<text text-anchor="middle" x="1606.75" y="-120.41" font-family="Times,serif" font-size="14.00">IDENTIFIER_DATA</text>
<text text-anchor="middle" x="1606.75" y="-105.41" font-family="Times,serif" font-size="14.00">X</text>
</g>
<!-- node0x600003ef4b70&#45;&#45;node0x600003ef4ae0 -->
<g id="edge32" class="edge">
<title>node0x600003ef4b70&#45;&#45;node0x600003ef4ae0</title>
<path fill="none" stroke="black" d="M1810.73,-190.96C1770.85,-176.62 1709.21,-154.45 1664.12,-138.24"/>
</g>
<!-- node0x600003ef4b40 -->
<g id="node34" class="node">
<title>node0x600003ef4b40</title>
<ellipse fill="none" stroke="black" cx="1814.75" cy="-116.61" rx="94.51" ry="26.74"/>
<text text-anchor="middle" x="1814.75" y="-120.41" font-family="Times,serif" font-size="14.00">IDENTIFIER_DATA</text>
<text text-anchor="middle" x="1814.75" y="-105.41" font-family="Times,serif" font-size="14.00">Y</text>
</g>
<!-- node0x600003ef4b70&#45;&#45;node0x600003ef4b40 -->
<g id="edge33" class="edge">
<title>node0x600003ef4b70&#45;&#45;node0x600003ef4b40</title>
<path fill="none" stroke="black" d="M1843.64,-188.02C1838.44,-175.33 1831.28,-157.9 1825.4,-143.56"/>
</g>
<!-- node0x600003ef4c90 -->
<g id="node36" class="node">
<title>node0x600003ef4c90</title>
<ellipse fill="none" stroke="black" cx="2136.75" cy="-206.35" rx="124.28" ry="18"/>
<text text-anchor="middle" x="2136.75" y="-202.65" font-family="Times,serif" font-size="14.00">ASSIGNMENT_STATEMENT</text>
</g>
<!-- node0x600003ef4ea0&#45;&#45;node0x600003ef4c90 -->
<g id="edge35" class="edge">
<title>node0x600003ef4ea0&#45;&#45;node0x600003ef4c90</title>
<path fill="none" stroke="black" d="M2136.75,-277.76C2136.75,-262.37 2136.75,-240.02 2136.75,-224.65"/>
</g>
<!-- node0x600003ef4e40 -->
<g id="node39" class="node">
<title>node0x600003ef4e40</title>
<ellipse fill="none" stroke="black" cx="2438.75" cy="-206.35" rx="124.28" ry="18"/>
<text text-anchor="middle" x="2438.75" y="-202.65" font-family="Times,serif" font-size="14.00">ASSIGNMENT_STATEMENT</text>
</g>
<!-- node0x600003ef4ea0&#45;&#45;node0x600003ef4e40 -->
<g id="edge38" class="edge">
<title>node0x600003ef4ea0&#45;&#45;node0x600003ef4e40</title>
<path fill="none" stroke="black" d="M2185.61,-280.9C2240.2,-265.04 2328.32,-239.44 2384.87,-223.01"/>
</g>
<!-- node0x600003ef4c00 -->
<g id="node37" class="node">
<title>node0x600003ef4c00</title>
<ellipse fill="none" stroke="black" cx="2022.75" cy="-116.61" rx="94.51" ry="26.74"/>
<text text-anchor="middle" x="2022.75" y="-120.41" font-family="Times,serif" font-size="14.00">IDENTIFIER_DATA</text>
<text text-anchor="middle" x="2022.75" y="-105.41" font-family="Times,serif" font-size="14.00">X</text>
</g>
<!-- node0x600003ef4c90&#45;&#45;node0x600003ef4c00 -->
<g id="edge36" class="edge">
<title>node0x600003ef4c90&#45;&#45;node0x600003ef4c00</title>
<path fill="none" stroke="black" d="M2114.5,-188.22C2097.39,-175.06 2073.54,-156.7 2054.44,-142"/>
</g>
<!-- node0x600003ef4c30 -->
<g id="node38" class="node">
<title>node0x600003ef4c30</title>
<ellipse fill="none" stroke="black" cx="2230.75" cy="-116.61" rx="94.51" ry="26.74"/>
<text text-anchor="middle" x="2230.75" y="-120.41" font-family="Times,serif" font-size="14.00">IDENTIFIER_DATA</text>
<text text-anchor="middle" x="2230.75" y="-105.41" font-family="Times,serif" font-size="14.00">x</text>
</g>
<!-- node0x600003ef4c90&#45;&#45;node0x600003ef4c30 -->
<g id="edge37" class="edge">
<title>node0x600003ef4c90&#45;&#45;node0x600003ef4c30</title>
<path fill="none" stroke="black" d="M2154.88,-188.43C2168.85,-175.39 2188.4,-157.15 2204.15,-142.45"/>
</g>
<!-- node0x600003ef4d20 -->
<g id="node40" class="node">
<title>node0x600003ef4d20</title>
<ellipse fill="none" stroke="black" cx="2438.75" cy="-116.61" rx="94.51" ry="26.74"/>
<text text-anchor="middle" x="2438.75" y="-120.41" font-family="Times,serif" font-size="14.00">IDENTIFIER_DATA</text>
<text text-anchor="middle" x="2438.75" y="-105.41" font-family="Times,serif" font-size="14.00">Y</text>
</g>
<!-- node0x600003ef4e40&#45;&#45;node0x600003ef4d20 -->
<g id="edge39" class="edge">
<title>node0x600003ef4e40&#45;&#45;node0x600003ef4d20</title>
<path fill="none" stroke="black" d="M2438.75,-188.02C2438.75,-175.33 2438.75,-157.9 2438.75,-143.56"/>
</g>
<!-- node0x600003ef4e10 -->
<g id="node41" class="node">
<title>node0x600003ef4e10</title>
<ellipse fill="none" stroke="black" cx="2620.75" cy="-116.61" rx="69.09" ry="26.74"/>
<text text-anchor="middle" x="2620.75" y="-120.41" font-family="Times,serif" font-size="14.00">EXPRESSION</text>
<text text-anchor="middle" x="2620.75" y="-105.41" font-family="Times,serif" font-size="14.00">+</text>
</g>
<!-- node0x600003ef4e40&#45;&#45;node0x600003ef4e10 -->
<g id="edge40" class="edge">
<title>node0x600003ef4e40&#45;&#45;node0x600003ef4e10</title>
<path fill="none" stroke="black" d="M2473.41,-188.64C2503.22,-174.27 2546.32,-153.49 2578.21,-138.12"/>
</g>
<!-- node0x600003ef4d50 -->
<g id="node42" class="node">
<title>node0x600003ef4d50</title>
<ellipse fill="none" stroke="black" cx="2516.75" cy="-26.87" rx="94.51" ry="26.74"/>
<text text-anchor="middle" x="2516.75" y="-30.67" font-family="Times,serif" font-size="14.00">IDENTIFIER_DATA</text>
<text text-anchor="middle" x="2516.75" y="-15.67" font-family="Times,serif" font-size="14.00">a</text>
</g>
<!-- node0x600003ef4e10&#45;&#45;node0x600003ef4d50 -->
<g id="edge41" class="edge">
<title>node0x600003ef4e10&#45;&#45;node0x600003ef4d50</title>
<path fill="none" stroke="black" d="M2592.61,-91.87C2578.17,-79.69 2560.6,-64.86 2546.01,-52.55"/>
</g>
<!-- node0x600003ef4db0 -->
<g id="node43" class="node">
<title>node0x600003ef4db0</title>
<ellipse fill="none" stroke="black" cx="2724.75" cy="-26.87" rx="94.51" ry="26.74"/>
<text text-anchor="middle" x="2724.75" y="-30.67" font-family="Times,serif" font-size="14.00">IDENTIFIER_DATA</text>
<text text-anchor="middle" x="2724.75" y="-15.67" font-family="Times,serif" font-size="14.00">b</text>
</g>
<!-- node0x600003ef4e10&#45;&#45;node0x600003ef4db0 -->
<g id="edge42" class="edge">
<title>node0x600003ef4e10&#45;&#45;node0x600003ef4db0</title>
<path fill="none" stroke="black" d="M2648.9,-91.87C2663.33,-79.69 2680.9,-64.86 2695.5,-52.55"/>
</g>
<!-- node0x600003ef5050 -->
<g id="node45" class="node">
<title>node0x600003ef5050</title>
<ellipse fill="none" stroke="black" cx="1794.75" cy="-547.57" rx="94.51" ry="26.74"/>
<text text-anchor="middle" x="1794.75" y="-551.37" font-family="Times,serif" font-size="14.00">IDENTIFIER_DATA</text>
<text text-anchor="middle" x="1794.75" y="-536.37" font-family="Times,serif" font-size="14.00">otherFunc</text>
</g>
<!-- node0x600003ef55c0&#45;&#45;node0x600003ef5050 -->
<g id="edge44" class="edge">
<title>node0x600003ef55c0&#45;&#45;node0x600003ef5050</title>
<path fill="none" stroke="black" d="M1874.52,-611.48C1860.59,-600.5 1841.82,-585.69 1825.99,-573.21"/>
</g>
<!-- node0x600003ef5080 -->
<g id="node46" class="node">
<title>node0x600003ef5080</title>
<ellipse fill="none" stroke="black" cx="1994.75" cy="-547.57" rx="87.18" ry="18"/>
<text text-anchor="middle" x="1994.75" y="-543.87" font-family="Times,serif" font-size="14.00">PARAMETER_LIST</text>
</g>
<!-- node0x600003ef55c0&#45;&#45;node0x600003ef5080 -->
<g id="edge45" class="edge">
<title>node0x600003ef55c0&#45;&#45;node0x600003ef5080</title>
<path fill="none" stroke="black" d="M1914.99,-611.48C1932,-598.07 1956.23,-578.96 1973.51,-565.32"/>
</g>
<!-- node0x600003ef5560 -->
<g id="node47" class="node">
<title>node0x600003ef5560</title>
<ellipse fill="none" stroke="black" cx="2462.75" cy="-547.57" rx="40.09" ry="18"/>
<text text-anchor="middle" x="2462.75" y="-543.87" font-family="Times,serif" font-size="14.00">BLOCK</text>
</g>
<!-- node0x600003ef55c0&#45;&#45;node0x600003ef5560 -->
<g id="edge46" class="edge">
<title>node0x600003ef55c0&#45;&#45;node0x600003ef5560</title>
<path fill="none" stroke="black" d="M1945.16,-620.44C2057.29,-604.87 2325.3,-567.66 2424.76,-553.85"/>
</g>
<!-- node0x600003ef51a0 -->
<g id="node48" class="node">
<title>node0x600003ef51a0</title>
<ellipse fill="none" stroke="black" cx="2462.75" cy="-457.83" rx="94.78" ry="18"/>
<text text-anchor="middle" x="2462.75" y="-454.13" font-family="Times,serif" font-size="14.00">DECLARATION_LIST</text>
</g>
<!-- node0x600003ef5560&#45;&#45;node0x600003ef51a0 -->
<g id="edge47" class="edge">
<title>node0x600003ef5560&#45;&#45;node0x600003ef51a0</title>
<path fill="none" stroke="black" d="M2462.75,-529.24C2462.75,-513.85 2462.75,-491.5 2462.75,-476.13"/>
</g>
<!-- node0x600003ef5530 -->
<g id="node52" class="node">
<title>node0x600003ef5530</title>
<ellipse fill="none" stroke="black" cx="2899.75" cy="-457.83" rx="85.29" ry="18"/>
<text text-anchor="middle" x="2899.75" y="-454.13" font-family="Times,serif" font-size="14.00">STATEMENT_LIST</text>
</g>
<!-- node0x600003ef5560&#45;&#45;node0x600003ef5530 -->
<g id="edge51" class="edge">
<title>node0x600003ef5560&#45;&#45;node0x600003ef5530</title>
<path fill="none" stroke="black" d="M2498.89,-539.32C2573.93,-524.25 2747.36,-489.43 2839.57,-470.91"/>
</g>
<!-- node0x600003ef5140 -->
<g id="node49" class="node">
<title>node0x600003ef5140</title>
<ellipse fill="none" stroke="black" cx="2462.75" cy="-376.96" rx="72.29" ry="18"/>
<text text-anchor="middle" x="2462.75" y="-373.26" font-family="Times,serif" font-size="14.00">DECLARATION</text>
</g>
<!-- node0x600003ef51a0&#45;&#45;node0x600003ef5140 -->
<g id="edge48" class="edge">
<title>node0x600003ef51a0&#45;&#45;node0x600003ef5140</title>
<path fill="none" stroke="black" d="M2462.75,-439.72C2462.75,-426.58 2462.75,-408.51 2462.75,-395.31"/>
</g>
<!-- node0x600003ef50b0 -->
<g id="node50" class="node">
<title>node0x600003ef50b0</title>
<ellipse fill="none" stroke="black" cx="2358.75" cy="-296.09" rx="94.51" ry="26.74"/>
<text text-anchor="middle" x="2358.75" y="-299.89" font-family="Times,serif" font-size="14.00">IDENTIFIER_DATA</text>
<text text-anchor="middle" x="2358.75" y="-284.89" font-family="Times,serif" font-size="14.00">x</text>
</g>
<!-- node0x600003ef5140&#45;&#45;node0x600003ef50b0 -->
<g id="edge49" class="edge">
<title>node0x600003ef5140&#45;&#45;node0x600003ef50b0</title>
<path fill="none" stroke="black" d="M2440.95,-359.43C2426.42,-348.41 2407.07,-333.73 2390.79,-321.39"/>
</g>
<!-- node0x600003ef5110 -->
<g id="node51" class="node">
<title>node0x600003ef5110</title>
<ellipse fill="none" stroke="black" cx="2566.75" cy="-296.09" rx="94.51" ry="26.74"/>
<text text-anchor="middle" x="2566.75" y="-299.89" font-family="Times,serif" font-size="14.00">IDENTIFIER_DATA</text>
<text text-anchor="middle" x="2566.75" y="-284.89" font-family="Times,serif" font-size="14.00">y</text>
</g>
<!-- node0x600003ef5140&#45;&#45;node0x600003ef5110 -->
<g id="edge50" class="edge">
<title>node0x600003ef5140&#45;&#45;node0x600003ef5110</title>
<path fill="none" stroke="black" d="M2484.55,-359.43C2499.09,-348.41 2518.44,-333.73 2534.71,-321.39"/>
</g>
<!-- node0x600003ef53b0 -->
<g id="node53" class="node">
<title>node0x600003ef53b0</title>
<ellipse fill="none" stroke="black" cx="2899.75" cy="-376.96" rx="40.09" ry="18"/>
<text text-anchor="middle" x="2899.75" y="-373.26" font-family="Times,serif" font-size="14.00">BLOCK</text>
</g>
<!-- node0x600003ef5530&#45;&#45;node0x600003ef53b0 -->
<g id="edge52" class="edge">
<title>node0x600003ef5530&#45;&#45;node0x600003ef53b0</title>
<path fill="none" stroke="black" d="M2899.75,-439.72C2899.75,-426.58 2899.75,-408.51 2899.75,-395.31"/>
</g>
<!-- node0x600003ef54d0 -->
<g id="node61" class="node">
<title>node0x600003ef54d0</title>
<ellipse fill="none" stroke="black" cx="3196.75" cy="-376.96" rx="124.28" ry="18"/>
<text text-anchor="middle" x="3196.75" y="-373.26" font-family="Times,serif" font-size="14.00">ASSIGNMENT_STATEMENT</text>
</g>
<!-- node0x600003ef5530&#45;&#45;node0x600003ef54d0 -->
<g id="edge60" class="edge">
<title>node0x600003ef5530&#45;&#45;node0x600003ef54d0</title>
<path fill="none" stroke="black" d="M2951.49,-443.09C3003.84,-429.19 3084.61,-407.74 3139.01,-393.29"/>
</g>
<!-- node0x600003ef5260 -->
<g id="node54" class="node">
<title>node0x600003ef5260</title>
<ellipse fill="none" stroke="black" cx="2800.75" cy="-296.09" rx="94.78" ry="18"/>
<text text-anchor="middle" x="2800.75" y="-292.39" font-family="Times,serif" font-size="14.00">DECLARATION_LIST</text>
</g>
<!-- node0x600003ef53b0&#45;&#45;node0x600003ef5260 -->
<g id="edge53" class="edge">
<title>node0x600003ef53b0&#45;&#45;node0x600003ef5260</title>
<path fill="none" stroke="black" d="M2880.66,-360.75C2863.81,-347.32 2839.27,-327.78 2821.84,-313.89"/>
</g>
<!-- node0x600003ef5380 -->
<g id="node57" class="node">
<title>node0x600003ef5380</title>
<ellipse fill="none" stroke="black" cx="2998.75" cy="-296.09" rx="85.29" ry="18"/>
<text text-anchor="middle" x="2998.75" y="-292.39" font-family="Times,serif" font-size="14.00">STATEMENT_LIST</text>
</g>
<!-- node0x600003ef53b0&#45;&#45;node0x600003ef5380 -->
<g id="edge56" class="edge">
<title>node0x600003ef53b0&#45;&#45;node0x600003ef5380</title>
<path fill="none" stroke="black" d="M2918.84,-360.75C2935.7,-347.32 2960.24,-327.78 2977.67,-313.89"/>
</g>
<!-- node0x600003ef5200 -->
<g id="node55" class="node">
<title>node0x600003ef5200</title>
<ellipse fill="none" stroke="black" cx="2800.75" cy="-206.35" rx="72.29" ry="18"/>
<text text-anchor="middle" x="2800.75" y="-202.65" font-family="Times,serif" font-size="14.00">DECLARATION</text>
</g>
<!-- node0x600003ef5260&#45;&#45;node0x600003ef5200 -->
<g id="edge54" class="edge">
<title>node0x600003ef5260&#45;&#45;node0x600003ef5200</title>
<path fill="none" stroke="black" d="M2800.75,-277.76C2800.75,-262.37 2800.75,-240.02 2800.75,-224.65"/>
</g>
<!-- node0x600003ef51d0 -->
<g id="node56" class="node">
<title>node0x600003ef51d0</title>
<ellipse fill="none" stroke="black" cx="2802.75" cy="-116.61" rx="94.51" ry="26.74"/>
<text text-anchor="middle" x="2802.75" y="-120.41" font-family="Times,serif" font-size="14.00">IDENTIFIER_DATA</text>
<text text-anchor="middle" x="2802.75" y="-105.41" font-family="Times,serif" font-size="14.00">z</text>
</g>
<!-- node0x600003ef5200&#45;&#45;node0x600003ef51d0 -->
<g id="edge55" class="edge">
<title>node0x600003ef5200&#45;&#45;node0x600003ef51d0</title>
<path fill="none" stroke="black" d="M2801.15,-188.02C2801.44,-175.33 2801.83,-157.9 2802.16,-143.56"/>
</g>
<!-- node0x600003ef5320 -->
<g id="node58" class="node">
<title>node0x600003ef5320</title>
<ellipse fill="none" stroke="black" cx="3014.75" cy="-206.35" rx="124.28" ry="18"/>
<text text-anchor="middle" x="3014.75" y="-202.65" font-family="Times,serif" font-size="14.00">ASSIGNMENT_STATEMENT</text>
</g>
<!-- node0x600003ef5380&#45;&#45;node0x600003ef5320 -->
<g id="edge57" class="edge">
<title>node0x600003ef5380&#45;&#45;node0x600003ef5320</title>
<path fill="none" stroke="black" d="M3001.91,-277.76C3004.72,-262.37 3008.79,-240.02 3011.6,-224.65"/>
</g>
<!-- node0x600003ef5290 -->
<g id="node59" class="node">
<title>node0x600003ef5290</title>
<ellipse fill="none" stroke="black" cx="3013.75" cy="-116.61" rx="94.51" ry="26.74"/>
<text text-anchor="middle" x="3013.75" y="-120.41" font-family="Times,serif" font-size="14.00">IDENTIFIER_DATA</text>
<text text-anchor="middle" x="3013.75" y="-105.41" font-family="Times,serif" font-size="14.00">z</text>
</g>
<!-- node0x600003ef5320&#45;&#45;node0x600003ef5290 -->
<g id="edge58" class="edge">
<title>node0x600003ef5320&#45;&#45;node0x600003ef5290</title>
<path fill="none" stroke="black" d="M3014.55,-188.02C3014.41,-175.33 3014.21,-157.9 3014.05,-143.56"/>
</g>
<!-- node0x600003ef52c0 -->
<g id="node60" class="node">
<title>node0x600003ef52c0</title>
<ellipse fill="none" stroke="black" cx="3221.75" cy="-116.61" rx="94.51" ry="26.74"/>
<text text-anchor="middle" x="3221.75" y="-120.41" font-family="Times,serif" font-size="14.00">IDENTIFIER_DATA</text>
<text text-anchor="middle" x="3221.75" y="-105.41" font-family="Times,serif" font-size="14.00">x</text>
</g>
<!-- node0x600003ef5320&#45;&#45;node0x600003ef52c0 -->
<g id="edge59" class="edge">
<title>node0x600003ef5320&#45;&#45;node0x600003ef52c0</title>
<path fill="none" stroke="black" d="M3053.69,-188.85C3086.71,-174.85 3134.34,-154.66 3170.47,-139.35"/>
</g>
<!-- node0x600003ef5440 -->
<g id="node62" class="node">
<title>node0x600003ef5440</title>
<ellipse fill="none" stroke="black" cx="3196.75" cy="-296.09" rx="94.51" ry="26.74"/>
<text text-anchor="middle" x="3196.75" y="-299.89" font-family="Times,serif" font-size="14.00">IDENTIFIER_DATA</text>
<text text-anchor="middle" x="3196.75" y="-284.89" font-family="Times,serif" font-size="14.00">x</text>
</g>
<!-- node0x600003ef54d0&#45;&#45;node0x600003ef5440 -->
<g id="edge61" class="edge">
<title>node0x600003ef54d0&#45;&#45;node0x600003ef5440</title>
<path fill="none" stroke="black" d="M3196.75,-358.85C3196.75,-348.43 3196.75,-334.91 3196.75,-323.17"/>
</g>
<!-- node0x600003ef5470 -->
<g id="node63" class="node">
<title>node0x600003ef5470</title>
<ellipse fill="none" stroke="black" cx="3404.75" cy="-296.09" rx="94.51" ry="26.74"/>
<text text-anchor="middle" x="3404.75" y="-299.89" font-family="Times,serif" font-size="14.00">IDENTIFIER_DATA</text>
<text text-anchor="middle" x="3404.75" y="-284.89" font-family="Times,serif" font-size="14.00">y</text>
</g>
<!-- node0x600003ef54d0&#45;&#45;node0x600003ef5470 -->
<g id="edge62" class="edge">
<title>node0x600003ef54d0&#45;&#45;node0x600003ef5470</title>
<path fill="none" stroke="black" d="M3239.85,-359.62C3271.62,-347.57 3315.1,-331.08 3349.44,-318.07"/>
</g>
</g>
</svg>
