<?xml version="1.0" encoding="UTF-8" standalone="no"?>
<!DOCTYPE svg PUBLIC "-//W3C//DTD SVG 1.1//EN"
 "http://www.w3.org/Graphics/SVG/1.1/DTD/svg11.dtd">
<!-- Generated by graphviz version 7.1.0 (20230121.1956)
 -->
<!-- Pages: 1 -->
<svg width="2428pt" height="637pt"
 viewBox="0.00 0.00 2428.19 636.70" xmlns="http://www.w3.org/2000/svg" xmlns:xlink="http://www.w3.org/1999/xlink">
<g id="graph0" class="graph" transform="scale(1 1) rotate(0) translate(4 632.7)">
<polygon fill="white" stroke="none" points="-4,4 -4,-632.7 2424.19,-632.7 2424.19,4 -4,4"/>
<!-- node0x600001729350 -->
<g id="node1" class="node">
<title>node0x600001729350</title>
<ellipse fill="none" stroke="black" cx="1126.75" cy="-610.7" rx="69.59" ry="18"/>
<text text-anchor="middle" x="1126.75" y="-607" font-family="Times,serif" font-size="14.00">GLOBAL_LIST</text>
</g>
<!-- node0x600001728300 -->
<g id="node2" class="node">
<title>node0x600001728300</title>
<ellipse fill="none" stroke="black" cx="406.75" cy="-538.7" rx="72.29" ry="18"/>
<text text-anchor="middle" x="406.75" y="-535" font-family="Times,serif" font-size="14.00">DECLARATION</text>
</g>
<!-- node0x600001729350&#45;&#45;node0x600001728300 -->
<g id="edge1" class="edge">
<title>node0x600001729350&#45;&#45;node0x600001728300</title>
<path fill="none" stroke="black" d="M1062.54,-603.46C926.66,-590.25 611.2,-559.58 473.29,-546.17"/>
</g>
<!-- node0x600001728f60 -->
<g id="node6" class="node">
<title>node0x600001728f60</title>
<ellipse fill="none" stroke="black" cx="977.75" cy="-538.7" rx="55.49" ry="18"/>
<text text-anchor="middle" x="977.75" y="-535" font-family="Times,serif" font-size="14.00">FUNCTION</text>
</g>
<!-- node0x600001729350&#45;&#45;node0x600001728f60 -->
<g id="edge5" class="edge">
<title>node0x600001729350&#45;&#45;node0x600001728f60</title>
<path fill="none" stroke="black" d="M1094.05,-594.34C1068.53,-582.35 1033.32,-565.8 1008.34,-554.07"/>
</g>
<!-- node0x600001729080 -->
<g id="node40" class="node">
<title>node0x600001729080</title>
<ellipse fill="none" stroke="black" cx="1216.75" cy="-538.7" rx="107.48" ry="18"/>
<text text-anchor="middle" x="1216.75" y="-535" font-family="Times,serif" font-size="14.00">ARRAY_DECLARATION</text>
</g>
<!-- node0x600001729350&#45;&#45;node0x600001729080 -->
<g id="edge39" class="edge">
<title>node0x600001729350&#45;&#45;node0x600001729080</title>
<path fill="none" stroke="black" d="M1148.08,-593.11C1162.22,-582.11 1180.72,-567.73 1194.95,-556.66"/>
</g>
<!-- node0x6000017292f0 -->
<g id="node43" class="node">
<title>node0x6000017292f0</title>
<ellipse fill="none" stroke="black" cx="1729.75" cy="-538.7" rx="55.49" ry="18"/>
<text text-anchor="middle" x="1729.75" y="-535" font-family="Times,serif" font-size="14.00">FUNCTION</text>
</g>
<!-- node0x600001729350&#45;&#45;node0x6000017292f0 -->
<g id="edge42" class="edge">
<title>node0x600001729350&#45;&#45;node0x6000017292f0</title>
<path fill="none" stroke="black" d="M1189.29,-602.44C1308.9,-588.56 1567.96,-558.48 1678.31,-545.67"/>
</g>
<!-- node0x600001728210 -->
<g id="node3" class="node">
<title>node0x600001728210</title>
<ellipse fill="none" stroke="black" cx="94.75" cy="-457.83" rx="94.51" ry="26.74"/>
<text text-anchor="middle" x="94.75" y="-461.63" font-family="Times,serif" font-size="14.00">IDENTIFIER_DATA</text>
<text text-anchor="middle" x="94.75" y="-446.63" font-family="Times,serif" font-size="14.00">x</text>
</g>
<!-- node0x600001728300&#45;&#45;node0x600001728210 -->
<g id="edge2" class="edge">
<title>node0x600001728300&#45;&#45;node0x600001728210</title>
<path fill="none" stroke="black" d="M357.31,-525.2C305.17,-512.02 222.58,-491.14 163.97,-476.33"/>
</g>
<!-- node0x600001728270 -->
<g id="node4" class="node">
<title>node0x600001728270</title>
<ellipse fill="none" stroke="black" cx="302.75" cy="-457.83" rx="94.51" ry="26.74"/>
<text text-anchor="middle" x="302.75" y="-461.63" font-family="Times,serif" font-size="14.00">IDENTIFIER_DATA</text>
<text text-anchor="middle" x="302.75" y="-446.63" font-family="Times,serif" font-size="14.00">y</text>
</g>
<!-- node0x600001728300&#45;&#45;node0x600001728270 -->
<g id="edge3" class="edge">
<title>node0x600001728300&#45;&#45;node0x600001728270</title>
<path fill="none" stroke="black" d="M384.95,-521.17C370.42,-510.15 351.07,-495.47 334.79,-483.13"/>
</g>
<!-- node0x6000017282d0 -->
<g id="node5" class="node">
<title>node0x6000017282d0</title>
<ellipse fill="none" stroke="black" cx="510.75" cy="-457.83" rx="94.51" ry="26.74"/>
<text text-anchor="middle" x="510.75" y="-461.63" font-family="Times,serif" font-size="14.00">IDENTIFIER_DATA</text>
<text text-anchor="middle" x="510.75" y="-446.63" font-family="Times,serif" font-size="14.00">z</text>
</g>
<!-- node0x600001728300&#45;&#45;node0x6000017282d0 -->
<g id="edge4" class="edge">
<title>node0x600001728300&#45;&#45;node0x6000017282d0</title>
<path fill="none" stroke="black" d="M428.55,-521.17C443.09,-510.15 462.44,-495.47 478.71,-483.13"/>
</g>
<!-- node0x6000017283c0 -->
<g id="node7" class="node">
<title>node0x6000017283c0</title>
<ellipse fill="none" stroke="black" cx="718.75" cy="-457.83" rx="94.51" ry="26.74"/>
<text text-anchor="middle" x="718.75" y="-461.63" font-family="Times,serif" font-size="14.00">IDENTIFIER_DATA</text>
<text text-anchor="middle" x="718.75" y="-446.63" font-family="Times,serif" font-size="14.00">main</text>
</g>
<!-- node0x600001728f60&#45;&#45;node0x6000017283c0 -->
<g id="edge6" class="edge">
<title>node0x600001728f60&#45;&#45;node0x6000017283c0</title>
<path fill="none" stroke="black" d="M938.13,-525.64C896.61,-512.99 830.77,-492.94 782.04,-478.1"/>
</g>
<!-- node0x600001728480 -->
<g id="node8" class="node">
<title>node0x600001728480</title>
<ellipse fill="none" stroke="black" cx="918.75" cy="-457.83" rx="87.18" ry="18"/>
<text text-anchor="middle" x="918.75" y="-454.13" font-family="Times,serif" font-size="14.00">PARAMETER_LIST</text>
</g>
<!-- node0x600001728f60&#45;&#45;node0x600001728480 -->
<g id="edge7" class="edge">
<title>node0x600001728f60&#45;&#45;node0x600001728480</title>
<path fill="none" stroke="black" d="M965.24,-520.97C955.36,-507.77 941.63,-489.41 931.65,-476.08"/>
</g>
<!-- node0x600001728f00 -->
<g id="node11" class="node">
<title>node0x600001728f00</title>
<ellipse fill="none" stroke="black" cx="1063.75" cy="-457.83" rx="40.09" ry="18"/>
<text text-anchor="middle" x="1063.75" y="-454.13" font-family="Times,serif" font-size="14.00">BLOCK</text>
</g>
<!-- node0x600001728f60&#45;&#45;node0x600001728f00 -->
<g id="edge10" class="edge">
<title>node0x600001728f60&#45;&#45;node0x600001728f00</title>
<path fill="none" stroke="black" d="M995.57,-521.36C1010.63,-507.55 1032.04,-487.91 1046.83,-474.35"/>
</g>
<!-- node0x6000017283f0 -->
<g id="node9" class="node">
<title>node0x6000017283f0</title>
<ellipse fill="none" stroke="black" cx="647.75" cy="-368.09" rx="94.51" ry="26.74"/>
<text text-anchor="middle" x="647.75" y="-371.89" font-family="Times,serif" font-size="14.00">IDENTIFIER_DATA</text>
<text text-anchor="middle" x="647.75" y="-356.89" font-family="Times,serif" font-size="14.00">x</text>
</g>
<!-- node0x600001728480&#45;&#45;node0x6000017283f0 -->
<g id="edge8" class="edge">
<title>node0x600001728480&#45;&#45;node0x6000017283f0</title>
<path fill="none" stroke="black" d="M873.09,-442.05C827.98,-427.44 758.71,-405.02 708.88,-388.88"/>
</g>
<!-- node0x600001728450 -->
<g id="node10" class="node">
<title>node0x600001728450</title>
<ellipse fill="none" stroke="black" cx="855.75" cy="-368.09" rx="94.51" ry="26.74"/>
<text text-anchor="middle" x="855.75" y="-371.89" font-family="Times,serif" font-size="14.00">IDENTIFIER_DATA</text>
<text text-anchor="middle" x="855.75" y="-356.89" font-family="Times,serif" font-size="14.00">y</text>
</g>
<!-- node0x600001728480&#45;&#45;node0x600001728450 -->
<g id="edge9" class="edge">
<title>node0x600001728480&#45;&#45;node0x600001728450</title>
<path fill="none" stroke="black" d="M906.61,-439.91C897.38,-427.07 884.54,-409.18 874.07,-394.6"/>
</g>
<!-- node0x600001728570 -->
<g id="node12" class="node">
<title>node0x600001728570</title>
<ellipse fill="none" stroke="black" cx="1063.75" cy="-368.09" rx="94.78" ry="18"/>
<text text-anchor="middle" x="1063.75" y="-364.39" font-family="Times,serif" font-size="14.00">DECLARATION_LIST</text>
</g>
<!-- node0x600001728f00&#45;&#45;node0x600001728570 -->
<g id="edge11" class="edge">
<title>node0x600001728f00&#45;&#45;node0x600001728570</title>
<path fill="none" stroke="black" d="M1063.75,-439.5C1063.75,-424.11 1063.75,-401.76 1063.75,-386.39"/>
</g>
<!-- node0x600001728ed0 -->
<g id="node15" class="node">
<title>node0x600001728ed0</title>
<ellipse fill="none" stroke="black" cx="1261.75" cy="-368.09" rx="85.29" ry="18"/>
<text text-anchor="middle" x="1261.75" y="-364.39" font-family="Times,serif" font-size="14.00">STATEMENT_LIST</text>
</g>
<!-- node0x600001728f00&#45;&#45;node0x600001728ed0 -->
<g id="edge14" class="edge">
<title>node0x600001728f00&#45;&#45;node0x600001728ed0</title>
<path fill="none" stroke="black" d="M1088.46,-443.22C1096.16,-439.13 1104.74,-434.73 1112.75,-430.96 1149.25,-413.79 1191.83,-396.36 1222.11,-384.4"/>
</g>
<!-- node0x600001728510 -->
<g id="node13" class="node">
<title>node0x600001728510</title>
<ellipse fill="none" stroke="black" cx="555.75" cy="-278.35" rx="72.29" ry="18"/>
<text text-anchor="middle" x="555.75" y="-274.65" font-family="Times,serif" font-size="14.00">DECLARATION</text>
</g>
<!-- node0x600001728570&#45;&#45;node0x600001728510 -->
<g id="edge12" class="edge">
<title>node0x600001728570&#45;&#45;node0x600001728510</title>
<path fill="none" stroke="black" d="M1010.25,-352.78C994.1,-348.73 976.26,-344.53 959.75,-341.22 926.79,-334.61 721.26,-303.89 616.7,-288.37"/>
</g>
<!-- node0x6000017284e0 -->
<g id="node14" class="node">
<title>node0x6000017284e0</title>
<ellipse fill="none" stroke="black" cx="460.75" cy="-188.61" rx="94.51" ry="26.74"/>
<text text-anchor="middle" x="460.75" y="-192.41" font-family="Times,serif" font-size="14.00">IDENTIFIER_DATA</text>
<text text-anchor="middle" x="460.75" y="-177.41" font-family="Times,serif" font-size="14.00">x</text>
</g>
<!-- node0x600001728510&#45;&#45;node0x6000017284e0 -->
<g id="edge13" class="edge">
<title>node0x600001728510&#45;&#45;node0x6000017284e0</title>
<path fill="none" stroke="black" d="M537.88,-260.85C523.8,-247.84 503.93,-229.49 487.89,-214.67"/>
</g>
<!-- node0x600001728630 -->
<g id="node16" class="node">
<title>node0x600001728630</title>
<ellipse fill="none" stroke="black" cx="864.75" cy="-278.35" rx="124.28" ry="18"/>
<text text-anchor="middle" x="864.75" y="-274.65" font-family="Times,serif" font-size="14.00">ASSIGNMENT_STATEMENT</text>
</g>
<!-- node0x600001728ed0&#45;&#45;node0x600001728630 -->
<g id="edge15" class="edge">
<title>node0x600001728ed0&#45;&#45;node0x600001728630</title>
<path fill="none" stroke="black" d="M1213.13,-353.04C1198.58,-349.02 1182.57,-344.77 1167.75,-341.22 1090.35,-322.69 1000.98,-304.87 939.46,-293.16"/>
</g>
<!-- node0x600001728750 -->
<g id="node19" class="node">
<title>node0x600001728750</title>
<ellipse fill="none" stroke="black" cx="1256.75" cy="-278.35" rx="124.28" ry="18"/>
<text text-anchor="middle" x="1256.75" y="-274.65" font-family="Times,serif" font-size="14.00">ASSIGNMENT_STATEMENT</text>
</g>
<!-- node0x600001728ed0&#45;&#45;node0x600001728750 -->
<g id="edge18" class="edge">
<title>node0x600001728ed0&#45;&#45;node0x600001728750</title>
<path fill="none" stroke="black" d="M1260.76,-349.76C1259.89,-334.37 1258.61,-312.02 1257.74,-296.65"/>
</g>
<!-- node0x600001728c60 -->
<g id="node22" class="node">
<title>node0x600001728c60</title>
<ellipse fill="none" stroke="black" cx="1452.75" cy="-278.35" rx="40.09" ry="18"/>
<text text-anchor="middle" x="1452.75" y="-274.65" font-family="Times,serif" font-size="14.00">BLOCK</text>
</g>
<!-- node0x600001728ed0&#45;&#45;node0x600001728c60 -->
<g id="edge21" class="edge">
<title>node0x600001728ed0&#45;&#45;node0x600001728c60</title>
<path fill="none" stroke="black" d="M1296.34,-351.2C1333.43,-334.16 1391.55,-307.46 1425.52,-291.86"/>
</g>
<!-- node0x600001728e40 -->
<g id="node37" class="node">
<title>node0x600001728e40</title>
<ellipse fill="none" stroke="black" cx="1845.75" cy="-278.35" rx="92.08" ry="18"/>
<text text-anchor="middle" x="1845.75" y="-274.65" font-family="Times,serif" font-size="14.00">PRINT_STATEMENT</text>
</g>
<!-- node0x600001728ed0&#45;&#45;node0x600001728e40 -->
<g id="edge36" class="edge">
<title>node0x600001728ed0&#45;&#45;node0x600001728e40</title>
<path fill="none" stroke="black" d="M1329.89,-356.85C1441.21,-340.13 1661.04,-307.1 1774.41,-290.07"/>
</g>
<!-- node0x6000017285a0 -->
<g id="node17" class="node">
<title>node0x6000017285a0</title>
<ellipse fill="none" stroke="black" cx="668.75" cy="-188.61" rx="94.51" ry="26.74"/>
<text text-anchor="middle" x="668.75" y="-192.41" font-family="Times,serif" font-size="14.00">IDENTIFIER_DATA</text>
<text text-anchor="middle" x="668.75" y="-177.41" font-family="Times,serif" font-size="14.00">x</text>
</g>
<!-- node0x600001728630&#45;&#45;node0x6000017285a0 -->
<g id="edge16" class="edge">
<title>node0x600001728630&#45;&#45;node0x6000017285a0</title>
<path fill="none" stroke="black" d="M827.89,-260.85C796.84,-246.95 752.15,-226.95 718.04,-211.67"/>
</g>
<!-- node0x6000017285d0 -->
<g id="node18" class="node">
<title>node0x6000017285d0</title>
<ellipse fill="none" stroke="black" cx="864.75" cy="-188.61" rx="83.38" ry="26.74"/>
<text text-anchor="middle" x="864.75" y="-192.41" font-family="Times,serif" font-size="14.00">NUMBER_DATA</text>
<text text-anchor="middle" x="864.75" y="-177.41" font-family="Times,serif" font-size="14.00">6</text>
</g>
<!-- node0x600001728630&#45;&#45;node0x6000017285d0 -->
<g id="edge17" class="edge">
<title>node0x600001728630&#45;&#45;node0x6000017285d0</title>
<path fill="none" stroke="black" d="M864.75,-260.02C864.75,-247.33 864.75,-229.9 864.75,-215.56"/>
</g>
<!-- node0x6000017286c0 -->
<g id="node20" class="node">
<title>node0x6000017286c0</title>
<ellipse fill="none" stroke="black" cx="1060.75" cy="-188.61" rx="94.51" ry="26.74"/>
<text text-anchor="middle" x="1060.75" y="-192.41" font-family="Times,serif" font-size="14.00">IDENTIFIER_DATA</text>
<text text-anchor="middle" x="1060.75" y="-177.41" font-family="Times,serif" font-size="14.00">y</text>
</g>
<!-- node0x600001728750&#45;&#45;node0x6000017286c0 -->
<g id="edge19" class="edge">
<title>node0x600001728750&#45;&#45;node0x6000017286c0</title>
<path fill="none" stroke="black" d="M1219.89,-260.85C1188.84,-246.95 1144.15,-226.95 1110.04,-211.67"/>
</g>
<!-- node0x6000017286f0 -->
<g id="node21" class="node">
<title>node0x6000017286f0</title>
<ellipse fill="none" stroke="black" cx="1256.75" cy="-188.61" rx="83.38" ry="26.74"/>
<text text-anchor="middle" x="1256.75" y="-192.41" font-family="Times,serif" font-size="14.00">NUMBER_DATA</text>
<text text-anchor="middle" x="1256.75" y="-177.41" font-family="Times,serif" font-size="14.00">7</text>
</g>
<!-- node0x600001728750&#45;&#45;node0x6000017286f0 -->
<g id="edge20" class="edge">
<title>node0x600001728750&#45;&#45;node0x6000017286f0</title>
<path fill="none" stroke="black" d="M1256.75,-260.02C1256.75,-247.33 1256.75,-229.9 1256.75,-215.56"/>
</g>
<!-- node0x6000017288d0 -->
<g id="node23" class="node">
<title>node0x6000017288d0</title>
<ellipse fill="none" stroke="black" cx="1452.75" cy="-188.61" rx="94.78" ry="18"/>
<text text-anchor="middle" x="1452.75" y="-184.91" font-family="Times,serif" font-size="14.00">DECLARATION_LIST</text>
</g>
<!-- node0x600001728c60&#45;&#45;node0x6000017288d0 -->
<g id="edge22" class="edge">
<title>node0x600001728c60&#45;&#45;node0x6000017288d0</title>
<path fill="none" stroke="black" d="M1452.75,-260.02C1452.75,-244.63 1452.75,-222.28 1452.75,-206.91"/>
</g>
<!-- node0x600001728c30 -->
<g id="node27" class="node">
<title>node0x600001728c30</title>
<ellipse fill="none" stroke="black" cx="1650.75" cy="-188.61" rx="85.29" ry="18"/>
<text text-anchor="middle" x="1650.75" y="-184.91" font-family="Times,serif" font-size="14.00">STATEMENT_LIST</text>
</g>
<!-- node0x600001728c60&#45;&#45;node0x600001728c30 -->
<g id="edge26" class="edge">
<title>node0x600001728c60&#45;&#45;node0x600001728c30</title>
<path fill="none" stroke="black" d="M1480.7,-264.97C1515.99,-249.33 1576.72,-222.42 1615.25,-205.34"/>
</g>
<!-- node0x600001728870 -->
<g id="node24" class="node">
<title>node0x600001728870</title>
<ellipse fill="none" stroke="black" cx="1148.75" cy="-107.74" rx="72.29" ry="18"/>
<text text-anchor="middle" x="1148.75" y="-104.04" font-family="Times,serif" font-size="14.00">DECLARATION</text>
</g>
<!-- node0x6000017288d0&#45;&#45;node0x600001728870 -->
<g id="edge23" class="edge">
<title>node0x6000017288d0&#45;&#45;node0x600001728870</title>
<path fill="none" stroke="black" d="M1398.4,-173.51C1341.36,-158.71 1252.5,-135.66 1197.61,-121.42"/>
</g>
<!-- node0x6000017287e0 -->
<g id="node25" class="node">
<title>node0x6000017287e0</title>
<ellipse fill="none" stroke="black" cx="940.75" cy="-26.87" rx="94.51" ry="26.74"/>
<text text-anchor="middle" x="940.75" y="-30.67" font-family="Times,serif" font-size="14.00">IDENTIFIER_DATA</text>
<text text-anchor="middle" x="940.75" y="-15.67" font-family="Times,serif" font-size="14.00">x</text>
</g>
<!-- node0x600001728870&#45;&#45;node0x6000017287e0 -->
<g id="edge24" class="edge">
<title>node0x600001728870&#45;&#45;node0x6000017287e0</title>
<path fill="none" stroke="black" d="M1110.12,-92.09C1078.04,-79.93 1032.02,-62.48 996.05,-48.84"/>
</g>
<!-- node0x600001728840 -->
<g id="node26" class="node">
<title>node0x600001728840</title>
<ellipse fill="none" stroke="black" cx="1148.75" cy="-26.87" rx="94.51" ry="26.74"/>
<text text-anchor="middle" x="1148.75" y="-30.67" font-family="Times,serif" font-size="14.00">IDENTIFIER_DATA</text>
<text text-anchor="middle" x="1148.75" y="-15.67" font-family="Times,serif" font-size="14.00">y</text>
</g>
<!-- node0x600001728870&#45;&#45;node0x600001728840 -->
<g id="edge25" class="edge">
<title>node0x600001728870&#45;&#45;node0x600001728840</title>
<path fill="none" stroke="black" d="M1148.75,-89.63C1148.75,-79.21 1148.75,-65.69 1148.75,-53.95"/>
</g>
<!-- node0x600001728990 -->
<g id="node28" class="node">
<title>node0x600001728990</title>
<ellipse fill="none" stroke="black" cx="1517.75" cy="-107.74" rx="124.28" ry="18"/>
<text text-anchor="middle" x="1517.75" y="-104.04" font-family="Times,serif" font-size="14.00">ASSIGNMENT_STATEMENT</text>
</g>
<!-- node0x600001728c30&#45;&#45;node0x600001728990 -->
<g id="edge27" class="edge">
<title>node0x600001728c30&#45;&#45;node0x600001728990</title>
<path fill="none" stroke="black" d="M1623.19,-171.27C1600.67,-157.91 1568.95,-139.1 1546.19,-125.61"/>
</g>
<!-- node0x600001728ab0 -->
<g id="node31" class="node">
<title>node0x600001728ab0</title>
<ellipse fill="none" stroke="black" cx="1783.75" cy="-107.74" rx="124.28" ry="18"/>
<text text-anchor="middle" x="1783.75" y="-104.04" font-family="Times,serif" font-size="14.00">ASSIGNMENT_STATEMENT</text>
</g>
<!-- node0x600001728c30&#45;&#45;node0x600001728ab0 -->
<g id="edge30" class="edge">
<title>node0x600001728c30&#45;&#45;node0x600001728ab0</title>
<path fill="none" stroke="black" d="M1678.31,-171.27C1700.83,-157.91 1732.55,-139.1 1755.31,-125.61"/>
</g>
<!-- node0x600001728bd0 -->
<g id="node34" class="node">
<title>node0x600001728bd0</title>
<ellipse fill="none" stroke="black" cx="2140.75" cy="-107.74" rx="124.28" ry="18"/>
<text text-anchor="middle" x="2140.75" y="-104.04" font-family="Times,serif" font-size="14.00">ASSIGNMENT_STATEMENT</text>
</g>
<!-- node0x600001728c30&#45;&#45;node0x600001728bd0 -->
<g id="edge33" class="edge">
<title>node0x600001728c30&#45;&#45;node0x600001728bd0</title>
<path fill="none" stroke="black" d="M1697.79,-173.32C1712.7,-169.15 1729.33,-164.88 1744.75,-161.74 1844.16,-141.51 1959.23,-127.09 2039.62,-118.45"/>
</g>
<!-- node0x600001728900 -->
<g id="node29" class="node">
<title>node0x600001728900</title>
<ellipse fill="none" stroke="black" cx="1356.75" cy="-26.87" rx="94.51" ry="26.74"/>
<text text-anchor="middle" x="1356.75" y="-30.67" font-family="Times,serif" font-size="14.00">IDENTIFIER_DATA</text>
<text text-anchor="middle" x="1356.75" y="-15.67" font-family="Times,serif" font-size="14.00">x</text>
</g>
<!-- node0x600001728990&#45;&#45;node0x600001728900 -->
<g id="edge28" class="edge">
<title>node0x600001728990&#45;&#45;node0x600001728900</title>
<path fill="none" stroke="black" d="M1483.61,-90.01C1460.16,-78.53 1428.76,-63.14 1403.06,-50.56"/>
</g>
<!-- node0x600001728930 -->
<g id="node30" class="node">
<title>node0x600001728930</title>
<ellipse fill="none" stroke="black" cx="1552.75" cy="-26.87" rx="83.38" ry="26.74"/>
<text text-anchor="middle" x="1552.75" y="-30.67" font-family="Times,serif" font-size="14.00">NUMBER_DATA</text>
<text text-anchor="middle" x="1552.75" y="-15.67" font-family="Times,serif" font-size="14.00">8</text>
</g>
<!-- node0x600001728990&#45;&#45;node0x600001728930 -->
<g id="edge29" class="edge">
<title>node0x600001728990&#45;&#45;node0x600001728930</title>
<path fill="none" stroke="black" d="M1525.35,-89.63C1530.01,-79.12 1536.08,-65.45 1541.31,-53.65"/>
</g>
<!-- node0x600001728a20 -->
<g id="node32" class="node">
<title>node0x600001728a20</title>
<ellipse fill="none" stroke="black" cx="1748.75" cy="-26.87" rx="94.51" ry="26.74"/>
<text text-anchor="middle" x="1748.75" y="-30.67" font-family="Times,serif" font-size="14.00">IDENTIFIER_DATA</text>
<text text-anchor="middle" x="1748.75" y="-15.67" font-family="Times,serif" font-size="14.00">y</text>
</g>
<!-- node0x600001728ab0&#45;&#45;node0x600001728a20 -->
<g id="edge31" class="edge">
<title>node0x600001728ab0&#45;&#45;node0x600001728a20</title>
<path fill="none" stroke="black" d="M1776.16,-89.63C1771.49,-79.12 1765.43,-65.45 1760.19,-53.65"/>
</g>
<!-- node0x600001728a50 -->
<g id="node33" class="node">
<title>node0x600001728a50</title>
<ellipse fill="none" stroke="black" cx="1944.75" cy="-26.87" rx="83.38" ry="26.74"/>
<text text-anchor="middle" x="1944.75" y="-30.67" font-family="Times,serif" font-size="14.00">NUMBER_DATA</text>
<text text-anchor="middle" x="1944.75" y="-15.67" font-family="Times,serif" font-size="14.00">9</text>
</g>
<!-- node0x600001728ab0&#45;&#45;node0x600001728a50 -->
<g id="edge32" class="edge">
<title>node0x600001728ab0&#45;&#45;node0x600001728a50</title>
<path fill="none" stroke="black" d="M1817.9,-90.01C1841.8,-78.3 1873.98,-62.54 1899.95,-49.82"/>
</g>
<!-- node0x600001728b40 -->
<g id="node35" class="node">
<title>node0x600001728b40</title>
<ellipse fill="none" stroke="black" cx="2140.75" cy="-26.87" rx="94.51" ry="26.74"/>
<text text-anchor="middle" x="2140.75" y="-30.67" font-family="Times,serif" font-size="14.00">IDENTIFIER_DATA</text>
<text text-anchor="middle" x="2140.75" y="-15.67" font-family="Times,serif" font-size="14.00">z</text>
</g>
<!-- node0x600001728bd0&#45;&#45;node0x600001728b40 -->
<g id="edge34" class="edge">
<title>node0x600001728bd0&#45;&#45;node0x600001728b40</title>
<path fill="none" stroke="black" d="M2140.75,-89.63C2140.75,-79.21 2140.75,-65.69 2140.75,-53.95"/>
</g>
<!-- node0x600001728b70 -->
<g id="node36" class="node">
<title>node0x600001728b70</title>
<ellipse fill="none" stroke="black" cx="2336.75" cy="-26.87" rx="83.38" ry="26.74"/>
<text text-anchor="middle" x="2336.75" y="-30.67" font-family="Times,serif" font-size="14.00">NUMBER_DATA</text>
<text text-anchor="middle" x="2336.75" y="-15.67" font-family="Times,serif" font-size="14.00">10</text>
</g>
<!-- node0x600001728bd0&#45;&#45;node0x600001728b70 -->
<g id="edge35" class="edge">
<title>node0x600001728bd0&#45;&#45;node0x600001728b70</title>
<path fill="none" stroke="black" d="M2181.36,-90.4C2211.64,-78.22 2253.19,-61.49 2285.72,-48.41"/>
</g>
<!-- node0x600001728cf0 -->
<g id="node38" class="node">
<title>node0x600001728cf0</title>
<ellipse fill="none" stroke="black" cx="1848.75" cy="-188.61" rx="94.51" ry="26.74"/>
<text text-anchor="middle" x="1848.75" y="-192.41" font-family="Times,serif" font-size="14.00">IDENTIFIER_DATA</text>
<text text-anchor="middle" x="1848.75" y="-177.41" font-family="Times,serif" font-size="14.00">x</text>
</g>
<!-- node0x600001728e40&#45;&#45;node0x600001728cf0 -->
<g id="edge37" class="edge">
<title>node0x600001728e40&#45;&#45;node0x600001728cf0</title>
<path fill="none" stroke="black" d="M1846.35,-260.02C1846.78,-247.33 1847.37,-229.9 1847.86,-215.56"/>
</g>
<!-- node0x600001728db0 -->
<g id="node39" class="node">
<title>node0x600001728db0</title>
<ellipse fill="none" stroke="black" cx="2056.75" cy="-188.61" rx="94.51" ry="26.74"/>
<text text-anchor="middle" x="2056.75" y="-192.41" font-family="Times,serif" font-size="14.00">IDENTIFIER_DATA</text>
<text text-anchor="middle" x="2056.75" y="-177.41" font-family="Times,serif" font-size="14.00">y</text>
</g>
<!-- node0x600001728e40&#45;&#45;node0x600001728db0 -->
<g id="edge38" class="edge">
<title>node0x600001728e40&#45;&#45;node0x600001728db0</title>
<path fill="none" stroke="black" d="M1883.47,-261.66C1917.26,-247.62 1967.12,-226.88 2004.69,-211.26"/>
</g>
<!-- node0x600001728ff0 -->
<g id="node41" class="node">
<title>node0x600001728ff0</title>
<ellipse fill="none" stroke="black" cx="1216.75" cy="-457.83" rx="94.51" ry="26.74"/>
<text text-anchor="middle" x="1216.75" y="-461.63" font-family="Times,serif" font-size="14.00">IDENTIFIER_DATA</text>
<text text-anchor="middle" x="1216.75" y="-446.63" font-family="Times,serif" font-size="14.00">arr</text>
</g>
<!-- node0x600001729080&#45;&#45;node0x600001728ff0 -->
<g id="edge40" class="edge">
<title>node0x600001729080&#45;&#45;node0x600001728ff0</title>
<path fill="none" stroke="black" d="M1216.75,-520.59C1216.75,-510.17 1216.75,-496.65 1216.75,-484.91"/>
</g>
<!-- node0x600001729020 -->
<g id="node42" class="node">
<title>node0x600001729020</title>
<ellipse fill="none" stroke="black" cx="1412.75" cy="-457.83" rx="83.38" ry="26.74"/>
<text text-anchor="middle" x="1412.75" y="-461.63" font-family="Times,serif" font-size="14.00">NUMBER_DATA</text>
<text text-anchor="middle" x="1412.75" y="-446.63" font-family="Times,serif" font-size="14.00">100</text>
</g>
<!-- node0x600001729080&#45;&#45;node0x600001729020 -->
<g id="edge41" class="edge">
<title>node0x600001729080&#45;&#45;node0x600001729020</title>
<path fill="none" stroke="black" d="M1256.89,-521.55C1287.24,-509.34 1329.13,-492.48 1361.84,-479.32"/>
</g>
<!-- node0x600001729140 -->
<g id="node44" class="node">
<title>node0x600001729140</title>
<ellipse fill="none" stroke="black" cx="1629.75" cy="-457.83" rx="94.51" ry="26.74"/>
<text text-anchor="middle" x="1629.75" y="-461.63" font-family="Times,serif" font-size="14.00">IDENTIFIER_DATA</text>
<text text-anchor="middle" x="1629.75" y="-446.63" font-family="Times,serif" font-size="14.00">other</text>
</g>
<!-- node0x6000017292f0&#45;&#45;node0x600001729140 -->
<g id="edge43" class="edge">
<title>node0x6000017292f0&#45;&#45;node0x600001729140</title>
<path fill="none" stroke="black" d="M1709.52,-521.74C1695.59,-510.76 1676.82,-495.95 1660.99,-483.47"/>
</g>
<!-- node0x600001729170 -->
<g id="node45" class="node">
<title>node0x600001729170</title>
<ellipse fill="none" stroke="black" cx="1829.75" cy="-457.83" rx="87.18" ry="18"/>
<text text-anchor="middle" x="1829.75" y="-454.13" font-family="Times,serif" font-size="14.00">PARAMETER_LIST</text>
</g>
<!-- node0x6000017292f0&#45;&#45;node0x600001729170 -->
<g id="edge44" class="edge">
<title>node0x6000017292f0&#45;&#45;node0x600001729170</title>
<path fill="none" stroke="black" d="M1749.99,-521.74C1767,-508.33 1791.23,-489.22 1808.51,-475.58"/>
</g>
<!-- node0x600001729290 -->
<g id="node46" class="node">
<title>node0x600001729290</title>
<ellipse fill="none" stroke="black" cx="2047.75" cy="-457.83" rx="102.08" ry="18"/>
<text text-anchor="middle" x="2047.75" y="-454.13" font-family="Times,serif" font-size="14.00">RETURN_STATEMENT</text>
</g>
<!-- node0x6000017292f0&#45;&#45;node0x600001729290 -->
<g id="edge45" class="edge">
<title>node0x6000017292f0&#45;&#45;node0x600001729290</title>
<path fill="none" stroke="black" d="M1772.97,-526.98C1829.26,-513.02 1927.85,-488.57 1990.37,-473.06"/>
</g>
<!-- node0x600001729230 -->
<g id="node47" class="node">
<title>node0x600001729230</title>
<ellipse fill="none" stroke="black" cx="2050.75" cy="-368.09" rx="89.08" ry="18"/>
<text text-anchor="middle" x="2050.75" y="-364.39" font-family="Times,serif" font-size="14.00">ARRAY_INDEXING</text>
</g>
<!-- node0x600001729290&#45;&#45;node0x600001729230 -->
<g id="edge46" class="edge">
<title>node0x600001729290&#45;&#45;node0x600001729230</title>
<path fill="none" stroke="black" d="M2048.35,-439.5C2048.87,-424.11 2049.64,-401.76 2050.16,-386.39"/>
</g>
<!-- node0x6000017291a0 -->
<g id="node48" class="node">
<title>node0x6000017291a0</title>
<ellipse fill="none" stroke="black" cx="2050.75" cy="-278.35" rx="94.51" ry="26.74"/>
<text text-anchor="middle" x="2050.75" y="-282.15" font-family="Times,serif" font-size="14.00">IDENTIFIER_DATA</text>
<text text-anchor="middle" x="2050.75" y="-267.15" font-family="Times,serif" font-size="14.00">arr</text>
</g>
<!-- node0x600001729230&#45;&#45;node0x6000017291a0 -->
<g id="edge47" class="edge">
<title>node0x600001729230&#45;&#45;node0x6000017291a0</title>
<path fill="none" stroke="black" d="M2050.75,-349.76C2050.75,-337.07 2050.75,-319.64 2050.75,-305.3"/>
</g>
<!-- node0x6000017291d0 -->
<g id="node49" class="node">
<title>node0x6000017291d0</title>
<ellipse fill="none" stroke="black" cx="2246.75" cy="-278.35" rx="83.38" ry="26.74"/>
<text text-anchor="middle" x="2246.75" y="-282.15" font-family="Times,serif" font-size="14.00">NUMBER_DATA</text>
<text text-anchor="middle" x="2246.75" y="-267.15" font-family="Times,serif" font-size="14.00">5</text>
</g>
<!-- node0x600001729230&#45;&#45;node0x6000017291d0 -->
<g id="edge48" class="edge">
<title>node0x600001729230&#45;&#45;node0x6000017291d0</title>
<path fill="none" stroke="black" d="M2086.25,-351.2C2117.8,-337.08 2164.18,-316.31 2198.98,-300.73"/>
</g>
</g>
</svg>
