<?xml version="1.0" encoding="UTF-8" standalone="no"?>
<!DOCTYPE svg PUBLIC "-//W3C//DTD SVG 1.1//EN"
 "http://www.w3.org/Graphics/SVG/1.1/DTD/svg11.dtd">
<!-- Generated by graphviz version 7.1.0 (20230121.1956)
 -->
<!-- Pages: 1 -->
<svg width="1202pt" height="601pt"
 viewBox="0.00 0.00 1201.66 601.22" xmlns="http://www.w3.org/2000/svg" xmlns:xlink="http://www.w3.org/1999/xlink">
<g id="graph0" class="graph" transform="scale(1 1) rotate(0) translate(4 597.22)">
<polygon fill="white" stroke="none" points="-4,4 -4,-597.22 1197.66,-597.22 1197.66,4 -4,4"/>
<!-- node0x600000c14ae0 -->
<g id="node1" class="node">
<title>node0x600000c14ae0</title>
<ellipse fill="none" stroke="black" cx="607.37" cy="-575.22" rx="69.59" ry="18"/>
<text text-anchor="middle" x="607.37" y="-571.52" font-family="Times,serif" font-size="14.00">GLOBAL_LIST</text>
</g>
<!-- node0x600000c14810 -->
<g id="node2" class="node">
<title>node0x600000c14810</title>
<ellipse fill="none" stroke="black" cx="531.37" cy="-503.22" rx="55.49" ry="18"/>
<text text-anchor="middle" x="531.37" y="-499.52" font-family="Times,serif" font-size="14.00">FUNCTION</text>
</g>
<!-- node0x600000c14ae0&#45;&#45;node0x600000c14810 -->
<g id="edge1" class="edge">
<title>node0x600000c14ae0&#45;&#45;node0x600000c14810</title>
<path fill="none" stroke="black" d="M589.36,-557.63C577.24,-546.47 561.34,-531.82 549.25,-520.69"/>
</g>
<!-- node0x600000c14a80 -->
<g id="node17" class="node">
<title>node0x600000c14a80</title>
<ellipse fill="none" stroke="black" cx="856.37" cy="-503.22" rx="55.49" ry="18"/>
<text text-anchor="middle" x="856.37" y="-499.52" font-family="Times,serif" font-size="14.00">FUNCTION</text>
</g>
<!-- node0x600000c14ae0&#45;&#45;node0x600000c14a80 -->
<g id="edge16" class="edge">
<title>node0x600000c14ae0&#45;&#45;node0x600000c14a80</title>
<path fill="none" stroke="black" d="M653.33,-561.3C699.84,-548.22 771.07,-528.2 815.62,-515.67"/>
</g>
<!-- node0x600000c14210 -->
<g id="node3" class="node">
<title>node0x600000c14210</title>
<ellipse fill="none" stroke="black" cx="258.37" cy="-422.35" rx="94.51" ry="26.74"/>
<text text-anchor="middle" x="258.37" y="-426.15" font-family="Times,serif" font-size="14.00">IDENTIFIER_DATA</text>
<text text-anchor="middle" x="258.37" y="-411.15" font-family="Times,serif" font-size="14.00">main</text>
</g>
<!-- node0x600000c14810&#45;&#45;node0x600000c14210 -->
<g id="edge2" class="edge">
<title>node0x600000c14810&#45;&#45;node0x600000c14210</title>
<path fill="none" stroke="black" d="M490.79,-490.5C446.6,-477.73 375.29,-457.13 323.3,-442.11"/>
</g>
<!-- node0x600000c14240 -->
<g id="node4" class="node">
<title>node0x600000c14240</title>
<ellipse fill="none" stroke="black" cx="458.37" cy="-422.35" rx="87.18" ry="18"/>
<text text-anchor="middle" x="458.37" y="-418.65" font-family="Times,serif" font-size="14.00">PARAMETER_LIST</text>
</g>
<!-- node0x600000c14810&#45;&#45;node0x600000c14240 -->
<g id="edge3" class="edge">
<title>node0x600000c14810&#45;&#45;node0x600000c14240</title>
<path fill="none" stroke="black" d="M515.89,-485.49C503.58,-472.2 486.44,-453.68 474.08,-440.32"/>
</g>
<!-- node0x600000c147b0 -->
<g id="node5" class="node">
<title>node0x600000c147b0</title>
<ellipse fill="none" stroke="black" cx="603.37" cy="-422.35" rx="40.09" ry="18"/>
<text text-anchor="middle" x="603.37" y="-418.65" font-family="Times,serif" font-size="14.00">BLOCK</text>
</g>
<!-- node0x600000c14810&#45;&#45;node0x600000c147b0 -->
<g id="edge4" class="edge">
<title>node0x600000c14810&#45;&#45;node0x600000c147b0</title>
<path fill="none" stroke="black" d="M546.64,-485.49C559.02,-471.93 576.37,-452.92 588.61,-439.51"/>
</g>
<!-- node0x600000c14780 -->
<g id="node6" class="node">
<title>node0x600000c14780</title>
<ellipse fill="none" stroke="black" cx="603.37" cy="-341.48" rx="85.29" ry="18"/>
<text text-anchor="middle" x="603.37" y="-337.78" font-family="Times,serif" font-size="14.00">STATEMENT_LIST</text>
</g>
<!-- node0x600000c147b0&#45;&#45;node0x600000c14780 -->
<g id="edge5" class="edge">
<title>node0x600000c147b0&#45;&#45;node0x600000c14780</title>
<path fill="none" stroke="black" d="M603.37,-404.24C603.37,-391.1 603.37,-373.03 603.37,-359.83"/>
</g>
<!-- node0x600000c14420 -->
<g id="node7" class="node">
<title>node0x600000c14420</title>
<ellipse fill="none" stroke="black" cx="327.37" cy="-269.48" rx="92.08" ry="18"/>
<text text-anchor="middle" x="327.37" y="-265.78" font-family="Times,serif" font-size="14.00">PRINT_STATEMENT</text>
</g>
<!-- node0x600000c14780&#45;&#45;node0x600000c14420 -->
<g id="edge6" class="edge">
<title>node0x600000c14780&#45;&#45;node0x600000c14420</title>
<path fill="none" stroke="black" d="M550.15,-326.98C501.75,-314.71 430.62,-296.67 381.83,-284.29"/>
</g>
<!-- node0x600000c14540 -->
<g id="node11" class="node">
<title>node0x600000c14540</title>
<ellipse fill="none" stroke="black" cx="603.37" cy="-269.48" rx="92.08" ry="18"/>
<text text-anchor="middle" x="603.37" y="-265.78" font-family="Times,serif" font-size="14.00">PRINT_STATEMENT</text>
</g>
<!-- node0x600000c14780&#45;&#45;node0x600000c14540 -->
<g id="edge10" class="edge">
<title>node0x600000c14780&#45;&#45;node0x600000c14540</title>
<path fill="none" stroke="black" d="M603.37,-323.18C603.37,-312.33 603.37,-298.4 603.37,-287.58"/>
</g>
<!-- node0x600000c14720 -->
<g id="node13" class="node">
<title>node0x600000c14720</title>
<ellipse fill="none" stroke="black" cx="769.37" cy="-269.48" rx="40.09" ry="18"/>
<text text-anchor="middle" x="769.37" y="-265.78" font-family="Times,serif" font-size="14.00">BLOCK</text>
</g>
<!-- node0x600000c14780&#45;&#45;node0x600000c14720 -->
<g id="edge12" class="edge">
<title>node0x600000c14780&#45;&#45;node0x600000c14720</title>
<path fill="none" stroke="black" d="M640.21,-324.94C670.58,-312.14 713.05,-294.23 740.87,-282.5"/>
</g>
<!-- node0x600000c14270 -->
<g id="node8" class="node">
<title>node0x600000c14270</title>
<ellipse fill="none" stroke="black" cx="76.37" cy="-188.61" rx="76.24" ry="26.74"/>
<text text-anchor="middle" x="76.37" y="-192.41" font-family="Times,serif" font-size="14.00">STRING_DATA</text>
<text text-anchor="middle" x="76.37" y="-177.41" font-family="Times,serif" font-size="14.00">&quot;Hello &quot;</text>
</g>
<!-- node0x600000c14420&#45;&#45;node0x600000c14270 -->
<g id="edge7" class="edge">
<title>node0x600000c14420&#45;&#45;node0x600000c14270</title>
<path fill="none" stroke="black" d="M280.16,-253.65C238.12,-240.44 176.58,-221.1 132.13,-207.13"/>
</g>
<!-- node0x600000c14300 -->
<g id="node9" class="node">
<title>node0x600000c14300</title>
<ellipse fill="none" stroke="black" cx="254.37" cy="-188.61" rx="83.38" ry="26.74"/>
<text text-anchor="middle" x="254.37" y="-192.41" font-family="Times,serif" font-size="14.00">NUMBER_DATA</text>
<text text-anchor="middle" x="254.37" y="-177.41" font-family="Times,serif" font-size="14.00">2</text>
</g>
<!-- node0x600000c14420&#45;&#45;node0x600000c14300 -->
<g id="edge8" class="edge">
<title>node0x600000c14420&#45;&#45;node0x600000c14300</title>
<path fill="none" stroke="black" d="M311.53,-251.37C301.55,-240.58 288.49,-226.48 277.38,-214.48"/>
</g>
<!-- node0x600000c143c0 -->
<g id="node10" class="node">
<title>node0x600000c143c0</title>
<ellipse fill="none" stroke="black" cx="432.37" cy="-188.61" rx="76.24" ry="26.74"/>
<text text-anchor="middle" x="432.37" y="-192.41" font-family="Times,serif" font-size="14.00">STRING_DATA</text>
<text text-anchor="middle" x="432.37" y="-177.41" font-family="Times,serif" font-size="14.00">&quot; World&quot;</text>
</g>
<!-- node0x600000c14420&#45;&#45;node0x600000c143c0 -->
<g id="edge9" class="edge">
<title>node0x600000c14420&#45;&#45;node0x600000c143c0</title>
<path fill="none" stroke="black" d="M349.89,-251.56C364.72,-240.43 384.33,-225.69 400.72,-213.38"/>
</g>
<!-- node0x600000c144e0 -->
<g id="node12" class="node">
<title>node0x600000c144e0</title>
<ellipse fill="none" stroke="black" cx="603.37" cy="-188.61" rx="76.24" ry="26.74"/>
<text text-anchor="middle" x="603.37" y="-192.41" font-family="Times,serif" font-size="14.00">STRING_DATA</text>
<text text-anchor="middle" x="603.37" y="-177.41" font-family="Times,serif" font-size="14.00">&quot;Another one&quot;</text>
</g>
<!-- node0x600000c14540&#45;&#45;node0x600000c144e0 -->
<g id="edge11" class="edge">
<title>node0x600000c14540&#45;&#45;node0x600000c144e0</title>
<path fill="none" stroke="black" d="M603.37,-251.37C603.37,-240.95 603.37,-227.43 603.37,-215.69"/>
</g>
<!-- node0x600000c146f0 -->
<g id="node14" class="node">
<title>node0x600000c146f0</title>
<ellipse fill="none" stroke="black" cx="783.37" cy="-188.61" rx="85.29" ry="18"/>
<text text-anchor="middle" x="783.37" y="-184.91" font-family="Times,serif" font-size="14.00">STATEMENT_LIST</text>
</g>
<!-- node0x600000c14720&#45;&#45;node0x600000c146f0 -->
<g id="edge13" class="edge">
<title>node0x600000c14720&#45;&#45;node0x600000c146f0</title>
<path fill="none" stroke="black" d="M772.41,-251.37C774.74,-238.23 777.94,-220.16 780.29,-206.96"/>
</g>
<!-- node0x600000c14660 -->
<g id="node15" class="node">
<title>node0x600000c14660</title>
<ellipse fill="none" stroke="black" cx="783.37" cy="-107.74" rx="92.08" ry="18"/>
<text text-anchor="middle" x="783.37" y="-104.04" font-family="Times,serif" font-size="14.00">PRINT_STATEMENT</text>
</g>
<!-- node0x600000c146f0&#45;&#45;node0x600000c14660 -->
<g id="edge14" class="edge">
<title>node0x600000c146f0&#45;&#45;node0x600000c14660</title>
<path fill="none" stroke="black" d="M783.37,-170.5C783.37,-157.36 783.37,-139.29 783.37,-126.09"/>
</g>
<!-- node0x600000c14600 -->
<g id="node16" class="node">
<title>node0x600000c14600</title>
<ellipse fill="none" stroke="black" cx="783.37" cy="-26.87" rx="76.24" ry="26.74"/>
<text text-anchor="middle" x="783.37" y="-30.67" font-family="Times,serif" font-size="14.00">STRING_DATA</text>
<text text-anchor="middle" x="783.37" y="-15.67" font-family="Times,serif" font-size="14.00">&quot;Yet another&quot;</text>
</g>
<!-- node0x600000c14660&#45;&#45;node0x600000c14600 -->
<g id="edge15" class="edge">
<title>node0x600000c14660&#45;&#45;node0x600000c14600</title>
<path fill="none" stroke="black" d="M783.37,-89.63C783.37,-79.21 783.37,-65.69 783.37,-53.95"/>
</g>
<!-- node0x600000c148a0 -->
<g id="node18" class="node">
<title>node0x600000c148a0</title>
<ellipse fill="none" stroke="black" cx="756.37" cy="-422.35" rx="94.51" ry="26.74"/>
<text text-anchor="middle" x="756.37" y="-426.15" font-family="Times,serif" font-size="14.00">IDENTIFIER_DATA</text>
<text text-anchor="middle" x="756.37" y="-411.15" font-family="Times,serif" font-size="14.00">printNewlines</text>
</g>
<!-- node0x600000c14a80&#45;&#45;node0x600000c148a0 -->
<g id="edge17" class="edge">
<title>node0x600000c14a80&#45;&#45;node0x600000c148a0</title>
<path fill="none" stroke="black" d="M836.13,-486.26C822.21,-475.28 803.44,-460.47 787.61,-447.99"/>
</g>
<!-- node0x600000c148d0 -->
<g id="node19" class="node">
<title>node0x600000c148d0</title>
<ellipse fill="none" stroke="black" cx="956.37" cy="-422.35" rx="87.18" ry="18"/>
<text text-anchor="middle" x="956.37" y="-418.65" font-family="Times,serif" font-size="14.00">PARAMETER_LIST</text>
</g>
<!-- node0x600000c14a80&#45;&#45;node0x600000c148d0 -->
<g id="edge18" class="edge">
<title>node0x600000c14a80&#45;&#45;node0x600000c148d0</title>
<path fill="none" stroke="black" d="M876.6,-486.26C893.61,-472.85 917.84,-453.74 935.13,-440.1"/>
</g>
<!-- node0x600000c14a20 -->
<g id="node20" class="node">
<title>node0x600000c14a20</title>
<ellipse fill="none" stroke="black" cx="1101.37" cy="-422.35" rx="40.09" ry="18"/>
<text text-anchor="middle" x="1101.37" y="-418.65" font-family="Times,serif" font-size="14.00">BLOCK</text>
</g>
<!-- node0x600000c14a80&#45;&#45;node0x600000c14a20 -->
<g id="edge19" class="edge">
<title>node0x600000c14a80&#45;&#45;node0x600000c14a20</title>
<path fill="none" stroke="black" d="M902.44,-492.8C942.76,-483.85 1002.51,-468.84 1052.37,-449.22 1060.87,-445.87 1069.81,-441.45 1077.69,-437.21"/>
</g>
<!-- node0x600000c149f0 -->
<g id="node21" class="node">
<title>node0x600000c149f0</title>
<ellipse fill="none" stroke="black" cx="1101.37" cy="-341.48" rx="85.29" ry="18"/>
<text text-anchor="middle" x="1101.37" y="-337.78" font-family="Times,serif" font-size="14.00">STATEMENT_LIST</text>
</g>
<!-- node0x600000c14a20&#45;&#45;node0x600000c149f0 -->
<g id="edge20" class="edge">
<title>node0x600000c14a20&#45;&#45;node0x600000c149f0</title>
<path fill="none" stroke="black" d="M1101.37,-404.24C1101.37,-391.1 1101.37,-373.03 1101.37,-359.83"/>
</g>
<!-- node0x600000c14960 -->
<g id="node22" class="node">
<title>node0x600000c14960</title>
<ellipse fill="none" stroke="black" cx="1101.37" cy="-269.48" rx="92.08" ry="18"/>
<text text-anchor="middle" x="1101.37" y="-265.78" font-family="Times,serif" font-size="14.00">PRINT_STATEMENT</text>
</g>
<!-- node0x600000c149f0&#45;&#45;node0x600000c14960 -->
<g id="edge21" class="edge">
<title>node0x600000c149f0&#45;&#45;node0x600000c14960</title>
<path fill="none" stroke="black" d="M1101.37,-323.18C1101.37,-312.33 1101.37,-298.4 1101.37,-287.58"/>
</g>
<!-- node0x600000c14900 -->
<g id="node23" class="node">
<title>node0x600000c14900</title>
<ellipse fill="none" stroke="black" cx="1101.37" cy="-188.61" rx="76.24" ry="26.74"/>
<text text-anchor="middle" x="1101.37" y="-192.41" font-family="Times,serif" font-size="14.00">STRING_DATA</text>
<text text-anchor="middle" x="1101.37" y="-177.41" font-family="Times,serif" font-size="14.00">&quot;\n\n\n&quot;</text>
</g>
<!-- node0x600000c14960&#45;&#45;node0x600000c14900 -->
<g id="edge22" class="edge">
<title>node0x600000c14960&#45;&#45;node0x600000c14900</title>
<path fill="none" stroke="black" d="M1101.37,-251.37C1101.37,-240.95 1101.37,-227.43 1101.37,-215.69"/>
</g>
</g>
</svg>
