<svg version="1.1" xmlns="http://www.w3.org/2000/svg" viewBox="0 0 1528.452333331591 829.7634096259843" width="3056.904666663182" height="1659.5268192519686">
  <!-- svg-source:excalidraw -->
  
  <defs>
    <style class="style-fonts">
      @font-face {
        font-family: "Virgil";
        src: url("https://excalidraw.com/Virgil.woff2");
      }
      @font-face {
        font-family: "Cascadia";
        src: url("https://excalidraw.com/Cascadia.woff2");
      }
    </style>
  </defs>
  <rect x="0" y="0" width="1528.452333331591" height="829.7634096259843" fill="#ffffff"></rect><g transform="translate(458.34594051276804 10) rotate(0 285 45.5)"><text x="285" y="32.5" font-family="Virgil, Segoe UI Emoji" font-size="36px" fill="#000000" text-anchor="middle" style="white-space: pre;" direction="ltr">From text in a file to </text><text x="285" y="78" font-family="Virgil, Segoe UI Emoji" font-size="36px" fill="#000000" text-anchor="middle" style="white-space: pre;" direction="ltr">an abstract syntax tree (AST)</text></g><g stroke-linecap="round" transform="translate(50.919952933824106 187.69195027111726) rotate(0 90.61478672642176 51.36812789119922)"><path d="M25.68 0 M25.68 0 C64.15 0.5, 104.94 -0.91, 155.55 0 M25.68 0 C55.76 -0.16, 84.19 -1.16, 155.55 0 M155.55 0 C174.63 1.68, 181.65 7.27, 181.23 25.68 M155.55 0 C171.26 0.32, 179.39 10.79, 181.23 25.68 M181.23 25.68 C182.91 44.33, 182.18 61.8, 181.23 77.05 M181.23 25.68 C181.69 41.55, 180.53 57.01, 181.23 77.05 M181.23 77.05 C181.14 94.66, 173.5 104.49, 155.55 102.74 M181.23 77.05 C182.22 94.45, 172.17 103.73, 155.55 102.74 M155.55 102.74 C124.85 100.14, 97.72 100.47, 25.68 102.74 M155.55 102.74 C124.77 104.03, 91.98 103.36, 25.68 102.74 M25.68 102.74 C6.88 100.99, -0.99 93.33, 0 77.05 M25.68 102.74 C10.03 102.62, -0.59 94.35, 0 77.05 M0 77.05 C0.94 62.68, 0.23 46.26, 0 25.68 M0 77.05 C-0.34 57.7, 0.77 37.61, 0 25.68 M0 25.68 C0.58 7.3, 8.86 -0.19, 25.68 0 M0 25.68 C-2.14 9.06, 8.47 0.45, 25.68 0" stroke="#1864ab" stroke-width="1" fill="none"></path></g><g transform="translate(56.90774114815741 213.19416584116883) rotate(0 85 29.5)"><text x="0" y="15.666666666666668" font-family="Cascadia, Segoe UI Emoji" font-size="16px" fill="#000000" text-anchor="start" style="white-space: pre;" direction="ltr">func main() begin</text><text x="0" y="35.333333333333336" font-family="Cascadia, Segoe UI Emoji" font-size="16px" fill="#000000" text-anchor="start" style="white-space: pre;" direction="ltr">    print "Hello!"</text><text x="0" y="55" font-family="Cascadia, Segoe UI Emoji" font-size="16px" fill="#000000" text-anchor="start" style="white-space: pre;" direction="ltr">end</text></g><g transform="translate(111.9075170701426 165.12109896188898) rotate(0 31 10)"><text x="0" y="14" font-family="Virgil, Segoe UI Emoji" font-size="16px" fill="#1864ab" text-anchor="start" style="white-space: pre;" direction="ltr">hello.vsl</text></g><g transform="translate(1253.9094571176286 160.14649102336702) rotate(0 34.5 10)"><text x="0" y="14" font-family="Virgil, Segoe UI Emoji" font-size="16px" fill="#c92a2a" text-anchor="start" style="white-space: pre;" direction="ltr">scanner.l</text></g><g transform="translate(1202.6307382045861 252.50239357519982) rotate(0 58 10)"><text x="0" y="14" font-family="Virgil, Segoe UI Emoji" font-size="16px" fill="#000000" text-anchor="start" style="white-space: pre;" direction="ltr">"func" -&gt; FUNC</text></g><g transform="translate(1328.57579589623 201.70280026228326) rotate(0 24 10)"><text x="0" y="14" font-family="Virgil, Segoe UI Emoji" font-size="16px" fill="#5c940d" text-anchor="start" style="white-space: pre;" direction="ltr">Token</text></g><g stroke-linecap="round"><g transform="translate(1328.9222494095816 227.41376034794308) rotate(0 -6.532598816475115 10.785216427197142)"><path d="M0 0 C-2.18 3.6, -10.89 17.98, -13.07 21.57 M0 0 C-2.18 3.6, -10.89 17.98, -13.07 21.57" stroke="#5c940d" stroke-width="1" fill="none"></path></g><g transform="translate(1328.9222494095816 227.41376034794308) rotate(0 -6.532598816475115 10.785216427197142)"><path d="M-10.62 9.2 C-11.32 12.77, -12.03 16.34, -13.07 21.57 M-10.62 9.2 C-11.21 12.21, -11.81 15.22, -13.07 21.57" stroke="#5c940d" stroke-width="1" fill="none"></path></g><g transform="translate(1328.9222494095816 227.41376034794308) rotate(0 -6.532598816475115 10.785216427197142)"><path d="M-3.24 13.67 C-6.08 15.95, -8.91 18.23, -13.07 21.57 M-3.24 13.67 C-5.63 15.59, -8.02 17.51, -13.07 21.57" stroke="#5c940d" stroke-width="1" fill="none"></path></g></g><mask></mask><g stroke-linecap="round" transform="translate(1165.7487683994814 187.10282219641448) rotate(0 122.24409985714749 51.36812789119922)"><path d="M25.68 0 M25.68 0 C73.53 -0.4, 121.83 -0.54, 218.8 0 M25.68 0 C94.96 -2.18, 161.48 -2.59, 218.8 0 M218.8 0 C234.47 1.71, 245.05 8.95, 244.49 25.68 M218.8 0 C234.77 0.26, 243.27 9.74, 244.49 25.68 M244.49 25.68 C242.96 47.16, 245.47 65.73, 244.49 77.05 M244.49 25.68 C244.25 43.97, 244.65 62.9, 244.49 77.05 M244.49 77.05 C242.85 96.06, 234.6 104.08, 218.8 102.74 M244.49 77.05 C244.33 95.78, 237.34 101.8, 218.8 102.74 M218.8 102.74 C159.23 102.33, 100.21 104.86, 25.68 102.74 M218.8 102.74 C170.34 103.25, 121.32 103.32, 25.68 102.74 M25.68 102.74 C10.13 100.94, -0.75 94.27, 0 77.05 M25.68 102.74 C10.3 102.66, -1.76 96.08, 0 77.05 M0 77.05 C1.07 63.34, -1.58 45.59, 0 25.68 M0 77.05 C-0.99 56.62, -0.35 36.96, 0 25.68 M0 25.68 C-1.16 7.73, 7.44 -1.73, 25.68 0 M0 25.68 C1.49 10.61, 8.18 2, 25.68 0" stroke="#c92a2a" stroke-width="1" fill="none"></path></g><g transform="translate(15.948771398399003 551.025900581524) rotate(0 319.5 78)"><text x="0" y="15.5" font-family="Cascadia, Segoe UI Emoji" font-size="16px" fill="#000000" text-anchor="start" style="white-space: pre;" direction="ltr">...</text><text x="0" y="35" font-family="Cascadia, Segoe UI Emoji" font-size="16px" fill="#000000" text-anchor="start" style="white-space: pre;" direction="ltr">function:</text><text x="0" y="54.5" font-family="Cascadia, Segoe UI Emoji" font-size="16px" fill="#000000" text-anchor="start" style="white-space: pre;" direction="ltr">    FUNC identifier '(' parameter_list ')' statement {</text><text x="0" y="74" font-family="Cascadia, Segoe UI Emoji" font-size="16px" fill="#000000" text-anchor="start" style="white-space: pre;" direction="ltr">        $$ = malloc(sizeof(node_t));</text><text x="0" y="93.5" font-family="Cascadia, Segoe UI Emoji" font-size="16px" fill="#000000" text-anchor="start" style="white-space: pre;" direction="ltr">        // $2 = IDENTIFIER_DATA, $4 = PARAMETER_LIST, $6 = STATEMENT</text><text x="0" y="113" font-family="Cascadia, Segoe UI Emoji" font-size="16px" fill="#000000" text-anchor="start" style="white-space: pre;" direction="ltr">        node_init($$, FUNCTION, NULL, 3, $2, $4, $6);</text><text x="0" y="132.5" font-family="Cascadia, Segoe UI Emoji" font-size="16px" fill="#000000" text-anchor="start" style="white-space: pre;" direction="ltr">    };</text><text x="0" y="152" font-family="Cascadia, Segoe UI Emoji" font-size="16px" fill="#000000" text-anchor="start" style="white-space: pre;" direction="ltr">...</text></g><g stroke-linecap="round" transform="translate(10 548.3100526239914) rotate(0 324.71556749499433 87.49591367530758)"><path d="M32 0 M32 0 C249.12 1.27, 467.67 1.13, 617.43 0 M32 0 C244.59 0.39, 457.19 0.78, 617.43 0 M617.43 0 C639.91 0.02, 649.52 9.33, 649.43 32 M617.43 0 C637.32 0.76, 649.23 10.58, 649.43 32 M649.43 32 C648.34 61.51, 648.39 90.38, 649.43 142.99 M649.43 32 C650.22 70.63, 650.15 107.8, 649.43 142.99 M649.43 142.99 C650.24 163.64, 637.37 173.27, 617.43 174.99 M649.43 142.99 C648.1 164.13, 638.59 174.64, 617.43 174.99 M617.43 174.99 C399.03 176.32, 181.63 175.86, 32 174.99 M617.43 174.99 C456.03 175.44, 294.7 175.05, 32 174.99 M32 174.99 C11.05 173.36, -1.23 162.8, 0 142.99 M32 174.99 C11.85 174.44, -1.74 163.92, 0 142.99 M0 142.99 C1.08 111.04, -1.47 74.73, 0 32 M0 142.99 C-0.41 115.87, -0.46 90.1, 0 32 M0 32 C-1.27 10.91, 11.52 -1.12, 32 0 M0 32 C-2.18 9.24, 10.88 1.28, 32 0" stroke="#5f3dc4" stroke-width="1" fill="none"></path></g><g transform="translate(310.0981411470773 521.2897112746336) rotate(0 32 10)"><text x="0" y="14" font-family="Virgil, Segoe UI Emoji" font-size="16px" fill="#5f3dc4" text-anchor="start" style="white-space: pre;" direction="ltr">parser.y</text></g><g stroke-linecap="round" transform="translate(358.86592836257955 176.19257683712758) rotate(0 164.65280611602157 59.16307078970422)"><path d="M29.58 0 M29.58 0 C87.32 0.88, 147.18 1.29, 299.72 0 M29.58 0 C128.41 1.97, 228.1 1.84, 299.72 0 M299.72 0 C318.42 1.6, 328.84 8.81, 329.31 29.58 M299.72 0 C319.92 0.98, 327.99 10.87, 329.31 29.58 M329.31 29.58 C327.64 45.96, 330.62 66.76, 329.31 88.74 M329.31 29.58 C328.33 49.26, 329.8 67.25, 329.31 88.74 M329.31 88.74 C328.61 108.54, 317.77 118.66, 299.72 118.33 M329.31 88.74 C330.13 106.29, 319.73 120.48, 299.72 118.33 M299.72 118.33 C235.16 116.25, 169.68 117.44, 29.58 118.33 M299.72 118.33 C222.41 118.83, 143.66 119.16, 29.58 118.33 M29.58 118.33 C8.41 117.11, 1.7 107.99, 0 88.74 M29.58 118.33 C9.43 116.27, -0.04 107.19, 0 88.74 M0 88.74 C-1.48 76.72, -1.65 59.81, 0 29.58 M0 88.74 C0.93 68.1, -0.07 46.07, 0 29.58 M0 29.58 C0.38 11.41, 10.48 1.01, 29.58 0 M0 29.58 C-1.73 11.24, 10.89 -1.9, 29.58 0" stroke="#2b8a3e" stroke-width="1" fill="none"></path></g><g transform="translate(501.3719258178727 149.70368619536882) rotate(0 22 10)"><text x="0" y="14" font-family="Virgil, Segoe UI Emoji" font-size="16px" fill="#2b8a3e" text-anchor="start" style="white-space: pre;" direction="ltr">vslc.c</text></g><g transform="translate(368.59446605107235 186.19671755602937) rotate(0 155 49)"><text x="0" y="15.600000000000001" font-family="Cascadia, Segoe UI Emoji" font-size="16px" fill="#000000" text-anchor="start" style="white-space: pre;" direction="ltr">int main(int argc, char **argv) {</text><text x="0" y="35.2" font-family="Cascadia, Segoe UI Emoji" font-size="16px" fill="#000000" text-anchor="start" style="white-space: pre;" direction="ltr">    ...</text><text x="0" y="54.800000000000004" font-family="Cascadia, Segoe UI Emoji" font-size="16px" fill="#000000" text-anchor="start" style="white-space: pre;" direction="ltr">    yyparse();</text><text x="0" y="74.4" font-family="Cascadia, Segoe UI Emoji" font-size="16px" fill="#000000" text-anchor="start" style="white-space: pre;" direction="ltr">    ...</text><text x="0" y="94" font-family="Cascadia, Segoe UI Emoji" font-size="16px" fill="#000000" text-anchor="start" style="white-space: pre;" direction="ltr">}</text></g><g transform="translate(378.4759743743755 299.3744650378162) rotate(0 146.5 20)"><text x="0" y="14" font-family="Virgil, Segoe UI Emoji" font-size="16px" fill="#000000" text-anchor="start" style="white-space: pre;" direction="ltr">- yyparse() is generated from Bison, </text><text x="0" y="34" font-family="Virgil, Segoe UI Emoji" font-size="16px" fill="#000000" text-anchor="start" style="white-space: pre;" direction="ltr">and constructs the syntax tree</text></g><g stroke-linecap="round" transform="translate(761.4380937017909 157.90389077017113) rotate(0 140.65019350962302 79.51990891510489)"><path d="M7.86 8.16 C7.86 8.16, 7.86 8.16, 7.86 8.16 M7.86 8.16 C7.86 8.16, 7.86 8.16, 7.86 8.16 M3.66 19.09 C7.7 14.45, 11.73 9.81, 18.1 2.48 M3.66 19.09 C9.42 12.46, 15.18 5.84, 18.1 2.48 M2.75 26.24 C8.68 19.42, 14.6 12.6, 25.05 0.58 M2.75 26.24 C7.4 20.89, 12.05 15.54, 25.05 0.58 M2.48 32.64 C10.74 23.14, 18.99 13.64, 30.7 0.18 M2.48 32.64 C13.73 19.7, 24.97 6.77, 30.7 0.18 M2.88 38.28 C14.84 24.52, 26.8 10.76, 34.37 2.05 M2.88 38.28 C13.22 26.38, 23.56 14.49, 34.37 2.05 M2.62 44.68 C15.35 30.03, 28.08 15.38, 39.36 2.41 M2.62 44.68 C14.26 31.28, 25.91 17.88, 39.36 2.41 M2.36 51.07 C16.99 34.24, 31.62 17.41, 45 2.02 M2.36 51.07 C11.41 40.65, 20.47 30.23, 45 2.02 M2.75 56.72 C20.76 35.99, 38.78 15.27, 49.99 2.38 M2.75 56.72 C19.76 37.15, 36.77 17.59, 49.99 2.38 M2.49 63.11 C16.64 46.83, 30.8 30.55, 55.63 1.98 M2.49 63.11 C22.23 40.41, 41.97 17.7, 55.63 1.98 M2.23 69.51 C21.36 47.51, 40.49 25.5, 60.62 2.34 M2.23 69.51 C19.35 49.82, 36.47 30.12, 60.62 2.34 M2.62 75.16 C24.92 49.5, 47.22 23.85, 66.26 1.95 M2.62 75.16 C26.53 47.66, 50.43 20.16, 66.26 1.95 M2.36 81.55 C23.49 57.25, 44.62 32.94, 71.25 2.31 M2.36 81.55 C18.98 62.43, 35.6 43.31, 71.25 2.31 M2.1 87.95 C23.56 63.26, 45.02 38.58, 76.89 1.91 M2.1 87.95 C21.11 66.08, 40.12 44.21, 76.89 1.91 M2.49 93.59 C20.81 72.53, 39.12 51.46, 81.88 2.27 M2.49 93.59 C25.38 67.27, 48.26 40.94, 81.88 2.27 M2.23 99.99 C24.26 74.65, 46.29 49.31, 87.52 1.88 M2.23 99.99 C27.49 70.94, 52.74 41.89, 87.52 1.88 M1.97 106.39 C20.26 85.35, 38.55 64.31, 92.51 2.24 M1.97 106.39 C27.12 77.46, 52.27 48.53, 92.51 2.24 M2.37 112.03 C34.67 74.87, 66.98 37.71, 98.15 1.85 M2.37 112.03 C26.27 84.54, 50.17 57.04, 98.15 1.85 M2.1 118.43 C33.82 81.94, 65.54 45.46, 103.14 2.21 M2.1 118.43 C23.59 93.72, 45.07 69.01, 103.14 2.21 M1.84 124.83 C32.59 89.46, 63.33 54.1, 108.78 1.81 M1.84 124.83 C36.28 85.22, 70.71 45.6, 108.78 1.81 M2.89 129.72 C30.65 97.79, 58.4 65.86, 113.77 2.17 M2.89 129.72 C31.18 97.18, 59.46 64.64, 113.77 2.17 M2.63 136.11 C45.03 87.34, 87.42 38.58, 119.41 1.78 M2.63 136.11 C47.07 85, 91.5 33.88, 119.41 1.78 M3.03 141.76 C37.69 101.88, 72.36 62, 124.4 2.14 M3.03 141.76 C42.69 96.13, 82.36 50.49, 124.4 2.14 M4.73 145.89 C43.42 101.39, 82.1 56.89, 130.04 1.74 M4.73 145.89 C48.76 95.25, 92.78 44.6, 130.04 1.74 M7.1 149.27 C43.55 107.34, 80 65.41, 135.03 2.1 M7.1 149.27 C46.6 103.82, 86.11 58.38, 135.03 2.1 M9.46 152.65 C56.69 98.32, 103.91 43.99, 140.67 1.71 M9.46 152.65 C38.35 119.41, 67.24 86.18, 140.67 1.71 M13.13 154.52 C53.41 108.19, 93.69 61.85, 145.66 2.07 M13.13 154.52 C45.13 117.71, 77.12 80.91, 145.66 2.07 M16.81 156.39 C49.29 119.02, 81.77 81.66, 150.65 2.43 M16.81 156.39 C47.88 120.65, 78.95 84.91, 150.65 2.43 M19.83 159.01 C72.91 97.95, 125.99 36.89, 156.29 2.03 M19.83 159.01 C64.1 108.08, 108.37 57.15, 156.29 2.03 M24.82 159.37 C75.81 100.71, 126.8 42.06, 161.28 2.39 M24.82 159.37 C64.61 113.59, 104.4 67.82, 161.28 2.39 M29.8 159.73 C81.5 100.26, 133.2 40.78, 166.92 2 M29.8 159.73 C73.26 109.74, 116.72 59.74, 166.92 2 M34.13 160.85 C69.97 119.62, 105.81 78.4, 171.91 2.36 M34.13 160.85 C84.07 103.4, 134.01 45.96, 171.91 2.36 M39.12 161.21 C80.06 114.12, 120.99 67.02, 177.55 1.96 M39.12 161.21 C85.84 107.46, 132.57 53.71, 177.55 1.96 M44.76 160.81 C86.09 113.28, 127.41 65.74, 182.54 2.32 M44.76 160.81 C81.66 118.36, 118.57 75.91, 182.54 2.32 M49.75 161.17 C100.03 103.33, 150.31 45.5, 188.18 1.93 M49.75 161.17 C86.3 119.13, 122.84 77.09, 188.18 1.93 M55.39 160.78 C107.98 100.29, 160.56 39.8, 193.17 2.29 M55.39 160.78 C95.39 114.76, 135.4 68.75, 193.17 2.29 M60.38 161.14 C114.14 99.3, 167.9 37.46, 198.81 1.9 M60.38 161.14 C106.57 108.01, 152.75 54.88, 198.81 1.9 M66.02 160.74 C105.21 115.66, 144.4 70.58, 203.8 2.26 M66.02 160.74 C117.26 101.8, 168.5 42.86, 203.8 2.26 M71.01 161.1 C122.31 102.09, 173.61 43.07, 209.44 1.86 M71.01 161.1 C118.5 106.47, 166 51.84, 209.44 1.86 M76.65 160.71 C114.96 116.64, 153.27 72.57, 214.43 2.22 M76.65 160.71 C119.89 110.97, 163.13 61.23, 214.43 2.22 M81.64 161.07 C123.18 113.29, 164.71 65.51, 220.07 1.83 M81.64 161.07 C116.02 121.53, 150.39 81.98, 220.07 1.83 M87.28 160.68 C131.77 109.5, 176.26 58.32, 225.06 2.19 M87.28 160.68 C139.2 100.95, 191.12 41.22, 225.06 2.19 M92.27 161.04 C141.75 104.12, 191.22 47.2, 230.7 1.79 M92.27 161.04 C142.76 102.95, 193.25 44.87, 230.7 1.79 M97.91 160.64 C135.11 117.85, 172.31 75.05, 235.69 2.15 M97.91 160.64 C136.63 116.1, 175.34 71.57, 235.69 2.15 M102.9 161 C146.37 110.99, 189.85 60.98, 241.33 1.76 M102.9 161 C153.72 102.54, 204.54 44.08, 241.33 1.76 M108.54 160.61 C144.51 119.24, 180.47 77.87, 246.32 2.12 M108.54 160.61 C136.89 128, 165.24 95.39, 246.32 2.12 M113.53 160.97 C159.47 108.12, 205.41 55.27, 251.96 1.72 M113.53 160.97 C153.61 114.86, 193.69 68.75, 251.96 1.72 M119.17 160.57 C164.61 108.31, 210.04 56.04, 257.6 1.33 M119.17 160.57 C173.14 98.49, 227.11 36.4, 257.6 1.33 M124.16 160.93 C174.24 103.32, 224.33 45.7, 261.93 2.44 M124.16 160.93 C169.01 109.33, 213.87 57.74, 261.93 2.44 M129.8 160.54 C183.38 98.91, 236.95 37.28, 265.61 4.31 M129.8 160.54 C174.84 108.73, 219.87 56.93, 265.61 4.31 M134.79 160.9 C182.39 106.14, 229.98 51.39, 269.94 5.43 M134.79 160.9 C165.61 125.45, 196.43 89.99, 269.94 5.43 M140.43 160.5 C176.66 118.83, 212.89 77.15, 272.96 8.05 M140.43 160.5 C191.92 101.27, 243.41 42.05, 272.96 8.05 M145.42 160.86 C175.67 126.07, 205.92 91.27, 275.98 10.68 M145.42 160.86 C185.79 114.42, 226.16 67.98, 275.98 10.68 M150.41 161.22 C184.82 121.63, 219.24 82.05, 278.34 14.05 M150.41 161.22 C198.7 105.67, 247 50.11, 278.34 14.05 M156.05 160.83 C196.54 114.25, 237.03 67.68, 280.05 18.19 M156.05 160.83 C185.9 126.49, 215.75 92.15, 280.05 18.19 M161.04 161.19 C206.2 109.23, 251.36 57.28, 281.1 23.08 M161.04 161.19 C206.05 109.41, 251.07 57.62, 281.1 23.08 M166.68 160.79 C207.76 113.54, 248.84 66.28, 283.46 26.46 M166.68 160.79 C196.3 126.72, 225.91 92.65, 283.46 26.46 M171.67 161.15 C202.74 125.41, 233.82 89.66, 282.54 33.61 M171.67 161.15 C206.76 120.79, 241.85 80.42, 282.54 33.61 M177.31 160.76 C199.82 134.86, 222.33 108.97, 282.94 39.25 M177.31 160.76 C213.04 119.66, 248.76 78.57, 282.94 39.25 M182.3 161.12 C218.17 119.86, 254.04 78.59, 282.68 45.65 M182.3 161.12 C222.17 115.25, 262.04 69.39, 282.68 45.65 M187.94 160.72 C207.63 138.08, 227.31 115.44, 283.07 51.29 M187.94 160.72 C211.18 133.99, 234.42 107.25, 283.07 51.29 M192.93 161.08 C217.56 132.75, 242.19 104.42, 282.81 57.69 M192.93 161.08 C217.34 133.01, 241.75 104.93, 282.81 57.69 M198.57 160.69 C217.06 139.42, 235.55 118.15, 282.55 64.09 M198.57 160.69 C222.17 133.54, 245.77 106.39, 282.55 64.09 M203.56 161.05 C234.33 125.66, 265.09 90.26, 282.94 69.73 M203.56 161.05 C223.67 137.91, 243.79 114.77, 282.94 69.73 M209.2 160.66 C233.48 132.73, 257.76 104.8, 282.68 76.13 M209.2 160.66 C232.48 133.87, 255.77 107.09, 282.68 76.13 M214.19 161.02 C238.02 133.6, 261.85 106.19, 283.07 81.77 M214.19 161.02 C235.95 135.99, 257.7 110.96, 283.07 81.77 M219.83 160.62 C232.8 145.71, 245.76 130.79, 282.81 88.17 M219.83 160.62 C243.75 133.11, 267.66 105.6, 282.81 88.17 M224.82 160.98 C241.42 141.88, 258.02 122.78, 282.55 94.57 M224.82 160.98 C241.65 141.62, 258.48 122.26, 282.55 94.57 M230.46 160.59 C246.49 142.15, 262.52 123.71, 282.95 100.21 M230.46 160.59 C243.94 145.08, 257.42 129.58, 282.95 100.21 M235.45 160.95 C246.87 147.81, 258.28 134.68, 282.68 106.61 M235.45 160.95 C248.31 146.15, 261.18 131.35, 282.68 106.61 M241.09 160.55 C252.78 147.11, 264.47 133.66, 283.08 112.25 M241.09 160.55 C253.47 146.31, 265.85 132.08, 283.08 112.25 M246.08 160.91 C258.13 147.05, 270.18 133.18, 282.82 118.65 M246.08 160.91 C253.78 152.05, 261.48 143.19, 282.82 118.65 M251.72 160.52 C262.98 147.57, 274.23 134.62, 282.56 125.05 M251.72 160.52 C264.05 146.34, 276.37 132.16, 282.56 125.05 M258.02 159.37 C267.39 148.59, 276.76 137.81, 284.26 129.18 M258.02 159.37 C266.26 149.89, 274.5 140.41, 284.26 129.18 M264.32 158.22 C271.85 149.55, 279.39 140.88, 283.35 136.33 M264.32 158.22 C268.83 153.04, 273.33 147.85, 283.35 136.33 M7.9 150.96 C7.9 150.96, 7.9 150.96, 7.9 150.96 M7.9 150.96 C7.9 150.96, 7.9 150.96, 7.9 150.96 M19.58 155.81 C12.77 149.88, 5.95 143.96, 2.23 140.72 M19.58 155.81 C15.57 152.32, 11.56 148.84, 2.23 140.72 M26.74 156.73 C18.07 149.2, 9.41 141.66, 1.08 134.42 M26.74 156.73 C17.39 148.6, 8.05 140.48, 1.08 134.42 M33.13 156.99 C21.23 146.64, 9.32 136.29, 0.68 128.78 M33.13 156.99 C21.24 146.65, 9.35 136.32, 0.68 128.78 M39.53 157.25 C25.83 145.34, 12.12 133.42, 1.8 124.45 M39.53 157.25 C30.93 149.77, 22.33 142.29, 1.8 124.45 M45.93 157.51 C31.86 145.28, 17.8 133.06, 2.16 119.46 M45.93 157.51 C29.01 142.81, 12.1 128.1, 2.16 119.46 M51.57 157.12 C37.66 145.03, 23.75 132.94, 1.76 113.82 M51.57 157.12 C36.85 144.32, 22.13 131.52, 1.76 113.82 M57.97 157.38 C44.05 145.28, 30.13 133.18, 2.12 108.83 M57.97 157.38 C35.97 138.25, 13.96 119.12, 2.12 108.83 M63.61 156.98 C42.26 138.42, 20.91 119.86, 2.48 103.84 M63.61 156.98 C46.84 142.4, 30.07 127.83, 2.48 103.84 M70.01 157.24 C47.3 137.5, 24.59 117.76, 2.09 98.2 M70.01 157.24 C52.93 142.4, 35.86 127.56, 2.09 98.2 M76.41 157.51 C52.19 136.45, 27.96 115.39, 2.45 93.21 M76.41 157.51 C51.9 136.2, 27.4 114.9, 2.45 93.21 M82.05 157.11 C53.95 132.69, 25.86 108.26, 2.05 87.57 M82.05 157.11 C51.63 130.67, 21.22 104.23, 2.05 87.57 M88.45 157.37 C66.2 138.03, 43.94 118.68, 2.41 82.58 M88.45 157.37 C63.25 135.47, 38.05 113.57, 2.41 82.58 M94.85 157.63 C70.26 136.26, 45.67 114.88, 2.02 76.94 M94.85 157.63 C61.29 128.46, 27.73 99.29, 2.02 76.94 M100.49 157.24 C73.2 133.52, 45.91 109.79, 2.38 71.95 M100.49 157.24 C76.49 136.38, 52.49 115.52, 2.38 71.95 M106.89 157.5 C82.65 136.43, 58.4 115.35, 1.98 66.31 M106.89 157.5 C71.68 126.9, 36.48 96.29, 1.98 66.31 M112.53 157.11 C89.17 136.8, 65.81 116.49, 2.34 61.32 M112.53 157.11 C75.99 125.34, 39.45 93.58, 2.34 61.32 M118.93 157.37 C72.89 117.34, 26.84 77.32, 2.7 56.34 M118.93 157.37 C95.42 136.93, 71.91 116.49, 2.7 56.34 M125.33 157.63 C78.96 117.32, 32.6 77.02, 2.31 50.69 M125.33 157.63 C81.24 119.31, 37.16 80.98, 2.31 50.69 M130.97 157.24 C92.86 124.11, 54.75 90.98, 2.67 45.71 M130.97 157.24 C102.66 132.62, 74.35 108.01, 2.67 45.71 M137.37 157.5 C86.02 112.86, 34.68 68.23, 2.27 40.06 M137.37 157.5 C84.86 111.85, 32.36 66.21, 2.27 40.06 M143.01 157.1 C106.32 125.21, 69.64 93.32, 2.64 35.08 M143.01 157.1 C113.63 131.56, 84.26 106.03, 2.64 35.08 M149.41 157.36 C102.4 116.5, 55.39 75.63, 2.24 29.43 M149.41 157.36 C98.54 113.14, 47.66 68.92, 2.24 29.43 M155.81 157.62 C123.74 129.75, 91.67 101.87, 1.09 23.13 M155.81 157.62 C102.28 111.09, 48.75 64.56, 1.09 23.13 M161.45 157.23 C100.38 104.14, 39.31 51.05, 2.21 18.8 M161.45 157.23 C127.69 127.88, 93.93 98.54, 2.21 18.8 M167.85 157.49 C127.94 122.8, 88.03 88.11, 4.08 15.13 M167.85 157.49 C107.57 105.1, 47.3 52.7, 4.08 15.13 M173.49 157.1 C131.36 120.47, 89.23 83.85, 5.95 11.45 M173.49 157.1 C135.03 123.66, 96.56 90.22, 5.95 11.45 M179.89 157.36 C133.43 116.97, 86.97 76.59, 7.81 7.78 M179.89 157.36 C115.86 101.7, 51.84 46.05, 7.81 7.78 M186.29 157.62 C134.98 113.02, 83.67 68.41, 11.19 5.41 M186.29 157.62 C133.81 112, 81.33 66.38, 11.19 5.41 M191.93 157.23 C124.9 98.96, 57.87 40.69, 13.82 2.4 M191.93 157.23 C153.79 124.07, 115.66 90.92, 13.82 2.4 M198.33 157.49 C132.1 99.92, 65.88 42.35, 18.71 1.34 M198.33 157.49 C129.51 97.67, 60.7 37.85, 18.71 1.34 M203.97 157.09 C160.07 118.93, 116.17 80.77, 23.59 0.29 M203.97 157.09 C148.14 108.56, 92.31 60.03, 23.59 0.29 M210.37 157.35 C168.3 120.79, 126.23 84.22, 26.97 -2.07 M210.37 157.35 C155.38 109.55, 100.39 61.75, 26.97 -2.07 M216.77 157.62 C153.95 103.01, 91.14 48.41, 33.37 -1.81 M216.77 157.62 C174.03 120.46, 131.29 83.31, 33.37 -1.81 M222.41 157.22 C164.55 106.92, 106.69 56.63, 39.77 -1.55 M222.41 157.22 C162.26 104.93, 102.11 52.65, 39.77 -1.55 M228.81 157.48 C167.25 103.97, 105.69 50.46, 45.41 -1.94 M228.81 157.48 C170.33 106.65, 111.86 55.82, 45.41 -1.94 M234.45 157.09 C168.11 99.42, 101.78 41.76, 51.81 -1.68 M234.45 157.09 C196.02 123.68, 157.59 90.27, 51.81 -1.68 M240.85 157.35 C190.54 113.62, 140.24 69.89, 58.21 -1.42 M240.85 157.35 C193.29 116.01, 145.73 74.67, 58.21 -1.42 M247.25 157.61 C175.44 95.19, 103.64 32.78, 63.85 -1.81 M247.25 157.61 C184.66 103.2, 122.07 48.79, 63.85 -1.81 M251.38 155.9 C214.24 123.62, 177.1 91.34, 70.25 -1.55 M251.38 155.9 C195.12 107, 138.86 58.1, 70.25 -1.55 M258.53 156.82 C200.95 106.77, 143.38 56.72, 75.89 -1.95 M258.53 156.82 C189.22 96.57, 119.91 36.32, 75.89 -1.95 M264.17 156.43 C199 99.77, 133.83 43.12, 82.29 -1.68 M264.17 156.43 C212.94 111.89, 161.7 67.35, 82.29 -1.68 M268.31 154.72 C207.5 101.86, 146.69 49, 88.69 -1.42 M268.31 154.72 C224.84 116.93, 181.37 79.14, 88.69 -1.42 M270.93 151.7 C207.41 96.48, 143.88 41.26, 94.33 -1.82 M270.93 151.7 C209.95 98.69, 148.96 45.68, 94.33 -1.82 M274.31 149.34 C212.48 95.59, 150.65 41.84, 100.73 -1.56 M274.31 149.34 C221.34 103.29, 168.38 57.25, 100.73 -1.56 M276.94 146.32 C238.67 113.06, 200.41 79.8, 106.37 -1.95 M276.94 146.32 C237.28 111.85, 197.63 77.38, 106.37 -1.95 M278.8 142.64 C220.1 91.61, 161.39 40.58, 112.77 -1.69 M278.8 142.64 C244.84 113.12, 210.87 83.59, 112.77 -1.69 M280.67 138.97 C222.88 88.73, 165.08 38.48, 119.17 -1.43 M280.67 138.97 C242.95 106.18, 205.23 73.38, 119.17 -1.43 M281.03 133.98 C248.74 105.91, 216.44 77.83, 124.81 -1.82 M281.03 133.98 C244.26 102.02, 207.49 70.05, 124.81 -1.82 M281.39 129 C227.83 82.43, 174.26 35.86, 131.21 -1.56 M281.39 129 C221.57 76.99, 161.75 24.99, 131.21 -1.56 M283.26 125.32 C241.93 89.39, 200.59 53.45, 136.85 -1.95 M283.26 125.32 C231.73 80.52, 180.19 35.72, 136.85 -1.95 M282.87 119.68 C253.87 94.47, 224.86 69.25, 143.25 -1.69 M282.87 119.68 C235.97 78.91, 189.07 38.14, 143.25 -1.69 M283.23 114.69 C251.49 87.1, 219.75 59.51, 149.65 -1.43 M283.23 114.69 C234.04 71.93, 184.84 29.16, 149.65 -1.43 M282.84 109.05 C246.03 77.05, 209.22 45.05, 155.29 -1.83 M282.84 109.05 C255.44 85.23, 228.05 61.42, 155.29 -1.83 M283.2 104.06 C256.4 80.77, 229.61 57.48, 161.69 -1.56 M283.2 104.06 C239.77 66.32, 196.35 28.57, 161.69 -1.56 M282.8 98.42 C240.37 61.53, 197.93 24.64, 167.33 -1.96 M282.8 98.42 C240.9 62, 199 25.57, 167.33 -1.96 M283.16 93.43 C253.67 67.79, 224.18 42.16, 173.73 -1.7 M283.16 93.43 C255.6 69.47, 228.04 45.52, 173.73 -1.7 M282.77 87.79 C261.9 69.65, 241.04 51.51, 180.13 -1.44 M282.77 87.79 C255.32 63.93, 227.88 40.08, 180.13 -1.44 M283.13 82.8 C252.58 56.25, 222.03 29.69, 185.77 -1.83 M283.13 82.8 C259.4 62.18, 235.68 41.56, 185.77 -1.83 M282.73 77.16 C251.45 49.97, 220.17 22.78, 192.17 -1.57 M282.73 77.16 C248.77 47.64, 214.82 18.12, 192.17 -1.57 M283.09 72.17 C251.27 44.51, 219.45 16.85, 197.81 -1.96 M283.09 72.17 C250.33 43.69, 217.57 15.21, 197.81 -1.96 M282.7 66.53 C256.49 43.75, 230.28 20.96, 204.21 -1.7 M282.7 66.53 C259.81 46.63, 236.92 26.73, 204.21 -1.7 M283.06 61.54 C257.13 39, 231.2 16.46, 210.61 -1.44 M283.06 61.54 C255.24 37.36, 227.42 13.17, 210.61 -1.44 M282.66 55.9 C262.77 38.6, 242.87 21.31, 216.25 -1.84 M282.66 55.9 C257.24 33.8, 231.82 11.7, 216.25 -1.84 M283.02 50.91 C266.77 36.79, 250.53 22.66, 222.65 -1.57 M283.02 50.91 C270.15 39.72, 257.27 28.53, 222.65 -1.57 M282.63 45.27 C262.87 28.09, 243.1 10.91, 228.29 -1.97 M282.63 45.27 C262.35 27.64, 242.08 10.02, 228.29 -1.97 M282.99 40.28 C263.74 23.55, 244.49 6.82, 234.69 -1.71 M282.99 40.28 C268.43 27.63, 253.87 14.97, 234.69 -1.71 M283.35 35.29 C273.28 26.54, 263.21 17.79, 241.08 -1.45 M283.35 35.29 C268.69 22.55, 254.03 9.81, 241.08 -1.45 M282.95 29.65 C271.06 19.31, 259.17 8.97, 246.73 -1.84 M282.95 29.65 C270.74 19.03, 258.52 8.41, 246.73 -1.84 M281.8 23.35 C274.99 17.42, 268.17 11.5, 251.62 -2.89 M281.8 23.35 C271.32 14.23, 260.83 5.12, 251.62 -2.89 M280.66 17.05 C274.9 12.05, 269.15 7.05, 263.3 1.96 M280.66 17.05 C275.99 12.99, 271.32 8.94, 263.3 1.96" stroke="#ced4da" stroke-width="0.5" fill="none"></path><path d="M32 0 M32 0 C79.73 0, 127.46 0, 249.3 0 M32 0 C114.08 0, 196.17 0, 249.3 0 M249.3 0 C270.63 0, 281.3 10.67, 281.3 32 M249.3 0 C270.63 0, 281.3 10.67, 281.3 32 M281.3 32 C281.3 68.27, 281.3 104.54, 281.3 127.04 M281.3 32 C281.3 66.5, 281.3 101, 281.3 127.04 M281.3 127.04 C281.3 148.37, 270.63 159.04, 249.3 159.04 M281.3 127.04 C281.3 148.37, 270.63 159.04, 249.3 159.04 M249.3 159.04 C179.42 159.04, 109.53 159.04, 32 159.04 M249.3 159.04 C185.05 159.04, 120.8 159.04, 32 159.04 M32 159.04 C10.67 159.04, 0 148.37, 0 127.04 M32 159.04 C10.67 159.04, 0 148.37, 0 127.04 M0 127.04 C0 100.33, 0 73.62, 0 32 M0 127.04 C0 102.19, 0 77.34, 0 32 M0 32 C0 10.67, 10.67 0, 32 0 M0 32 C0 10.67, 10.67 0, 32 0" stroke="#000000" stroke-width="1" fill="none"></path></g><g transform="translate(768.9572683755134 203.65035205546383) rotate(0 133 32.500000000000014)"><text x="133" y="14.666666666666668" font-family="Virgil, Segoe UI Emoji" font-size="16.79059308141509px" fill="#000000" text-anchor="middle" style="white-space: pre;" direction="ltr">We black-box the interaction</text><text x="133" y="36.333333333333336" font-family="Virgil, Segoe UI Emoji" font-size="16.79059308141509px" fill="#000000" text-anchor="middle" style="white-space: pre;" direction="ltr">between Flex (lexical analysis) </text><text x="133" y="58" font-family="Virgil, Segoe UI Emoji" font-size="16.79059308141509px" fill="#000000" text-anchor="middle" style="white-space: pre;" direction="ltr">and Bison (syntactical analysis)</text></g><g transform="translate(43.93691355553233 729.9219175788185) rotate(0 293 20)"><text x="0" y="14" font-family="Virgil, Segoe UI Emoji" font-size="16px" fill="#000000" text-anchor="start" style="white-space: pre;" direction="ltr">- Create new node of type 'FUNCTION', and add child nodes to this node</text><text x="0" y="34" font-family="Virgil, Segoe UI Emoji" font-size="16px" fill="#000000" text-anchor="start" style="white-space: pre;" direction="ltr">- This is done for all recognized grammar in the .vsl language</text></g><g stroke-linecap="round" transform="translate(726.2968187276631 570.7461451645396) rotate(0 164.65280611602157 59.16307078970419)"><path d="M29.58 0 M29.58 0 C98.52 -2.09, 170.13 -2.73, 299.72 0 M29.58 0 C130.75 -1.54, 232.65 -1.72, 299.72 0 M299.72 0 C318.44 1.39, 330.63 8.56, 329.31 29.58 M299.72 0 C318.02 -0.97, 327.74 8.29, 329.31 29.58 M329.31 29.58 C329.44 48.59, 329.51 69.17, 329.31 88.74 M329.31 29.58 C328.1 49.73, 328.8 69.4, 329.31 88.74 M329.31 88.74 C328.47 108.89, 317.78 118.94, 299.72 118.33 M329.31 88.74 C327.38 110.27, 320.35 116.49, 299.72 118.33 M299.72 118.33 C194.07 119.77, 90.25 119.73, 29.58 118.33 M299.72 118.33 C223.81 119.15, 149.38 119.61, 29.58 118.33 M29.58 118.33 C9.77 118.89, -0.42 108.97, 0 88.74 M29.58 118.33 C8 119.93, 1.07 107.3, 0 88.74 M0 88.74 C-2.41 72.79, -1.52 54.94, 0 29.58 M0 88.74 C-0.59 71.42, -0.92 53.12, 0 29.58 M0 29.58 C1.92 10.07, 8.64 0.79, 29.58 0 M0 29.58 C0.66 10.12, 9.27 0.28, 29.58 0" stroke="#2b8a3e" stroke-width="1" fill="none"></path></g><g transform="translate(868.6357611827382 544.2572545227807) rotate(0 22 10)"><text x="0" y="14" font-family="Virgil, Segoe UI Emoji" font-size="16px" fill="#2b8a3e" text-anchor="start" style="white-space: pre;" direction="ltr">vslc.c</text></g><g transform="translate(736.1450938834698 580.8700233507551) rotate(0 155 49)"><text x="0" y="15.600000000000001" font-family="Cascadia, Segoe UI Emoji" font-size="16px" fill="#000000" text-anchor="start" style="white-space: pre;" direction="ltr">int main(int argc, char **argv) {</text><text x="0" y="35.2" font-family="Cascadia, Segoe UI Emoji" font-size="16px" fill="#000000" text-anchor="start" style="white-space: pre;" direction="ltr">    ...</text><text x="0" y="54.800000000000004" font-family="Cascadia, Segoe UI Emoji" font-size="16px" fill="#000000" text-anchor="start" style="white-space: pre;" direction="ltr">    print_syntax_tree();</text><text x="0" y="74.4" font-family="Cascadia, Segoe UI Emoji" font-size="16px" fill="#000000" text-anchor="start" style="white-space: pre;" direction="ltr">    ...</text><text x="0" y="94" font-family="Cascadia, Segoe UI Emoji" font-size="16px" fill="#000000" text-anchor="start" style="white-space: pre;" direction="ltr">}</text></g><g transform="translate(745.906864739459 693.9280333652281) rotate(0 133 20)"><text x="0" y="14" font-family="Virgil, Segoe UI Emoji" font-size="16px" fill="#000000" text-anchor="start" style="white-space: pre;" direction="ltr">- Print nodes in the syntax tree </text><text x="0" y="34" font-family="Virgil, Segoe UI Emoji" font-size="16px" fill="#000000" text-anchor="start" style="white-space: pre;" direction="ltr">in a structured manner</text></g><g transform="translate(1292.624684806485 447.90755382629675) rotate(0 34.5 10)"><text x="0" y="14" font-family="Virgil, Segoe UI Emoji" font-size="16px" fill="#1864ab" text-anchor="start" style="white-space: pre;" direction="ltr">hello.ast</text></g><g transform="translate(1138.882458442254 484.92608139287586) rotate(0 183.5 146.5)"><text x="0" y="15.533333333333335" font-family="Cascadia, Segoe UI Emoji" font-size="16px" fill="#000000" text-anchor="start" style="white-space: pre;" direction="ltr">PROGRAM</text><text x="0" y="35.06666666666667" font-family="Cascadia, Segoe UI Emoji" font-size="16px" fill="#000000" text-anchor="start" style="white-space: pre;" direction="ltr"> GLOBAL_LIST</text><text x="0" y="54.60000000000001" font-family="Cascadia, Segoe UI Emoji" font-size="16px" fill="#000000" text-anchor="start" style="white-space: pre;" direction="ltr">  GLOBAL</text><text x="0" y="74.13333333333334" font-family="Cascadia, Segoe UI Emoji" font-size="16px" fill="#000000" text-anchor="start" style="white-space: pre;" direction="ltr">   FUNCTION</text><text x="0" y="93.66666666666667" font-family="Cascadia, Segoe UI Emoji" font-size="16px" fill="#000000" text-anchor="start" style="white-space: pre;" direction="ltr">    IDENTIFIER_DATA(main)</text><text x="0" y="113.20000000000002" font-family="Cascadia, Segoe UI Emoji" font-size="16px" fill="#000000" text-anchor="start" style="white-space: pre;" direction="ltr">    PARAMETER_LIST</text><text x="0" y="132.73333333333335" font-family="Cascadia, Segoe UI Emoji" font-size="16px" fill="#000000" text-anchor="start" style="white-space: pre;" direction="ltr">    STATEMENT</text><text x="0" y="152.26666666666668" font-family="Cascadia, Segoe UI Emoji" font-size="16px" fill="#000000" text-anchor="start" style="white-space: pre;" direction="ltr">     BLOCK</text><text x="0" y="171.8" font-family="Cascadia, Segoe UI Emoji" font-size="16px" fill="#000000" text-anchor="start" style="white-space: pre;" direction="ltr">      STATEMENT_LIST</text><text x="0" y="191.33333333333334" font-family="Cascadia, Segoe UI Emoji" font-size="16px" fill="#000000" text-anchor="start" style="white-space: pre;" direction="ltr">       STATEMENT</text><text x="0" y="210.86666666666667" font-family="Cascadia, Segoe UI Emoji" font-size="16px" fill="#000000" text-anchor="start" style="white-space: pre;" direction="ltr">        PRINT_STATEMENT</text><text x="0" y="230.40000000000003" font-family="Cascadia, Segoe UI Emoji" font-size="16px" fill="#000000" text-anchor="start" style="white-space: pre;" direction="ltr">         PRINT_LIST</text><text x="0" y="249.93333333333337" font-family="Cascadia, Segoe UI Emoji" font-size="16px" fill="#000000" text-anchor="start" style="white-space: pre;" direction="ltr">          PRINT_ITEM</text><text x="0" y="269.4666666666667" font-family="Cascadia, Segoe UI Emoji" font-size="16px" fill="#000000" text-anchor="start" style="white-space: pre;" direction="ltr">           STRING_DATA("Hello, World!")</text><text x="0" y="289" font-family="Cascadia, Segoe UI Emoji" font-size="16px" fill="#000000" text-anchor="start" style="white-space: pre;" direction="ltr"></text></g><g stroke-linecap="round" transform="translate(1125.65714211126 474.9688719297286) rotate(0 196.39759561016547 149.3979270072815)"><path d="M32 0 M32 0 C142.59 1.37, 253.61 -0.32, 360.8 0 M32 0 C135.48 0.48, 240.41 0.88, 360.8 0 M360.8 0 C380.68 -1.66, 392.35 10.52, 392.8 32 M360.8 0 C382.21 1.45, 394.3 9.08, 392.8 32 M392.8 32 C389.31 84.92, 392.35 138.45, 392.8 266.8 M392.8 32 C393.69 97.23, 393.85 163.12, 392.8 266.8 M392.8 266.8 C391.45 290.11, 382.54 298.99, 360.8 298.8 M392.8 266.8 C393.84 288.03, 383.52 297.38, 360.8 298.8 M360.8 298.8 C250.89 299.55, 144.05 299.91, 32 298.8 M360.8 298.8 C286.46 298.98, 212.22 299.32, 32 298.8 M32 298.8 C10.62 298.14, -0.62 287.67, 0 266.8 M32 298.8 C8.61 297.91, -1.42 286.07, 0 266.8 M0 266.8 C2.28 175.85, 1.7 84.8, 0 32 M0 266.8 C1.62 178.76, 1.21 90.86, 0 32 M0 32 C-0.63 10, 11.68 1.1, 32 0 M0 32 C-0.79 10.16, 9.76 1.52, 32 0" stroke="#1864ab" stroke-width="1" fill="none"></path></g><g transform="translate(1140.0629331346156 779.7634096259843) rotate(0 160.5 20)"><text x="0" y="14" font-family="Virgil, Segoe UI Emoji" font-size="16px" fill="#000000" text-anchor="start" style="white-space: pre;" direction="ltr">- Represents the syntactical structure </text><text x="0" y="34" font-family="Virgil, Segoe UI Emoji" font-size="16px" fill="#000000" text-anchor="start" style="white-space: pre;" direction="ltr">of the hello.vsl file</text></g><g transform="translate(1155.0146602070458 293.99816485842587) rotate(0 132 30)"><text x="0" y="14" font-family="Virgil, Segoe UI Emoji" font-size="16px" fill="#000000" text-anchor="start" style="white-space: pre;" direction="ltr">- Convert the string "func" to a </text><text x="0" y="34" font-family="Virgil, Segoe UI Emoji" font-size="16px" fill="#000000" text-anchor="start" style="white-space: pre;" direction="ltr">recognized token FUNC</text><text x="0" y="54" font-family="Virgil, Segoe UI Emoji" font-size="16px" fill="#000000" text-anchor="start" style="white-space: pre;" direction="ltr">- A token is just an enum</text></g><g stroke-linecap="round"><g transform="translate(247.5453961585319 239.5189072222153) rotate(0 47.352033207680506 -1.7488201875409288)"><path d="M0 0 C15.78 -0.58, 78.92 -2.91, 94.7 -3.5 M0 0 C15.78 -0.58, 78.92 -2.91, 94.7 -3.5" stroke="#000000" stroke-width="1" fill="none"></path></g><g transform="translate(247.5453961585319 239.5189072222153) rotate(0 47.352033207680506 -1.7488201875409288)"><path d="M66.91 7.8 C77.61 3.45, 88.31 -0.9, 94.7 -3.5 M66.91 7.8 C72.76 5.42, 78.61 3.04, 94.7 -3.5" stroke="#000000" stroke-width="1" fill="none"></path></g><g transform="translate(247.5453961585319 239.5189072222153) rotate(0 47.352033207680506 -1.7488201875409288)"><path d="M66.15 -12.71 C77.15 -9.16, 88.14 -5.62, 94.7 -3.5 M66.15 -12.71 C72.16 -10.77, 78.18 -8.83, 94.7 -3.5" stroke="#000000" stroke-width="1" fill="none"></path></g></g><mask></mask><g stroke-linecap="round"><g transform="translate(703.078341829741 236.93899541124964) rotate(0 23.989788346459363 0)"><path d="M0 0 C8 0, 39.98 0, 47.98 0 M0 0 C8 0, 39.98 0, 47.98 0" stroke="#000000" stroke-width="1" fill="none"></path></g><g transform="translate(703.078341829741 236.93899541124964) rotate(0 23.989788346459363 0)"><path d="M25.44 8.2 C33 5.45, 40.57 2.7, 47.98 0 M25.44 8.2 C32.18 5.75, 38.93 3.29, 47.98 0" stroke="#000000" stroke-width="1" fill="none"></path></g><g transform="translate(703.078341829741 236.93899541124964) rotate(0 23.989788346459363 0)"><path d="M25.44 -8.2 C33 -5.45, 40.57 -2.7, 47.98 0 M25.44 -8.2 C32.18 -5.75, 38.93 -3.29, 47.98 0" stroke="#000000" stroke-width="1" fill="none"></path></g></g><mask></mask><g stroke-linecap="round"><g transform="translate(1062.8132204178726 243.65746626866004) rotate(0 44.143020393441816 0.5107685705712868)"><path d="M0 0 C14.71 0.17, 73.57 0.85, 88.29 1.02 M0 0 C14.71 0.17, 73.57 0.85, 88.29 1.02" stroke="#000000" stroke-width="1" fill="none"></path></g><g transform="translate(1062.8132204178726 243.65746626866004) rotate(0 44.143020393441816 0.5107685705712868)"><path d="M59.98 10.96 C67.61 8.28, 75.25 5.6, 88.29 1.02 M59.98 10.96 C69.33 7.68, 78.67 4.4, 88.29 1.02" stroke="#000000" stroke-width="1" fill="none"></path></g><g transform="translate(1062.8132204178726 243.65746626866004) rotate(0 44.143020393441816 0.5107685705712868)"><path d="M60.22 -9.56 C67.79 -6.71, 75.36 -3.85, 88.29 1.02 M60.22 -9.56 C69.48 -6.07, 78.75 -2.57, 88.29 1.02" stroke="#000000" stroke-width="1" fill="none"></path></g></g><mask></mask><g stroke-linecap="round"><g transform="translate(1288.1972207721033 365.4619521845801) rotate(0 -469.4521986928044 69.77813431765239)"><path d="M4.82 0 C-13.56 8.25, 36.01 39.92, -105.43 49.49 C-246.86 59.05, -704.1 42.37, -843.81 57.38 C-983.53 72.39, -927.07 125.86, -943.72 139.56 M4.82 0 C-13.56 8.25, 36.01 39.92, -105.43 49.49 C-246.86 59.05, -704.1 42.37, -843.81 57.38 C-983.53 72.39, -927.07 125.86, -943.72 139.56" stroke="#000000" stroke-width="1" fill="none"></path></g><g transform="translate(1288.1972207721033 365.4619521845801) rotate(0 -469.4521986928044 69.77813431765239)"><path d="M-950.54 110.34 C-948.81 117.76, -947.08 125.18, -943.72 139.56 M-950.54 110.34 C-948.76 118, -946.97 125.66, -943.72 139.56" stroke="#000000" stroke-width="1" fill="none"></path></g><g transform="translate(1288.1972207721033 365.4619521845801) rotate(0 -469.4521986928044 69.77813431765239)"><path d="M-930.17 112.79 C-933.61 119.59, -937.05 126.38, -943.72 139.56 M-930.17 112.79 C-933.72 119.81, -937.27 126.82, -943.72 139.56" stroke="#000000" stroke-width="1" fill="none"></path></g></g><mask></mask><g stroke-linecap="round"><g transform="translate(671.3112512400384 634.3078943902474) rotate(0 22.78176280835953 -0.07580289455285083)"><path d="M0 0 C7.59 -0.03, 37.97 -0.13, 45.56 -0.15 M0 0 C7.59 -0.03, 37.97 -0.13, 45.56 -0.15" stroke="#000000" stroke-width="1" fill="none"></path></g><g transform="translate(671.3112512400384 634.3078943902474) rotate(0 22.78176280835953 -0.07580289455285083)"><path d="M24.18 7.71 C29.85 5.63, 35.52 3.54, 45.56 -0.15 M24.18 7.71 C30.54 5.37, 36.89 3.04, 45.56 -0.15" stroke="#000000" stroke-width="1" fill="none"></path></g><g transform="translate(671.3112512400384 634.3078943902474) rotate(0 22.78176280835953 -0.07580289455285083)"><path d="M24.13 -7.87 C29.81 -5.83, 35.49 -3.78, 45.56 -0.15 M24.13 -7.87 C30.5 -5.58, 36.87 -3.28, 45.56 -0.15" stroke="#000000" stroke-width="1" fill="none"></path></g></g><mask></mask><g stroke-linecap="round"><g transform="translate(1064.0495527014355 630.1595740188749) rotate(0 28.54569458603163 -0.09793677381685484)"><path d="M0 0 C9.52 -0.03, 47.58 -0.16, 57.09 -0.2 M0 0 C9.52 -0.03, 47.58 -0.16, 57.09 -0.2" stroke="#000000" stroke-width="1" fill="none"></path></g><g transform="translate(1064.0495527014355 630.1595740188749) rotate(0 28.54569458603163 -0.09793677381685484)"><path d="M30.3 9.66 C38.77 6.54, 47.23 3.43, 57.09 -0.2 M30.3 9.66 C37.64 6.96, 44.97 4.26, 57.09 -0.2" stroke="#000000" stroke-width="1" fill="none"></path></g><g transform="translate(1064.0495527014355 630.1595740188749) rotate(0 28.54569458603163 -0.09793677381685484)"><path d="M30.23 -9.87 C38.72 -6.81, 47.21 -3.75, 57.09 -0.2 M30.23 -9.87 C37.59 -7.22, 44.94 -4.57, 57.09 -0.2" stroke="#000000" stroke-width="1" fill="none"></path></g></g><mask></mask></svg>